<svg xmlns="http://www.w3.org/2000/svg" viewBox="0 0 300 300" width="300" height="300">
  <path d="M 298.02 158.05 L 297.44 159.43 L 296.34 159.97 L 296.36 160.94 L 294.77 160.54 L 294.85 161.14 L 292.59 162.13 L 291.46 162.15 L 289.95 163.16 L 287.08 162.54 L 287.19 161.81 L 285.76 162.21 L 285.54 163.06 L 282.40 162.01 L 280.30 163.06 L 279.95 161.06 L 279.20 163.06 L 277.41 163.61 L 275.87 163.16 L 276.06 162.68 L 274.68 162.60 L 272.59 161.49 L 272.26 161.77 L 269.89 161.87 L 269.62 162.25 L 269.01 160.68 L 269.23 162.31 L 270.36 163.04 L 268.87 164.40 L 267.69 165.02 L 267.39 165.99 L 268.40 165.61 L 269.81 165.91 L 271.54 165.73 L 274.22 166.17 L 273.72 166.90 L 278.35 167.10 L 279.15 166.62 L 280.74 166.92 L 280.19 167.73 L 281.16 167.63 L 281.87 166.36 L 283.31 166.19 L 285.07 165.28 L 285.81 165.37 L 285.90 166.31 L 284.96 166.70 L 285.59 167.32 L 283.31 169.57 L 282.43 169.12 L 279.62 170.05 L 277.88 170.34 L 277.11 170.96 L 276.83 170.31 L 275.98 171.06 L 274.60 171.12 L 273.89 170.48 L 272.51 170.90 L 272.07 171.79 L 271.43 171.53 L 270.19 172.48 L 268.74 172.56 L 269.15 173.00 L 273.25 171.93 L 275.15 171.93 L 277.55 171.30 L 279.59 171.49 L 281.38 170.92 L 284.44 172.13 L 283.44 173.41 L 282.98 173.33 L 281.82 176.09 L 280.30 175.95 L 279.89 176.88 L 278.27 177.73 L 278.02 175.93 L 276.83 176.98 L 274.30 178.07 L 273.78 178.82 L 275.70 178.76 L 274.46 179.97 L 273.67 179.87 L 271.88 181.02 L 271.49 181.71 L 269.34 182.48 L 268.96 183.59 L 267.44 183.89 L 264.49 185.25 L 264.80 183.77 L 263.83 184.13 L 263.89 185.14 L 262.76 185.31 L 263.53 186.15 L 262.54 187.35 L 263.06 188.05 L 261.27 188.46 L 261.66 189.65 L 260.53 190.16 L 260.53 188.74 L 259.70 189.12 L 258.90 187.59 L 258.87 186.60 L 257.80 186.98 L 256.28 185.16 L 257.22 183.73 L 257.22 182.96 L 256.26 183.93 L 254.93 183.77 L 255.71 185.10 L 256.26 187.93 L 256.23 189.04 L 255.02 190.74 L 254.55 189.93 L 254.03 191.12 L 254.19 191.95 L 255.35 190.66 L 255.87 189.31 L 257.00 188.62 L 255.95 189.93 L 258.07 188.09 L 258.82 189.47 L 257.83 192.76 L 258.93 193.53 L 258.41 195.47 L 257.36 196.62 L 255.68 197.21 L 255.24 198.22 L 253.89 199.33 L 250.42 200.50 L 251.60 201.49 L 249.87 203.29 L 250.31 204.90 L 249.32 205.51 L 248.79 204.94 L 247.94 205.29 L 247.99 203.67 L 247.55 204.54 L 247.80 206.40 L 246.78 207.05 L 246.09 206.80 L 244.14 209.33 L 242.40 210.08 L 241.66 210.02 L 239.15 211.69 L 237.66 212.16 L 236.59 213.77 L 234.28 214.66 L 233.04 215.87 L 234.11 216.54 L 234.72 217.65 L 233.81 218.70 L 233.75 219.57 L 232.71 221.13 L 233.04 221.73 L 232.10 222.87 L 233.28 223.27 L 234.83 222.87 L 232.49 226.28 L 231.58 225.73 L 230.89 227.47 L 229.59 226.68 L 228.85 227.31 L 229.48 228.66 L 229.07 229.39 L 228.05 229.11 L 227.33 229.55 L 226.62 231.47 L 224.17 231.84 L 225.24 233.09 L 224.55 232.95 L 223.28 233.82 L 223.04 233.23 L 223.81 232.06 L 222.49 233.17 L 222.18 232.77 L 224.11 228.12 L 223.23 228.10 L 223.17 229.09 L 222.40 229.73 L 222.24 232.02 L 221.58 231.82 L 221.52 233.41 L 220.70 233.45 L 220.03 234.40 L 219.21 237.03 L 217.86 238.10 L 215.88 238.89 L 216.76 239.31 L 215.38 240.32 L 214.83 238.54 L 215.27 237.39 L 214.25 238.52 L 215.13 239.98 L 214.47 240.36 L 213.56 238.48 L 214.17 240.75 L 213.75 241.55 L 210.56 243.63 L 213.34 242.06 L 214.50 242.08 L 214.66 241.43 L 215.90 241.45 L 215.10 242.24 L 215.27 243.94 L 213.75 245.94 L 213.34 245.74 L 214.19 244.36 L 213.34 244.54 L 212.24 245.84 L 210.72 245.19 L 208.69 246.26 L 206.04 245.01 L 206.26 243.63 L 205.46 242.56 L 206.23 241.11 L 206.65 239.37 L 203.12 244.65 L 203.95 244.10 L 205.02 244.73 L 205.13 246.81 L 206.04 247.37 L 205.10 248.36 L 203.89 248.56 L 202.13 247.92 L 202.60 247.03 L 201.44 246.48 L 199.32 249.74 L 197.14 250.06 L 197.67 251.49 L 194.53 254.24 L 193.84 253.70 L 192.08 253.96 L 191.72 253.45 L 190.70 253.86 L 191.83 256.00 L 190.48 254.97 L 189.98 255.76 L 189.07 254.75 L 189.10 255.64 L 187.94 255.51 L 187.31 256.04 L 189.49 256.36 L 190.97 257.41 L 190.97 256.59 L 192.76 257.13 L 191.39 258.36 L 190.31 258.71 L 191.00 259.13 L 190.20 260.24 L 189.18 262.53 L 187.61 263.58 L 186.02 263.64 L 186.73 263.01 L 186.07 261.66 L 183.15 258.34 L 182.21 258.61 L 183.56 260.51 L 185.00 260.95 L 186.32 262.61 L 185.80 263.74 L 186.65 264.00 L 186.13 265.78 L 187.64 266.26 L 186.62 266.77 L 187.45 268.06 L 185.41 268.49 L 186.59 268.61 L 186.07 269.23 L 184.89 269.35 L 184.20 268.65 L 183.32 268.87 L 184.23 269.48 L 183.98 270.73 L 182.55 270.61 L 183.23 269.03 L 182.68 267.76 L 183.48 265.74 L 183.07 265.13 L 182.21 266.14 L 181.83 265.31 L 182.16 264.06 L 182.71 264.34 L 182.49 263.01 L 183.10 262.30 L 181.11 262.30 L 180.86 263.09 L 181.86 264.28 L 180.23 266.16 L 180.84 266.69 L 179.71 268.77 L 177.64 268.16 L 178.41 268.87 L 178.91 270.18 L 178.11 269.92 L 177.94 271.46 L 177.34 272.26 L 176.10 272.12 L 175.49 269.60 L 174.86 269.11 L 175.41 270.59 L 174.56 270.99 L 174.80 271.64 L 173.79 271.62 L 173.76 270.47 L 173.15 270.63 L 170.76 268.95 L 169.54 269.25 L 168.99 270.20 L 168.41 268.97 L 169.65 266.34 L 168.74 266.93 L 168.03 266.65 L 167.28 264.67 L 168.41 262.67 L 169.19 262.06 L 170.51 262.65 L 169.96 261.76 L 171.00 261.27 L 169.71 260.63 L 170.78 259.68 L 170.51 258.85 L 171.20 258.46 L 170.51 257.70 L 169.35 257.49 L 170.40 257.01 L 168.99 255.37 L 168.41 253.41 L 167.73 252.95 L 167.01 251.33 L 165.77 249.84 L 164.78 250.65 L 166.84 252.24 L 167.51 253.53 L 166.95 254.18 L 167.78 254.97 L 167.92 255.96 L 166.79 255.90 L 165.77 256.61 L 167.34 258.04 L 167.26 259.23 L 166.16 259.09 L 167.15 259.82 L 166.71 260.26 L 167.12 261.45 L 166.60 261.80 L 166.95 263.11 L 165.58 263.64 L 166.29 265.15 L 165.16 265.80 L 163.02 265.25 L 162.38 266.28 L 163.70 267.37 L 163.68 268.02 L 162.38 267.52 L 161.67 265.78 L 161.11 265.52 L 160.15 266.81 L 159.10 267.23 L 160.51 268.04 L 159.52 269.56 L 158.44 269.68 L 159.68 270.77 L 160.29 272.49 L 161.22 273.07 L 159.65 273.25 L 160.23 274.30 L 159.96 275.38 L 157.75 275.74 L 158.39 276.61 L 157.70 277.40 L 156.87 277.01 L 156.87 275.82 L 156.02 275.01 L 155.33 275.38 L 154.31 277.92 L 153.07 278.39 L 153.13 277.82 L 151.75 278.06 L 150.07 277.66 L 151.36 277.44 L 150.29 276.91 L 149.10 277.15 L 150.43 277.90 L 148.47 278.39 L 147.76 277.31 L 146.79 277.36 L 146.60 279.09 L 144.28 279.11 L 145.00 277.96 L 143.27 276.61 L 142.22 277.80 L 141.83 278.85 L 141.01 278.75 L 141.47 276.93 L 140.43 277.05 L 139.55 278.51 L 137.59 278.08 L 138.33 279.80 L 137.45 278.81 L 136.08 278.93 L 136.52 279.76 L 135.44 280.35 L 135.61 280.83 L 134.37 281.40 L 133.21 280.37 L 132.94 278.30 L 132.30 277.98 L 131.45 275.60 L 132.80 277.03 L 133.02 277.86 L 133.90 277.17 L 132.47 276.26 L 132.44 275.60 L 129.96 273.17 L 130.73 276.12 L 132.00 277.52 L 131.42 278.10 L 133.57 281.62 L 132.74 282.12 L 130.84 281.96 L 131.78 282.47 L 131.09 283.17 L 130.48 282.77 L 129.00 282.97 L 130.90 283.72 L 129.77 284.89 L 130.46 286.10 L 130.21 286.83 L 128.12 285.98 L 129.71 288.02 L 127.62 287.86 L 125.31 286.83 L 125.50 283.03 L 125.31 282.53 L 123.96 282.59 L 124.81 283.72 L 124.40 285.88 L 125.50 287.05 L 124.09 287.72 L 125.58 288.20 L 124.67 288.89 L 123.40 288.27 L 121.37 288.99 L 119.22 289.01 L 118.23 288.71 L 114.84 289.07 L 114.78 289.56 L 112.80 289.11 L 113.24 288.83 L 113.21 286.91 L 112.47 287.62 L 111.89 286.99 L 109.36 287.03 L 109.00 286.55 L 106.13 287.86 L 106.19 286.39 L 105.33 285.56 L 106.24 284.73 L 107.65 284.24 L 105.50 283.44 L 104.43 282.35 L 103.76 282.61 L 106.13 284.97 L 103.68 285.34 L 104.95 285.98 L 103.43 285.72 L 105.56 286.75 L 103.35 287.66 L 103.54 288.51 L 104.59 287.80 L 105.58 288.41 L 105.06 288.93 L 103.19 288.85 L 102.00 287.90 L 99.61 286.87 L 99.41 286.31 L 96.80 285.56 L 96.30 285.03 L 96.38 283.84 L 95.75 284.10 L 95.31 282.67 L 94.70 283.13 L 94.98 286.04 L 92.03 285.19 L 90.71 285.76 L 90.65 283.11 L 91.20 281.88 L 90.05 281.23 L 89.77 282.22 L 88.70 282.24 L 87.60 281.60 L 87.65 282.83 L 86.41 283.86 L 85.39 283.74 L 85.53 284.79 L 84.24 284.53 L 82.50 282.83 L 82.78 281.84 L 81.54 281.60 L 81.09 280.26 L 80.63 280.95 L 80.49 283.40 L 79.94 282.55 L 78.84 282.67 L 78.29 283.90 L 77.65 283.42 L 77.98 285.05 L 77.49 285.56 L 77.02 284.47 L 77.35 283.03 L 76.36 283.07 L 75.64 283.98 L 75.94 284.87 L 75.45 285.96 L 73.74 283.27 L 73.91 285.64 L 74.84 287.36 L 74.37 289.13 L 73.69 290.14 L 71.54 292.18 L 70.49 292.49 L 69.80 292.06 L 68.97 293.76 L 66.77 292.41 L 66.17 290.81 L 67.07 289.58 L 67.10 286.65 L 67.90 285.27 L 69.64 283.21 L 71.76 281.44 L 73.99 280.69 L 75.67 279.07 L 77.90 278.00 L 78.06 279.13 L 77.24 280.85 L 78.06 281.52 L 78.92 279.98 L 78.67 279.27 L 79.77 277.60 L 80.52 274.10 L 80.41 272.97 L 81.98 271.64 L 82.09 269.84 L 81.59 268.69 L 81.67 267.41 L 80.85 267.17 L 81.34 270.45 L 81.01 271.42 L 79.83 271.70 L 78.34 273.66 L 78.01 274.71 L 78.48 276.32 L 77.93 277.80 L 77.02 278.18 L 75.72 277.64 L 73.82 276.12 L 73.49 277.13 L 73.82 278.59 L 73.13 278.81 L 72.67 277.48 L 72.58 278.61 L 70.71 280.43 L 70.02 279.66 L 68.97 280.95 L 68.40 280.51 L 67.60 282.14 L 65.01 284.61 L 62.20 285.42 L 60.90 283.98 L 61.29 283.34 L 60.88 282.39 L 62.25 281.94 L 64.48 280.14 L 64.57 278.81 L 63.80 277.82 L 65.04 277.05 L 64.57 275.94 L 66.05 274.45 L 67.18 272.77 L 69.22 270.85 L 69.39 269.90 L 67.74 269.39 L 67.74 270.55 L 66.33 270.63 L 65.48 273.58 L 64.07 273.64 L 64.40 274.89 L 62.94 276.97 L 62.47 276.81 L 61.79 278.53 L 61.26 278.14 L 60.79 280.91 L 59.64 280.85 L 59.64 281.60 L 58.48 281.92 L 57.96 281.11 L 57.41 281.84 L 56.88 280.22 L 57.90 279.11 L 59.22 278.55 L 57.93 278.59 L 57.38 277.31 L 59.33 276.59 L 59.42 275.98 L 57.96 276.51 L 56.72 276.41 L 56.96 275.21 L 58.65 274.14 L 59.20 273.09 L 58.76 272.49 L 58.34 273.64 L 57.30 273.29 L 56.14 274.47 L 55.59 276.55 L 54.76 277.84 L 52.72 278.02 L 54.76 277.29 L 53.96 275.84 L 53.05 275.90 L 53.25 276.73 L 51.95 276.59 L 51.76 276.06 L 50.60 276.43 L 49.14 275.54 L 48.92 276.02 L 46.33 274.97 L 44.76 273.84 L 46.97 272.81 L 48.51 272.75 L 48.10 272.34 L 51.10 270.08 L 53.80 268.67 L 58.09 269.33 L 58.84 270.99 L 59.50 270.63 L 59.61 269.56 L 60.41 269.92 L 60.77 269.27 L 63.25 269.27 L 64.18 268.63 L 66.85 267.82 L 66.17 266.40 L 67.74 266.69 L 68.23 266.34 L 66.19 265.48 L 64.93 265.90 L 62.23 267.82 L 60.44 268.26 L 56.36 268.12 L 55.70 267.62 L 53.93 267.39 L 52.42 266.34 L 52.28 265.29 L 48.78 263.96 L 47.85 262.53 L 47.13 260.28 L 48.34 259.23 L 50.57 257.88 L 51.35 256.81 L 50.38 256.20 L 50.02 257.84 L 48.21 258.18 L 46.61 259.88 L 45.40 259.98 L 45.59 258.55 L 42.89 258.59 L 43.74 260.30 L 44.43 260.71 L 44.76 262.14 L 43.99 263.56 L 46.17 264.87 L 48.48 265.60 L 50.22 267.35 L 49.61 269.35 L 49.03 270.08 L 47.60 269.98 L 46.08 271.70 L 44.43 271.80 L 41.43 270.34 L 39.50 271.52 L 38.40 271.48 L 38.40 268.49 L 37.88 268.08 L 39.06 265.52 L 38.90 263.35 L 39.69 262.51 L 38.76 261.92 L 38.04 260.46 L 38.48 260.06 L 38.65 258.38 L 39.12 257.92 L 38.10 257.45 L 37.27 259.68 L 37.74 260.97 L 37.21 261.47 L 37.68 262.63 L 37.68 265.98 L 37.19 267.05 L 36.66 266.57 L 36.14 267.96 L 37.46 267.74 L 38.34 270.22 L 36.36 272.81 L 37.08 272.36 L 38.10 273.82 L 38.40 272.85 L 37.85 272.14 L 39.23 271.72 L 39.50 273.21 L 41.35 273.44 L 42.15 274.14 L 44.07 273.96 L 44.05 275.58 L 43.22 275.17 L 42.48 276.14 L 40.66 276.55 L 41.13 276.95 L 43.00 276.22 L 44.87 275.90 L 45.59 277.42 L 44.54 277.82 L 45.48 279.05 L 43.99 279.62 L 43.44 279.01 L 42.53 279.50 L 42.97 280.18 L 42.37 280.91 L 41.73 279.38 L 40.74 278.10 L 40.00 279.07 L 37.93 278.79 L 36.14 279.66 L 36.25 278.87 L 35.42 278.49 L 33.77 278.79 L 31.62 278.55 L 30.25 277.40 L 28.95 277.29 L 27.88 278.95 L 26.33 278.32 L 25.78 277.07 L 26.11 276.57 L 25.51 275.42 L 24.30 274.93 L 23.52 275.80 L 22.70 274.99 L 22.92 273.82 L 20.96 272.73 L 19.17 270.85 L 19.01 270.18 L 20.63 269.19 L 21.54 269.17 L 23.39 267.82 L 23.66 266.53 L 24.79 265.33 L 24.68 264.59 L 25.76 263.25 L 25.59 262.57 L 25.89 259.70 L 28.35 259.58 L 29.64 260.16 L 30.80 259.76 L 32.64 259.70 L 31.65 257.90 L 31.51 256.95 L 33.25 256.38 L 33.50 255.64 L 35.23 255.19 L 36.88 253.66 L 37.52 253.70 L 38.10 252.44 L 40.13 251.31 L 40.33 250.52 L 42.26 249.23 L 43.99 248.67 L 45.20 247.49 L 46.61 247.07 L 47.82 245.92 L 50.00 245.05 L 52.42 243.76 L 51.76 242.75 L 50.57 244.06 L 48.01 244.81 L 47.49 245.66 L 46.47 245.96 L 45.31 245.33 L 44.90 246.42 L 42.42 246.97 L 41.90 248.46 L 40.60 248.65 L 39.34 250.02 L 37.16 250.83 L 36.88 251.76 L 35.53 252.65 L 34.71 252.14 L 32.89 247.98 L 33.72 246.73 L 32.75 247.35 L 31.73 246.08 L 29.75 245.37 L 29.86 243.49 L 30.85 242.12 L 29.42 241.01 L 30.05 239.43 L 29.78 238.24 L 30.93 238.44 L 29.92 237.33 L 30.30 236.12 L 29.25 235.59 L 29.47 238.36 L 29.94 239.41 L 28.32 239.86 L 29.20 241.43 L 28.76 241.51 L 28.26 245.03 L 29.34 246.36 L 30.30 249.15 L 28.79 249.66 L 28.26 250.28 L 26.86 248.91 L 25.09 249.03 L 19.45 248.24 L 17.49 247.41 L 16.20 247.53 L 16.34 246.91 L 14.54 246.16 L 13.50 246.77 L 11.27 246.34 L 10.14 244.67 L 10.80 244.02 L 9.70 244.16 L 9.45 245.33 L 8.26 245.43 L 7.44 244.65 L 4.88 244.48 L 3.17 243.88 L 1.98 242.87 L 5.04 241.72 L 7.66 240.48 L 7.66 240.48 L 9.59 239.33 L 12.07 238.32 L 15.32 236.58 L 18.02 235.57 L 19.70 234.22 L 21.24 231.27 L 22.75 228.97 L 23.72 228.12 L 24.49 226.22 L 23.22 220.20 L 23.17 218.97 L 24.57 216.54 L 26.61 214.26 L 26.80 212.95 L 25.59 211.96 L 24.96 210.08 L 25.54 209.65 L 24.76 209.01 L 24.76 207.49 L 24.35 206.42 L 23.25 205.19 L 22.40 205.83 L 22.92 204.52 L 22.89 203.07 L 24.74 198.62 L 24.16 197.83 L 24.96 197.45 L 24.82 196.52 L 25.43 195.13 L 24.46 194.03 L 24.60 191.12 L 22.42 189.12 L 23.17 186.82 L 24.02 186.05 L 25.09 183.14 L 21.90 184.82 L 20.52 184.07 L 16.94 182.66 L 13.44 185.75 L 12.04 183.45 L 12.40 182.66 L 10.63 180.56 L 7.36 178.98 L 8.82 176.54 L 11.43 175.18 L 14.41 175.55 L 19.20 174.15 L 21.43 173.08 L 23.75 172.52 L 25.81 170.96 L 25.89 169.59 L 25.26 167.67 L 24.24 165.69 L 21.02 163.18 L 21.29 159.67 L 20.41 158.94 L 19.59 159.38 L 16.86 158.60 L 15.51 158.72 L 17.41 153.00 L 18.87 150.03 L 18.98 148.70 L 20.25 145.91 L 21.29 144.70 L 24.46 139.40 L 24.19 138.80 L 21.62 139.16 L 20.41 138.43 L 19.75 134.27 L 26.91 129.14 L 30.14 121.34 L 33.80 119.83 L 34.18 118.53 L 36.09 116.31 L 39.17 113.38 L 41.59 111.91 L 42.26 109.78 L 51.95 101.14 L 53.74 99.38 L 53.25 97.94 L 53.63 96.45 L 52.23 94.63 L 51.37 94.69 L 51.95 93.18 L 53.22 91.62 L 55.86 90.37 L 55.59 88.87 L 57.27 87.62 L 53.80 86.99 L 48.18 87.48 L 47.21 85.78 L 47.52 75.76 L 45.89 72.53 L 46.61 64.39 L 48.18 61.34 L 49.36 57.09 L 49.94 55.62 L 52.48 50.51 L 53.52 51.52 L 54.65 51.01 L 55.17 51.40 L 55.89 49.96 L 56.50 49.74 L 53.88 47.70 L 51.68 45.33 L 56.00 43.90 L 59.00 42.53 L 63.22 39.45 L 64.35 37.25 L 65.59 36.28 L 64.82 34.55 L 63.55 33.88 L 63.88 32.87 L 63.00 32.12 L 61.70 31.82 L 60.13 30.95 L 59.64 30.22 L 61.34 29.03 L 61.18 25.96 L 62.50 16.40 L 64.57 16.50 L 68.12 18.16 L 69.44 15.29 L 70.46 13.98 L 72.14 12.50 L 73.11 7.09 L 77.05 5.21 L 83.02 4.42 L 84.26 4.06 L 84.59 3.43 L 84.59 3.43 L 86.71 4.70 L 87.38 4.40 L 91.64 6.36 L 93.13 5.92 L 94.92 7.19 L 94.73 7.69 L 95.86 8.44 L 96.24 7.84 L 99.96 9.59 L 99.74 9.88 L 102.25 10.26 L 102.64 7.82 L 103.71 7.33 L 103.13 5.69 L 104.78 6.30 L 107.18 5.82 L 106.74 6.40 L 108.28 7.77 L 109.38 8.12 L 111.28 9.59 L 110.40 10.46 L 113.63 14.62 L 116.66 15.61 L 116.24 16.89 L 118.01 18.18 L 114.34 22.50 L 116.49 28.93 L 121.31 32.89 L 122.30 36.69 L 125.36 39.60 L 119.47 43.62 L 121.06 44.24 L 120.51 45.78 L 117.29 49.42 L 116.88 50.41 L 120.10 52.51 L 122.36 54.20 L 122.50 56.04 L 124.07 59.05 L 123.79 61.09 L 124.31 62.47 L 125.33 61.82 L 127.12 61.58 L 130.10 61.76 L 132.36 62.77 L 134.31 69.07 L 135.22 74.08 L 136.54 75.58 L 137.23 75.70 L 137.84 78.53 L 138.47 79.64 L 140.73 80.97 L 140.15 82.13 L 138.97 82.04 L 137.65 83.20 L 137.07 84.77 L 137.62 85.44 L 136.60 88.11 L 136.32 89.52 L 135.63 90.13 L 136.93 94.15 L 139.60 95.68 L 141.17 97.54 L 143.18 98.73 L 145.47 103.54 L 147.37 105.54 L 149.41 108.51 L 149.35 109.20 L 150.34 110.79 L 150.29 112.15 L 152.82 114.43 L 153.70 117.28 L 156.60 117.89 L 156.27 119.20 L 156.73 121.06 L 158.91 123.24 L 159.35 124.41 L 161.06 125.40 L 163.46 124.88 L 166.13 126.69 L 167.97 127.38 L 171.61 127.66 L 172.44 127.00 L 174.61 126.55 L 176.07 125.50 L 174.80 124.80 L 171.36 124.82 L 170.40 123.60 L 172.19 123.04 L 175.11 121.40 L 178.58 122.03 L 179.71 121.85 L 181.91 123.02 L 184.56 123.91 L 184.91 125.10 L 186.04 126.01 L 189.27 127.79 L 190.20 128.80 L 191.66 129.69 L 193.10 131.56 L 193.26 132.63 L 194.89 133.14 L 196.32 133.12 L 198.91 133.73 L 200.50 133.69 L 204.11 135.04 L 204.22 135.40 L 206.79 136.57 L 209.76 138.23 L 212.40 134.61 L 215.46 132.82 L 218.55 131.32 L 219.59 130.59 L 220.06 131.54 L 221.60 132.88 L 222.98 133.54 L 225.16 137.00 L 225.71 138.15 L 226.84 139.24 L 227.58 140.62 L 227.33 141.22 L 231.08 143.16 L 234.28 144.60 L 235.05 146.35 L 236.29 147.75 L 238.30 147.00 L 240.53 145.67 L 240.75 142.45 L 241.13 142.07 L 240.01 141.54 L 241.66 138.66 L 242.81 137.46 L 243.34 135.52 L 244.91 133.83 L 243.17 132.92 L 241.35 131.38 L 238.08 129.56 L 237.36 128.65 L 238.10 127.66 L 244.08 123.99 L 245.07 122.59 L 245.27 120.88 L 251.90 121.28 L 255.73 121.22 L 261.19 119.99 L 261.79 120.94 L 261.85 122.27 L 262.56 122.73 L 263.01 124.74 L 265.15 130.39 L 268.93 134.03 L 271.16 135.12 L 274.08 137.04 L 277.63 138.55 L 279.84 142.41 L 280.61 145.44 L 280.74 150.66 L 282.34 150.88 L 281.19 152.54 L 284.63 153.81 L 288.95 153.87 L 291.96 157.93 L 293.22 157.04 L 294.32 155.67 L 298.02 158.05 Z M 13.28 249.78 L 13.64 248.91 L 14.82 250.10 L 13.28 249.78 Z M 13.88 251.43 L 13.94 250.61 L 16.06 250.56 L 15.89 252.28 L 14.49 252.32 L 13.88 251.43 Z M 15.76 248.46 L 21.07 249.01 L 23.66 249.68 L 24.74 249.57 L 26.66 251.76 L 27.24 252.95 L 26.86 253.96 L 26.47 256.77 L 25.15 256.12 L 23.44 256.14 L 21.90 255.27 L 21.57 254.08 L 19.34 249.92 L 19.42 251.76 L 20.30 252.38 L 20.03 253.82 L 18.04 254.12 L 16.69 251.62 L 16.83 250.12 L 15.89 249.92 L 15.76 248.46 Z M 28.54 255.41 L 29.03 254.46 L 28.84 251.84 L 29.42 250.91 L 30.58 250.30 L 31.60 251.57 L 31.90 253.33 L 29.78 256.12 L 29.20 256.38 L 28.54 255.41 Z M 39.53 271.64 L 41.40 270.73 L 42.89 271.64 L 42.06 272.51 L 43.25 273.01 L 42.09 273.54 L 40.82 273.07 L 39.53 271.64 Z M 48.04 276.85 L 49.53 276.73 L 51.79 278.04 L 51.35 277.42 L 52.86 277.19 L 51.32 279.15 L 51.29 280.37 L 50.41 279.46 L 50.96 278.77 L 48.04 276.85 Z M 52.94 279.70 L 54.40 279.31 L 54.84 278.75 L 56.28 279.92 L 54.73 280.30 L 52.94 279.70 Z M 53.30 282.81 L 54.24 282.57 L 54.05 283.38 L 53.30 282.81 Z M 54.13 282.04 L 54.35 281.62 L 55.86 282.08 L 56.69 283.64 L 54.95 283.13 L 55.09 282.51 L 54.13 282.04 Z M 55.37 281.09 L 56.33 280.85 L 56.28 281.68 L 55.37 281.09 Z M 61.32 287.36 L 62.75 286.69 L 63.19 287.96 L 61.92 288.27 L 61.32 287.36 Z M 62.09 289.38 L 63.38 288.51 L 63.55 290.12 L 63.08 289.42 L 62.09 289.38 Z M 62.42 280.00 L 62.91 278.97 L 63.52 279.19 L 63.66 280.43 L 62.42 280.00 Z M 63.36 286.45 L 63.77 285.46 L 65.06 284.79 L 64.87 285.56 L 65.70 285.82 L 65.75 288.02 L 64.65 288.31 L 64.90 287.11 L 64.43 286.53 L 64.15 287.68 L 63.36 286.45 Z M 80.08 285.25 L 80.27 284.10 L 80.93 283.82 L 81.21 285.70 L 80.08 285.25 Z M 81.04 283.84 L 81.21 283.32 L 82.25 284.67 L 81.51 285.70 L 81.04 283.84 Z M 82.00 288.85 L 83.35 288.04 L 83.00 290.08 L 82.00 288.85 Z M 88.23 284.02 L 88.23 283.42 L 89.74 282.31 L 90.16 283.29 L 89.66 284.22 L 89.83 285.90 L 89.30 285.68 L 88.23 284.02 Z M 95.67 290.65 L 97.13 290.49 L 96.63 289.90 L 98.04 289.90 L 96.99 288.83 L 97.73 288.35 L 96.69 286.87 L 98.34 287.19 L 100.57 288.81 L 100.24 289.48 L 99.25 289.23 L 100.13 290.10 L 100.51 291.62 L 98.20 290.04 L 97.35 290.61 L 97.48 291.48 L 95.67 290.65 Z M 110.07 288.06 L 110.71 287.13 L 110.98 288.31 L 110.07 288.06 Z M 111.31 291.54 L 112.25 290.97 L 112.03 292.25 L 111.31 291.54 Z M 111.70 295.90 L 111.84 295.20 L 113.08 295.52 L 112.69 296.14 L 111.70 295.90 Z M 112.61 291.50 L 112.66 290.49 L 113.35 289.82 L 114.70 289.86 L 116.74 290.81 L 117.92 291.84 L 115.94 292.02 L 116.19 292.81 L 117.01 292.20 L 117.12 293.62 L 116.02 294.49 L 114.78 294.75 L 115.11 293.82 L 113.71 293.60 L 114.40 292.67 L 113.19 292.59 L 113.52 291.94 L 112.61 291.50 Z M 118.20 296.57 L 119.11 295.34 L 119.41 296.02 L 118.20 296.57 Z M 119.66 292.89 L 120.37 292.39 L 121.50 293.24 L 121.89 292.73 L 122.85 293.38 L 120.57 293.54 L 119.66 292.89 Z M 119.71 291.19 L 120.90 290.81 L 123.35 292.12 L 121.83 292.25 L 119.71 291.19 Z M 119.74 289.46 L 120.54 289.23 L 120.98 289.90 L 119.74 289.46 Z M 120.82 289.30 L 122.08 288.91 L 122.66 290.04 L 121.26 290.12 L 120.82 289.30 Z M 122.88 294.53 L 123.29 293.76 L 124.12 294.18 L 124.20 295.09 L 123.46 295.32 L 122.88 294.53 Z M 134.89 287.64 L 135.50 286.75 L 136.68 288.14 L 135.50 288.35 L 134.89 287.64 Z M 138.58 280.33 L 139.71 279.60 L 139.63 280.35 L 138.58 280.33 Z M 139.68 281.60 L 140.54 280.61 L 140.29 281.90 L 139.68 281.60 Z M 142.27 286.18 L 143.13 286.00 L 143.62 286.93 L 142.27 286.18 Z M 143.60 281.13 L 145.17 281.32 L 144.17 281.82 L 143.60 281.13 Z M 144.95 280.59 L 146.05 280.04 L 147.04 280.89 L 145.39 281.17 L 144.95 280.59 Z M 145.83 281.62 L 146.96 281.32 L 146.43 282.16 L 145.83 281.62 Z M 146.93 282.04 L 147.15 281.32 L 148.28 281.46 L 147.56 282.35 L 146.93 282.04 Z M 148.36 278.77 L 150.43 278.61 L 150.15 279.29 L 148.91 279.48 L 148.36 278.77 Z M 158.75 278.55 L 159.54 276.87 L 160.81 276.55 L 161.36 277.40 L 162.05 277.27 L 161.42 276.04 L 162.33 276.49 L 161.58 275.42 L 162.02 274.47 L 165.47 276.34 L 164.48 277.01 L 162.93 276.43 L 163.35 278.91 L 162.24 279.74 L 161.33 279.46 L 159.76 280.16 L 158.75 278.55 Z M 159.82 270.75 L 160.01 270.38 L 161.53 271.74 L 160.23 271.82 L 159.82 270.75 Z M 160.70 269.92 L 160.95 269.50 L 163.18 270.16 L 162.57 270.75 L 161.17 270.49 L 160.70 269.92 Z M 166.87 257.25 L 167.45 256.83 L 168.17 257.64 L 166.87 257.25 Z M 167.78 270.77 L 168.72 271.80 L 168.44 272.43 L 167.78 270.77 Z M 170.40 270.63 L 170.87 269.78 L 171.75 270.20 L 171.36 271.31 L 170.40 270.63 Z M 172.41 273.37 L 173.21 273.09 L 172.60 274.12 L 172.41 273.37 Z M 172.46 272.55 L 172.63 270.71 L 173.26 271.11 L 173.59 273.74 L 172.46 272.55 Z M 173.54 272.18 L 174.56 272.26 L 174.39 274.63 L 173.73 275.56 L 173.54 272.18 Z M 175.80 273.42 L 175.88 272.55 L 176.90 273.11 L 176.21 274.45 L 175.80 273.42 Z M 182.96 271.19 L 184.12 270.93 L 183.76 271.82 L 182.96 271.19 Z M 188.58 263.76 L 189.18 262.93 L 189.32 263.84 L 188.58 263.76 Z M 188.80 264.44 L 190.62 263.35 L 191.17 264.00 L 189.73 264.67 L 188.80 264.44 Z M 190.53 259.92 L 191.06 259.94 L 191.55 258.59 L 192.49 259.70 L 190.92 260.22 L 190.53 259.92 Z M 190.84 261.07 L 191.00 260.28 L 192.46 260.77 L 191.80 261.39 L 190.84 261.07 Z M 192.02 258.26 L 192.90 258.12 L 193.15 257.03 L 194.72 258.20 L 194.00 259.13 L 193.01 259.33 L 192.02 258.26 Z M 192.85 254.81 L 193.65 254.20 L 194.11 254.67 L 193.62 255.53 L 192.85 254.81 Z M 193.92 256.30 L 194.83 256.28 L 195.13 257.33 L 193.92 256.30 Z M 194.47 255.39 L 195.19 255.27 L 195.49 256.32 L 194.47 255.39 Z M 194.80 254.83 L 195.11 254.38 L 196.18 254.95 L 195.79 253.39 L 198.14 251.39 L 199.40 251.39 L 200.31 251.94 L 199.84 252.79 L 201.28 252.79 L 200.89 254.85 L 199.93 254.42 L 199.87 256.16 L 199.21 256.71 L 197.39 257.17 L 196.51 256.69 L 196.51 255.80 L 194.80 254.83 Z M 195.55 256.73 L 196.01 256.28 L 196.62 257.11 L 196.15 257.56 L 195.55 256.73 Z M 199.13 250.46 L 201.19 249.23 L 201.77 249.78 L 201.14 250.81 L 200.12 251.07 L 199.13 250.46 Z M 201.72 248.46 L 202.54 248.38 L 202.71 249.19 L 201.72 248.46 Z M 203.15 249.09 L 204.31 249.27 L 203.64 249.90 L 203.15 249.09 Z M 205.85 245.96 L 205.90 245.35 L 207.80 246.69 L 209.40 246.89 L 208.55 247.88 L 207.31 246.87 L 206.29 247.03 L 205.85 245.96 Z M 211.36 247.72 L 213.01 246.24 L 214.47 246.79 L 213.53 247.74 L 212.71 247.09 L 211.36 247.72 Z M 216.56 240.83 L 216.84 240.14 L 217.80 240.26 L 217.20 241.15 L 216.56 240.83 Z M 221.05 238.97 L 221.38 237.86 L 222.05 238.26 L 221.88 239.29 L 221.05 238.97 Z M 221.49 234.24 L 222.40 233.41 L 221.91 234.87 L 221.49 234.24 Z M 221.77 235.82 L 222.49 234.83 L 222.46 235.84 L 221.77 235.82 Z M 226.09 233.07 L 226.62 232.26 L 227.80 232.54 L 227.55 233.41 L 226.09 233.07 Z M 227.06 231.84 L 228.35 231.57 L 227.61 232.50 L 227.06 231.84 Z M 229.21 232.48 L 229.54 231.55 L 230.39 231.49 L 229.21 232.48 Z M 233.39 215.43 L 234.03 215.13 L 235.63 215.55 L 236.15 214.26 L 237.42 212.92 L 239.07 212.30 L 240.25 215.35 L 238.74 217.96 L 237.14 217.07 L 237.33 218.06 L 236.45 218.95 L 235.68 217.53 L 235.10 217.81 L 234.94 216.64 L 233.39 215.43 Z M 233.95 219.07 L 235.13 218.10 L 236.07 219.65 L 234.36 220.46 L 233.95 219.07 Z M 239.95 211.59 L 241.24 211.91 L 242.13 210.60 L 243.53 210.42 L 244.44 209.79 L 244.94 210.74 L 245.60 209.21 L 246.34 209.69 L 246.40 208.44 L 247.44 207.11 L 248.79 206.46 L 250.25 205.25 L 254.85 202.94 L 255.10 203.91 L 255.60 202.80 L 256.64 202.54 L 255.79 204.04 L 254.82 204.48 L 254.77 205.41 L 252.92 207.37 L 252.87 208.24 L 250.50 210.22 L 248.49 210.02 L 248.52 210.42 L 251.41 210.48 L 250.80 211.75 L 249.76 212.46 L 247.94 214.28 L 244.44 216.28 L 244.08 215.98 L 245.84 214.08 L 245.29 213.53 L 243.28 214.64 L 242.81 215.59 L 240.61 215.47 L 240.31 212.66 L 239.95 211.59 Z M 240.97 217.65 L 242.51 217.21 L 242.51 217.94 L 240.97 217.65 Z M 250.39 203.81 L 251.79 202.72 L 250.91 204.20 L 250.39 203.81 Z M 251.57 209.73 L 253.67 207.47 L 253.50 209.07 L 252.68 209.07 L 252.29 209.89 L 251.57 209.73 Z M 251.90 200.28 L 254.16 199.27 L 254.80 199.63 L 255.54 198.58 L 255.76 199.29 L 258.46 195.77 L 260.66 196.07 L 258.87 199.41 L 255.87 201.31 L 255.68 199.87 L 253.64 201.91 L 254.19 202.56 L 252.84 202.46 L 252.92 201.63 L 251.90 200.28 Z M 258.54 195.65 L 259.59 194.56 L 259.62 193.27 L 259.09 192.22 L 259.15 189.89 L 260.33 190.66 L 260.44 191.75 L 261.38 193.37 L 261.74 194.78 L 260.99 195.71 L 258.54 195.65 Z M 261.24 191.91 L 261.68 191.17 L 262.07 188.88 L 262.59 189.39 L 263.91 188.13 L 265.37 187.85 L 263.53 191.43 L 263.64 192.60 L 262.45 193.17 L 261.24 191.91 Z M 263.34 186.78 L 264.05 185.81 L 265.35 185.79 L 265.40 186.90 L 264.27 187.51 L 263.34 186.78 Z M 264.49 190.74 L 266.04 187.87 L 268.90 187.14 L 270.08 187.31 L 268.68 188.60 L 266.61 190.98 L 266.39 190.22 L 264.82 191.49 L 264.49 190.74 Z M 267.03 185.95 L 267.28 185.45 L 268.71 185.12 L 273.45 182.36 L 274.13 182.96 L 271.32 184.86 L 269.45 185.02 L 269.31 185.79 L 267.03 185.95 Z M 268.90 183.95 L 270.53 183.33 L 269.18 184.40 L 268.90 183.95 Z M 270.47 162.74 L 270.64 161.97 L 271.77 161.97 L 271.74 162.66 L 270.47 162.74 Z M 270.97 163.83 L 272.04 162.82 L 274.05 163.12 L 275.98 164.03 L 278.29 164.31 L 279.92 163.89 L 283.17 163.55 L 284.74 163.93 L 283.31 164.74 L 282.09 166.31 L 275.29 165.59 L 274.68 165.04 L 273.14 165.24 L 271.99 163.81 L 270.97 163.83 Z M 272.59 181.75 L 273.67 181.29 L 274.05 181.83 L 273.25 182.38 L 272.59 181.75 Z M 274.16 182.09 L 275.48 181.10 L 275.98 181.63 L 275.59 182.94 L 275.24 182.15 L 274.16 182.09 Z M 274.22 178.34 L 275.32 177.59 L 274.55 178.76 L 274.22 178.34 Z M 275.54 178.15 L 276.86 177.10 L 277.16 177.91 L 276.23 178.70 L 275.54 178.15 Z M 286.53 166.70 L 286.97 165.85 L 287.27 166.82 L 286.53 166.70 Z M 287.44 165.71 L 287.77 164.98 L 289.06 165.10 L 287.66 166.80 L 287.44 165.71 Z M 289.59 164.54 L 290.88 164.01 L 291.29 164.80 L 290.63 165.73 L 289.59 164.54 Z M 291.16 164.25 L 292.29 164.35 L 292.01 165.26 L 291.16 164.25 Z" fill="#f4a261" stroke="white" stroke-width="1.5" stroke-linejoin="round" fill-rule="evenodd"/>
</svg>