<svg xmlns="http://www.w3.org/2000/svg" viewBox="0 0 300 300" width="300" height="300">
  <path d="M 3.35 57.48 L 5.54 57.72 L 4.65 59.53 L 14.56 59.20 L 27.62 66.21 L 30.00 64.56 L 35.86 63.89 L 35.39 68.86 L 33.95 73.41 L 32.00 76.03 L 32.14 77.78 L 35.53 78.89 L 40.27 78.50 L 41.48 79.91 L 44.74 78.98 L 47.39 78.74 L 49.62 77.41 L 62.50 76.06 L 63.94 76.36 L 64.46 77.87 L 67.94 76.93 L 68.78 78.53 L 71.48 77.44 L 71.99 80.06 L 74.27 78.26 L 76.17 77.81 L 76.87 76.57 L 78.87 77.23 L 83.10 76.03 L 85.80 76.36 L 87.10 75.10 L 88.68 75.55 L 90.36 73.17 L 91.99 74.28 L 91.38 75.58 L 98.59 79.55 L 101.94 79.67 L 115.61 79.58 L 116.91 77.81 L 118.68 78.35 L 127.19 71.21 L 125.84 69.52 L 123.75 65.16 L 121.89 63.17 L 121.24 59.92 L 122.07 58.50 L 108.08 50.55 L 106.31 51.40 L 99.33 50.88 L 91.43 48.78 L 85.89 49.68 L 83.34 48.90 L 86.27 45.43 L 89.75 43.78 L 88.73 41.07 L 86.78 34.02 L 89.94 32.73 L 90.17 31.16 L 89.48 28.63 L 90.31 25.80 L 92.54 27.61 L 93.75 29.32 L 98.12 33.54 L 101.52 34.80 L 105.10 35.17 L 110.49 37.48 L 114.87 37.15 L 116.68 37.94 L 124.12 38.45 L 125.33 39.53 L 125.93 38.18 L 128.31 38.42 L 129.89 37.51 L 130.68 35.95 L 129.00 35.23 L 133.19 33.36 L 135.28 31.88 L 137.23 32.03 L 149.51 27.22 L 153.79 27.70 L 154.95 26.37 L 154.58 22.82 L 155.84 16.80 L 157.18 16.32 L 156.35 14.18 L 157.14 13.85 L 158.16 10.53 L 160.58 7.28 L 164.07 5.11 L 169.28 10.14 L 174.25 15.68 L 174.95 21.19 L 173.37 30.74 L 178.81 32.40 L 184.30 35.89 L 188.06 40.01 L 191.88 41.79 L 195.60 42.54 L 197.27 45.07 L 201.41 53.69 L 203.22 56.94 L 203.46 58.74 L 205.69 63.53 L 208.39 65.82 L 208.94 69.74 L 210.76 73.02 L 214.15 74.85 L 217.73 74.94 L 220.99 78.95 L 222.94 80.64 L 225.31 84.25 L 232.10 88.34 L 235.59 89.43 L 239.08 91.51 L 238.29 93.19 L 238.71 94.46 L 238.01 96.29 L 235.54 99.19 L 235.40 101.11 L 236.29 103.52 L 236.06 107.59 L 234.29 111.02 L 232.71 112.28 L 232.47 114.84 L 235.45 115.24 L 237.17 117.07 L 236.94 118.46 L 241.26 122.49 L 243.12 124.78 L 248.01 128.61 L 251.59 130.41 L 255.17 131.41 L 258.28 133.84 L 259.59 133.75 L 261.40 135.29 L 266.00 135.59 L 268.61 136.89 L 269.96 141.28 L 269.91 142.82 L 270.84 147.64 L 273.58 146.31 L 275.03 144.87 L 276.00 146.52 L 276.00 152.21 L 275.54 153.81 L 278.84 155.74 L 278.19 160.04 L 277.12 161.25 L 275.68 161.28 L 274.05 162.63 L 273.31 165.52 L 271.49 168.75 L 271.17 171.18 L 273.72 173.38 L 275.86 177.69 L 272.75 180.37 L 273.63 184.92 L 273.12 185.85 L 274.33 187.35 L 276.05 187.23 L 275.12 189.64 L 276.47 190.46 L 275.72 192.14 L 277.72 193.71 L 278.37 195.70 L 277.91 197.35 L 278.93 200.54 L 278.93 200.54 L 281.16 203.19 L 284.88 203.62 L 286.56 204.76 L 288.14 206.93 L 289.77 208.13 L 290.70 210.60 L 293.40 212.53 L 293.35 214.64 L 294.28 217.65 L 294.65 221.08 L 292.88 223.61 L 294.51 226.35 L 295.16 231.98 L 294.65 233.88 L 295.21 236.44 L 296.65 236.38 L 295.67 237.94 L 287.21 238.27 L 285.35 240.92 L 284.05 246.13 L 281.58 249.78 L 268.75 251.13 L 258.98 255.59 L 258.61 256.01 L 258.61 256.01 L 258.38 255.89 L 258.70 248.30 L 259.35 246.65 L 254.05 244.72 L 248.98 243.76 L 247.45 243.79 L 246.47 242.70 L 242.75 242.37 L 243.50 244.54 L 243.03 245.44 L 238.57 247.88 L 237.08 249.42 L 233.31 251.22 L 229.96 250.74 L 227.41 252.19 L 228.71 253.87 L 229.64 257.49 L 226.75 257.85 L 226.85 259.38 L 225.45 261.67 L 220.85 263.75 L 218.11 261.85 L 218.20 255.95 L 221.64 256.22 L 222.71 255.68 L 222.43 253.24 L 219.04 249.99 L 217.97 247.34 L 216.38 245.26 L 214.29 243.51 L 211.69 243.70 L 208.71 243.18 L 200.20 237.28 L 199.46 233.22 L 200.76 229.57 L 199.32 228.01 L 198.62 225.87 L 195.83 224.03 L 195.83 222.59 L 193.13 221.89 L 189.78 221.65 L 185.13 220.84 L 180.58 218.88 L 179.79 220.75 L 178.02 221.98 L 179.09 224.66 L 177.74 228.85 L 176.67 234.42 L 176.53 238.40 L 176.86 240.95 L 172.48 240.83 L 170.44 240.32 L 167.18 241.01 L 163.42 240.20 L 161.32 236.59 L 160.02 236.02 L 155.93 238.73 L 155.09 237.79 L 155.79 235.90 L 153.14 236.59 L 147.05 236.83 L 145.47 238.61 L 143.70 238.55 L 140.21 236.47 L 136.68 235.29 L 133.28 235.29 L 132.72 237.88 L 131.38 239.42 L 130.40 243.45 L 133.51 244.75 L 133.47 246.41 L 135.70 246.59 L 134.44 248.99 L 132.49 250.89 L 131.75 253.03 L 130.17 249.48 L 127.93 250.02 L 127.56 253.93 L 125.19 254.99 L 124.17 254.05 L 122.68 256.94 L 119.94 256.25 L 118.17 257.34 L 118.49 258.75 L 120.17 260.02 L 118.77 260.98 L 116.17 260.23 L 115.75 260.95 L 116.63 263.27 L 114.59 264.02 L 113.98 265.68 L 112.31 265.53 L 111.01 266.52 L 111.70 267.51 L 113.66 267.85 L 112.35 268.45 L 112.63 269.89 L 110.54 270.86 L 106.82 271.82 L 105.70 271.22 L 104.36 272.30 L 99.98 274.50 L 102.22 275.64 L 102.54 278.96 L 101.52 280.79 L 100.17 285.07 L 101.33 288.77 L 95.99 289.68 L 96.92 291.57 L 95.38 292.33 L 92.36 294.89 L 90.36 293.35 L 89.43 290.13 L 87.38 289.38 L 85.57 290.61 L 85.57 290.61 L 85.15 288.44 L 85.34 285.07 L 84.64 285.25 L 85.06 282.39 L 86.36 280.67 L 82.87 282.03 L 81.10 278.38 L 79.24 272.45 L 79.94 271.10 L 79.34 268.03 L 79.99 266.79 L 79.99 264.14 L 80.59 262.97 L 79.48 260.02 L 80.13 257.67 L 78.69 254.99 L 78.45 252.40 L 77.66 252.37 L 75.57 244.63 L 74.55 243.30 L 75.48 242.76 L 75.43 239.48 L 78.64 234.81 L 76.08 235.90 L 73.99 241.01 L 72.55 239.18 L 71.15 235.41 L 71.29 233.61 L 69.43 232.13 L 69.15 230.48 L 69.94 228.31 L 68.18 226.05 L 68.08 223.88 L 68.92 219.97 L 70.27 216.80 L 70.78 214.46 L 72.64 212.08 L 72.41 210.12 L 73.85 208.28 L 74.45 205.69 L 76.13 204.16 L 77.29 201.75 L 79.43 198.56 L 80.36 193.59 L 81.29 192.87 L 84.13 195.67 L 84.96 198.16 L 85.80 197.68 L 87.06 200.39 L 87.75 205.66 L 88.96 209.55 L 88.82 212.71 L 90.41 217.32 L 89.75 219.12 L 90.27 220.87 L 89.01 222.19 L 90.22 222.35 L 91.43 224.84 L 92.27 229.30 L 90.78 230.66 L 92.78 231.20 L 93.57 229.18 L 92.36 227.86 L 92.68 224.33 L 91.71 222.62 L 93.80 219.36 L 93.38 217.23 L 93.52 212.32 L 93.94 210.45 L 98.26 203.71 L 99.19 203.80 L 99.19 203.80 L 100.03 204.97 L 100.91 204.28 L 104.59 205.12 L 106.87 204.49 L 107.70 206.36 L 112.49 206.66 L 112.82 207.92 L 114.31 208.58 L 116.59 207.59 L 118.21 208.16 L 121.70 204.46 L 124.49 203.86 L 126.12 204.10 L 127.65 202.86 L 124.91 197.23 L 123.61 195.61 L 122.73 193.11 L 123.19 191.72 L 122.82 189.25 L 124.49 180.37 L 126.40 176.51 L 129.24 174.38 L 130.17 172.81 L 128.77 171.97 L 127.79 169.86 L 127.79 167.51 L 125.84 164.02 L 123.66 164.71 L 120.40 164.74 L 117.42 163.54 L 115.84 161.10 L 114.45 160.83 L 113.05 159.32 L 111.10 160.34 L 111.01 158.06 L 109.33 153.93 L 108.40 155.41 L 106.77 153.30 L 106.77 151.28 L 107.80 150.20 L 107.61 145.38 L 108.12 143.39 L 102.87 142.61 L 98.36 134.75 L 97.33 134.39 L 97.61 132.73 L 99.38 130.92 L 94.26 127.70 L 90.87 129.21 L 89.24 129.30 L 88.78 127.82 L 87.43 127.64 L 84.73 125.71 L 79.20 125.86 L 74.45 125.29 L 71.43 126.20 L 71.43 126.20 L 70.18 123.58 L 70.78 122.70 L 69.34 121.56 L 66.64 120.81 L 64.69 117.52 L 62.13 117.67 L 58.60 115.84 L 56.74 116.14 L 53.76 115.69 L 50.69 112.83 L 46.46 110.72 L 41.06 106.65 L 33.58 102.62 L 31.16 103.40 L 30.65 104.39 L 26.28 101.41 L 25.49 99.43 L 22.56 96.84 L 22.65 94.91 L 24.32 92.56 L 17.63 84.73 L 13.72 78.41 L 12.28 76.54 L 10.65 72.57 L 8.65 70.76 L 7.72 68.68 L 4.14 63.83 L 3.35 57.48 Z M 23.21 230.81 L 24.23 229.51 L 24.65 223.76 L 23.90 222.07 L 24.04 220.30 L 22.79 220.27 L 22.93 219.00 L 26.46 215.69 L 24.83 212.59 L 26.32 211.72 L 28.18 212.50 L 30.51 209.91 L 29.58 205.30 L 29.95 204.49 L 29.48 200.91 L 27.16 198.56 L 26.32 196.78 L 26.46 194.37 L 25.81 192.08 L 29.35 191.42 L 29.76 189.31 L 31.48 187.26 L 31.48 184.01 L 34.00 182.54 L 33.07 177.81 L 30.28 174.80 L 29.11 172.30 L 30.09 172.18 L 29.44 169.83 L 30.79 168.02 L 32.93 167.21 L 35.95 164.41 L 38.32 165.16 L 41.53 162.96 L 40.37 159.32 L 40.65 157.78 L 43.62 156.40 L 43.72 152.18 L 46.92 151.61 L 49.39 152.30 L 50.83 151.61 L 52.74 155.44 L 52.74 155.44 L 57.57 160.01 L 60.22 159.68 L 62.78 161.46 L 63.90 160.67 L 67.76 163.57 L 69.94 165.76 L 73.06 165.82 L 75.99 169.74 L 77.29 173.80 L 77.20 176.27 L 75.71 177.90 L 75.52 179.40 L 76.78 181.54 L 78.31 182.48 L 78.31 182.48 L 76.78 185.04 L 77.34 187.54 L 76.55 188.68 L 73.29 190.64 L 75.85 189.70 L 74.87 191.03 L 71.80 191.99 L 70.69 190.25 L 71.71 188.83 L 69.99 188.59 L 71.48 187.29 L 69.90 187.17 L 73.43 184.52 L 70.59 185.58 L 66.27 188.47 L 63.53 188.74 L 63.71 187.69 L 59.29 187.81 L 59.90 188.95 L 57.76 189.31 L 57.95 190.06 L 55.29 191.42 L 56.04 193.74 L 54.64 196.60 L 53.57 195.91 L 54.13 198.65 L 52.83 200.33 L 49.39 201.81 L 50.27 202.77 L 54.92 200.60 L 56.22 201.12 L 50.74 205.42 L 50.88 206.45 L 52.78 207.41 L 52.36 209.07 L 55.25 210.21 L 54.13 211.78 L 55.02 212.53 L 53.99 214.21 L 54.97 215.42 L 54.88 218.31 L 54.13 220.33 L 55.20 221.35 L 56.69 220.06 L 56.55 227.65 L 57.85 228.43 L 58.32 233.64 L 57.53 237.28 L 57.90 238.82 L 60.46 242.22 L 60.78 240.26 L 65.71 243.60 L 66.83 245.47 L 68.69 245.98 L 67.80 244.09 L 70.73 244.63 L 71.80 246.44 L 71.57 247.49 L 72.41 251.25 L 72.04 252.19 L 72.87 257.79 L 74.22 263.42 L 74.45 267.69 L 74.08 269.89 L 68.13 274.65 L 67.15 276.13 L 66.22 275.58 L 64.50 277.63 L 63.15 277.45 L 60.08 279.71 L 56.74 280.58 L 56.50 282.51 L 55.71 280.76 L 53.67 282.30 L 51.53 281.28 L 48.64 283.41 L 46.92 282.87 L 46.18 281.55 L 43.58 282.30 L 40.27 280.01 L 39.72 277.99 L 41.02 275.73 L 41.11 273.60 L 42.78 271.88 L 42.78 269.14 L 43.99 266.22 L 43.62 262.91 L 44.69 260.32 L 43.72 259.14 L 39.86 259.20 L 40.04 257.91 L 43.30 257.28 L 44.78 256.31 L 42.97 253.51 L 42.60 248.72 L 43.76 248.42 L 44.13 244.57 L 42.51 243.33 L 43.02 240.29 L 41.11 241.20 L 39.76 239.21 L 37.81 238.58 L 37.02 239.15 L 36.00 236.41 L 33.16 233.64 L 32.60 232.40 L 31.44 233.88 L 29.11 233.25 L 26.93 233.58 L 25.90 232.46 L 24.28 232.43 L 23.25 230.87 L 23.21 230.81 Z M 55.71 191.51 L 59.99 190.12 L 59.43 191.48 L 60.83 191.51 L 62.22 193.11 L 60.88 194.70 L 57.53 196.42 L 55.71 191.51 Z M 57.95 237.52 L 60.18 239.00 L 58.74 239.00 L 57.95 237.52 Z M 58.64 196.42 L 63.25 193.83 L 63.80 194.94 L 61.85 196.21 L 62.87 196.66 L 60.97 197.74 L 59.01 197.56 L 58.64 196.42 Z M 58.97 198.89 L 63.53 196.81 L 62.92 197.68 L 58.97 198.89 Z M 59.34 236.02 L 59.53 233.85 L 60.69 234.84 L 61.48 238.27 L 59.34 236.02 Z M 60.32 189.07 L 62.27 189.43 L 60.74 190.03 L 60.32 189.07 Z M 62.27 190.97 L 65.53 190.70 L 63.20 191.69 L 62.27 190.97 Z M 62.60 232.49 L 64.92 231.05 L 66.22 231.86 L 64.97 233.01 L 64.83 235.90 L 66.50 236.17 L 69.85 238.67 L 71.25 243.06 L 65.90 240.86 L 63.43 235.05 L 63.57 232.40 L 62.60 232.49 Z M 63.62 192.90 L 66.97 191.33 L 69.06 192.65 L 69.62 193.92 L 67.57 195.79 L 65.57 196.30 L 66.13 195.15 L 64.50 194.49 L 63.62 192.90 Z M 64.78 223.67 L 65.43 220.99 L 65.80 222.13 L 64.78 223.67 Z M 66.36 228.52 L 67.39 229.42 L 67.11 230.84 L 66.36 228.52 Z M 67.43 197.98 L 70.18 196.87 L 69.11 197.95 L 67.43 197.98 Z M 68.97 191.66 L 71.25 191.63 L 69.25 192.77 L 68.97 191.66 Z M 76.50 200.54 L 78.04 198.95 L 78.17 199.91 L 76.50 200.54 Z M 90.27 192.99 L 92.13 191.84 L 92.64 192.99 L 90.27 192.99 Z" fill="#e9c46a" stroke="white" stroke-width="1.5" stroke-linejoin="round" fill-rule="evenodd"/>
</svg>