<svg xmlns="http://www.w3.org/2000/svg" viewBox="0 0 300 300" width="300" height="300">
  <path d="M 6.50 176.25 L 15.38 162.89 L 17.87 151.00 L 23.86 142.25 L 25.78 119.28 L 27.99 109.05 L 28.80 105.75 L 29.35 102.82 L 23.83 99.95 L 20.68 96.10 L 19.98 94.01 L 18.99 89.72 L 20.32 83.33 L 11.94 79.07 L 1.87 78.62 L 4.74 75.91 L 18.34 63.96 L 24.95 66.09 L 26.75 64.84 L 27.50 63.04 L 28.80 61.03 L 28.36 55.99 L 26.75 55.52 L 27.99 52.77 L 33.38 42.67 L 35.98 37.42 L 40.53 33.38 L 43.11 32.67 L 46.31 35.19 L 48.37 37.34 L 52.58 36.56 L 58.28 38.04 L 67.38 24.20 L 68.68 23.16 L 68.87 22.54 L 70.35 23.24 L 71.68 24.84 L 73.99 24.65 L 75.35 25.00 L 76.26 20.39 L 75.16 19.51 L 75.14 18.71 L 75.87 17.89 L 78.55 17.97 L 79.25 16.45 L 80.94 13.65 L 76.93 10.82 L 74.54 10.08 L 78.02 6.58 L 78.02 6.58 L 79.74 5.28 L 83.41 3.48 L 88.17 9.94 L 88.77 11.04 L 94.23 14.40 L 94.99 14.61 L 95.87 15.80 L 98.29 16.21 L 99.49 15.68 L 102.17 16.25 L 102.48 17.25 L 103.31 17.17 L 105.34 17.77 L 106.85 18.83 L 107.76 20.39 L 108.85 20.53 L 111.40 22.54 L 111.46 23.05 L 113.15 24.45 L 113.72 26.13 L 112.63 27.83 L 116.01 30.04 L 115.72 30.60 L 119.42 32.42 L 123.09 33.44 L 130.76 36.74 L 136.02 37.38 L 137.89 37.44 L 139.19 40.54 L 140.54 42.26 L 140.54 43.22 L 142.29 43.69 L 147.39 46.70 L 148.04 46.75 L 151.94 48.82 L 156.47 51.40 L 159.38 51.93 L 161.90 53.06 L 163.65 54.49 L 166.30 55.97 L 166.38 56.75 L 168.41 59.37 L 170.83 59.94 L 172.28 59.92 L 175.43 60.89 L 176.68 63.82 L 179.26 66.46 L 178.94 70.21 L 177.93 71.83 L 178.06 74.80 L 178.87 76.01 L 181.18 77.39 L 181.73 79.39 L 182.46 80.73 L 181.91 82.28 L 182.48 83.80 L 183.83 85.60 L 185.60 86.57 L 187.79 87.00 L 188.08 88.23 L 188.91 89.13 L 188.57 89.99 L 186.62 92.04 L 186.54 94.50 L 187.27 98.19 L 189.87 98.72 L 191.02 99.40 L 192.99 101.22 L 194.55 101.65 L 196.48 101.57 L 197.16 100.83 L 202.38 100.48 L 205.01 99.71 L 205.87 102.88 L 205.58 104.09 L 206.24 105.12 L 205.30 106.22 L 211.57 109.40 L 223.17 114.42 L 225.93 114.05 L 225.90 111.96 L 225.57 110.83 L 225.41 107.41 L 224.97 106.06 L 224.39 105.73 L 224.16 104.42 L 224.71 101.94 L 224.08 99.89 L 224.29 97.70 L 224.08 96.71 L 226.11 92.59 L 227.13 91.38 L 227.20 92.51 L 228.09 94.68 L 230.66 91.88 L 234.59 89.52 L 236.54 88.54 L 237.35 87.16 L 236.83 86.40 L 235.58 86.47 L 234.36 85.56 L 232.75 83.10 L 234.75 83.00 L 238.37 82.47 L 245.13 83.49 L 247.91 87.69 L 250.65 96.10 L 252.08 96.75 L 251.89 97.78 L 253.53 100.28 L 256.29 102.14 L 257.05 106.24 L 257.59 107.08 L 258.35 110.34 L 258.06 111.41 L 258.92 118.03 L 260.04 123.81 L 260.04 123.81 L 260.48 128.13 L 262.48 131.43 L 263.00 132.85 L 264.12 134.08 L 265.03 136.78 L 265.84 138.05 L 268.02 142.36 L 271.77 147.68 L 270.83 149.28 L 270.78 150.59 L 272.42 152.36 L 272.86 153.71 L 275.31 155.74 L 275.60 155.06 L 276.95 154.53 L 281.14 157.28 L 284.16 160.04 L 286.52 161.48 L 288.24 163.42 L 289.90 163.73 L 290.95 163.53 L 292.92 164.78 L 294.35 164.67 L 295.45 166.91 L 296.96 167.42 L 297.76 168.20 L 297.42 168.79 L 298.13 170.58 L 298.13 170.58 L 295.50 173.16 L 296.98 176.03 L 297.37 179.12 L 297.79 180.03 L 296.25 180.21 L 287.67 190.48 L 287.67 190.48 L 286.60 187.87 L 285.79 188.35 L 284.42 187.87 L 282.62 188.26 L 282.57 191.13 L 280.90 192.08 L 280.75 193.12 L 281.40 195.60 L 279.60 197.10 L 278.28 196.59 L 276.58 198.49 L 275.39 199.04 L 274.63 200.27 L 275.00 201.87 L 274.45 201.96 L 275.10 203.66 L 276.66 205.71 L 277.18 208.92 L 275.78 209.93 L 275.78 212.14 L 274.82 213.53 L 274.58 214.97 L 272.60 215.42 L 272.97 216.98 L 272.89 218.62 L 273.36 219.83 L 274.66 221.43 L 274.92 223.86 L 274.71 224.42 L 275.23 227.55 L 273.93 229.32 L 272.89 228.78 L 272.06 229.38 L 272.97 231.49 L 270.99 233.74 L 270.91 234.60 L 271.62 234.62 L 271.54 235.83 L 271.95 236.98 L 271.72 240.90 L 271.15 241.78 L 271.15 241.78 L 270.42 241.47 L 269.92 239.93 L 270.18 239.01 L 268.65 238.97 L 268.57 237.10 L 267.45 237.53 L 266.78 236.88 L 265.87 237.06 L 265.92 237.88 L 264.95 237.58 L 263.84 238.60 L 261.88 238.64 L 261.70 239.24 L 263.06 240.28 L 264.59 240.30 L 266.80 241.88 L 266.88 243.58 L 268.68 245.53 L 271.48 247.15 L 274.27 247.43 L 276.01 248.68 L 276.22 249.67 L 276.95 249.67 L 277.47 252.13 L 278.17 252.64 L 278.48 255.47 L 279.52 256.92 L 280.36 258.93 L 280.20 261.84 L 280.51 262.40 L 279.71 263.50 L 279.86 264.71 L 278.95 265.02 L 278.30 266.41 L 279.11 268.24 L 279.99 268.63 L 279.81 269.88 L 279.03 269.79 L 278.33 273.26 L 277.83 274.53 L 277.83 274.53 L 276.19 273.18 L 276.09 272.19 L 274.74 270.94 L 275.02 270.41 L 274.09 269.45 L 273.12 264.20 L 272.86 261.90 L 273.36 258.42 L 273.28 257.46 L 272.11 254.50 L 271.90 253.07 L 271.35 252.33 L 270.13 251.88 L 270.21 251.20 L 268.42 250.61 L 267.32 250.75 L 266.33 250.24 L 264.64 250.47 L 264.20 251.53 L 262.93 250.65 L 262.74 251.72 L 259.80 250.63 L 259.26 251.14 L 258.16 251.00 L 256.32 251.41 L 254.60 250.61 L 252.65 250.79 L 252.28 252.52 L 251.06 253.34 L 250.15 255.67 L 246.72 255.45 L 245.34 256.04 L 243.70 253.07 L 242.27 251.86 L 241.67 251.98 L 241.80 253.25 L 240.24 255.51 L 240.53 256.35 L 239.46 257.46 L 240.06 259.96 L 236.41 261.60 L 235.56 262.42 L 236.39 265.37 L 235.37 265.43 L 234.46 266.13 L 236.57 268.85 L 239.56 273.52 L 240.79 275.16 L 241.83 275.92 L 244.17 278.34 L 245.91 281.21 L 247.45 285.19 L 243.93 286.68 L 243.07 287.71 L 241.96 287.36 L 241.67 286.23 L 239.85 286.39 L 236.65 286.01 L 236.02 286.46 L 235.92 287.56 L 234.39 288.22 L 233.40 288.20 L 230.09 287.46 L 228.06 287.75 L 227.33 286.83 L 224.89 285.86 L 220.75 287.97 L 219.22 287.75 L 220.41 291.40 L 221.04 295.80 L 221.04 295.80 L 214.12 295.84 L 212.09 296.01 L 209.98 296.52 L 206.65 293.57 L 206.37 291.21 L 203.11 289.08 L 202.38 287.07 L 202.90 286.33 L 199.86 282.71 L 198.33 283.34 L 197.18 282.97 L 192.34 283.59 L 192.03 281.48 L 193.49 279.28 L 194.19 277.70 L 196.43 273.85 L 192.37 270.51 L 191.67 268.87 L 191.35 266.95 L 189.04 260.78 L 188.23 258.26 L 187.76 255.96 L 186.12 252.84 L 186.10 248.38 L 181.10 247.17 L 179.36 246.94 L 180.32 244.40 L 181.39 242.51 L 179.91 242.29 L 180.32 241.20 L 179.91 240.65 L 180.56 239.58 L 180.37 235.71 L 182.12 232.04 L 182.59 231.53 L 181.08 231.10 L 179.02 229.32 L 175.38 227.70 L 172.86 227.12 L 171.89 225.87 L 170.23 226.22 L 167.13 224.70 L 165.57 223.58 L 165.81 221.00 L 164.89 216.86 L 165.52 214.29 L 165.81 211.42 L 164.48 210.87 L 166.17 207.96 L 164.95 205.83 L 161.20 204.05 L 158.65 202.10 L 157.90 200.62 L 153.63 200.09 L 153.24 198.80 L 151.50 197.92 L 149.93 196.26 L 147.46 196.83 L 146.97 195.11 L 148.35 194.02 L 147.18 191.28 L 146.94 188.57 L 146.55 187.03 L 146.55 184.74 L 146.14 181.54 L 144.37 177.61 L 144.19 176.42 L 142.99 175.97 L 134.87 169.29 L 132.48 167.48 L 130.27 166.89 L 126.49 163.90 L 122.18 161.62 L 116.27 163.55 L 107.40 162.62 L 99.98 164.10 L 97.36 163.88 L 90.43 161.95 L 83.10 163.10 L 81.07 163.01 L 73.99 160.72 L 70.09 161.05 L 71.94 163.32 L 70.40 163.24 L 68.84 161.35 L 66.84 161.17 L 65.90 161.58 L 64.18 161.50 L 62.49 162.83 L 61.37 164.10 L 59.84 165.00 L 47.04 169.61 L 36.92 175.62 L 32.39 173.30 L 21.28 171.40 L 6.50 176.25 Z M 262.04 238.97 L 264.15 238.83 L 263.37 240.03 L 262.04 238.97 Z" fill="#a8dadc" stroke="white" stroke-width="1.5" stroke-linejoin="round" fill-rule="evenodd"/>
</svg>