<svg xmlns="http://www.w3.org/2000/svg" viewBox="0 0 300 300" width="300" height="300">
  <path d="M 0.60 110.25 L 0.81 109.51 L 1.04 109.53 L 1.14 110.25 L 0.60 110.25 Z M 1.09 110.53 L 1.42 110.39 L 1.59 109.76 L 2.08 109.19 L 2.23 108.53 L 2.52 108.94 L 3.02 108.26 L 3.31 107.47 L 3.73 107.25 L 4.25 106.49 L 4.95 107.23 L 5.47 106.86 L 5.51 106.12 L 5.74 105.60 L 6.29 105.68 L 7.54 104.70 L 7.89 104.68 L 8.26 106.07 L 8.41 107.10 L 8.32 107.83 L 7.96 109.48 L 8.05 110.21 L 8.65 111.40 L 8.95 111.47 L 9.53 112.41 L 9.44 113.01 L 9.73 113.08 L 10.03 113.66 L 10.27 113.42 L 9.76 112.27 L 10.27 111.99 L 10.13 111.36 L 9.48 110.53 L 9.52 109.59 L 9.70 108.85 L 10.08 108.42 L 10.18 107.63 L 10.14 105.17 L 9.98 104.77 L 9.92 102.87 L 9.55 101.99 L 9.57 101.56 L 10.05 100.35 L 10.28 100.38 L 10.73 99.74 L 11.32 99.81 L 12.26 99.03 L 12.38 99.57 L 11.96 102.02 L 12.14 103.20 L 12.43 103.43 L 13.04 104.82 L 13.41 104.97 L 13.43 105.71 L 13.81 106.16 L 14.16 105.94 L 14.84 106.56 L 15.17 107.27 L 15.95 107.93 L 16.53 109.23 L 16.93 109.03 L 17.03 109.53 L 16.78 111.20 L 17.48 110.70 L 18.13 110.88 L 18.46 111.78 L 18.45 112.44 L 18.74 113.52 L 18.85 115.06 L 19.53 116.10 L 20.34 116.63 L 20.32 117.63 L 20.69 119.50 L 21.13 119.63 L 21.13 118.74 L 20.88 118.13 L 21.05 117.68 L 21.05 116.12 L 20.01 114.57 L 20.07 113.85 L 19.73 112.44 L 20.12 111.68 L 21.30 111.56 L 21.44 111.16 L 20.07 110.90 L 19.62 110.10 L 18.81 109.07 L 18.80 108.37 L 18.54 107.73 L 18.99 107.51 L 18.76 106.33 L 18.99 105.42 L 20.22 104.39 L 20.56 103.94 L 21.96 101.38 L 22.31 100.37 L 22.84 99.88 L 23.45 98.67 L 23.73 98.41 L 24.78 98.34 L 24.97 98.66 L 25.61 99.04 L 25.65 99.69 L 25.44 100.59 L 25.54 101.12 L 24.04 102.77 L 23.75 103.71 L 23.86 104.31 L 24.43 103.45 L 24.77 103.33 L 25.81 101.86 L 26.06 101.23 L 26.53 100.82 L 26.57 100.50 L 27.33 100.10 L 27.72 100.48 L 28.07 101.29 L 27.91 102.14 L 28.16 103.49 L 27.77 104.76 L 27.83 105.94 L 27.72 106.35 L 27.92 106.80 L 27.86 108.24 L 27.37 108.97 L 27.60 109.42 L 28.20 108.58 L 28.60 108.38 L 28.45 107.28 L 28.49 105.59 L 28.73 104.74 L 29.38 104.82 L 29.32 103.65 L 29.76 103.01 L 30.42 103.16 L 31.17 102.84 L 31.79 103.01 L 32.09 103.45 L 32.18 103.00 L 33.01 103.53 L 33.17 103.40 L 33.48 103.91 L 33.99 103.77 L 34.21 104.28 L 33.87 105.37 L 33.49 106.09 L 33.56 106.44 L 33.33 107.25 L 33.33 108.07 L 33.55 108.04 L 33.55 108.77 L 33.39 109.48 L 33.01 109.51 L 32.35 110.47 L 31.98 110.67 L 32.11 111.04 L 32.71 110.53 L 33.43 110.46 L 33.35 112.79 L 33.10 114.22 L 32.73 115.06 L 32.65 116.32 L 32.43 117.42 L 32.09 117.98 L 32.38 118.40 L 32.86 118.11 L 32.88 118.68 L 32.49 119.29 L 31.80 119.72 L 31.49 120.13 L 31.79 120.38 L 32.00 121.11 L 32.54 120.97 L 33.37 120.21 L 34.64 120.65 L 34.83 120.40 L 35.11 121.18 L 35.43 120.57 L 35.42 119.67 L 36.34 119.93 L 36.54 119.73 L 37.04 119.88 L 37.36 119.66 L 37.96 120.37 L 38.50 120.74 L 39.91 121.34 L 40.55 122.37 L 40.85 122.00 L 41.38 122.70 L 41.27 122.01 L 40.83 121.57 L 40.82 121.10 L 40.34 120.34 L 39.56 119.72 L 39.46 119.26 L 38.61 119.01 L 38.32 118.39 L 37.51 118.00 L 36.81 117.96 L 35.51 118.13 L 35.12 118.29 L 34.74 117.96 L 34.39 118.08 L 34.24 117.29 L 34.01 117.00 L 34.49 116.82 L 34.73 115.91 L 34.98 115.45 L 35.41 112.11 L 35.24 110.58 L 35.31 109.16 L 35.82 109.57 L 36.11 109.43 L 35.61 108.50 L 35.76 108.14 L 35.56 107.42 L 35.86 106.82 L 35.74 106.32 L 36.13 106.16 L 36.70 106.74 L 37.07 106.61 L 38.35 106.76 L 39.23 107.19 L 39.39 107.80 L 40.02 107.72 L 40.90 108.40 L 40.65 110.05 L 40.91 110.26 L 41.19 109.77 L 41.82 109.23 L 43.63 110.26 L 43.27 111.37 L 42.78 111.84 L 42.69 112.58 L 43.22 112.06 L 43.75 112.18 L 43.99 111.96 L 44.33 111.03 L 44.69 110.59 L 46.28 110.90 L 47.02 111.49 L 47.42 111.25 L 48.16 111.65 L 48.64 111.64 L 49.61 112.23 L 51.54 112.05 L 53.01 112.33 L 54.00 113.24 L 54.21 114.10 L 54.15 115.25 L 53.31 117.15 L 53.37 117.55 L 53.03 117.59 L 52.85 117.06 L 52.28 117.09 L 52.59 118.43 L 51.60 119.44 L 51.49 120.37 L 50.96 121.18 L 49.85 122.25 L 49.62 122.00 L 49.16 122.31 L 49.76 122.67 L 50.40 122.74 L 49.84 123.11 L 49.24 123.80 L 48.69 124.11 L 47.62 124.25 L 46.46 124.83 L 45.71 125.48 L 45.36 125.53 L 44.23 125.24 L 43.73 126.26 L 42.90 126.72 L 41.22 126.96 L 40.20 126.71 L 39.36 126.61 L 39.19 126.06 L 38.57 126.30 L 37.52 127.54 L 37.00 127.62 L 36.00 128.35 L 36.16 128.73 L 35.87 129.33 L 35.18 129.83 L 34.68 129.60 L 33.38 131.02 L 34.08 133.01 L 34.42 132.70 L 34.82 131.72 L 36.37 129.82 L 37.11 129.10 L 37.85 129.18 L 38.82 128.88 L 40.13 128.73 L 40.90 128.26 L 41.36 128.23 L 43.01 127.70 L 44.70 126.92 L 45.66 126.93 L 46.37 126.39 L 46.84 125.83 L 47.52 125.31 L 48.33 125.28 L 50.31 124.46 L 51.68 123.23 L 51.94 122.51 L 53.11 121.48 L 53.57 120.57 L 54.33 119.66 L 55.11 119.95 L 55.27 120.41 L 54.92 120.87 L 54.76 121.63 L 54.93 122.41 L 54.83 122.73 L 55.16 123.47 L 54.87 123.65 L 54.93 124.26 L 54.72 126.02 L 54.71 127.04 L 55.02 127.92 L 55.11 128.96 L 54.76 129.22 L 54.83 129.53 L 54.48 130.39 L 53.89 130.28 L 53.84 130.77 L 54.16 130.88 L 54.61 131.91 L 55.20 132.08 L 55.89 133.55 L 56.63 133.38 L 56.55 133.11 L 56.83 132.41 L 57.42 131.70 L 57.76 133.35 L 58.22 134.86 L 58.01 137.00 L 58.33 138.18 L 58.94 137.53 L 59.24 137.50 L 59.45 138.24 L 59.14 139.17 L 58.55 139.55 L 57.58 140.81 L 57.12 141.23 L 56.83 141.18 L 56.64 142.03 L 56.07 142.54 L 55.70 143.64 L 55.12 144.42 L 55.45 144.87 L 55.64 144.71 L 55.62 144.04 L 55.90 143.72 L 56.21 143.91 L 56.99 142.50 L 56.94 142.27 L 58.06 141.33 L 58.46 141.39 L 58.41 142.39 L 58.15 142.23 L 57.99 142.72 L 58.53 143.23 L 58.79 143.11 L 58.97 142.20 L 60.02 140.65 L 60.92 140.96 L 60.93 140.51 L 61.63 140.11 L 61.79 139.75 L 62.47 139.13 L 62.21 138.73 L 62.53 138.73 L 63.03 137.72 L 62.85 136.88 L 63.11 136.52 L 63.55 136.56 L 63.88 136.17 L 64.23 136.23 L 64.38 136.83 L 63.92 136.88 L 64.35 137.44 L 64.31 137.87 L 65.03 138.03 L 65.40 137.25 L 66.45 137.91 L 66.98 138.48 L 66.48 138.76 L 65.88 139.62 L 65.83 140.03 L 66.32 139.06 L 66.97 139.17 L 67.42 139.01 L 68.17 137.74 L 68.70 137.33 L 69.27 137.57 L 69.76 136.30 L 69.47 135.36 L 70.11 135.25 L 70.36 134.29 L 70.84 134.02 L 70.75 133.20 L 70.05 132.42 L 68.82 132.33 L 67.68 132.46 L 66.97 132.24 L 66.04 132.97 L 65.55 132.83 L 64.79 132.37 L 64.70 132.03 L 63.99 131.46 L 63.64 131.43 L 63.47 131.06 L 62.35 130.41 L 61.88 129.91 L 61.66 129.26 L 61.01 128.81 L 60.61 128.12 L 60.70 127.63 L 59.72 126.67 L 59.48 126.06 L 59.16 125.82 L 59.45 125.19 L 60.03 125.20 L 61.00 124.86 L 61.53 124.13 L 62.04 123.84 L 62.68 123.72 L 63.13 123.97 L 63.92 123.82 L 64.57 124.14 L 64.77 123.65 L 65.21 123.77 L 65.41 124.26 L 65.90 123.70 L 66.10 122.69 L 66.53 122.53 L 66.79 122.01 L 66.33 121.89 L 66.24 121.15 L 64.93 119.89 L 64.72 119.09 L 64.22 118.28 L 63.27 117.34 L 63.71 117.01 L 63.17 115.94 L 63.90 115.59 L 64.71 115.87 L 65.54 115.40 L 66.20 115.51 L 66.50 115.29 L 65.75 114.71 L 65.01 114.83 L 63.77 114.79 L 62.43 114.10 L 61.36 112.76 L 61.30 111.82 L 60.56 111.33 L 61.08 111.28 L 61.45 110.63 L 61.34 110.41 L 62.56 110.88 L 63.62 110.58 L 64.87 109.83 L 66.29 109.83 L 66.88 109.93 L 67.31 109.76 L 67.32 108.86 L 68.25 108.69 L 68.52 108.29 L 68.88 108.42 L 69.72 108.40 L 70.17 108.54 L 70.30 107.99 L 69.38 107.93 L 68.99 108.09 L 68.50 107.84 L 68.59 107.48 L 67.84 107.63 L 67.10 107.30 L 66.73 107.50 L 67.06 107.73 L 66.39 107.92 L 66.22 107.72 L 64.99 108.29 L 64.28 108.24 L 64.08 108.05 L 63.34 108.28 L 62.56 107.50 L 62.68 107.05 L 63.21 106.81 L 63.52 106.41 L 64.13 106.33 L 65.28 105.95 L 65.31 105.72 L 65.96 105.30 L 66.54 105.66 L 67.46 106.00 L 67.37 105.43 L 66.34 104.69 L 66.50 103.84 L 67.10 103.90 L 67.62 103.37 L 68.36 103.26 L 68.40 103.01 L 69.02 103.34 L 70.42 103.74 L 71.11 103.71 L 71.27 103.18 L 72.04 102.97 L 72.36 103.06 L 72.98 102.63 L 73.32 102.02 L 72.70 101.93 L 71.96 102.32 L 71.11 102.56 L 71.14 102.23 L 69.43 101.44 L 69.19 101.01 L 70.01 99.69 L 70.40 99.47 L 70.26 98.75 L 69.65 99.17 L 68.61 100.33 L 68.05 100.19 L 68.50 98.22 L 69.92 96.05 L 69.91 95.81 L 70.66 94.68 L 71.89 93.01 L 72.61 92.44 L 72.51 91.66 L 72.91 91.08 L 73.84 90.28 L 73.90 89.73 L 74.35 89.25 L 74.76 89.23 L 75.10 88.37 L 75.91 87.39 L 76.42 87.00 L 77.27 86.00 L 77.82 85.73 L 78.48 84.99 L 78.74 85.28 L 78.69 86.04 L 79.00 85.19 L 78.49 84.40 L 78.56 83.67 L 78.33 83.13 L 78.79 82.98 L 78.77 82.46 L 79.24 81.49 L 79.86 81.09 L 80.77 79.79 L 81.63 79.37 L 82.27 79.34 L 82.95 78.64 L 83.75 78.07 L 84.36 78.12 L 84.51 78.93 L 84.36 79.41 L 85.07 78.14 L 85.93 77.81 L 86.52 77.86 L 87.12 79.02 L 87.75 79.46 L 88.13 80.00 L 89.08 80.19 L 90.04 80.76 L 91.86 80.85 L 91.63 81.59 L 92.37 81.31 L 93.25 81.78 L 93.32 82.68 L 93.11 83.68 L 93.55 84.38 L 94.23 85.11 L 94.51 84.86 L 94.88 85.02 L 94.57 83.84 L 94.37 83.47 L 94.57 82.98 L 94.33 81.50 L 93.88 80.39 L 93.38 79.87 L 92.54 78.11 L 91.76 77.40 L 91.04 77.17 L 90.51 76.50 L 89.67 76.14 L 89.21 75.52 L 88.01 75.32 L 87.81 74.55 L 88.24 73.24 L 88.66 72.36 L 89.16 71.71 L 89.93 71.14 L 90.25 69.79 L 90.16 69.45 L 91.38 67.62 L 91.92 68.16 L 92.22 67.69 L 92.02 66.12 L 92.12 65.38 L 92.05 64.51 L 92.22 64.23 L 91.95 63.80 L 92.29 62.57 L 92.32 61.35 L 92.64 61.11 L 93.61 61.31 L 93.70 60.89 L 93.27 59.89 L 93.50 59.09 L 94.10 58.83 L 94.03 58.27 L 94.58 58.01 L 94.79 58.27 L 94.76 58.86 L 95.57 57.91 L 95.44 57.71 L 95.89 57.09 L 96.11 57.13 L 95.71 57.84 L 95.51 58.54 L 95.81 58.58 L 96.04 58.20 L 96.50 58.33 L 96.56 58.69 L 97.21 58.33 L 97.32 59.02 L 97.85 58.78 L 98.97 58.73 L 99.37 59.56 L 99.13 60.40 L 100.06 60.83 L 101.53 62.43 L 101.92 62.71 L 101.97 63.45 L 102.21 64.29 L 102.72 64.88 L 103.25 66.27 L 103.49 66.51 L 104.15 66.48 L 105.03 65.65 L 105.21 65.15 L 105.71 65.03 L 105.93 64.29 L 105.42 63.47 L 105.63 62.79 L 104.84 61.88 L 104.80 61.22 L 104.52 60.58 L 104.09 60.30 L 103.61 59.20 L 103.54 58.69 L 102.81 58.05 L 103.14 58.03 L 102.87 57.45 L 103.37 57.41 L 103.48 57.11 L 104.05 57.35 L 104.31 57.21 L 105.24 57.46 L 104.60 56.97 L 104.12 56.88 L 103.98 56.37 L 103.59 56.23 L 102.64 55.24 L 102.33 55.38 L 102.46 56.07 L 101.65 56.16 L 101.34 55.79 L 101.41 55.34 L 102.03 55.37 L 102.13 54.83 L 100.86 54.39 L 100.61 53.73 L 100.34 53.58 L 101.01 53.08 L 100.80 52.63 L 101.18 51.29 L 100.84 51.11 L 100.21 51.54 L 98.24 51.57 L 96.96 51.12 L 96.22 51.23 L 95.72 50.90 L 95.52 50.46 L 96.24 49.74 L 95.14 49.43 L 93.47 49.10 L 92.73 48.55 L 92.36 48.01 L 92.62 47.14 L 92.44 46.89 L 92.78 45.30 L 93.33 44.57 L 93.31 43.94 L 92.90 43.18 L 93.11 42.93 L 92.19 41.50 L 92.31 40.89 L 93.04 39.89 L 93.84 39.01 L 94.34 38.87 L 94.47 39.39 L 94.92 39.66 L 95.45 39.68 L 94.81 39.25 L 94.43 38.78 L 94.55 38.04 L 95.50 36.87 L 96.04 37.06 L 96.20 37.76 L 96.72 37.72 L 97.01 38.19 L 96.68 39.53 L 96.74 40.21 L 96.97 40.43 L 97.46 40.11 L 97.97 40.14 L 98.33 41.03 L 97.85 41.37 L 98.03 41.79 L 97.87 42.52 L 98.56 43.37 L 98.83 43.26 L 99.50 43.55 L 99.92 44.14 L 100.18 43.95 L 100.50 44.20 L 100.65 44.77 L 101.48 45.82 L 102.15 46.12 L 102.16 46.62 L 102.97 47.24 L 103.80 46.08 L 103.70 45.15 L 103.79 43.87 L 103.45 43.17 L 102.10 42.77 L 102.32 42.10 L 102.89 42.10 L 102.80 41.63 L 102.41 41.16 L 102.53 40.46 L 102.29 40.28 L 102.26 39.61 L 101.79 38.50 L 101.88 37.96 L 102.71 37.97 L 102.80 37.36 L 103.34 37.53 L 103.79 37.28 L 104.32 37.68 L 104.75 37.57 L 105.15 37.77 L 105.47 38.47 L 105.52 37.86 L 106.31 37.52 L 106.22 37.23 L 105.15 36.32 L 105.13 35.97 L 104.29 35.50 L 103.90 35.44 L 101.54 34.17 L 101.55 33.63 L 102.15 33.27 L 102.52 33.30 L 103.33 32.69 L 103.60 32.17 L 102.83 31.95 L 102.43 32.12 L 101.87 32.04 L 101.49 31.50 L 101.62 30.90 L 101.44 30.73 L 101.43 29.93 L 101.63 29.28 L 101.33 28.73 L 101.50 28.11 L 102.67 28.06 L 103.54 27.87 L 104.57 27.46 L 103.64 27.15 L 102.54 27.42 L 102.04 27.21 L 102.08 26.95 L 101.28 26.91 L 101.15 26.46 L 101.66 25.77 L 102.42 25.33 L 103.15 25.10 L 103.27 24.62 L 103.76 24.17 L 103.75 23.91 L 104.52 23.75 L 105.54 23.85 L 105.88 24.02 L 105.23 24.62 L 105.52 25.07 L 105.13 26.17 L 105.16 27.16 L 105.91 25.88 L 106.16 25.23 L 106.57 24.88 L 106.89 25.24 L 107.14 24.29 L 107.41 24.10 L 108.23 24.08 L 108.16 25.36 L 107.85 26.10 L 107.78 27.01 L 108.61 27.73 L 108.36 27.86 L 108.32 28.48 L 108.66 29.08 L 109.42 28.99 L 109.94 30.20 L 110.14 30.92 L 109.94 31.39 L 110.78 31.57 L 110.01 31.84 L 109.12 31.74 L 108.86 32.12 L 109.08 32.60 L 109.82 32.39 L 110.45 32.52 L 111.14 31.83 L 111.17 31.43 L 111.99 30.85 L 111.91 31.37 L 112.72 32.35 L 113.57 31.84 L 112.35 30.47 L 113.03 29.89 L 113.49 28.55 L 113.88 26.99 L 113.68 25.94 L 115.30 26.02 L 115.94 27.00 L 115.95 27.41 L 115.61 27.85 L 116.05 27.68 L 116.43 28.19 L 116.47 28.71 L 115.92 30.85 L 115.31 31.58 L 114.81 32.44 L 114.14 33.33 L 113.39 34.90 L 112.97 35.28 L 112.60 36.08 L 111.56 36.77 L 111.66 37.11 L 112.17 37.00 L 112.46 36.57 L 113.18 36.49 L 113.50 37.27 L 114.57 37.69 L 115.09 36.91 L 115.25 37.04 L 115.54 38.15 L 115.88 38.10 L 115.89 37.59 L 115.49 36.67 L 115.61 35.65 L 116.40 34.32 L 116.48 33.34 L 117.21 32.76 L 117.88 31.82 L 118.16 32.25 L 118.39 31.61 L 118.36 30.92 L 118.80 31.45 L 119.60 33.27 L 119.78 33.41 L 119.64 34.20 L 120.05 34.52 L 120.13 33.97 L 120.84 34.27 L 121.38 35.96 L 121.36 36.49 L 121.95 37.82 L 121.97 39.45 L 122.20 40.42 L 122.09 41.33 L 122.46 43.25 L 121.91 44.06 L 121.77 45.63 L 122.14 45.82 L 122.32 45.37 L 122.19 44.58 L 122.70 44.00 L 122.99 44.45 L 123.29 43.84 L 123.60 42.52 L 123.98 42.59 L 125.00 44.47 L 125.05 43.38 L 124.82 41.94 L 125.10 42.18 L 125.35 41.29 L 125.94 39.84 L 125.84 39.40 L 124.81 38.79 L 124.70 38.27 L 125.00 38.13 L 125.77 38.82 L 125.95 38.13 L 125.80 36.84 L 126.30 36.70 L 126.86 35.69 L 126.83 34.79 L 126.44 33.42 L 126.07 32.74 L 125.75 31.51 L 125.25 30.35 L 124.27 29.67 L 124.38 29.40 L 124.12 28.66 L 123.95 27.70 L 124.10 26.22 L 124.66 25.31 L 125.39 25.49 L 125.90 26.15 L 125.79 26.72 L 126.25 26.51 L 127.95 27.29 L 128.36 28.01 L 128.36 28.93 L 129.12 29.53 L 130.24 30.81 L 130.29 31.66 L 131.04 31.91 L 131.38 32.60 L 130.80 34.27 L 130.35 34.61 L 129.54 35.84 L 128.69 36.95 L 128.20 37.27 L 127.94 37.74 L 127.24 38.33 L 127.21 38.67 L 126.81 39.31 L 127.60 38.72 L 128.31 38.92 L 128.04 39.41 L 128.03 40.27 L 128.32 40.43 L 128.73 39.94 L 129.08 38.66 L 129.73 37.65 L 129.67 37.29 L 130.04 36.43 L 130.24 36.69 L 129.83 37.82 L 130.05 38.87 L 130.56 37.82 L 130.88 37.44 L 131.81 35.71 L 132.31 35.26 L 132.37 34.62 L 133.38 33.34 L 134.37 33.59 L 134.95 33.31 L 135.81 33.18 L 136.23 33.55 L 136.30 34.79 L 135.54 35.12 L 135.51 35.42 L 136.57 35.88 L 136.98 36.84 L 136.80 38.47 L 137.07 38.46 L 137.51 37.76 L 137.55 36.92 L 137.45 35.60 L 138.03 35.02 L 138.87 34.40 L 139.80 34.09 L 140.20 34.17 L 140.59 33.91 L 140.90 34.04 L 140.45 34.54 L 141.01 34.83 L 141.73 34.49 L 141.23 35.01 L 141.33 35.47 L 140.88 36.05 L 140.79 36.46 L 140.30 37.11 L 139.68 37.41 L 139.83 37.88 L 140.54 37.94 L 142.29 36.98 L 142.06 38.13 L 141.06 39.78 L 139.69 40.95 L 140.00 41.11 L 139.90 41.49 L 139.22 41.37 L 139.12 42.30 L 138.51 42.19 L 138.08 42.81 L 138.28 42.98 L 137.87 44.02 L 137.65 44.20 L 137.80 45.76 L 137.67 46.56 L 137.08 47.16 L 136.82 46.77 L 136.58 47.39 L 135.93 46.95 L 134.84 47.85 L 134.37 47.84 L 133.55 48.33 L 133.45 49.35 L 133.02 49.88 L 133.17 50.35 L 132.86 51.11 L 133.39 50.79 L 133.20 51.82 L 133.34 52.06 L 133.77 51.89 L 134.59 50.76 L 134.98 51.17 L 134.95 51.98 L 135.49 50.13 L 135.79 50.00 L 135.55 50.99 L 135.70 52.38 L 135.54 53.08 L 134.96 53.93 L 134.73 53.33 L 134.77 52.36 L 134.49 52.03 L 134.13 52.15 L 133.01 53.93 L 132.29 54.76 L 131.73 55.78 L 131.31 56.19 L 130.68 56.08 L 130.49 56.52 L 130.41 57.42 L 130.06 57.35 L 129.64 58.69 L 128.68 59.81 L 127.98 60.10 L 126.82 60.01 L 126.70 60.46 L 127.21 61.11 L 126.99 62.04 L 126.39 62.74 L 125.95 62.70 L 125.86 63.08 L 126.32 63.65 L 125.06 64.70 L 125.14 65.00 L 125.86 64.75 L 124.81 66.83 L 124.08 68.08 L 123.14 69.01 L 122.66 68.96 L 122.35 69.27 L 122.46 70.19 L 122.17 70.72 L 122.32 71.02 L 122.01 71.80 L 120.80 72.70 L 120.16 73.63 L 119.23 74.75 L 119.20 75.02 L 118.09 75.48 L 117.79 75.94 L 118.18 76.64 L 117.59 76.39 L 117.31 77.37 L 116.92 78.08 L 116.70 78.91 L 117.14 78.92 L 117.22 78.36 L 117.60 77.87 L 117.36 77.41 L 118.08 77.56 L 119.42 77.03 L 120.45 76.48 L 120.90 76.40 L 121.52 75.99 L 122.24 76.91 L 122.14 77.65 L 121.69 78.87 L 121.31 79.46 L 120.35 80.00 L 119.40 80.07 L 118.14 79.78 L 117.26 79.34 L 117.36 80.02 L 116.74 80.24 L 116.77 80.56 L 117.40 80.94 L 117.08 81.49 L 117.46 82.48 L 118.08 82.19 L 119.66 81.97 L 120.98 81.51 L 121.71 81.45 L 121.77 82.91 L 122.63 82.87 L 122.75 82.44 L 123.25 82.98 L 122.77 82.91 L 122.25 83.60 L 121.82 83.52 L 121.76 84.32 L 121.50 85.65 L 120.70 86.92 L 119.96 87.80 L 120.21 88.60 L 120.67 88.99 L 120.97 88.84 L 121.73 89.07 L 121.95 89.46 L 122.31 89.20 L 122.37 89.79 L 122.21 90.36 L 122.20 91.33 L 121.65 91.82 L 121.26 91.74 L 121.12 91.08 L 120.62 91.51 L 120.17 91.37 L 120.52 89.71 L 120.11 89.60 L 119.17 90.27 L 118.62 91.81 L 118.17 92.55 L 117.80 93.62 L 117.85 93.99 L 117.36 94.72 L 117.21 94.50 L 116.45 95.18 L 116.21 95.71 L 116.44 96.34 L 116.72 95.88 L 116.97 96.13 L 117.38 95.83 L 117.79 95.17 L 118.59 94.60 L 118.50 95.31 L 118.32 95.31 L 117.78 96.36 L 117.42 96.66 L 117.24 97.88 L 117.35 98.39 L 116.68 99.36 L 116.89 99.99 L 117.21 99.98 L 118.88 98.22 L 119.37 98.00 L 120.11 98.43 L 120.44 98.86 L 120.42 99.70 L 120.10 100.18 L 120.42 101.19 L 119.96 101.78 L 120.25 102.28 L 119.72 102.91 L 119.53 102.60 L 119.11 103.18 L 118.70 103.17 L 118.74 102.60 L 118.47 102.50 L 118.18 103.02 L 118.54 103.86 L 117.62 105.15 L 117.33 105.31 L 117.44 105.72 L 117.13 106.12 L 115.98 106.09 L 115.77 107.13 L 115.26 107.34 L 114.71 108.04 L 114.04 108.53 L 113.11 109.47 L 113.32 109.98 L 112.89 110.84 L 113.25 110.70 L 113.13 111.76 L 113.22 112.26 L 112.65 112.50 L 112.63 113.32 L 113.00 113.52 L 112.80 113.91 L 113.00 114.57 L 112.90 115.26 L 113.16 114.93 L 113.74 115.63 L 113.74 116.02 L 112.93 116.65 L 112.52 117.99 L 111.99 118.16 L 112.31 118.94 L 112.56 120.16 L 112.53 121.18 L 112.68 122.69 L 112.40 124.50 L 112.46 125.93 L 112.60 126.35 L 112.85 126.11 L 114.07 126.52 L 114.12 125.50 L 114.22 126.61 L 114.77 127.00 L 114.86 127.54 L 114.56 128.69 L 114.60 129.05 L 115.10 129.38 L 115.21 129.00 L 115.92 128.57 L 115.81 127.36 L 116.18 126.39 L 115.85 125.40 L 114.96 124.80 L 114.73 124.79 L 114.39 124.14 L 114.68 123.14 L 114.71 122.37 L 114.47 121.92 L 114.68 120.87 L 115.06 120.82 L 114.96 120.18 L 115.15 119.88 L 115.20 119.10 L 115.86 117.95 L 116.14 118.50 L 116.50 118.70 L 116.52 119.55 L 116.73 119.40 L 117.52 117.09 L 117.68 118.41 L 117.57 118.46 L 117.86 119.58 L 117.37 119.64 L 117.41 118.76 L 117.16 118.91 L 116.99 119.96 L 116.62 120.32 L 116.84 120.79 L 116.80 121.85 L 117.58 121.68 L 118.56 119.79 L 118.79 119.64 L 119.11 120.48 L 119.40 120.33 L 119.55 121.06 L 119.47 121.56 L 118.75 121.80 L 118.67 121.30 L 118.15 122.66 L 117.56 122.55 L 117.31 122.12 L 116.98 122.10 L 116.77 123.17 L 117.06 122.92 L 117.25 123.31 L 117.12 124.43 L 117.32 124.89 L 117.39 125.86 L 117.62 126.56 L 118.23 127.45 L 119.16 128.20 L 119.69 128.08 L 119.61 127.36 L 120.59 125.72 L 121.64 125.31 L 121.88 124.67 L 122.00 123.21 L 121.93 122.67 L 122.40 121.65 L 122.65 120.49 L 122.31 120.17 L 122.36 119.58 L 122.74 119.44 L 123.07 118.95 L 123.25 118.12 L 123.20 117.58 L 123.51 117.14 L 123.56 116.64 L 123.32 116.08 L 123.65 115.41 L 123.79 113.91 L 124.12 113.09 L 124.04 113.75 L 124.37 114.10 L 124.37 114.60 L 124.65 114.50 L 125.10 113.70 L 125.67 113.12 L 126.13 112.33 L 127.06 110.41 L 127.22 109.57 L 127.05 108.63 L 127.23 108.25 L 127.06 107.91 L 127.27 107.15 L 127.65 107.03 L 128.25 106.50 L 128.60 105.82 L 129.33 105.30 L 129.69 104.31 L 130.09 103.87 L 130.14 103.18 L 129.72 103.24 L 129.84 102.50 L 130.13 102.05 L 130.10 101.34 L 130.81 100.54 L 130.45 100.05 L 130.30 100.43 L 129.27 100.43 L 128.94 100.83 L 128.83 100.46 L 127.62 99.35 L 127.18 99.12 L 126.80 99.27 L 127.14 98.76 L 126.52 98.78 L 126.91 97.56 L 127.42 97.08 L 128.04 96.87 L 127.90 95.72 L 128.19 95.40 L 127.99 95.05 L 128.09 94.27 L 128.45 94.05 L 128.78 94.61 L 128.99 94.31 L 128.89 93.82 L 129.14 93.13 L 129.51 92.63 L 129.77 92.77 L 129.86 92.22 L 129.74 90.96 L 130.08 90.32 L 130.52 90.69 L 130.54 91.46 L 130.81 91.82 L 131.19 91.71 L 131.53 90.01 L 131.01 89.77 L 131.26 89.16 L 131.52 89.26 L 132.28 88.44 L 132.36 87.49 L 133.07 86.25 L 133.30 86.30 L 133.50 85.75 L 133.29 84.67 L 133.39 84.08 L 133.63 84.08 L 134.17 83.54 L 134.57 82.52 L 134.92 81.04 L 134.85 80.45 L 135.16 79.74 L 136.27 78.61 L 136.46 78.65 L 137.39 77.57 L 137.58 76.71 L 137.99 76.64 L 138.19 75.94 L 138.43 75.77 L 138.62 74.98 L 139.12 74.25 L 140.14 72.22 L 140.83 71.14 L 141.72 71.05 L 142.44 70.20 L 142.87 68.93 L 143.59 68.08 L 143.71 67.66 L 144.09 67.59 L 144.50 66.85 L 144.17 65.74 L 144.12 64.64 L 144.75 62.72 L 145.38 61.30 L 145.41 60.10 L 145.64 59.39 L 145.50 58.93 L 145.60 58.25 L 146.33 57.23 L 146.17 56.59 L 145.79 56.40 L 145.85 55.14 L 146.32 54.02 L 146.69 53.52 L 147.28 53.26 L 147.58 53.89 L 147.50 54.49 L 148.16 54.57 L 148.10 54.31 L 148.42 53.28 L 148.43 52.84 L 148.80 52.01 L 148.91 50.75 L 149.20 50.13 L 148.79 49.33 L 149.15 48.77 L 149.96 48.10 L 150.75 48.02 L 151.20 47.20 L 151.75 46.62 L 151.63 45.82 L 151.80 45.59 L 152.25 44.15 L 152.64 43.61 L 153.15 43.55 L 153.26 42.44 L 153.74 41.57 L 154.17 41.44 L 154.36 40.42 L 156.08 36.91 L 157.14 35.55 L 157.58 35.72 L 157.57 35.16 L 158.08 33.89 L 158.53 33.80 L 158.47 33.41 L 158.93 32.45 L 160.12 30.51 L 160.59 29.97 L 161.47 28.71 L 162.09 28.15 L 162.27 28.60 L 162.55 28.13 L 163.59 28.18 L 164.19 27.50 L 164.71 27.31 L 164.74 26.80 L 165.14 26.46 L 165.97 26.91 L 165.49 27.24 L 165.98 28.76 L 165.92 29.00 L 166.42 29.52 L 166.44 30.84 L 165.92 31.74 L 165.89 32.24 L 166.27 32.74 L 166.76 32.97 L 166.76 33.82 L 166.42 34.25 L 166.22 34.95 L 166.20 36.36 L 165.72 36.63 L 165.66 37.10 L 165.29 37.92 L 164.80 38.35 L 164.74 39.07 L 164.38 39.46 L 164.91 39.53 L 164.70 40.35 L 164.90 41.33 L 164.50 41.85 L 164.67 42.31 L 165.52 41.59 L 165.88 41.63 L 166.73 40.67 L 166.76 41.93 L 166.89 42.71 L 166.32 42.77 L 166.17 43.34 L 166.41 44.43 L 166.37 45.07 L 165.42 46.75 L 165.29 47.55 L 165.02 47.92 L 165.05 49.26 L 165.28 49.51 L 165.37 51.28 L 164.79 52.13 L 164.48 52.32 L 164.52 52.77 L 164.07 53.09 L 163.58 53.98 L 162.75 54.81 L 161.47 55.69 L 161.32 56.11 L 160.01 57.34 L 159.02 57.83 L 158.29 58.50 L 158.11 58.24 L 157.79 58.50 L 156.91 58.79 L 156.42 60.33 L 155.59 61.16 L 155.01 61.45 L 154.15 62.35 L 154.80 62.06 L 155.07 62.55 L 156.98 61.69 L 158.97 60.53 L 159.54 60.51 L 160.19 60.06 L 160.83 60.06 L 162.08 61.12 L 162.30 60.87 L 162.74 61.30 L 162.42 60.42 L 162.47 59.76 L 162.72 59.71 L 163.42 57.96 L 163.73 58.48 L 163.49 59.56 L 163.23 60.08 L 162.84 59.91 L 162.49 60.58 L 162.64 61.02 L 163.42 61.89 L 163.58 62.27 L 163.98 62.38 L 164.10 62.72 L 163.95 63.91 L 163.71 64.75 L 163.17 65.15 L 163.59 65.70 L 163.62 66.76 L 163.43 67.55 L 163.49 68.24 L 162.91 70.86 L 163.02 72.17 L 162.92 72.70 L 163.26 73.11 L 162.89 74.58 L 161.48 76.72 L 161.27 77.73 L 161.42 78.08 L 161.30 78.68 L 161.66 79.45 L 161.34 80.12 L 161.40 80.48 L 162.15 80.81 L 162.45 81.30 L 162.40 81.74 L 161.82 82.25 L 161.86 83.42 L 161.01 84.49 L 160.76 84.40 L 160.69 85.11 L 160.21 86.30 L 160.57 86.87 L 160.19 87.13 L 160.01 87.98 L 160.31 88.06 L 160.45 88.66 L 160.46 90.07 L 160.75 90.35 L 160.88 90.96 L 159.95 91.62 L 159.70 92.59 L 159.94 92.96 L 159.75 93.51 L 159.18 93.94 L 159.15 95.51 L 159.68 95.50 L 160.19 96.34 L 160.49 96.05 L 160.64 94.32 L 160.58 93.94 L 160.97 93.49 L 161.09 92.81 L 161.81 92.29 L 161.95 91.81 L 162.33 91.67 L 162.29 92.08 L 163.10 92.76 L 163.76 92.49 L 163.72 91.83 L 163.38 91.46 L 163.84 90.39 L 163.09 90.91 L 162.97 90.43 L 162.35 90.18 L 162.46 89.45 L 162.94 89.11 L 163.46 87.74 L 163.42 87.20 L 163.63 86.84 L 164.61 87.73 L 165.02 88.51 L 165.46 87.92 L 165.50 89.16 L 165.90 88.85 L 166.33 88.89 L 166.80 88.42 L 167.01 87.74 L 166.64 86.80 L 166.82 86.27 L 167.31 86.53 L 167.79 86.10 L 167.80 85.64 L 167.54 85.32 L 167.81 83.64 L 167.64 83.46 L 168.16 82.90 L 167.66 82.52 L 167.61 82.04 L 167.15 81.56 L 167.45 81.13 L 167.23 80.47 L 168.01 80.53 L 168.31 81.25 L 168.96 81.42 L 169.20 80.69 L 169.29 79.70 L 169.86 80.00 L 170.01 81.70 L 170.44 81.50 L 171.53 81.78 L 172.66 81.46 L 172.71 80.85 L 173.21 81.00 L 173.02 81.95 L 172.25 83.13 L 172.27 83.65 L 173.80 84.25 L 174.00 83.43 L 174.30 83.15 L 174.52 82.44 L 175.34 81.59 L 175.71 81.42 L 175.83 81.01 L 176.18 81.52 L 176.51 81.41 L 177.32 82.11 L 177.19 82.53 L 177.40 82.94 L 177.65 82.62 L 177.89 81.39 L 177.47 80.82 L 177.17 81.02 L 176.37 80.82 L 176.69 80.37 L 175.98 80.40 L 175.91 79.67 L 175.53 79.30 L 175.83 78.57 L 175.68 78.26 L 174.65 78.12 L 174.74 77.62 L 174.54 77.30 L 174.70 76.68 L 174.26 75.52 L 173.37 73.93 L 174.12 73.61 L 175.25 72.96 L 175.04 72.26 L 175.13 71.64 L 174.81 71.07 L 174.45 71.32 L 174.01 71.27 L 173.37 70.81 L 173.71 70.62 L 173.92 69.93 L 173.74 69.18 L 174.03 69.22 L 174.26 68.53 L 175.13 67.04 L 175.44 67.25 L 175.90 67.00 L 176.13 66.56 L 175.59 66.02 L 176.30 65.46 L 176.50 65.77 L 177.09 65.90 L 176.45 66.48 L 176.60 66.73 L 177.06 66.34 L 177.66 67.14 L 178.85 67.67 L 180.18 67.99 L 180.38 67.86 L 181.14 68.35 L 182.10 69.63 L 183.19 69.46 L 182.91 69.07 L 182.40 69.05 L 181.86 67.17 L 180.99 66.39 L 180.48 66.15 L 179.99 65.24 L 179.08 64.35 L 178.27 64.47 L 178.11 64.05 L 177.15 62.94 L 177.10 62.47 L 177.19 60.98 L 178.01 60.62 L 178.44 59.80 L 179.26 60.63 L 179.66 60.62 L 179.30 60.24 L 178.72 58.93 L 177.59 58.87 L 177.47 58.27 L 178.13 58.09 L 179.26 58.81 L 179.45 59.54 L 180.31 60.57 L 180.85 60.75 L 180.95 60.32 L 179.62 59.52 L 179.46 59.09 L 179.78 58.25 L 178.87 57.34 L 177.34 56.98 L 176.92 56.61 L 176.95 55.80 L 177.22 55.87 L 177.56 54.20 L 177.84 53.81 L 177.88 52.80 L 178.16 51.44 L 178.16 50.46 L 178.95 51.20 L 180.44 51.08 L 181.42 51.15 L 181.84 50.92 L 182.64 51.09 L 183.27 52.30 L 183.56 52.48 L 183.75 53.49 L 184.53 52.89 L 184.73 52.39 L 184.53 51.32 L 184.72 50.87 L 185.29 51.03 L 185.52 50.63 L 185.05 50.13 L 184.14 49.94 L 184.02 49.64 L 182.94 49.45 L 183.18 49.06 L 183.10 46.41 L 183.61 45.74 L 183.78 45.19 L 183.19 44.77 L 183.32 43.30 L 183.25 42.51 L 183.53 41.70 L 184.50 41.65 L 184.91 41.81 L 186.11 41.74 L 187.26 42.64 L 187.72 43.31 L 188.35 43.86 L 188.74 43.92 L 189.34 43.61 L 189.52 44.16 L 189.99 44.78 L 190.15 44.48 L 190.68 44.33 L 191.36 44.69 L 191.73 44.64 L 192.59 44.97 L 193.43 44.98 L 195.02 45.22 L 195.85 45.46 L 193.72 44.44 L 193.13 43.88 L 192.27 43.47 L 191.06 43.38 L 190.09 42.64 L 189.26 42.23 L 188.96 41.53 L 188.33 40.76 L 188.76 40.72 L 188.33 40.35 L 188.92 40.40 L 189.04 40.15 L 189.71 40.13 L 190.20 39.50 L 190.16 38.82 L 190.76 38.34 L 190.56 37.93 L 190.17 37.92 L 188.57 37.37 L 188.91 36.69 L 188.65 36.55 L 189.20 36.04 L 189.07 35.68 L 188.09 35.97 L 187.30 35.92 L 187.26 36.32 L 186.64 36.34 L 186.34 36.10 L 186.11 36.54 L 185.89 36.30 L 186.43 35.63 L 186.46 35.32 L 187.34 33.70 L 187.35 33.10 L 187.59 32.65 L 186.99 32.28 L 187.39 31.66 L 186.99 31.71 L 186.50 33.03 L 185.29 34.75 L 184.39 35.24 L 183.99 35.15 L 183.70 34.58 L 182.77 35.06 L 182.28 34.87 L 181.96 33.83 L 181.57 34.58 L 181.13 34.66 L 180.22 34.21 L 179.70 33.70 L 179.62 32.92 L 179.12 32.52 L 178.28 32.32 L 178.05 31.01 L 177.85 30.61 L 178.09 30.11 L 178.61 29.91 L 178.49 29.58 L 178.65 28.92 L 178.48 28.18 L 178.82 27.85 L 178.86 26.97 L 179.05 26.56 L 179.36 26.59 L 179.10 25.27 L 179.81 25.24 L 180.02 25.45 L 180.49 25.23 L 180.78 25.76 L 181.38 26.43 L 181.86 26.56 L 182.80 27.78 L 183.17 28.05 L 183.73 29.01 L 184.24 29.20 L 184.73 28.71 L 184.94 29.11 L 185.47 29.00 L 185.04 28.36 L 184.31 27.89 L 183.92 26.71 L 184.10 26.22 L 183.79 25.63 L 183.92 25.18 L 183.22 24.16 L 182.74 23.02 L 182.20 22.60 L 181.47 22.38 L 181.00 21.70 L 180.84 21.15 L 181.32 20.52 L 181.23 19.92 L 181.66 19.72 L 181.89 19.25 L 182.27 19.20 L 182.49 18.28 L 183.26 17.96 L 183.89 18.88 L 185.32 20.03 L 185.95 20.17 L 186.07 20.60 L 185.87 20.99 L 186.03 21.50 L 186.30 20.99 L 186.80 20.90 L 187.41 20.43 L 187.82 20.47 L 188.75 21.02 L 189.02 21.67 L 189.40 21.55 L 190.04 21.92 L 190.18 22.57 L 189.86 24.04 L 190.01 24.88 L 189.98 26.13 L 190.34 27.54 L 191.22 28.05 L 191.46 27.36 L 191.78 27.13 L 191.37 26.18 L 191.75 24.06 L 191.54 23.07 L 191.82 21.88 L 192.02 21.48 L 191.51 20.39 L 190.58 18.97 L 189.72 18.32 L 189.67 17.01 L 189.42 15.90 L 189.60 15.82 L 189.80 14.82 L 189.70 14.41 L 190.00 14.08 L 189.80 13.37 L 189.99 13.03 L 190.65 12.77 L 191.22 12.09 L 191.19 11.77 L 191.71 11.14 L 192.08 11.22 L 192.11 10.86 L 192.51 10.95 L 193.10 11.53 L 193.43 12.18 L 194.02 12.01 L 194.22 11.15 L 194.06 10.24 L 193.75 9.72 L 193.70 8.78 L 194.14 8.08 L 194.53 8.13 L 194.54 8.62 L 195.53 9.87 L 196.05 10.34 L 196.94 10.37 L 197.39 10.60 L 196.96 11.11 L 196.98 11.81 L 196.54 12.92 L 196.32 13.14 L 196.41 13.76 L 196.04 14.68 L 195.45 15.64 L 195.42 16.36 L 196.33 15.90 L 196.41 16.75 L 196.18 17.36 L 196.36 17.65 L 196.92 17.07 L 197.10 17.45 L 197.39 17.30 L 198.46 15.46 L 198.43 14.91 L 198.87 14.90 L 198.77 15.28 L 199.16 16.24 L 199.08 17.28 L 198.77 17.17 L 198.31 18.48 L 198.67 18.32 L 199.01 17.78 L 199.03 18.76 L 199.29 19.57 L 199.50 19.68 L 199.63 19.05 L 200.05 19.26 L 200.27 18.67 L 199.90 17.94 L 200.43 18.15 L 200.42 17.28 L 200.88 17.20 L 200.75 17.78 L 200.88 19.21 L 201.41 18.80 L 201.48 18.10 L 202.25 17.30 L 202.25 16.79 L 202.60 16.81 L 202.91 16.48 L 202.46 15.82 L 202.85 15.80 L 203.28 14.87 L 203.71 14.56 L 203.74 13.66 L 204.06 13.43 L 204.19 13.88 L 203.97 14.45 L 203.75 15.65 L 203.54 15.97 L 203.86 16.67 L 204.14 16.87 L 204.47 16.13 L 204.89 15.68 L 205.32 14.71 L 205.52 13.98 L 206.07 13.60 L 206.02 13.28 L 206.71 13.28 L 206.56 14.37 L 206.70 14.83 L 206.50 17.63 L 207.03 17.70 L 207.88 16.21 L 207.87 15.69 L 208.50 14.43 L 208.69 13.70 L 209.16 13.43 L 209.05 12.96 L 209.92 12.66 L 210.38 12.21 L 210.68 12.78 L 211.41 12.92 L 212.17 13.61 L 212.29 14.55 L 212.17 15.01 L 211.77 14.95 L 212.72 15.91 L 212.12 15.90 L 212.39 16.40 L 212.24 16.68 L 212.63 16.85 L 212.37 17.12 L 212.79 17.48 L 212.19 17.71 L 212.37 18.14 L 211.95 18.06 L 211.65 18.67 L 210.75 19.17 L 210.14 19.01 L 209.75 19.21 L 210.27 19.72 L 210.86 19.76 L 210.92 20.32 L 210.62 20.95 L 210.82 21.21 L 210.48 21.60 L 210.55 22.16 L 209.96 23.35 L 209.72 25.18 L 209.87 25.44 L 210.04 24.16 L 210.49 23.48 L 210.42 22.94 L 211.00 22.66 L 211.30 21.85 L 211.44 23.02 L 210.90 24.79 L 210.50 25.72 L 210.09 27.64 L 210.77 27.58 L 210.81 26.76 L 211.41 26.68 L 211.01 26.15 L 211.42 25.94 L 211.38 25.51 L 211.67 25.25 L 211.76 26.01 L 212.00 25.94 L 212.36 25.31 L 212.73 25.06 L 213.26 24.14 L 213.81 22.40 L 213.94 22.91 L 213.71 23.38 L 214.11 23.23 L 214.47 22.64 L 214.85 22.91 L 215.26 22.64 L 215.78 22.75 L 216.27 22.53 L 217.05 22.78 L 217.22 23.18 L 217.98 23.11 L 218.40 23.63 L 218.68 23.55 L 219.77 24.14 L 220.10 24.02 L 220.36 24.84 L 220.73 24.96 L 221.14 26.76 L 220.73 26.91 L 220.91 27.95 L 220.54 28.18 L 220.75 28.96 L 220.42 30.04 L 220.46 30.96 L 220.06 31.74 L 219.64 31.83 L 220.02 32.70 L 219.48 33.39 L 218.71 33.29 L 218.58 33.48 L 219.25 34.05 L 218.90 35.27 L 218.17 35.73 L 217.11 35.77 L 216.26 35.34 L 216.06 35.07 L 215.43 35.07 L 214.90 35.51 L 215.09 35.96 L 216.51 36.22 L 216.95 36.55 L 218.22 36.75 L 217.77 37.96 L 217.43 38.08 L 217.45 38.82 L 216.60 39.77 L 215.92 39.82 L 214.83 39.29 L 214.50 39.54 L 215.03 39.90 L 215.15 40.32 L 215.67 40.66 L 215.81 41.21 L 215.24 42.59 L 214.47 42.71 L 213.70 42.40 L 213.57 41.93 L 212.98 41.58 L 211.91 40.72 L 211.27 40.60 L 211.38 41.16 L 211.96 41.41 L 212.43 42.51 L 212.93 42.77 L 213.48 43.50 L 214.01 43.90 L 214.02 44.32 L 213.41 44.29 L 213.47 44.84 L 212.65 45.25 L 211.85 46.57 L 211.33 46.81 L 210.71 46.73 L 210.44 46.29 L 209.18 46.25 L 208.99 45.93 L 208.37 45.76 L 208.51 46.11 L 207.95 46.20 L 207.48 45.66 L 207.87 45.35 L 207.82 44.73 L 207.31 45.01 L 206.90 45.71 L 207.07 46.30 L 206.92 46.57 L 206.65 46.17 L 205.39 45.80 L 205.20 45.25 L 204.92 43.66 L 205.37 42.97 L 205.33 42.67 L 204.66 43.46 L 203.60 43.94 L 203.73 44.45 L 203.47 44.72 L 203.44 45.38 L 202.74 45.50 L 202.78 45.97 L 202.14 45.62 L 201.31 45.51 L 201.30 45.11 L 200.67 45.05 L 200.63 45.72 L 200.00 45.71 L 199.17 45.39 L 198.43 45.99 L 197.41 45.21 L 196.77 45.35 L 196.76 45.68 L 197.31 46.24 L 198.31 46.69 L 199.48 46.93 L 199.77 47.38 L 199.25 48.20 L 198.96 48.94 L 198.24 49.41 L 197.68 50.64 L 197.39 50.86 L 197.37 51.48 L 197.87 51.54 L 198.96 50.10 L 199.78 49.72 L 200.11 48.87 L 200.67 48.61 L 201.83 48.29 L 202.86 48.41 L 203.68 48.77 L 204.55 49.45 L 205.53 49.69 L 205.36 50.50 L 204.77 51.48 L 204.74 52.05 L 205.06 51.98 L 205.97 50.59 L 206.03 50.25 L 206.47 50.13 L 207.34 50.49 L 208.03 51.39 L 208.62 51.66 L 209.02 52.80 L 207.92 54.45 L 207.61 54.39 L 207.00 54.69 L 207.15 55.50 L 206.37 56.36 L 205.98 56.45 L 205.27 57.37 L 204.37 57.56 L 203.89 57.50 L 204.29 57.99 L 203.72 58.41 L 202.83 58.44 L 202.01 59.20 L 201.41 59.35 L 200.25 60.22 L 200.53 60.78 L 200.97 60.79 L 201.27 61.39 L 201.06 61.73 L 200.46 62.00 L 199.55 62.66 L 199.35 63.16 L 198.67 63.65 L 197.80 63.57 L 197.45 63.73 L 196.60 64.66 L 195.43 64.77 L 194.52 65.38 L 193.70 65.24 L 193.82 65.58 L 193.20 65.71 L 193.12 66.04 L 194.05 65.50 L 195.14 66.19 L 196.05 65.98 L 196.91 65.94 L 197.84 65.52 L 198.14 65.12 L 198.50 65.17 L 199.16 64.70 L 199.79 64.72 L 200.60 64.15 L 200.92 64.15 L 201.80 63.80 L 203.03 62.64 L 203.97 62.06 L 205.04 61.22 L 206.30 60.54 L 206.80 60.03 L 208.46 59.22 L 208.91 58.52 L 209.62 58.08 L 210.82 55.91 L 211.64 55.39 L 212.00 54.77 L 212.93 54.35 L 213.25 54.55 L 213.42 55.37 L 213.34 55.76 L 213.57 56.44 L 213.88 58.13 L 213.80 58.97 L 213.57 59.40 L 213.76 59.87 L 213.46 60.74 L 213.63 61.24 L 213.34 61.39 L 213.42 61.86 L 213.06 62.58 L 212.73 63.69 L 212.73 64.54 L 212.16 65.25 L 212.22 65.63 L 211.72 66.79 L 210.82 68.48 L 210.33 69.05 L 209.96 69.75 L 208.25 71.55 L 208.03 71.97 L 206.84 73.27 L 206.05 73.78 L 205.33 74.53 L 204.96 74.61 L 203.98 76.01 L 203.86 75.88 L 203.03 76.39 L 202.55 77.20 L 201.63 77.85 L 201.71 78.19 L 201.41 79.04 L 199.80 80.15 L 199.50 80.16 L 199.13 80.66 L 199.45 81.56 L 200.21 80.94 L 200.45 80.92 L 200.07 81.68 L 199.73 84.10 L 199.83 84.30 L 199.43 85.24 L 199.70 85.53 L 200.31 85.57 L 200.32 86.42 L 200.64 87.44 L 201.11 87.29 L 200.89 85.31 L 200.97 84.09 L 200.86 83.91 L 201.44 81.52 L 202.49 80.32 L 202.83 80.19 L 203.28 79.29 L 203.81 79.28 L 204.68 78.79 L 204.16 79.37 L 202.59 81.46 L 202.59 81.93 L 202.06 83.79 L 202.27 83.81 L 202.69 83.23 L 202.66 82.85 L 203.47 81.41 L 203.81 81.14 L 203.70 80.56 L 204.32 79.99 L 204.25 80.43 L 204.50 80.66 L 204.16 80.93 L 204.40 81.49 L 205.09 81.10 L 205.45 80.39 L 206.91 79.29 L 207.49 79.47 L 209.27 77.97 L 210.34 77.87 L 210.63 78.10 L 210.65 78.94 L 210.23 79.88 L 209.20 80.27 L 208.64 80.29 L 207.74 82.01 L 206.83 83.01 L 205.82 84.67 L 205.73 85.52 L 205.87 85.65 L 206.03 87.04 L 205.84 87.48 L 206.07 87.92 L 206.31 86.92 L 206.49 86.74 L 206.79 84.79 L 207.34 84.08 L 208.37 82.20 L 208.80 81.71 L 209.52 81.18 L 209.92 80.41 L 210.78 80.55 L 211.13 80.20 L 212.20 78.35 L 213.50 78.08 L 213.72 78.85 L 214.90 78.05 L 215.00 77.67 L 215.48 77.34 L 215.84 77.53 L 215.69 77.89 L 215.78 78.97 L 215.48 79.45 L 215.07 79.50 L 214.85 80.84 L 214.61 81.27 L 215.24 82.15 L 215.69 81.27 L 216.25 80.82 L 217.37 80.18 L 217.53 79.86 L 218.33 80.23 L 218.42 81.37 L 218.16 81.95 L 218.03 82.94 L 218.20 83.51 L 218.68 83.96 L 218.86 84.61 L 219.21 85.04 L 219.63 85.03 L 219.44 85.51 L 220.09 85.00 L 219.81 84.30 L 220.06 83.73 L 219.72 82.95 L 219.30 82.42 L 219.77 81.68 L 219.99 80.15 L 220.92 79.30 L 221.12 78.91 L 221.18 78.19 L 220.35 78.31 L 219.97 78.55 L 218.70 78.15 L 218.39 76.76 L 217.98 76.39 L 217.70 75.47 L 216.55 74.37 L 217.00 73.76 L 217.24 71.20 L 217.96 69.15 L 218.81 68.16 L 218.71 67.61 L 219.03 67.08 L 218.98 66.24 L 219.29 63.73 L 220.01 61.60 L 219.90 60.24 L 220.06 59.71 L 219.92 58.44 L 220.48 58.45 L 221.14 59.09 L 221.93 59.54 L 222.05 59.27 L 223.16 59.64 L 223.52 59.30 L 223.41 58.66 L 222.93 58.32 L 222.33 58.23 L 221.46 57.35 L 220.85 56.25 L 220.18 53.52 L 220.98 52.05 L 221.31 51.20 L 221.67 50.92 L 222.86 48.94 L 224.10 48.24 L 224.60 47.83 L 224.83 47.27 L 224.43 46.13 L 224.81 45.03 L 224.91 44.20 L 225.35 43.74 L 226.10 42.00 L 226.42 41.59 L 226.55 40.64 L 227.05 40.42 L 227.03 40.03 L 227.36 39.24 L 227.91 38.94 L 228.61 38.31 L 228.77 37.81 L 229.90 36.70 L 230.20 36.95 L 230.62 36.54 L 230.97 36.63 L 231.59 36.30 L 231.91 36.40 L 232.59 36.12 L 232.98 36.28 L 233.67 35.93 L 234.08 36.32 L 234.19 37.08 L 233.95 37.52 L 234.50 37.69 L 234.61 37.32 L 235.89 37.10 L 237.21 37.23 L 237.70 38.06 L 237.70 38.92 L 237.87 39.52 L 238.20 39.13 L 238.43 39.28 L 238.64 39.97 L 239.20 39.87 L 239.81 40.01 L 240.13 39.62 L 240.93 39.36 L 242.02 40.28 L 241.94 40.73 L 242.18 41.44 L 242.69 42.03 L 242.84 42.52 L 242.53 42.86 L 242.46 43.55 L 242.82 44.48 L 242.75 45.01 L 242.27 45.52 L 242.73 46.04 L 243.52 46.54 L 243.66 46.85 L 243.91 46.42 L 244.51 46.69 L 244.74 46.56 L 245.81 47.23 L 246.55 47.13 L 245.85 47.61 L 245.69 48.82 L 245.09 49.40 L 245.62 49.57 L 244.41 50.59 L 244.32 50.82 L 243.37 51.24 L 242.29 52.09 L 242.22 52.30 L 242.79 52.42 L 242.90 52.81 L 242.52 53.40 L 242.82 53.74 L 243.61 53.09 L 244.15 53.05 L 244.20 53.52 L 244.62 53.50 L 244.64 53.90 L 245.14 53.95 L 245.20 53.32 L 245.61 53.11 L 246.11 53.33 L 246.89 52.97 L 247.18 53.21 L 246.69 53.34 L 245.55 54.12 L 245.18 54.01 L 244.33 54.81 L 244.17 54.45 L 243.77 54.67 L 243.46 55.37 L 243.18 55.54 L 243.46 56.10 L 243.80 56.04 L 244.24 56.65 L 244.61 56.69 L 245.48 56.35 L 245.96 56.74 L 245.54 56.98 L 244.14 58.12 L 244.21 58.42 L 243.34 58.77 L 242.57 59.26 L 242.57 59.72 L 241.94 60.05 L 242.39 60.42 L 242.74 60.12 L 243.51 60.41 L 243.48 60.89 L 242.67 60.96 L 242.40 61.15 L 242.80 62.14 L 243.05 61.73 L 243.72 61.69 L 244.40 60.45 L 244.35 60.10 L 244.93 59.42 L 245.05 58.60 L 245.74 58.23 L 246.16 57.80 L 246.28 57.33 L 246.59 57.70 L 247.08 57.86 L 248.00 56.61 L 248.25 56.41 L 248.89 56.62 L 249.84 56.43 L 250.26 56.48 L 251.16 56.02 L 251.98 55.82 L 252.22 55.45 L 253.51 54.79 L 254.20 53.87 L 254.68 53.44 L 255.28 53.22 L 255.94 52.62 L 256.52 52.68 L 257.73 53.52 L 258.16 53.13 L 258.65 53.99 L 258.46 54.53 L 258.58 55.61 L 258.41 56.90 L 258.95 57.39 L 258.69 57.96 L 258.31 59.52 L 258.49 59.92 L 258.08 60.49 L 257.78 61.37 L 258.28 61.67 L 257.45 62.39 L 256.94 63.08 L 256.90 63.76 L 256.50 63.68 L 256.16 64.22 L 255.96 65.17 L 255.52 64.70 L 255.55 65.42 L 255.19 65.62 L 255.21 66.02 L 255.94 65.91 L 256.89 64.85 L 257.66 64.50 L 258.46 64.43 L 259.37 63.54 L 260.01 62.27 L 261.10 59.63 L 261.30 59.51 L 261.59 58.54 L 262.05 58.29 L 262.73 57.33 L 262.90 56.21 L 263.81 56.11 L 263.81 55.80 L 264.22 56.00 L 264.87 55.87 L 264.97 55.50 L 265.47 55.86 L 266.21 55.76 L 266.65 55.98 L 266.99 55.87 L 267.31 56.24 L 267.51 56.93 L 268.24 57.30 L 268.83 57.97 L 270.13 58.75 L 270.25 59.20 L 270.85 59.47 L 270.58 60.22 L 270.17 60.73 L 269.45 61.22 L 268.94 61.27 L 268.53 61.65 L 267.81 61.98 L 267.79 62.46 L 268.34 62.67 L 269.25 62.57 L 270.27 62.62 L 270.88 63.08 L 271.93 63.29 L 272.28 64.14 L 273.07 64.79 L 273.28 65.44 L 274.10 65.98 L 274.49 66.47 L 274.56 66.96 L 274.17 67.47 L 274.19 68.96 L 273.76 69.70 L 273.19 70.01 L 273.16 70.62 L 272.77 70.99 L 271.86 71.28 L 271.32 71.28 L 270.89 72.06 L 271.20 72.83 L 270.79 73.20 L 269.83 73.39 L 269.63 73.56 L 268.46 73.71 L 267.10 73.51 L 266.94 73.73 L 267.12 74.41 L 267.47 74.76 L 268.02 74.79 L 268.83 75.21 L 268.99 75.53 L 268.26 75.56 L 268.02 75.80 L 267.63 75.45 L 267.03 75.40 L 266.10 75.88 L 265.56 75.28 L 265.32 74.67 L 265.03 74.61 L 264.54 74.95 L 264.88 75.07 L 264.93 75.76 L 265.32 75.44 L 265.63 76.47 L 266.30 76.56 L 266.85 77.08 L 267.82 77.24 L 268.02 77.41 L 268.14 78.40 L 268.66 78.72 L 269.85 77.16 L 270.57 76.43 L 271.55 75.80 L 272.37 75.57 L 273.10 75.02 L 275.03 73.82 L 275.88 73.69 L 276.35 73.37 L 276.58 73.86 L 276.89 73.30 L 277.38 73.39 L 277.88 73.12 L 278.07 73.67 L 278.48 73.72 L 279.15 74.16 L 279.63 74.00 L 279.68 73.63 L 280.12 73.81 L 280.15 74.22 L 280.57 74.59 L 281.34 74.70 L 282.22 74.53 L 282.18 73.84 L 283.09 73.45 L 283.30 74.14 L 283.30 74.75 L 282.72 74.92 L 283.08 75.94 L 283.03 76.63 L 282.39 77.01 L 282.53 77.49 L 281.94 77.86 L 282.18 78.77 L 282.82 78.93 L 283.16 79.37 L 283.44 79.30 L 283.52 80.06 L 283.83 79.78 L 284.63 80.40 L 285.28 81.23 L 285.38 81.93 L 286.17 82.31 L 286.25 82.62 L 286.82 83.03 L 286.25 84.81 L 286.45 85.30 L 286.36 86.35 L 286.07 86.82 L 286.48 87.35 L 286.84 86.87 L 287.25 86.76 L 287.72 87.44 L 287.58 87.62 L 288.11 88.15 L 288.70 87.03 L 289.09 86.92 L 289.57 86.39 L 289.57 86.10 L 290.14 85.64 L 290.63 86.08 L 291.51 85.16 L 292.29 84.79 L 292.80 85.11 L 293.45 85.97 L 293.44 87.39 L 293.75 87.84 L 294.22 88.07 L 294.79 89.60 L 294.92 90.68 L 295.45 91.02 L 295.54 92.73 L 295.41 92.64 L 295.12 93.59 L 295.08 94.24 L 295.29 94.73 L 295.47 94.56 L 296.08 94.73 L 296.17 96.05 L 295.85 96.18 L 295.81 97.61 L 296.16 98.39 L 296.26 99.65 L 295.64 101.00 L 295.73 101.69 L 296.39 102.85 L 296.21 103.38 L 295.35 103.82 L 294.69 103.87 L 294.44 103.38 L 293.80 103.42 L 293.38 104.69 L 292.83 105.10 L 292.66 104.56 L 291.50 105.26 L 291.05 105.18 L 290.52 105.63 L 290.12 105.50 L 289.83 106.29 L 289.58 106.19 L 289.39 105.47 L 288.84 105.46 L 288.43 106.08 L 288.36 106.58 L 287.36 105.98 L 286.25 106.44 L 285.92 106.95 L 285.81 107.85 L 285.12 107.75 L 284.79 107.28 L 283.87 107.28 L 283.18 107.73 L 282.43 107.79 L 282.18 107.36 L 281.43 107.60 L 281.13 108.25 L 281.20 108.58 L 280.57 108.14 L 279.98 108.44 L 279.74 108.78 L 279.17 110.21 L 279.19 110.70 L 278.85 111.31 L 278.92 112.11 L 278.07 112.09 L 276.69 112.50 L 276.01 112.93 L 275.42 113.12 L 275.18 113.69 L 275.32 114.19 L 274.92 114.20 L 274.49 114.91 L 274.27 116.22 L 274.39 117.12 L 274.71 117.78 L 275.12 117.99 L 275.29 118.84 L 275.36 119.84 L 274.64 120.00 L 273.56 121.36 L 273.18 121.64 L 271.19 122.24 L 270.79 122.59 L 270.66 123.41 L 270.21 123.86 L 269.72 123.47 L 269.32 123.60 L 269.00 124.10 L 268.36 124.30 L 267.36 125.77 L 267.58 126.72 L 268.74 126.61 L 269.66 127.57 L 268.55 127.46 L 267.48 127.67 L 267.62 126.93 L 267.07 126.47 L 266.28 126.69 L 264.72 127.69 L 263.67 128.00 L 262.88 128.02 L 262.54 128.27 L 261.53 128.57 L 260.31 128.53 L 260.07 128.33 L 259.24 128.40 L 259.03 127.95 L 258.22 127.16 L 257.00 127.04 L 255.12 126.15 L 254.42 126.10 L 254.00 125.65 L 252.84 125.13 L 252.54 125.38 L 252.29 125.08 L 250.90 124.82 L 250.65 124.97 L 249.65 124.59 L 248.93 124.46 L 248.27 124.05 L 247.56 124.68 L 247.17 124.76 L 245.94 124.14 L 245.16 124.02 L 244.68 123.73 L 244.63 123.32 L 244.00 122.54 L 242.62 122.13 L 241.64 122.08 L 240.56 122.53 L 239.82 121.75 L 239.10 121.49 L 238.11 120.61 L 237.39 120.73 L 237.24 121.24 L 236.78 121.48 L 236.08 121.30 L 235.23 121.60 L 234.89 120.83 L 234.41 120.63 L 233.94 120.13 L 232.42 119.54 L 232.04 118.87 L 231.63 118.86 L 231.16 119.30 L 231.16 118.94 L 230.57 119.02 L 230.40 118.33 L 229.77 117.88 L 229.13 117.88 L 228.25 117.02 L 228.03 116.63 L 227.01 115.94 L 226.00 115.54 L 225.07 115.53 L 224.55 115.25 L 223.90 115.45 L 222.64 115.53 L 221.69 115.90 L 221.48 116.26 L 222.15 116.26 L 221.87 116.63 L 222.19 117.30 L 222.02 117.62 L 222.83 117.09 L 222.96 117.31 L 224.38 117.19 L 224.76 117.26 L 225.77 116.94 L 226.56 117.02 L 227.09 116.82 L 227.44 117.04 L 227.52 117.55 L 226.36 118.99 L 225.26 119.66 L 224.63 120.67 L 222.59 121.60 L 222.04 121.59 L 222.05 122.76 L 222.51 122.76 L 222.93 123.27 L 223.80 123.57 L 224.30 124.06 L 224.38 124.59 L 225.75 124.17 L 225.91 123.66 L 226.25 123.49 L 227.38 123.65 L 227.34 123.40 L 227.98 123.37 L 228.52 123.12 L 228.47 123.39 L 229.51 123.51 L 230.09 124.10 L 230.16 125.20 L 229.40 125.56 L 228.71 125.44 L 227.93 125.03 L 227.08 124.93 L 226.85 124.43 L 226.51 125.01 L 226.97 125.70 L 227.64 126.17 L 227.83 126.63 L 228.99 126.65 L 229.31 126.87 L 229.61 126.56 L 230.04 127.25 L 230.76 126.92 L 231.70 127.17 L 232.74 127.71 L 233.35 128.26 L 233.62 128.15 L 234.17 128.52 L 234.99 128.36 L 235.45 128.82 L 235.86 128.92 L 236.25 129.33 L 236.70 129.46 L 237.52 128.73 L 237.98 128.74 L 237.76 129.13 L 237.80 130.15 L 239.33 130.21 L 240.07 131.44 L 239.58 132.36 L 238.81 132.69 L 238.41 133.14 L 238.15 133.75 L 238.53 134.29 L 239.40 134.38 L 239.41 134.02 L 239.84 133.35 L 240.09 133.24 L 240.83 133.67 L 241.12 134.06 L 241.55 133.94 L 241.85 133.38 L 242.50 134.02 L 243.09 134.02 L 243.53 133.53 L 243.89 133.43 L 243.85 133.07 L 244.20 133.01 L 244.23 133.36 L 244.68 133.79 L 245.09 133.73 L 245.11 134.09 L 245.60 134.22 L 245.91 134.70 L 246.45 134.37 L 247.56 134.86 L 247.74 134.50 L 248.30 135.24 L 249.05 135.11 L 249.74 135.55 L 249.35 136.31 L 249.54 136.62 L 250.17 136.60 L 250.64 137.05 L 250.88 136.82 L 251.16 137.27 L 251.30 137.04 L 251.70 137.48 L 252.34 137.81 L 252.82 137.65 L 253.52 138.51 L 253.51 138.01 L 254.05 138.20 L 253.75 138.75 L 254.39 139.25 L 254.43 139.69 L 253.84 140.06 L 253.79 140.89 L 253.32 141.41 L 252.63 141.76 L 252.30 142.24 L 251.53 142.64 L 251.30 143.33 L 250.13 143.97 L 249.59 144.61 L 248.99 144.60 L 249.20 145.36 L 248.73 146.46 L 247.48 146.54 L 247.50 147.19 L 246.68 148.23 L 247.19 149.05 L 247.10 149.82 L 246.51 149.87 L 246.02 149.46 L 245.52 149.70 L 245.18 149.53 L 245.31 150.35 L 245.19 150.84 L 245.81 151.24 L 247.00 151.30 L 247.45 151.78 L 247.29 151.12 L 247.34 150.47 L 247.70 150.34 L 248.08 149.42 L 248.52 148.86 L 248.61 148.04 L 248.89 147.28 L 249.15 147.33 L 249.43 146.42 L 249.99 146.41 L 249.72 145.92 L 249.79 145.48 L 250.34 144.66 L 250.78 144.54 L 251.32 144.90 L 251.54 144.53 L 251.91 144.67 L 251.75 146.69 L 251.97 146.62 L 252.09 145.75 L 252.34 144.97 L 252.83 144.74 L 252.95 145.15 L 253.34 145.19 L 253.88 146.17 L 254.38 146.16 L 254.65 146.43 L 254.64 145.91 L 255.23 146.57 L 255.14 145.43 L 255.60 145.05 L 256.05 145.16 L 256.83 146.22 L 256.40 146.92 L 256.80 147.74 L 257.29 148.04 L 257.47 148.78 L 257.28 149.27 L 257.16 150.31 L 257.24 151.34 L 256.72 151.78 L 256.99 152.35 L 257.43 152.53 L 257.26 152.90 L 257.88 153.82 L 257.94 154.39 L 257.13 155.05 L 256.72 154.88 L 256.41 155.07 L 256.62 155.47 L 257.13 155.55 L 257.37 156.11 L 256.91 156.87 L 256.42 156.61 L 256.18 157.81 L 255.28 159.41 L 255.18 160.62 L 254.72 161.17 L 254.02 161.58 L 253.26 161.50 L 253.33 162.34 L 253.63 162.99 L 254.35 162.73 L 254.30 163.26 L 253.92 163.91 L 252.86 163.08 L 253.36 163.77 L 253.41 164.22 L 253.22 165.02 L 252.68 165.39 L 253.03 165.39 L 252.92 165.84 L 252.56 165.79 L 252.48 166.66 L 252.17 167.06 L 251.88 167.99 L 251.39 168.32 L 251.50 169.14 L 251.06 168.93 L 250.95 168.49 L 250.25 168.26 L 250.03 168.91 L 248.93 168.81 L 247.79 169.10 L 246.92 168.70 L 246.90 168.85 L 247.79 169.46 L 249.13 169.28 L 249.69 169.51 L 250.62 169.07 L 250.77 169.95 L 249.91 171.97 L 249.61 172.95 L 248.78 173.61 L 249.02 174.18 L 248.37 174.88 L 248.86 174.69 L 249.15 173.87 L 249.60 174.42 L 250.03 174.09 L 250.26 173.56 L 251.00 172.55 L 251.12 171.88 L 251.54 170.90 L 251.66 170.21 L 253.08 168.62 L 253.25 168.62 L 253.85 167.74 L 253.84 167.22 L 254.11 165.88 L 254.53 165.50 L 254.58 165.05 L 255.32 164.41 L 255.73 164.69 L 256.91 163.98 L 257.38 164.02 L 257.86 163.67 L 258.67 164.27 L 259.39 163.96 L 260.79 164.77 L 260.96 165.18 L 260.75 165.79 L 261.05 165.71 L 261.66 163.98 L 261.92 163.95 L 261.86 163.37 L 262.05 162.81 L 262.36 163.46 L 262.67 163.13 L 262.90 162.38 L 263.35 162.36 L 263.08 161.65 L 264.08 161.36 L 265.35 160.72 L 264.97 160.41 L 265.40 160.02 L 265.37 160.79 L 265.81 161.05 L 265.81 160.39 L 266.12 159.97 L 266.64 160.63 L 266.87 161.32 L 266.38 162.48 L 266.37 162.96 L 265.94 162.85 L 265.85 163.16 L 265.33 163.10 L 265.85 163.90 L 265.64 164.82 L 264.54 166.54 L 263.26 167.66 L 262.64 168.65 L 261.94 169.18 L 261.76 168.33 L 261.49 168.40 L 261.67 169.56 L 261.58 170.63 L 261.77 171.72 L 262.10 171.69 L 262.07 172.23 L 262.38 172.80 L 262.21 173.76 L 262.37 174.83 L 262.22 175.44 L 262.35 177.35 L 262.48 177.67 L 262.43 178.78 L 262.80 181.43 L 263.13 181.42 L 262.99 180.34 L 262.98 179.03 L 262.73 177.26 L 262.77 176.45 L 262.63 175.28 L 262.67 172.98 L 262.44 172.46 L 262.33 171.26 L 262.05 169.88 L 262.33 169.11 L 263.04 168.65 L 264.32 167.56 L 265.18 166.51 L 265.67 165.74 L 266.11 165.68 L 266.57 165.95 L 267.05 165.72 L 267.36 166.40 L 267.06 166.76 L 266.85 166.02 L 266.76 166.66 L 267.19 167.99 L 267.42 168.19 L 267.42 168.93 L 267.77 170.49 L 267.79 171.19 L 268.17 171.27 L 267.98 170.36 L 268.08 169.28 L 267.82 168.30 L 268.05 167.43 L 268.49 167.14 L 268.43 166.07 L 267.77 165.43 L 267.92 165.01 L 267.57 163.82 L 267.51 162.72 L 268.07 162.27 L 269.16 162.01 L 269.21 161.50 L 269.49 161.64 L 270.06 161.15 L 270.47 161.49 L 270.56 161.11 L 270.36 160.38 L 270.52 160.17 L 270.00 159.55 L 270.18 159.32 L 269.76 158.71 L 269.41 157.76 L 269.16 156.73 L 269.61 155.60 L 269.49 155.59 L 269.37 154.36 L 268.81 153.47 L 268.47 151.93 L 268.83 151.48 L 268.80 150.60 L 269.02 149.73 L 269.53 149.17 L 270.10 148.92 L 270.79 148.87 L 271.35 149.62 L 271.69 149.40 L 271.80 148.93 L 272.12 149.48 L 272.54 148.71 L 273.49 148.92 L 273.84 149.45 L 273.41 149.98 L 274.13 149.99 L 274.60 150.43 L 273.77 151.86 L 273.35 152.06 L 272.50 152.82 L 271.55 153.25 L 271.59 154.06 L 272.47 153.22 L 272.88 153.27 L 272.74 153.82 L 273.36 153.26 L 273.95 153.14 L 274.16 153.55 L 274.54 153.09 L 275.28 152.51 L 275.63 152.84 L 275.81 153.95 L 276.00 154.27 L 276.16 155.42 L 275.95 155.67 L 276.29 156.53 L 276.15 157.27 L 276.34 157.79 L 276.05 158.38 L 276.22 158.94 L 276.16 160.14 L 276.45 159.63 L 276.64 159.88 L 276.91 161.35 L 276.66 161.86 L 276.84 162.81 L 276.70 163.42 L 276.90 163.66 L 276.69 164.38 L 276.82 164.88 L 276.70 165.95 L 276.94 166.19 L 277.04 167.07 L 276.88 168.21 L 277.21 170.18 L 276.19 170.79 L 275.37 171.78 L 274.71 171.73 L 274.05 171.98 L 273.41 172.95 L 273.65 173.13 L 274.06 172.26 L 274.79 172.60 L 275.12 172.26 L 275.52 172.43 L 275.70 172.87 L 276.10 172.78 L 276.35 171.97 L 276.89 172.05 L 277.09 171.77 L 277.83 171.80 L 278.20 170.63 L 277.82 170.26 L 277.87 169.50 L 277.63 168.45 L 277.94 168.19 L 277.53 166.72 L 277.79 164.94 L 278.13 165.25 L 278.52 165.16 L 278.30 164.65 L 278.49 164.40 L 278.24 163.42 L 277.78 162.91 L 277.48 162.13 L 277.76 160.31 L 277.72 159.68 L 277.18 158.12 L 277.04 156.85 L 277.33 157.64 L 277.38 156.17 L 278.12 155.81 L 278.41 155.95 L 278.82 155.46 L 279.74 155.14 L 279.84 155.59 L 280.47 156.03 L 279.68 156.66 L 279.84 156.82 L 280.79 156.46 L 281.20 156.11 L 281.49 156.56 L 281.82 156.57 L 282.18 157.34 L 282.60 157.43 L 282.58 156.89 L 281.91 155.85 L 282.31 155.88 L 282.66 156.29 L 283.34 156.37 L 283.87 157.14 L 284.55 156.53 L 284.87 156.89 L 284.49 157.32 L 284.08 157.42 L 283.95 157.88 L 284.46 158.80 L 285.02 158.78 L 284.58 158.04 L 285.46 158.22 L 285.37 157.89 L 284.99 158.06 L 284.72 157.71 L 285.95 157.46 L 286.51 157.94 L 286.14 158.83 L 286.12 159.24 L 285.52 159.20 L 285.03 159.65 L 285.27 160.60 L 285.02 161.83 L 285.27 162.10 L 286.01 162.10 L 286.06 161.08 L 287.12 160.17 L 287.36 160.08 L 287.64 159.44 L 288.23 159.15 L 288.38 158.75 L 289.15 159.28 L 289.09 159.78 L 289.42 160.50 L 289.62 160.27 L 289.70 160.95 L 290.07 161.28 L 290.13 162.28 L 290.32 161.99 L 290.52 162.50 L 290.34 163.16 L 290.53 163.34 L 290.69 164.43 L 291.09 164.67 L 291.28 165.83 L 291.11 166.33 L 291.20 166.85 L 290.70 167.35 L 291.08 168.33 L 292.08 169.71 L 292.38 170.79 L 292.82 170.98 L 292.88 171.93 L 292.37 171.92 L 292.18 172.59 L 292.42 173.28 L 292.38 173.87 L 292.66 175.40 L 293.06 176.11 L 293.11 176.68 L 292.96 178.19 L 293.08 178.70 L 292.92 179.38 L 292.94 180.21 L 292.72 180.44 L 292.87 181.15 L 292.77 182.41 L 292.88 182.99 L 292.64 183.55 L 292.66 184.70 L 291.94 185.52 L 291.20 185.95 L 290.80 186.75 L 290.37 187.29 L 289.68 187.59 L 289.00 188.31 L 288.55 188.28 L 288.12 187.90 L 287.64 187.99 L 286.84 187.86 L 284.44 186.97 L 281.50 186.81 L 280.01 187.00 L 279.75 186.17 L 277.07 181.44 L 273.66 177.06 L 271.27 174.35 L 269.11 172.53 L 267.92 173.15 L 267.12 173.78 L 267.30 175.50 L 268.69 175.42 L 269.00 177.09 L 269.16 178.90 L 269.59 181.28 L 269.88 181.73 L 269.93 182.62 L 270.18 183.68 L 269.98 185.09 L 270.11 185.82 L 269.83 187.40 L 269.64 187.83 L 269.05 188.07 L 268.85 188.59 L 268.40 189.10 L 268.16 189.99 L 268.06 191.63 L 268.10 192.81 L 267.92 193.89 L 268.07 194.94 L 267.86 195.40 L 267.23 196.16 L 266.83 196.87 L 265.90 199.45 L 265.26 200.51 L 264.83 201.00 L 263.69 201.90 L 262.92 202.20 L 262.59 201.92 L 262.54 201.33 L 262.00 200.68 L 261.67 200.77 L 260.78 200.11 L 260.42 200.07 L 259.84 200.47 L 259.35 201.22 L 258.50 202.06 L 258.22 203.05 L 257.04 203.74 L 256.42 203.86 L 255.94 204.69 L 255.85 205.39 L 255.54 205.95 L 255.45 206.89 L 254.52 208.13 L 253.90 208.72 L 253.49 209.57 L 252.63 210.68 L 251.80 211.94 L 251.06 212.19 L 250.71 212.05 L 250.46 211.46 L 250.42 210.85 L 249.71 210.87 L 249.20 211.54 L 247.58 211.66 L 247.11 211.93 L 246.50 211.34 L 245.62 212.49 L 244.69 213.13 L 244.27 213.75 L 243.44 214.20 L 243.20 214.76 L 243.10 216.16 L 242.94 216.61 L 242.94 219.45 L 243.05 219.90 L 243.63 220.37 L 243.95 220.83 L 244.05 221.80 L 243.86 222.18 L 243.64 223.49 L 243.77 224.22 L 243.44 224.52 L 243.51 225.61 L 243.34 226.07 L 243.46 226.82 L 243.22 227.96 L 242.78 229.07 L 242.11 229.69 L 242.36 230.28 L 241.82 232.20 L 241.96 233.17 L 241.60 233.76 L 241.90 235.03 L 239.44 240.19 L 238.92 240.64 L 237.48 243.28 L 236.36 246.01 L 235.90 246.50 L 235.26 244.90 L 232.54 241.89 L 230.31 239.11 L 228.84 235.23 L 229.59 228.41 L 229.62 222.51 L 232.59 217.58 L 239.39 206.12 L 241.22 203.05 L 244.73 193.99 L 243.24 188.55 L 239.76 175.93 L 238.66 169.60 L 232.18 165.74 L 225.34 161.15 L 220.16 157.84 L 216.84 155.78 L 214.64 152.32 L 215.08 148.76 L 209.55 144.25 L 205.28 135.92 L 204.28 133.81 L 204.06 129.29 L 203.53 125.03 L 202.59 125.31 L 202.05 125.64 L 201.20 125.75 L 199.84 126.44 L 199.37 126.46 L 198.59 126.75 L 197.80 127.66 L 197.00 128.18 L 196.20 127.50 L 195.57 126.77 L 194.94 126.68 L 194.41 126.87 L 193.16 127.00 L 192.57 127.62 L 192.16 127.75 L 191.89 128.32 L 191.37 128.89 L 191.01 130.25 L 191.10 130.98 L 191.00 131.63 L 190.57 132.74 L 189.67 132.98 L 188.99 132.93 L 188.64 133.11 L 187.66 133.22 L 186.95 133.88 L 186.57 134.92 L 185.55 136.33 L 184.60 136.70 L 184.05 136.52 L 183.54 137.01 L 183.11 137.70 L 183.08 138.20 L 183.51 138.59 L 183.97 140.08 L 183.57 140.75 L 181.88 141.20 L 179.92 142.66 L 178.59 143.17 L 177.99 144.49 L 177.64 144.70 L 176.70 144.62 L 176.27 145.27 L 175.86 145.44 L 175.19 144.53 L 174.96 143.81 L 174.42 142.66 L 173.52 142.13 L 172.71 142.19 L 172.40 142.60 L 171.42 142.98 L 170.68 142.12 L 170.51 141.35 L 170.56 139.99 L 170.01 139.83 L 169.40 140.02 L 168.54 139.99 L 167.81 140.44 L 166.83 141.39 L 166.41 141.55 L 165.95 141.17 L 165.29 139.37 L 164.94 139.55 L 163.38 139.96 L 161.98 140.77 L 161.47 141.23 L 160.54 141.49 L 159.74 141.49 L 158.82 142.19 L 158.63 142.95 L 158.56 144.45 L 158.04 145.39 L 157.12 146.45 L 157.13 146.96 L 157.42 147.66 L 157.29 148.87 L 156.93 149.79 L 156.91 150.39 L 156.51 151.54 L 155.71 152.81 L 155.18 153.00 L 154.85 153.78 L 153.81 154.76 L 153.36 154.97 L 152.84 155.64 L 152.28 155.89 L 152.14 156.86 L 152.37 157.75 L 152.25 158.53 L 151.75 158.70 L 151.42 159.97 L 150.69 160.42 L 150.34 161.32 L 150.49 161.94 L 150.37 162.38 L 149.51 162.69 L 149.31 164.03 L 148.98 164.75 L 148.12 165.75 L 147.26 166.04 L 146.38 166.81 L 145.35 166.45 L 145.05 166.77 L 144.18 168.21 L 143.92 168.49 L 143.21 170.82 L 142.87 171.29 L 142.45 171.49 L 141.81 172.51 L 141.68 172.95 L 141.85 173.66 L 142.82 174.07 L 143.59 175.09 L 143.83 176.67 L 143.72 178.02 L 144.23 179.07 L 143.93 180.45 L 143.56 180.82 L 143.30 181.88 L 143.38 182.17 L 143.06 183.40 L 142.67 183.72 L 142.14 184.54 L 141.17 185.53 L 140.34 185.62 L 140.19 185.82 L 140.18 186.81 L 140.78 187.44 L 141.23 188.30 L 141.25 189.05 L 140.74 190.03 L 140.74 191.07 L 140.34 192.38 L 140.41 192.87 L 140.87 193.48 L 140.85 194.38 L 140.15 194.88 L 139.88 195.78 L 139.82 196.83 L 139.46 198.29 L 139.15 198.81 L 139.27 199.57 L 138.74 200.43 L 139.61 200.97 L 139.66 201.32 L 139.22 201.67 L 139.36 202.20 L 139.77 201.95 L 140.25 202.97 L 140.34 203.43 L 139.86 204.04 L 139.84 204.73 L 139.32 205.50 L 139.51 205.85 L 139.50 207.16 L 139.02 207.59 L 138.49 207.73 L 138.27 209.05 L 137.75 209.41 L 137.84 210.10 L 137.61 211.28 L 137.21 211.87 L 137.11 212.75 L 137.39 213.79 L 137.02 214.51 L 137.31 214.88 L 137.38 215.56 L 137.14 215.88 L 137.25 216.53 L 136.86 217.06 L 136.92 217.83 L 136.58 218.79 L 136.04 219.10 L 135.99 219.64 L 136.19 220.23 L 136.03 220.78 L 135.98 221.78 L 136.37 222.39 L 136.13 222.99 L 136.35 224.01 L 135.77 224.84 L 135.78 225.77 L 136.20 226.70 L 136.87 229.89 L 136.84 230.67 L 137.24 231.49 L 137.25 232.30 L 136.91 233.36 L 136.91 233.90 L 136.62 234.74 L 136.56 235.49 L 136.90 236.06 L 136.72 236.97 L 136.90 238.45 L 136.68 238.77 L 137.53 241.39 L 137.47 242.53 L 137.29 242.78 L 137.46 244.06 L 138.02 244.42 L 138.27 245.66 L 137.81 247.29 L 137.63 247.23 L 136.86 248.42 L 136.30 250.07 L 136.37 251.41 L 135.69 253.93 L 135.14 255.38 L 134.65 257.29 L 134.59 258.30 L 134.03 258.66 L 133.77 259.33 L 133.81 259.70 L 133.36 260.03 L 132.99 260.63 L 132.53 260.83 L 131.67 260.39 L 130.89 260.30 L 130.45 259.82 L 130.25 259.29 L 129.77 258.99 L 129.78 258.58 L 129.42 258.38 L 127.57 259.94 L 127.31 259.77 L 126.88 260.03 L 126.89 260.61 L 126.24 261.10 L 126.15 261.44 L 124.39 263.06 L 123.88 263.33 L 123.68 263.86 L 123.03 264.46 L 122.27 265.58 L 121.95 267.20 L 121.24 268.06 L 120.91 269.08 L 120.30 269.44 L 119.71 270.19 L 119.46 271.34 L 119.27 271.64 L 119.21 272.87 L 118.99 273.83 L 119.04 274.45 L 118.80 274.90 L 118.64 276.35 L 118.79 277.40 L 118.66 278.69 L 118.91 279.83 L 118.68 279.96 L 118.35 281.14 L 118.44 282.22 L 118.22 283.60 L 118.48 285.96 L 118.43 286.69 L 118.58 287.82 L 118.39 288.44 L 117.75 288.65 L 117.44 290.03 L 117.10 290.41 L 116.43 289.63 L 115.95 290.08 L 115.49 290.19 L 115.50 290.90 L 114.91 291.27 L 114.61 291.19 L 114.40 290.67 L 113.79 290.67 L 113.33 291.35 L 113.19 291.26 L 112.53 292.06 L 112.22 294.68 L 112.12 297.75 L 110.74 296.91 L 108.54 288.58 L 103.30 283.45 L 99.09 281.47 L 94.15 279.47 L 92.61 278.37 L 91.33 276.33 L 89.68 275.41 L 89.85 271.34 L 87.36 272.44 L 84.61 267.14 L 81.26 266.08 L 78.39 268.06 L 77.07 275.72 L 75.34 280.80 L 68.38 282.30 L 66.08 284.20 L 60.21 289.46 L 56.57 282.62 L 49.24 282.82 L 43.40 278.49 L 41.30 276.43 L 36.49 279.55 L 35.86 271.65 L 35.48 267.12 L 31.02 256.84 L 30.54 252.62 L 24.79 239.53 L 24.79 239.53 L 25.25 239.51 L 31.76 238.89 L 34.82 238.77 L 35.82 237.61 L 37.78 236.16 L 39.60 235.37 L 40.26 233.56 L 40.07 231.64 L 41.10 229.58 L 41.09 229.06 L 40.73 227.76 L 41.23 224.94 L 40.95 222.47 L 41.13 220.95 L 40.51 218.37 L 40.21 217.97 L 39.72 217.76 L 38.86 215.39 L 38.25 213.18 L 37.23 210.85 L 36.22 206.96 L 35.09 206.38 L 35.02 203.22 L 33.88 199.50 L 34.31 196.86 L 33.45 194.87 L 33.64 193.54 L 36.67 193.06 L 40.56 190.04 L 44.18 189.41 L 45.47 189.76 L 46.88 190.60 L 46.32 186.81 L 47.52 185.94 L 47.54 184.76 L 48.35 182.54 L 48.54 179.55 L 50.61 177.90 L 52.04 174.99 L 51.29 173.90 L 50.26 172.76 L 49.32 173.82 L 47.87 175.21 L 42.39 169.50 L 41.40 166.13 L 41.89 163.70 L 41.33 161.27 L 40.31 160.15 L 38.79 158.88 L 39.89 155.70 L 40.61 154.40 L 41.25 152.93 L 41.64 152.68 L 41.20 151.01 L 40.34 150.73 L 39.57 150.76 L 38.70 149.61 L 41.04 146.49 L 40.16 144.50 L 38.40 143.62 L 37.33 143.87 L 35.46 142.57 L 33.72 141.49 L 33.40 140.89 L 32.56 139.77 L 32.69 138.06 L 32.26 137.42 L 32.03 136.37 L 31.31 134.65 L 30.88 134.24 L 30.87 132.49 L 31.45 131.92 L 31.77 131.03 L 31.64 128.78 L 31.32 128.06 L 30.37 128.14 L 28.85 121.96 L 28.45 121.15 L 29.00 120.56 L 29.14 119.77 L 28.85 116.23 L 27.72 116.10 L 26.59 116.78 L 25.47 117.06 L 24.87 118.11 L 24.24 118.60 L 22.70 117.59 L 22.68 119.40 L 21.39 120.78 L 21.59 122.87 L 20.17 124.05 L 19.78 123.53 L 19.70 123.02 L 18.97 122.16 L 18.32 121.87 L 17.05 121.65 L 16.70 121.03 L 16.68 120.59 L 16.94 119.58 L 16.33 119.39 L 15.72 118.72 L 15.88 118.36 L 15.17 118.08 L 15.08 117.37 L 14.45 116.68 L 14.17 116.71 L 13.95 115.82 L 13.58 115.36 L 13.87 114.99 L 14.18 114.09 L 12.39 113.44 L 11.52 113.74 L 11.13 114.81 L 10.56 114.93 L 10.09 114.64 L 9.87 113.91 L 9.22 114.01 L 8.53 114.88 L 7.84 114.59 L 7.95 113.69 L 7.40 113.66 L 6.15 113.13 L 5.82 112.70 L 5.25 112.59 L 4.49 112.01 L 4.16 111.55 L 3.06 110.79 L 1.62 110.42 L 1.09 110.53 Z M 5.64 100.34 L 6.40 99.62 L 7.11 100.01 L 7.06 101.45 L 6.35 101.68 L 5.95 101.46 L 5.64 100.34 Z M 6.79 95.47 L 7.23 94.35 L 7.91 93.82 L 7.74 92.73 L 7.88 91.87 L 8.36 91.58 L 8.50 92.31 L 8.45 93.06 L 8.55 94.08 L 8.90 94.77 L 8.87 95.32 L 8.54 96.22 L 8.65 96.79 L 9.24 96.98 L 9.10 97.57 L 8.75 98.01 L 8.14 98.24 L 7.69 99.06 L 7.54 98.50 L 7.90 98.21 L 7.33 98.12 L 7.57 97.08 L 7.81 96.74 L 7.49 96.29 L 7.09 96.28 L 7.14 95.63 L 6.79 95.47 Z M 12.44 98.66 L 12.85 97.59 L 12.60 98.61 L 12.44 98.66 Z M 15.65 101.44 L 15.86 99.93 L 15.99 97.80 L 16.17 96.63 L 15.99 94.99 L 15.68 93.99 L 16.35 93.91 L 16.49 92.92 L 16.67 92.65 L 16.27 91.78 L 16.37 91.24 L 16.68 91.61 L 17.42 93.29 L 17.98 94.20 L 18.36 94.42 L 18.65 94.98 L 19.13 95.26 L 19.47 95.89 L 19.55 96.78 L 19.26 98.58 L 18.70 100.18 L 18.54 101.65 L 18.63 101.83 L 18.16 103.22 L 17.92 104.20 L 16.97 105.96 L 16.28 106.23 L 16.41 105.76 L 16.13 104.69 L 15.66 103.83 L 15.76 103.54 L 15.65 101.44 Z M 16.53 107.99 L 16.77 107.72 L 16.69 107.11 L 17.01 106.62 L 16.98 107.43 L 16.78 108.28 L 16.53 107.99 Z M 23.16 63.20 L 23.65 62.98 L 23.67 62.47 L 24.05 62.34 L 23.53 61.84 L 24.48 60.70 L 24.20 60.42 L 24.73 60.06 L 25.11 61.77 L 25.39 62.39 L 25.43 62.01 L 25.80 62.21 L 26.23 61.94 L 26.79 62.35 L 26.99 61.98 L 27.47 62.19 L 27.60 62.71 L 28.79 62.37 L 29.17 62.87 L 28.86 63.85 L 29.72 64.36 L 30.34 63.69 L 30.65 63.08 L 31.61 63.44 L 32.06 63.77 L 32.36 63.05 L 32.32 62.47 L 31.97 61.67 L 32.26 61.11 L 32.04 60.40 L 31.59 60.42 L 31.06 59.32 L 31.46 59.07 L 32.30 59.64 L 32.72 59.68 L 32.52 60.37 L 33.11 60.95 L 33.39 61.57 L 34.14 62.22 L 34.40 62.74 L 35.75 63.73 L 36.05 64.59 L 36.55 64.46 L 36.66 65.03 L 36.96 65.13 L 37.32 64.70 L 36.92 64.05 L 37.07 62.92 L 36.49 62.25 L 36.29 61.30 L 36.33 60.70 L 36.84 60.49 L 36.64 59.87 L 36.13 59.43 L 35.70 58.74 L 35.47 58.70 L 35.84 58.05 L 35.66 57.22 L 35.74 56.57 L 36.32 55.50 L 36.98 55.29 L 36.39 54.65 L 36.34 54.34 L 37.25 54.67 L 37.13 55.45 L 37.61 56.44 L 37.46 57.68 L 37.79 57.64 L 37.74 57.21 L 38.10 57.33 L 38.63 57.95 L 38.04 58.17 L 38.85 59.46 L 39.46 59.68 L 39.49 60.21 L 39.82 59.97 L 39.56 59.61 L 40.23 59.54 L 40.13 59.22 L 40.69 59.05 L 39.97 58.81 L 39.65 58.45 L 40.07 58.20 L 39.67 57.31 L 39.18 56.84 L 39.76 56.98 L 39.92 56.52 L 40.45 56.36 L 40.89 55.75 L 40.55 55.34 L 40.86 54.87 L 40.65 54.64 L 41.31 54.44 L 41.56 54.71 L 41.80 55.58 L 42.27 56.02 L 42.70 56.81 L 43.35 56.14 L 43.74 56.55 L 43.22 57.17 L 43.50 57.99 L 44.14 57.38 L 44.47 57.70 L 44.14 58.73 L 44.86 58.31 L 44.92 58.64 L 44.40 59.28 L 44.76 59.42 L 44.09 59.64 L 43.45 59.61 L 43.07 59.92 L 43.41 60.10 L 42.77 60.20 L 42.34 61.18 L 41.91 61.47 L 41.73 61.93 L 42.29 62.27 L 42.17 63.91 L 42.25 64.35 L 42.93 63.60 L 43.92 63.40 L 44.09 62.79 L 44.37 62.63 L 43.53 62.46 L 43.25 62.64 L 42.81 62.19 L 43.74 61.90 L 44.13 62.29 L 44.33 61.98 L 44.62 62.30 L 44.48 62.76 L 45.61 61.41 L 45.88 62.90 L 45.85 64.62 L 45.98 65.52 L 46.37 65.99 L 46.34 66.61 L 46.81 66.57 L 46.48 66.01 L 46.85 65.48 L 46.98 64.62 L 46.77 64.83 L 46.20 64.25 L 46.39 63.89 L 46.78 64.01 L 46.89 63.48 L 47.37 62.99 L 47.43 62.18 L 47.91 61.90 L 48.22 62.83 L 48.71 62.76 L 48.99 62.47 L 49.67 62.66 L 50.28 61.98 L 50.16 61.64 L 49.65 61.65 L 49.18 61.40 L 49.14 60.99 L 48.39 59.51 L 48.41 59.22 L 47.96 58.62 L 47.46 58.24 L 48.50 57.78 L 48.39 57.27 L 48.03 57.19 L 48.13 56.64 L 48.69 56.43 L 48.64 56.19 L 47.78 56.52 L 47.08 56.51 L 47.81 55.67 L 47.42 55.66 L 47.13 55.30 L 47.13 54.39 L 47.37 54.22 L 47.61 53.42 L 46.67 54.27 L 45.98 53.83 L 46.06 53.13 L 45.61 52.15 L 45.91 51.13 L 46.43 50.96 L 46.35 50.63 L 46.93 50.38 L 47.39 50.54 L 47.40 50.12 L 48.03 49.56 L 48.00 49.31 L 48.84 49.31 L 48.94 48.96 L 49.39 48.98 L 49.55 49.68 L 49.36 50.29 L 49.02 50.67 L 48.71 51.53 L 49.24 52.03 L 49.11 52.70 L 49.41 53.04 L 49.67 52.40 L 49.68 51.68 L 49.95 51.00 L 50.75 51.70 L 50.83 52.18 L 51.24 52.30 L 51.20 52.97 L 50.43 53.75 L 50.27 54.49 L 50.67 54.69 L 51.24 53.79 L 51.49 54.42 L 51.92 53.73 L 52.82 53.54 L 53.39 53.66 L 53.21 54.59 L 53.23 55.30 L 52.92 56.11 L 52.57 56.19 L 52.79 56.62 L 51.61 57.68 L 51.76 58.08 L 52.26 58.11 L 53.10 57.72 L 53.51 58.70 L 53.43 59.18 L 53.69 59.32 L 53.45 60.08 L 53.84 60.29 L 53.91 60.73 L 54.62 60.59 L 55.16 60.32 L 55.31 61.31 L 55.60 61.81 L 55.57 61.15 L 55.20 60.01 L 55.29 59.02 L 54.82 58.62 L 54.69 58.08 L 54.93 57.88 L 55.03 58.36 L 55.50 57.96 L 55.50 57.47 L 56.58 58.04 L 56.83 57.68 L 55.94 57.00 L 56.38 56.56 L 56.49 55.43 L 56.19 54.47 L 56.51 53.81 L 57.20 53.93 L 57.43 53.69 L 57.67 54.20 L 58.23 54.80 L 58.08 55.04 L 59.16 55.61 L 59.20 55.22 L 58.31 54.85 L 57.97 53.63 L 58.46 52.66 L 58.64 51.87 L 58.89 51.78 L 59.29 52.43 L 59.60 52.32 L 59.82 52.72 L 60.60 52.72 L 60.20 51.94 L 59.42 52.02 L 59.25 51.09 L 58.39 50.82 L 58.50 50.62 L 58.28 49.93 L 59.11 49.72 L 58.98 49.31 L 58.31 49.26 L 58.10 49.49 L 57.79 49.18 L 57.64 48.63 L 57.29 48.53 L 57.20 48.10 L 56.60 47.81 L 56.56 47.27 L 55.85 47.06 L 55.65 46.37 L 56.12 45.91 L 56.73 45.97 L 56.79 44.93 L 57.42 45.48 L 58.14 46.46 L 58.36 46.36 L 57.96 45.39 L 57.84 44.72 L 57.56 44.25 L 56.93 44.17 L 56.80 43.86 L 57.32 43.24 L 57.74 43.78 L 58.32 44.02 L 58.59 44.43 L 59.21 44.58 L 59.81 45.29 L 60.32 46.54 L 60.93 47.34 L 61.12 47.19 L 60.81 46.29 L 61.16 46.01 L 60.93 45.44 L 60.94 44.81 L 60.26 43.24 L 60.40 42.44 L 60.65 42.26 L 60.91 43.06 L 61.53 43.74 L 61.85 45.01 L 62.25 45.97 L 62.19 46.50 L 62.70 46.44 L 63.00 47.26 L 63.25 48.44 L 64.15 48.99 L 63.74 47.60 L 63.64 46.68 L 64.08 46.53 L 64.52 47.24 L 64.98 46.82 L 65.11 46.34 L 64.84 45.82 L 64.15 45.51 L 64.08 44.94 L 64.32 44.24 L 64.73 44.27 L 64.72 43.62 L 64.38 42.63 L 63.92 42.08 L 64.62 41.53 L 64.23 40.38 L 64.31 39.82 L 64.62 39.68 L 64.62 38.54 L 64.79 38.37 L 64.45 37.82 L 64.72 37.55 L 64.97 38.17 L 64.92 38.59 L 65.41 39.16 L 65.72 39.91 L 66.34 40.01 L 66.65 40.38 L 66.58 41.12 L 66.24 41.22 L 66.24 41.82 L 66.62 42.26 L 67.41 41.94 L 67.69 42.12 L 68.51 41.83 L 67.93 42.98 L 68.21 43.34 L 68.92 43.78 L 69.23 43.65 L 69.12 44.20 L 68.16 44.00 L 69.15 45.22 L 69.52 45.22 L 70.15 45.67 L 69.83 46.28 L 70.31 46.85 L 70.16 47.69 L 69.79 47.76 L 69.02 47.35 L 68.42 47.26 L 67.59 46.64 L 67.41 46.16 L 67.20 46.82 L 66.58 47.24 L 66.24 46.97 L 66.69 47.73 L 67.26 47.84 L 68.62 48.67 L 68.85 49.55 L 68.27 49.84 L 67.30 49.19 L 67.10 49.28 L 66.93 50.02 L 67.33 50.57 L 67.09 51.11 L 67.20 52.10 L 66.87 52.81 L 66.22 53.01 L 66.09 53.57 L 65.83 53.34 L 65.47 51.94 L 65.23 51.81 L 64.72 50.86 L 64.67 51.66 L 64.41 51.80 L 64.87 52.81 L 64.75 54.30 L 64.88 54.97 L 65.22 55.24 L 64.85 55.96 L 64.24 55.86 L 63.89 54.87 L 63.46 55.16 L 63.56 55.73 L 63.51 56.66 L 63.18 56.86 L 62.57 56.51 L 62.50 57.10 L 63.27 57.89 L 63.43 58.34 L 63.30 58.77 L 62.48 59.46 L 62.07 58.64 L 61.72 58.57 L 61.73 59.18 L 61.43 59.42 L 60.65 58.46 L 60.27 57.38 L 60.02 57.21 L 59.95 56.65 L 59.79 57.72 L 59.85 58.49 L 59.29 58.62 L 59.72 59.54 L 60.24 59.69 L 59.66 60.25 L 59.47 60.77 L 58.99 61.11 L 59.34 61.49 L 60.22 61.12 L 60.91 61.28 L 60.36 61.61 L 60.07 62.88 L 59.74 63.44 L 59.82 64.02 L 59.67 64.72 L 59.16 64.39 L 58.28 64.44 L 57.73 64.68 L 57.20 64.38 L 56.63 64.91 L 56.88 65.12 L 57.45 65.00 L 57.81 65.85 L 58.22 65.52 L 58.77 65.61 L 58.62 66.89 L 58.07 67.09 L 58.23 67.54 L 57.86 68.73 L 57.95 69.21 L 57.56 69.48 L 57.55 70.23 L 57.06 70.83 L 57.22 71.18 L 56.98 71.47 L 56.43 70.42 L 56.50 69.70 L 56.04 68.66 L 55.11 68.04 L 54.71 68.04 L 54.53 68.51 L 54.85 68.82 L 55.04 68.52 L 55.56 69.10 L 55.39 69.93 L 55.52 70.90 L 55.70 71.26 L 55.62 72.09 L 55.20 72.66 L 54.32 71.96 L 52.80 71.48 L 53.06 70.87 L 52.64 70.45 L 52.52 70.99 L 52.07 71.13 L 51.80 70.77 L 51.83 71.42 L 51.62 72.05 L 51.97 72.34 L 52.86 72.66 L 53.31 73.67 L 53.41 74.39 L 53.17 74.95 L 53.20 75.86 L 52.80 76.02 L 52.32 75.89 L 52.16 76.22 L 51.00 76.84 L 50.77 76.38 L 50.81 75.62 L 50.64 75.50 L 50.26 76.34 L 50.35 77.16 L 49.89 77.57 L 49.67 77.26 L 49.21 77.67 L 49.38 76.91 L 49.92 76.06 L 50.32 74.59 L 49.70 75.47 L 49.30 76.89 L 48.93 76.58 L 48.46 77.46 L 48.08 77.93 L 47.55 78.19 L 47.49 77.54 L 47.82 76.22 L 47.78 75.13 L 48.21 74.21 L 48.13 74.00 L 47.74 74.61 L 47.46 74.49 L 47.16 73.77 L 47.36 73.40 L 46.81 73.32 L 46.59 74.06 L 46.69 74.79 L 46.60 77.54 L 46.24 78.72 L 45.97 78.79 L 45.74 78.24 L 45.83 77.41 L 45.64 76.88 L 45.98 76.40 L 46.03 75.92 L 45.63 75.89 L 45.89 75.21 L 45.96 74.02 L 46.72 72.78 L 45.97 73.52 L 45.84 73.40 L 45.34 73.92 L 44.80 72.70 L 44.40 73.03 L 44.31 74.41 L 43.92 73.45 L 43.40 73.18 L 43.58 74.70 L 43.50 75.73 L 43.69 75.52 L 43.80 76.58 L 43.65 76.83 L 43.86 77.46 L 43.76 78.24 L 43.36 78.31 L 42.98 76.52 L 42.68 76.51 L 42.57 77.01 L 42.71 78.35 L 42.52 78.55 L 41.98 79.91 L 41.50 79.54 L 41.39 78.81 L 40.90 78.75 L 41.12 79.30 L 40.56 79.58 L 40.48 78.71 L 40.21 78.23 L 40.21 77.66 L 39.78 76.66 L 39.53 76.76 L 39.37 75.70 L 39.03 76.35 L 39.01 76.96 L 38.76 77.95 L 38.79 79.53 L 39.04 79.73 L 38.99 80.22 L 38.07 80.89 L 37.26 80.70 L 37.03 80.43 L 37.32 79.42 L 37.23 79.06 L 37.60 77.50 L 37.56 76.74 L 37.30 77.71 L 36.98 77.20 L 36.94 77.69 L 36.42 78.46 L 36.07 78.26 L 35.87 78.50 L 35.93 79.79 L 35.32 80.77 L 34.73 80.88 L 34.24 80.53 L 34.19 80.07 L 33.84 79.62 L 34.12 76.39 L 34.34 76.06 L 33.88 75.69 L 34.19 75.16 L 34.12 74.84 L 33.06 76.52 L 33.24 76.66 L 32.75 77.13 L 32.44 78.10 L 32.46 79.45 L 32.70 80.70 L 32.21 81.54 L 31.90 81.54 L 31.51 80.80 L 31.05 81.19 L 30.61 80.98 L 29.86 81.14 L 30.32 81.80 L 30.35 82.20 L 30.01 82.56 L 28.96 82.16 L 28.30 81.46 L 27.94 81.96 L 27.72 81.29 L 28.81 80.90 L 29.26 80.19 L 28.89 79.79 L 28.95 79.28 L 29.64 79.20 L 29.24 79.02 L 29.62 78.64 L 28.67 78.44 L 28.90 77.75 L 29.09 77.79 L 29.05 77.12 L 29.35 77.01 L 29.37 76.31 L 29.60 76.43 L 29.86 75.95 L 30.15 75.98 L 30.24 75.20 L 30.51 74.74 L 31.03 74.35 L 31.35 74.55 L 31.76 74.17 L 32.09 74.31 L 32.49 73.41 L 33.06 72.85 L 33.16 72.09 L 32.65 71.91 L 32.20 71.39 L 31.39 71.59 L 31.57 70.68 L 32.37 69.87 L 32.75 69.92 L 32.79 69.55 L 33.96 69.11 L 34.57 67.95 L 34.36 67.16 L 33.61 67.20 L 33.34 67.53 L 32.90 67.38 L 32.08 66.80 L 31.25 66.75 L 30.60 67.25 L 30.47 66.60 L 28.96 68.19 L 28.54 68.10 L 28.28 70.03 L 27.89 70.12 L 27.89 68.97 L 27.10 68.84 L 26.95 68.33 L 26.41 69.39 L 26.25 70.11 L 25.79 69.84 L 24.86 68.73 L 25.27 68.48 L 24.97 68.14 L 24.91 66.90 L 25.62 67.06 L 25.32 66.64 L 25.54 66.18 L 26.06 66.49 L 26.57 65.54 L 26.69 64.95 L 26.35 64.35 L 26.13 64.54 L 25.74 64.07 L 25.12 64.17 L 24.68 65.03 L 24.46 64.70 L 24.56 63.90 L 23.80 63.82 L 23.16 63.20 Z M 32.59 79.18 L 32.96 78.06 L 32.86 77.77 L 33.26 77.01 L 33.52 77.19 L 33.36 77.75 L 32.92 78.43 L 32.80 79.22 L 32.59 79.18 Z M 35.51 97.43 L 35.58 96.86 L 36.52 95.73 L 37.02 95.46 L 37.81 95.46 L 37.76 95.68 L 38.37 96.34 L 38.75 96.14 L 38.97 97.28 L 39.28 97.61 L 39.45 98.80 L 39.63 98.70 L 39.74 97.72 L 39.08 95.60 L 38.48 94.91 L 38.79 94.69 L 39.03 94.08 L 40.43 93.33 L 40.88 94.28 L 40.83 94.98 L 41.16 95.51 L 41.78 94.60 L 41.36 93.39 L 41.41 92.56 L 41.98 92.36 L 42.74 92.39 L 42.57 94.58 L 42.89 96.22 L 43.04 95.42 L 42.94 94.12 L 43.11 92.33 L 43.34 91.98 L 43.84 91.79 L 44.27 92.11 L 44.46 93.50 L 44.72 94.19 L 44.63 94.81 L 44.94 95.75 L 45.04 93.91 L 44.81 91.98 L 44.89 91.43 L 45.75 91.24 L 46.22 91.77 L 46.20 93.82 L 46.63 95.72 L 46.65 96.59 L 46.34 97.80 L 46.29 98.76 L 46.48 99.00 L 46.58 97.82 L 47.07 97.07 L 47.27 96.26 L 47.04 92.37 L 47.43 91.78 L 48.14 91.39 L 48.50 91.39 L 49.15 92.56 L 49.30 93.27 L 49.06 93.91 L 49.03 94.64 L 49.19 95.72 L 48.89 96.24 L 49.14 97.31 L 49.54 97.71 L 49.36 98.35 L 49.58 99.07 L 50.08 98.47 L 50.14 96.94 L 50.76 97.34 L 51.22 97.24 L 51.69 97.77 L 51.61 98.06 L 52.01 98.46 L 51.98 98.82 L 51.30 99.62 L 51.40 100.15 L 52.04 99.56 L 52.55 99.68 L 53.00 98.87 L 53.13 98.95 L 53.49 98.18 L 53.87 98.30 L 53.47 100.18 L 52.77 101.37 L 52.49 102.65 L 52.80 102.68 L 52.91 102.20 L 53.70 101.36 L 53.94 101.66 L 53.93 102.16 L 54.42 102.44 L 54.48 103.42 L 54.86 103.90 L 55.14 104.78 L 55.16 105.68 L 55.38 105.76 L 55.47 107.46 L 54.98 108.24 L 54.90 108.73 L 54.46 108.11 L 53.89 108.49 L 52.90 107.85 L 51.81 107.40 L 51.01 107.71 L 51.01 107.36 L 49.89 107.75 L 48.15 107.77 L 47.48 107.66 L 46.59 107.17 L 46.72 106.49 L 45.92 106.94 L 45.12 106.64 L 44.57 106.60 L 44.58 105.98 L 44.28 106.32 L 43.75 105.79 L 43.28 106.09 L 42.29 105.99 L 41.92 104.78 L 41.42 104.77 L 40.54 104.36 L 39.91 103.77 L 39.48 103.59 L 38.66 102.69 L 37.17 102.06 L 36.61 100.14 L 36.24 99.35 L 35.84 98.92 L 35.51 97.43 Z M 44.88 76.51 L 45.03 75.98 L 45.21 76.75 L 44.88 76.51 Z M 45.70 54.81 L 46.00 54.35 L 46.30 54.65 L 45.70 54.81 Z M 49.63 97.79 L 49.82 97.14 L 50.02 98.16 L 49.63 97.79 Z M 49.67 89.16 L 50.30 89.24 L 50.07 88.89 L 50.17 88.50 L 50.51 88.88 L 51.03 90.01 L 51.89 90.44 L 51.88 90.15 L 52.55 90.47 L 53.76 90.10 L 53.02 89.13 L 52.17 88.92 L 51.54 88.19 L 51.44 87.44 L 51.59 86.87 L 51.24 86.41 L 51.15 85.52 L 51.38 84.77 L 52.27 83.58 L 53.04 83.42 L 53.05 84.24 L 53.43 83.93 L 53.57 83.10 L 53.42 82.32 L 53.70 81.86 L 54.29 81.76 L 54.66 82.25 L 55.11 82.17 L 54.72 81.54 L 54.63 80.27 L 55.33 79.73 L 55.46 79.12 L 55.76 78.75 L 56.17 78.69 L 56.40 78.27 L 57.20 77.71 L 57.66 77.75 L 57.86 77.37 L 58.57 77.79 L 59.03 78.51 L 59.04 78.83 L 59.56 79.26 L 59.43 80.15 L 59.55 80.61 L 59.15 80.80 L 58.95 81.26 L 59.56 81.00 L 59.69 81.26 L 60.07 80.81 L 59.82 79.51 L 60.09 79.26 L 60.23 77.48 L 60.96 77.40 L 62.04 77.49 L 61.73 77.13 L 61.06 76.84 L 59.78 76.55 L 59.34 75.35 L 58.81 75.25 L 58.79 74.21 L 59.43 73.68 L 60.11 73.75 L 59.82 74.34 L 60.36 73.84 L 61.26 74.01 L 61.67 74.49 L 61.49 74.70 L 61.95 76.38 L 62.23 77.03 L 62.42 78.03 L 62.71 78.32 L 62.53 81.09 L 62.31 81.49 L 62.09 82.45 L 62.67 82.60 L 62.71 82.87 L 62.16 82.83 L 61.58 83.18 L 61.34 84.09 L 61.45 84.20 L 61.99 83.50 L 61.92 83.31 L 63.00 82.93 L 62.89 82.68 L 63.31 82.27 L 63.42 81.23 L 63.69 80.12 L 63.49 80.18 L 63.35 79.54 L 63.63 79.58 L 63.72 78.75 L 63.50 78.38 L 63.71 77.74 L 64.50 77.15 L 64.81 76.70 L 64.71 76.25 L 64.14 76.52 L 63.57 77.03 L 63.59 76.68 L 63.16 75.68 L 63.08 75.13 L 62.51 73.75 L 63.89 73.57 L 64.33 73.73 L 64.48 74.31 L 64.98 75.15 L 65.50 75.28 L 66.28 74.86 L 66.75 75.68 L 67.24 75.95 L 67.43 75.47 L 67.06 75.39 L 66.84 74.50 L 66.58 74.10 L 66.09 73.93 L 66.12 73.27 L 67.39 72.59 L 67.80 72.21 L 68.25 72.09 L 69.42 73.03 L 69.44 73.52 L 69.78 74.02 L 70.11 75.33 L 70.44 75.70 L 70.87 74.78 L 70.47 74.50 L 70.41 74.00 L 69.97 73.24 L 69.52 72.95 L 69.09 72.16 L 68.80 71.92 L 69.30 71.64 L 69.95 70.91 L 69.50 70.52 L 69.43 69.87 L 68.98 69.84 L 68.05 70.20 L 68.09 69.42 L 67.73 68.64 L 68.23 67.95 L 68.64 67.84 L 68.59 67.46 L 68.94 66.79 L 68.46 66.43 L 67.36 67.29 L 66.88 67.45 L 66.66 67.17 L 66.82 66.77 L 66.38 66.64 L 65.80 65.99 L 66.23 65.24 L 66.65 65.18 L 66.87 64.77 L 67.59 65.22 L 68.55 65.22 L 68.79 64.87 L 69.65 64.87 L 69.79 65.08 L 69.47 65.60 L 69.68 66.16 L 70.37 66.49 L 71.48 65.90 L 71.95 65.30 L 72.08 65.50 L 71.68 66.10 L 71.54 67.42 L 71.84 67.71 L 71.62 68.37 L 72.02 68.86 L 72.52 68.62 L 72.72 68.96 L 72.49 69.30 L 72.76 69.91 L 72.37 70.48 L 72.30 71.05 L 71.96 71.91 L 72.02 72.59 L 71.72 72.98 L 71.17 72.99 L 71.39 74.05 L 71.60 73.97 L 71.49 74.76 L 71.09 74.72 L 71.04 75.23 L 71.62 76.01 L 71.24 75.84 L 71.03 76.68 L 71.75 77.75 L 72.02 77.78 L 73.03 78.42 L 73.27 78.87 L 74.42 80.40 L 74.35 80.70 L 73.84 80.37 L 73.69 80.77 L 73.69 82.52 L 74.00 83.43 L 73.96 84.66 L 74.21 85.34 L 74.25 86.20 L 73.60 86.84 L 72.66 87.97 L 72.02 89.13 L 71.68 89.17 L 71.39 89.98 L 70.75 90.84 L 70.66 91.33 L 70.11 91.81 L 69.71 91.61 L 68.90 91.87 L 68.43 91.24 L 67.92 90.87 L 68.20 92.12 L 69.32 92.81 L 69.08 93.72 L 68.51 94.60 L 68.14 94.76 L 67.76 94.46 L 67.53 94.70 L 67.78 95.40 L 67.77 96.00 L 67.47 96.36 L 66.83 96.62 L 66.34 96.38 L 64.66 97.12 L 64.36 96.83 L 63.89 96.85 L 63.58 96.49 L 63.54 96.94 L 63.91 97.18 L 63.59 97.94 L 63.75 98.09 L 64.61 98.00 L 65.05 98.16 L 64.97 98.43 L 65.69 99.20 L 65.79 100.07 L 64.98 101.29 L 64.45 101.75 L 63.85 102.01 L 63.60 102.43 L 63.19 102.09 L 62.91 102.16 L 62.93 102.96 L 61.10 104.16 L 60.02 104.68 L 59.56 104.77 L 58.94 104.40 L 58.72 103.88 L 58.18 103.91 L 57.71 102.95 L 57.27 102.88 L 56.88 102.27 L 57.13 101.56 L 56.73 100.95 L 57.08 100.70 L 57.07 100.17 L 56.36 98.55 L 56.71 98.43 L 57.00 97.80 L 56.86 97.22 L 57.76 96.14 L 58.08 95.47 L 58.17 94.82 L 57.96 94.62 L 58.13 94.01 L 58.60 93.23 L 58.88 91.00 L 58.83 89.54 L 58.68 89.85 L 58.28 91.86 L 58.08 92.12 L 57.83 93.33 L 57.23 94.48 L 57.14 95.06 L 56.72 95.38 L 56.12 96.24 L 56.28 96.49 L 55.60 97.59 L 54.44 96.83 L 54.67 96.26 L 54.29 94.69 L 54.15 94.78 L 54.13 96.61 L 53.58 96.81 L 53.40 96.04 L 53.01 95.85 L 52.57 95.21 L 51.92 94.49 L 51.68 93.62 L 52.13 92.86 L 51.95 91.62 L 50.64 91.06 L 50.13 90.26 L 49.67 89.16 Z M 51.84 38.09 L 52.24 37.24 L 52.38 37.57 L 51.84 38.09 Z M 52.96 51.32 L 53.22 51.05 L 53.10 50.47 L 53.40 50.29 L 53.21 49.51 L 53.78 49.04 L 54.10 49.63 L 53.80 51.35 L 53.40 51.77 L 52.96 51.32 Z M 54.61 40.32 L 55.04 39.95 L 56.19 40.79 L 56.24 40.40 L 57.09 40.39 L 57.40 40.93 L 57.38 41.75 L 56.73 42.10 L 55.17 41.70 L 54.93 41.25 L 54.89 40.58 L 54.61 40.32 Z M 55.23 119.52 L 55.48 119.46 L 55.69 120.12 L 55.23 119.52 Z M 56.68 38.68 L 57.12 38.83 L 57.42 39.76 L 57.14 40.25 L 56.68 38.68 Z M 60.21 118.73 L 61.02 118.40 L 61.21 118.53 L 62.47 118.57 L 63.33 119.10 L 63.75 119.58 L 62.69 119.54 L 62.22 119.70 L 62.12 120.87 L 61.04 120.86 L 60.31 120.04 L 60.36 119.06 L 60.21 118.73 Z M 63.84 62.61 L 64.18 62.23 L 64.42 62.45 L 64.05 62.83 L 63.84 62.61 Z M 64.75 67.92 L 65.05 67.54 L 65.82 67.78 L 64.75 67.92 Z M 64.94 71.54 L 65.84 71.15 L 65.42 70.54 L 66.01 70.24 L 66.11 69.78 L 66.96 69.37 L 67.62 70.08 L 67.36 70.64 L 66.29 71.13 L 65.36 71.69 L 64.94 71.54 Z M 67.38 61.85 L 68.00 61.10 L 68.84 60.94 L 69.03 61.82 L 68.20 62.10 L 67.38 61.85 Z M 67.42 138.38 L 67.70 137.78 L 67.71 138.26 L 67.42 138.38 Z M 72.06 66.90 L 72.42 66.57 L 72.45 66.94 L 72.06 66.90 Z M 72.69 58.46 L 73.15 57.45 L 73.67 57.87 L 73.09 58.41 L 72.69 58.46 Z M 72.97 67.71 L 74.31 66.04 L 74.80 65.57 L 74.93 63.89 L 75.41 64.13 L 75.15 63.47 L 75.21 62.76 L 74.37 62.79 L 74.27 63.27 L 73.69 63.45 L 74.13 63.00 L 74.23 62.37 L 74.79 61.93 L 75.48 60.71 L 75.78 60.81 L 76.00 60.29 L 75.32 59.95 L 74.77 60.44 L 75.09 59.91 L 74.65 59.79 L 74.34 59.30 L 73.97 57.82 L 74.11 57.41 L 73.83 56.98 L 74.18 54.81 L 74.47 54.07 L 74.92 53.69 L 74.94 53.04 L 75.16 52.27 L 75.21 51.46 L 75.60 51.29 L 75.82 51.66 L 76.76 51.31 L 76.97 51.57 L 79.03 51.35 L 79.37 52.03 L 79.22 52.46 L 79.33 52.99 L 79.08 53.26 L 79.52 53.38 L 79.06 54.52 L 79.77 54.63 L 80.11 53.97 L 80.61 53.78 L 80.38 54.61 L 78.98 55.79 L 78.74 56.16 L 78.97 56.37 L 78.56 57.22 L 79.37 56.73 L 79.25 57.50 L 80.45 55.47 L 80.79 55.12 L 81.43 55.38 L 82.00 55.38 L 82.28 55.95 L 83.25 55.57 L 83.25 56.20 L 83.91 56.45 L 84.68 56.41 L 84.86 56.74 L 84.70 57.22 L 84.86 57.72 L 85.70 57.58 L 86.39 58.40 L 87.00 59.56 L 87.60 61.03 L 87.73 61.69 L 87.18 62.16 L 86.36 62.63 L 86.43 62.84 L 87.22 62.83 L 88.21 62.53 L 88.50 63.54 L 87.99 64.46 L 88.15 64.88 L 88.64 64.85 L 88.87 65.53 L 88.41 65.90 L 88.46 66.22 L 88.91 66.35 L 89.03 66.81 L 88.95 67.71 L 88.39 69.47 L 88.07 69.64 L 87.18 70.76 L 86.78 71.51 L 86.31 71.75 L 85.94 72.69 L 85.21 73.51 L 84.94 74.21 L 85.26 75.20 L 84.99 76.34 L 84.29 77.15 L 83.24 77.66 L 82.51 78.24 L 81.87 78.56 L 81.34 78.23 L 80.50 78.06 L 79.54 78.22 L 78.34 78.11 L 77.89 77.13 L 77.17 76.55 L 77.07 76.13 L 77.36 75.68 L 76.82 74.71 L 76.99 74.27 L 76.71 73.40 L 76.34 72.70 L 75.84 72.55 L 75.55 72.21 L 75.90 72.06 L 76.04 71.31 L 75.58 69.51 L 75.53 68.49 L 75.03 68.23 L 75.32 67.78 L 74.62 67.94 L 74.49 67.37 L 74.61 66.79 L 73.44 67.91 L 72.97 67.71 Z M 75.40 32.32 L 75.93 31.54 L 76.32 31.83 L 76.52 32.49 L 75.83 32.58 L 75.40 32.32 Z M 76.16 36.95 L 76.63 36.63 L 76.81 37.19 L 76.16 36.95 Z M 79.72 53.28 L 80.21 53.16 L 80.43 53.48 L 79.79 53.58 L 79.72 53.28 Z M 80.31 23.34 L 81.05 23.05 L 82.22 23.28 L 82.43 22.86 L 83.25 23.19 L 83.43 22.85 L 82.71 22.40 L 82.10 22.46 L 81.87 22.87 L 81.97 21.95 L 82.75 21.91 L 83.34 21.67 L 82.88 20.86 L 82.08 20.69 L 81.74 20.37 L 82.23 19.83 L 83.18 19.38 L 83.49 19.46 L 84.77 18.93 L 84.74 19.80 L 84.97 20.29 L 85.53 20.24 L 85.36 19.38 L 85.75 18.90 L 86.54 19.27 L 86.73 19.88 L 87.01 19.99 L 86.80 20.41 L 87.02 20.69 L 86.55 21.33 L 86.26 22.11 L 87.04 22.69 L 87.41 22.25 L 88.31 22.26 L 88.86 22.61 L 89.80 22.69 L 88.88 23.40 L 88.82 24.01 L 88.29 23.36 L 87.92 24.17 L 86.81 24.36 L 87.18 25.29 L 86.34 26.34 L 86.28 26.68 L 86.57 27.24 L 87.25 26.53 L 87.56 26.66 L 88.10 26.22 L 88.89 26.42 L 89.42 26.01 L 89.27 26.66 L 90.56 26.49 L 91.39 26.86 L 91.53 27.33 L 91.87 27.56 L 91.31 27.97 L 90.90 27.86 L 90.55 28.54 L 91.58 28.64 L 91.49 29.14 L 90.85 29.61 L 90.51 29.50 L 89.99 29.74 L 89.14 29.77 L 89.78 30.53 L 89.33 31.10 L 89.07 31.02 L 88.14 30.24 L 87.93 30.23 L 87.46 30.83 L 87.80 31.13 L 87.41 31.82 L 87.57 32.16 L 86.56 32.76 L 85.61 32.62 L 84.86 32.15 L 84.68 31.86 L 84.86 31.13 L 84.72 30.90 L 83.59 31.29 L 83.39 30.56 L 82.81 30.49 L 83.08 29.94 L 84.09 29.63 L 84.28 29.38 L 83.45 29.24 L 83.48 28.55 L 82.89 28.73 L 81.79 28.30 L 82.20 27.90 L 82.23 26.95 L 82.91 26.46 L 82.69 26.19 L 83.19 25.40 L 84.33 24.99 L 85.06 25.23 L 85.35 24.78 L 85.97 24.47 L 85.88 23.97 L 85.07 24.59 L 83.91 24.42 L 83.57 24.62 L 82.43 24.73 L 81.49 25.02 L 81.43 24.39 L 81.64 23.97 L 81.14 23.80 L 80.65 23.91 L 80.31 23.34 Z M 83.24 15.08 L 83.74 14.56 L 84.57 15.17 L 84.81 14.88 L 85.10 16.55 L 85.54 17.16 L 85.81 17.09 L 85.63 16.36 L 85.34 16.10 L 86.22 16.35 L 86.63 16.67 L 86.80 16.30 L 86.35 16.07 L 86.29 15.09 L 85.32 14.22 L 85.49 13.80 L 85.80 13.94 L 86.32 13.18 L 86.90 13.49 L 86.79 13.81 L 87.25 14.10 L 87.33 14.80 L 88.71 13.63 L 88.56 13.31 L 89.13 13.24 L 88.88 14.11 L 89.39 13.70 L 89.39 14.60 L 88.74 15.37 L 87.87 15.78 L 87.35 16.27 L 87.36 16.95 L 87.61 17.34 L 88.08 17.09 L 87.78 17.70 L 86.84 18.30 L 86.20 18.11 L 86.29 17.77 L 85.47 17.48 L 84.67 18.15 L 84.10 18.10 L 83.98 17.61 L 83.64 17.33 L 83.67 16.48 L 83.48 16.18 L 83.60 15.29 L 83.24 15.08 Z M 84.49 13.36 L 84.96 13.37 L 84.61 13.64 L 84.49 13.36 Z M 87.17 43.22 L 87.79 42.42 L 88.12 43.02 L 87.50 43.50 L 87.17 43.22 Z M 89.77 23.07 L 90.19 22.67 L 90.68 22.87 L 90.64 23.20 L 91.43 23.31 L 91.07 23.73 L 89.80 23.63 L 89.77 23.07 Z M 90.06 46.19 L 90.61 46.13 L 90.21 46.45 L 90.06 46.19 Z M 90.15 13.77 L 90.26 13.41 L 90.69 13.32 L 90.58 13.68 L 90.15 13.77 Z M 90.53 38.74 L 90.63 38.49 L 91.44 38.01 L 91.53 37.78 L 92.44 37.48 L 93.60 36.78 L 93.57 37.04 L 92.96 37.81 L 92.02 38.75 L 90.89 39.60 L 90.53 38.74 Z M 91.87 36.54 L 92.16 35.84 L 92.48 35.52 L 92.76 35.63 L 92.40 36.74 L 91.87 36.54 Z M 97.61 31.41 L 97.64 30.85 L 97.99 30.51 L 98.01 31.13 L 98.39 31.66 L 98.18 31.86 L 97.61 31.41 Z M 98.95 31.95 L 99.42 31.55 L 99.79 31.58 L 100.43 32.32 L 100.13 32.43 L 99.98 32.04 L 99.57 32.23 L 98.95 31.95 Z M 101.28 21.89 L 101.72 20.73 L 102.06 20.62 L 102.70 20.86 L 103.06 21.37 L 103.49 21.39 L 104.35 21.80 L 105.14 22.85 L 106.09 22.66 L 106.23 23.23 L 105.81 23.05 L 105.78 23.51 L 105.13 23.68 L 104.26 23.52 L 103.70 23.64 L 102.66 22.89 L 102.01 22.15 L 101.67 22.23 L 101.28 21.89 Z M 102.43 45.03 L 102.70 44.98 L 102.89 45.51 L 102.61 45.58 L 102.43 45.03 Z M 103.15 15.68 L 103.84 14.79 L 103.75 14.54 L 104.48 13.76 L 104.40 13.07 L 104.96 12.63 L 105.30 12.69 L 105.99 13.35 L 106.28 13.39 L 106.11 14.04 L 106.30 14.33 L 105.79 14.50 L 105.82 14.99 L 106.50 14.56 L 106.83 15.25 L 107.04 15.29 L 107.34 14.56 L 107.10 14.43 L 107.68 13.37 L 106.88 12.65 L 106.40 11.94 L 105.99 11.60 L 106.31 11.55 L 105.87 10.45 L 106.36 10.40 L 106.64 10.00 L 107.94 10.98 L 107.83 11.52 L 108.00 11.92 L 108.46 11.80 L 108.34 12.24 L 108.71 12.53 L 108.90 11.68 L 109.60 11.65 L 110.09 11.19 L 110.57 11.51 L 109.93 12.17 L 109.54 13.18 L 109.17 13.18 L 109.08 13.66 L 110.20 14.21 L 110.02 14.42 L 109.04 14.29 L 108.52 15.04 L 108.05 15.44 L 107.99 15.80 L 108.64 16.43 L 108.87 16.95 L 108.84 17.48 L 108.39 17.82 L 108.16 18.47 L 108.41 18.89 L 108.39 19.55 L 108.05 19.88 L 107.53 19.58 L 107.21 19.76 L 106.64 19.58 L 106.38 18.81 L 105.56 18.18 L 105.55 17.62 L 104.99 17.74 L 104.21 17.04 L 103.35 16.60 L 103.68 16.24 L 103.15 15.68 Z M 112.77 20.11 L 113.14 19.78 L 113.21 18.55 L 113.63 18.10 L 113.62 17.59 L 114.34 17.65 L 114.23 18.11 L 114.81 18.38 L 114.73 19.20 L 115.47 19.14 L 115.85 18.56 L 116.68 18.82 L 116.29 19.30 L 116.23 19.96 L 115.90 20.23 L 116.05 20.53 L 115.54 21.09 L 115.73 21.92 L 115.25 21.93 L 115.20 22.32 L 115.62 22.52 L 114.96 23.14 L 114.12 23.44 L 113.64 23.02 L 113.97 22.60 L 114.35 22.61 L 114.85 22.25 L 114.71 21.95 L 113.84 21.95 L 113.25 20.41 L 112.77 20.11 Z M 114.46 112.13 L 114.49 111.66 L 115.03 111.00 L 115.09 111.68 L 115.48 111.44 L 115.40 111.98 L 115.04 112.07 L 115.10 112.44 L 114.66 112.72 L 114.46 112.13 Z M 114.58 110.34 L 114.79 110.33 L 114.86 109.63 L 115.23 109.06 L 115.79 109.14 L 115.28 110.20 L 114.58 110.34 Z M 114.66 117.51 L 115.02 117.37 L 115.34 116.89 L 114.94 118.07 L 114.66 117.51 Z M 117.00 110.25 L 117.87 108.66 L 118.12 108.94 L 117.98 109.57 L 117.46 110.45 L 117.00 110.25 Z M 117.30 116.44 L 117.66 115.94 L 117.89 115.01 L 118.33 115.40 L 118.01 116.40 L 118.39 116.15 L 118.19 116.63 L 117.96 116.49 L 117.65 116.94 L 117.30 116.44 Z M 118.00 123.21 L 118.36 122.80 L 118.41 123.17 L 118.00 123.21 Z M 118.12 119.32 L 118.44 118.77 L 118.55 119.35 L 118.12 119.32 Z M 118.16 109.06 L 118.21 108.46 L 118.42 108.79 L 118.16 109.06 Z M 118.44 97.12 L 118.49 96.74 L 118.83 96.61 L 118.71 97.14 L 118.44 97.12 Z M 118.49 95.47 L 119.28 95.03 L 119.14 95.73 L 118.74 96.08 L 118.49 95.47 Z M 118.65 107.64 L 119.36 107.47 L 119.05 108.20 L 119.27 108.21 L 118.69 109.00 L 118.80 108.57 L 118.65 107.64 Z M 119.16 113.40 L 119.47 113.00 L 119.31 113.79 L 119.16 113.40 Z M 119.76 119.73 L 120.00 119.11 L 120.17 117.45 L 120.28 118.43 L 120.64 118.07 L 120.59 119.11 L 120.40 118.53 L 120.24 119.13 L 119.76 119.73 Z M 119.77 110.75 L 120.26 109.94 L 120.54 109.92 L 120.93 109.43 L 121.14 109.85 L 120.79 110.46 L 120.54 110.46 L 119.99 111.15 L 119.77 110.75 Z M 120.14 114.09 L 120.54 112.85 L 120.59 113.17 L 120.14 114.09 Z M 120.30 114.10 L 120.92 112.88 L 121.03 113.69 L 120.69 114.10 L 120.30 114.10 Z M 120.41 117.22 L 120.64 116.51 L 120.60 117.90 L 120.41 117.22 Z M 120.53 101.12 L 121.23 100.09 L 121.29 101.01 L 120.87 101.56 L 120.53 101.12 Z M 121.86 108.08 L 122.15 107.09 L 122.38 106.87 L 122.66 104.70 L 123.31 103.59 L 123.28 102.89 L 123.81 102.38 L 124.15 102.51 L 124.10 101.97 L 124.42 101.91 L 124.26 102.64 L 124.61 103.00 L 125.10 102.96 L 125.28 103.81 L 124.96 105.15 L 125.13 105.42 L 124.81 105.86 L 124.35 106.05 L 124.21 106.40 L 122.90 107.60 L 122.79 108.01 L 121.86 108.08 Z M 122.21 87.93 L 122.37 87.16 L 122.61 87.27 L 122.50 87.80 L 122.21 87.93 Z M 122.25 17.36 L 122.84 16.62 L 122.70 16.02 L 123.35 15.56 L 124.61 15.09 L 124.54 14.58 L 124.12 14.05 L 123.68 14.10 L 123.81 13.74 L 123.04 13.00 L 123.28 12.82 L 123.06 12.20 L 123.28 11.73 L 124.22 12.43 L 124.42 12.16 L 125.05 12.13 L 124.58 12.39 L 124.99 12.50 L 125.73 12.29 L 125.57 12.59 L 127.19 12.28 L 127.55 13.02 L 127.94 13.07 L 128.01 12.71 L 128.41 13.40 L 128.83 12.96 L 128.40 11.75 L 128.45 9.91 L 129.04 10.05 L 128.99 10.44 L 129.35 10.79 L 129.49 11.39 L 129.87 10.99 L 129.94 10.36 L 130.60 10.04 L 131.28 10.26 L 131.49 10.08 L 132.18 10.94 L 131.88 11.28 L 131.90 12.09 L 131.58 12.65 L 132.08 12.62 L 132.40 12.18 L 133.01 12.16 L 133.23 11.53 L 134.72 12.62 L 134.98 13.14 L 135.63 13.86 L 136.50 15.44 L 136.96 15.09 L 137.10 14.10 L 136.76 13.89 L 135.88 12.75 L 135.64 11.96 L 134.97 11.06 L 135.17 10.86 L 134.68 10.25 L 133.21 9.36 L 133.19 8.89 L 132.36 8.08 L 132.45 7.86 L 133.28 7.87 L 132.62 7.17 L 131.27 6.16 L 131.08 6.34 L 130.84 5.75 L 131.08 4.87 L 131.60 4.18 L 131.77 5.28 L 132.15 5.82 L 133.08 4.54 L 133.39 4.58 L 133.63 4.06 L 133.97 4.13 L 134.66 3.60 L 135.08 2.25 L 135.35 2.67 L 135.11 3.69 L 135.44 4.28 L 135.64 4.24 L 135.35 5.08 L 135.35 6.08 L 135.54 6.16 L 135.79 5.44 L 136.21 5.09 L 136.41 5.79 L 136.77 5.40 L 137.16 4.09 L 137.49 4.39 L 137.92 4.32 L 137.94 3.99 L 138.52 3.65 L 139.01 4.03 L 139.31 3.98 L 139.45 4.83 L 138.73 5.33 L 139.17 5.89 L 138.68 6.76 L 138.68 7.84 L 138.29 8.99 L 138.12 9.02 L 137.50 10.20 L 138.04 9.96 L 138.60 9.96 L 138.51 10.83 L 138.76 10.89 L 139.16 9.96 L 140.05 9.02 L 140.54 8.88 L 140.79 8.49 L 141.13 8.54 L 140.78 9.26 L 139.80 10.46 L 139.77 11.11 L 140.47 11.06 L 141.13 10.74 L 141.67 9.99 L 141.97 8.77 L 142.40 8.92 L 142.33 8.37 L 142.79 8.97 L 142.72 9.88 L 143.12 10.54 L 143.36 9.71 L 143.60 7.95 L 144.25 7.22 L 144.76 7.27 L 144.86 7.82 L 145.84 8.65 L 145.84 9.25 L 146.28 10.61 L 145.50 11.97 L 145.15 12.30 L 144.60 12.38 L 144.86 12.84 L 144.45 13.74 L 143.77 13.89 L 143.48 13.69 L 143.13 14.09 L 142.32 13.96 L 142.19 14.64 L 141.12 14.55 L 140.14 14.88 L 140.10 15.44 L 140.44 15.95 L 141.02 15.82 L 141.08 16.32 L 141.86 16.56 L 141.61 16.95 L 141.57 18.28 L 141.24 18.39 L 141.28 18.89 L 141.62 18.61 L 141.82 17.71 L 142.14 17.33 L 142.19 17.75 L 142.99 18.23 L 142.99 19.02 L 143.53 19.26 L 143.90 19.68 L 143.86 20.23 L 143.43 20.64 L 143.41 20.32 L 142.82 20.64 L 142.85 20.40 L 142.31 20.36 L 142.23 20.80 L 141.61 20.35 L 141.41 20.73 L 141.43 21.35 L 141.67 21.33 L 141.77 21.97 L 142.65 21.72 L 143.76 22.08 L 144.17 21.83 L 145.08 22.04 L 145.05 21.26 L 145.49 20.64 L 145.30 21.71 L 145.67 21.62 L 145.90 21.06 L 146.03 21.68 L 146.48 21.95 L 146.83 21.54 L 147.04 20.08 L 147.35 19.65 L 147.98 18.19 L 148.28 18.11 L 148.59 17.52 L 149.07 17.61 L 149.56 16.58 L 149.96 16.60 L 151.52 15.97 L 151.69 18.14 L 151.49 19.37 L 150.45 21.60 L 149.91 22.17 L 149.26 22.40 L 148.87 22.33 L 148.37 22.65 L 148.66 23.63 L 148.40 23.93 L 147.67 24.26 L 147.34 24.61 L 146.29 25.00 L 145.74 25.39 L 145.83 24.16 L 145.42 24.83 L 145.46 25.88 L 144.60 26.17 L 143.85 24.88 L 143.82 24.16 L 144.09 23.75 L 143.73 23.40 L 143.49 23.88 L 142.95 23.83 L 142.72 24.32 L 143.03 24.39 L 143.00 25.08 L 142.31 25.69 L 142.29 26.79 L 141.41 26.30 L 141.28 26.05 L 140.61 26.04 L 140.44 25.61 L 140.01 25.78 L 138.64 25.68 L 138.97 26.11 L 138.21 26.02 L 138.22 25.74 L 137.35 24.75 L 137.83 24.99 L 137.27 24.05 L 137.01 24.12 L 136.74 24.99 L 136.14 26.06 L 136.31 26.29 L 135.64 27.46 L 135.27 27.32 L 135.20 27.68 L 135.79 28.18 L 136.00 27.77 L 136.78 28.18 L 136.44 28.44 L 136.94 29.04 L 136.83 29.25 L 135.61 29.57 L 134.76 29.08 L 134.17 29.07 L 133.39 28.51 L 133.24 28.66 L 133.55 29.24 L 133.54 29.81 L 132.84 30.26 L 131.70 30.67 L 131.41 30.56 L 130.30 29.07 L 129.94 28.84 L 129.61 27.78 L 129.54 27.05 L 128.98 26.50 L 129.27 25.96 L 128.62 25.45 L 127.70 24.51 L 126.74 23.80 L 127.05 23.11 L 127.94 22.79 L 128.44 22.36 L 129.65 21.67 L 130.44 20.66 L 131.11 20.47 L 131.72 20.68 L 131.29 20.24 L 131.36 19.42 L 131.19 19.18 L 130.65 19.65 L 130.59 19.16 L 130.21 19.38 L 130.18 19.05 L 129.56 19.30 L 129.47 18.86 L 128.93 18.71 L 128.83 19.14 L 128.24 19.62 L 127.78 19.02 L 127.75 19.92 L 127.08 20.41 L 126.47 20.29 L 126.12 20.82 L 125.56 20.74 L 125.49 21.13 L 124.91 21.40 L 124.10 21.48 L 123.15 20.89 L 122.85 20.31 L 122.92 20.00 L 122.51 19.53 L 122.66 19.31 L 122.46 18.72 L 123.13 18.03 L 124.07 17.82 L 123.25 17.61 L 123.06 17.36 L 122.25 17.36 Z M 122.90 81.96 L 122.92 81.34 L 123.17 80.61 L 123.57 80.14 L 123.76 80.57 L 123.40 80.94 L 123.41 81.67 L 122.90 81.96 Z M 123.11 31.91 L 123.29 31.47 L 124.09 31.72 L 124.08 32.19 L 124.39 32.32 L 123.93 32.80 L 123.47 32.47 L 123.11 31.91 Z M 123.12 99.15 L 123.56 98.24 L 123.58 99.15 L 123.12 99.15 Z M 123.19 41.59 L 123.62 41.20 L 123.83 41.67 L 123.43 42.03 L 123.19 41.59 Z M 124.07 6.85 L 124.50 7.02 L 124.98 6.69 L 125.15 6.31 L 125.45 6.68 L 125.51 7.46 L 125.02 7.66 L 124.07 6.85 Z M 124.50 80.07 L 124.61 79.34 L 125.15 79.47 L 124.99 80.11 L 124.50 80.07 Z M 124.60 90.43 L 124.61 89.98 L 125.11 89.64 L 125.09 90.36 L 124.88 90.79 L 124.60 90.43 Z M 124.71 101.29 L 125.24 100.89 L 124.90 101.41 L 124.71 101.29 Z M 125.13 11.02 L 125.76 10.83 L 125.52 11.11 L 125.13 11.02 Z M 125.48 7.95 L 125.89 7.55 L 126.22 7.95 L 125.48 7.95 Z M 125.52 11.64 L 125.91 11.23 L 127.12 12.13 L 126.00 12.16 L 125.52 11.64 Z M 125.55 107.22 L 126.15 105.96 L 125.87 106.89 L 125.55 107.22 Z M 125.89 8.29 L 126.53 8.53 L 126.32 8.76 L 125.89 8.29 Z M 125.93 102.36 L 126.73 101.95 L 127.12 102.43 L 126.38 102.61 L 125.93 102.36 Z M 126.21 105.23 L 126.37 104.72 L 126.92 104.41 L 127.15 104.98 L 126.69 105.09 L 126.30 105.60 L 126.21 105.23 Z M 127.13 11.76 L 127.75 11.71 L 128.01 12.51 L 127.18 12.01 L 127.13 11.76 Z M 127.75 103.22 L 128.21 102.31 L 128.48 102.38 L 127.75 103.22 Z M 138.19 58.82 L 138.27 57.91 L 138.53 57.13 L 139.45 56.49 L 139.92 55.76 L 140.75 55.30 L 141.03 55.63 L 140.74 56.70 L 140.89 57.06 L 141.32 57.10 L 141.44 57.71 L 141.29 58.33 L 140.63 59.60 L 140.10 60.26 L 139.12 60.70 L 138.43 60.16 L 138.19 58.82 Z M 138.93 43.74 L 139.27 43.29 L 139.33 43.96 L 139.88 43.83 L 140.15 44.17 L 138.98 44.06 L 138.93 43.74 Z M 139.17 50.23 L 140.26 49.27 L 140.69 49.77 L 140.37 50.23 L 139.74 50.68 L 139.17 50.23 Z M 139.82 27.40 L 140.34 27.49 L 140.92 27.95 L 140.95 28.35 L 140.11 28.30 L 139.82 27.40 Z M 142.05 17.04 L 142.20 16.59 L 142.55 16.93 L 142.05 17.04 Z M 142.54 17.37 L 143.14 16.92 L 144.13 17.00 L 144.71 16.85 L 143.09 17.75 L 142.54 17.37 Z M 161.34 88.07 L 161.38 87.49 L 161.75 87.04 L 161.66 86.47 L 162.25 86.10 L 162.64 85.31 L 163.24 84.96 L 163.72 85.53 L 163.29 85.69 L 162.85 86.21 L 162.42 86.38 L 162.58 87.07 L 162.30 87.37 L 162.55 87.93 L 162.40 88.23 L 161.47 88.70 L 161.34 88.07 Z M 162.00 91.30 L 162.40 91.22 L 162.31 91.59 L 162.00 91.30 Z M 166.73 78.57 L 167.37 78.47 L 168.04 78.92 L 168.29 79.41 L 167.75 80.00 L 167.45 79.25 L 166.93 79.18 L 166.73 78.57 Z M 167.88 41.67 L 168.06 41.12 L 168.44 40.81 L 168.59 41.32 L 168.38 41.63 L 167.88 41.67 Z M 170.14 78.28 L 170.77 77.57 L 171.60 76.99 L 171.87 77.85 L 171.49 78.30 L 170.89 78.26 L 170.40 78.47 L 170.14 78.28 Z M 171.51 69.39 L 171.96 69.17 L 172.09 68.78 L 171.81 68.00 L 172.01 67.91 L 172.48 68.45 L 172.49 68.93 L 172.01 69.37 L 171.84 69.97 L 171.51 69.39 Z M 172.53 69.86 L 172.85 69.64 L 172.87 70.11 L 172.53 69.86 Z M 172.60 72.53 L 173.62 72.45 L 173.72 72.75 L 173.45 73.16 L 172.83 72.86 L 172.60 72.53 Z M 173.46 66.90 L 173.82 66.48 L 174.25 67.09 L 173.82 67.54 L 173.46 66.90 Z M 179.52 47.32 L 179.95 45.79 L 180.51 45.00 L 181.07 45.30 L 181.19 46.36 L 180.74 48.05 L 179.98 47.84 L 179.52 47.32 Z M 201.23 60.50 L 201.58 60.17 L 202.83 59.52 L 202.87 60.08 L 202.39 60.58 L 201.47 60.71 L 201.23 60.50 Z M 226.60 120.49 L 227.75 120.41 L 227.66 120.22 L 228.50 119.83 L 229.01 120.11 L 229.03 120.38 L 228.02 120.28 L 227.97 120.66 L 227.13 120.89 L 226.60 120.49 Z M 244.05 132.67 L 244.32 132.25 L 244.63 132.56 L 244.30 132.86 L 244.05 132.67 Z M 247.90 54.18 L 248.47 53.65 L 248.74 53.85 L 247.90 54.18 Z M 247.92 55.13 L 248.17 54.81 L 248.89 54.67 L 248.67 55.09 L 247.92 55.13 Z M 249.76 54.94 L 250.26 54.72 L 250.03 55.17 L 249.76 54.94 Z M 254.35 138.55 L 254.44 138.26 L 255.34 137.95 L 254.78 139.16 L 254.35 138.55 Z M 255.57 162.63 L 256.11 161.17 L 256.42 160.66 L 256.26 160.08 L 256.50 159.68 L 256.60 158.65 L 256.86 157.76 L 257.14 157.42 L 257.59 156.17 L 258.17 155.89 L 258.36 156.82 L 258.65 156.74 L 258.45 156.24 L 258.57 154.32 L 258.81 154.17 L 258.44 152.68 L 258.95 153.05 L 258.76 152.48 L 258.83 151.29 L 258.54 149.99 L 258.80 148.88 L 258.48 147.81 L 258.47 146.54 L 258.66 145.77 L 259.68 145.23 L 259.94 145.77 L 260.84 146.02 L 261.02 146.69 L 261.44 146.78 L 261.99 146.09 L 262.63 146.62 L 262.81 146.38 L 263.22 146.91 L 263.38 147.48 L 263.90 148.04 L 264.20 148.64 L 264.07 149.15 L 263.42 149.65 L 263.48 150.13 L 263.86 150.06 L 264.23 149.29 L 264.59 149.83 L 264.33 150.21 L 264.34 150.95 L 264.05 151.58 L 264.88 151.85 L 265.17 152.51 L 265.09 152.94 L 264.76 153.04 L 264.80 154.31 L 264.55 153.39 L 264.07 153.47 L 264.54 153.86 L 264.56 154.43 L 263.33 154.27 L 262.91 154.68 L 261.94 154.74 L 261.73 155.10 L 261.89 156.49 L 262.43 156.21 L 262.53 155.70 L 263.01 155.21 L 263.05 154.76 L 263.82 155.62 L 264.62 155.30 L 264.71 155.96 L 265.07 156.21 L 265.18 155.63 L 265.48 155.66 L 265.48 154.84 L 266.21 154.12 L 266.74 154.16 L 266.84 153.65 L 267.43 155.54 L 267.37 156.01 L 266.76 156.66 L 266.33 156.54 L 265.17 157.31 L 265.13 157.84 L 264.25 158.43 L 263.48 158.78 L 262.53 159.78 L 261.88 160.29 L 261.39 160.90 L 261.27 160.67 L 260.93 161.46 L 260.32 161.25 L 260.16 160.62 L 259.94 160.82 L 259.74 160.10 L 259.56 158.65 L 259.05 157.98 L 258.91 158.30 L 259.39 159.33 L 259.54 160.41 L 259.87 160.76 L 260.17 162.42 L 259.30 162.80 L 258.09 162.55 L 257.72 162.75 L 256.15 162.76 L 255.78 162.97 L 255.57 162.63 Z M 256.11 127.41 L 256.73 127.45 L 257.24 127.86 L 257.76 127.71 L 257.57 128.26 L 256.58 127.86 L 256.11 127.41 Z M 256.74 147.00 L 257.03 146.65 L 257.22 147.14 L 256.74 147.00 Z M 257.40 144.98 L 257.93 145.02 L 257.74 145.52 L 257.40 144.98 Z M 257.87 146.14 L 258.26 145.72 L 258.44 147.03 L 258.29 147.40 L 257.87 146.14 Z M 265.09 148.38 L 265.38 148.67 L 265.77 148.26 L 265.78 148.87 L 266.17 148.80 L 266.21 149.28 L 266.53 148.64 L 267.02 148.97 L 266.82 150.27 L 267.40 151.16 L 266.70 151.79 L 266.30 151.45 L 265.96 151.71 L 265.52 150.80 L 265.55 150.43 L 265.86 150.67 L 265.52 149.53 L 265.55 149.04 L 265.09 148.38 Z M 267.77 159.12 L 268.22 159.06 L 268.00 158.12 L 268.32 158.04 L 268.46 157.59 L 268.99 157.80 L 269.09 158.29 L 269.78 159.44 L 269.10 159.49 L 268.81 159.78 L 267.92 159.88 L 267.77 159.12 Z M 271.54 125.12 L 272.31 125.45 L 272.04 125.64 L 271.54 125.12 Z M 277.53 163.81 L 278.03 164.27 L 277.62 164.30 L 277.53 163.81 Z M 296.33 89.86 L 296.79 89.85 L 296.94 91.33 L 297.21 91.74 L 297.33 92.90 L 297.73 93.63 L 298.02 92.55 L 298.37 93.56 L 298.39 94.40 L 297.92 94.54 L 297.65 93.80 L 297.57 94.45 L 297.32 94.24 L 297.05 93.21 L 296.78 92.94 L 296.84 92.11 L 296.68 91.77 L 296.33 89.86 Z M 297.96 91.51 L 298.31 90.72 L 298.88 90.67 L 298.99 91.14 L 298.66 91.96 L 297.96 91.51 Z M 298.94 91.91 L 299.38 91.49 L 299.40 92.19 L 299.09 92.29 L 298.94 91.91 Z" fill="#457b9d" stroke="white" stroke-width="1.5" stroke-linejoin="round" fill-rule="evenodd"/>
</svg>