<svg xmlns="http://www.w3.org/2000/svg" viewBox="0 0 300 300" width="300" height="300">
  <path d="M 1.42 73.47 L 1.62 71.24 L 1.08 70.59 L 3.29 68.95 L 4.31 67.96 L 4.19 67.22 L 4.49 67.11 L 5.04 65.42 L 4.61 65.15 L 4.97 64.73 L 6.90 65.14 L 8.80 65.00 L 10.32 64.18 L 12.48 67.07 L 14.08 67.50 L 14.51 66.54 L 16.67 65.46 L 15.60 64.06 L 15.48 63.62 L 13.84 61.64 L 17.92 59.68 L 22.20 55.14 L 24.80 54.97 L 27.20 54.63 L 29.17 56.58 L 32.24 56.36 L 35.62 55.88 L 40.78 48.23 L 41.44 47.61 L 42.31 46.34 L 42.40 45.93 L 43.49 44.68 L 43.61 44.12 L 44.27 43.52 L 45.63 42.66 L 47.59 39.90 L 49.23 39.29 L 51.33 38.22 L 57.48 36.57 L 61.46 36.62 L 70.72 35.51 L 79.20 35.07 L 84.42 35.38 L 86.01 37.66 L 88.82 37.61 L 91.47 37.07 L 93.71 35.67 L 93.71 35.67 L 95.63 36.66 L 102.09 38.82 L 102.43 38.88 L 109.79 41.35 L 116.60 44.06 L 118.13 45.46 L 122.81 47.78 L 127.67 45.55 L 129.06 44.98 L 133.07 44.44 L 133.39 44.45 L 134.94 43.28 L 135.29 41.94 L 135.62 41.65 L 135.24 40.46 L 135.35 40.10 L 136.35 40.07 L 135.94 39.79 L 135.74 39.11 L 134.67 38.61 L 135.60 36.77 L 138.88 38.60 L 140.70 37.47 L 141.73 34.77 L 141.66 33.12 L 149.51 29.96 L 146.33 22.14 L 144.56 16.45 L 146.34 15.45 L 145.71 14.15 L 145.68 13.61 L 146.36 13.19 L 146.79 12.48 L 147.30 12.10 L 148.24 11.92 L 148.90 9.49 L 149.74 8.32 L 150.13 6.56 L 150.70 5.45 L 151.58 4.89 L 151.52 4.35 L 152.21 4.17 L 152.33 3.43 L 153.03 3.21 L 152.85 2.66 L 153.76 2.07 L 154.47 2.43 L 154.90 3.04 L 155.36 2.56 L 157.11 2.27 L 161.77 2.24 L 168.17 3.62 L 176.19 5.51 L 176.44 5.51 L 179.24 4.18 L 180.51 4.34 L 182.61 5.28 L 182.94 6.91 L 184.15 7.40 L 186.94 3.93 L 188.71 2.97 L 190.12 2.50 L 194.26 2.14 L 194.42 2.34 L 200.48 5.19 L 204.73 5.72 L 205.39 6.67 L 205.21 6.95 L 205.99 6.94 L 206.80 7.21 L 207.11 10.72 L 208.11 11.54 L 208.71 12.73 L 208.70 15.15 L 210.69 15.16 L 211.27 15.55 L 211.69 17.08 L 211.31 17.91 L 211.82 19.11 L 213.30 19.48 L 213.77 19.42 L 214.17 20.18 L 215.20 20.37 L 216.46 20.97 L 218.12 23.13 L 221.23 24.57 L 222.21 25.58 L 223.00 27.29 L 224.60 28.97 L 225.95 31.57 L 226.80 33.89 L 227.58 35.20 L 228.09 35.78 L 230.02 35.66 L 231.24 35.28 L 234.32 34.72 L 235.25 36.35 L 235.21 37.84 L 235.39 38.05 L 237.41 38.16 L 237.56 36.88 L 238.11 36.99 L 238.89 36.02 L 238.89 35.61 L 239.41 34.73 L 239.87 34.63 L 240.56 34.97 L 250.00 36.73 L 251.33 37.03 L 251.63 37.58 L 253.04 37.75 L 255.15 38.39 L 255.49 38.66 L 256.52 40.10 L 257.93 41.43 L 259.07 42.16 L 260.12 42.01 L 260.50 41.68 L 260.98 41.87 L 261.12 41.44 L 261.87 41.16 L 262.36 40.38 L 263.32 39.96 L 264.48 40.34 L 265.73 39.97 L 265.73 39.97 L 268.13 46.56 L 266.97 53.94 L 266.08 60.16 L 265.19 65.29 L 261.97 86.87 L 260.70 95.05 L 259.43 102.87 L 266.86 111.54 L 270.39 114.18 L 274.61 119.54 L 276.06 119.11 L 282.68 118.94 L 290.95 130.07 L 295.38 135.96 L 298.92 140.92 L 297.96 145.94 L 296.93 151.09 L 294.58 157.44 L 290.10 163.02 L 288.78 171.51 L 288.02 172.15 L 284.89 173.03 L 278.28 172.51 L 276.12 172.59 L 267.89 175.05 L 265.07 175.79 L 264.08 176.50 L 267.34 183.67 L 269.93 189.23 L 270.03 193.15 L 270.83 196.72 L 273.31 205.42 L 276.84 210.46 L 279.53 214.89 L 279.79 219.27 L 283.35 224.38 L 284.71 228.33 L 284.67 239.40 L 281.39 245.46 L 278.88 247.91 L 279.19 252.32 L 280.30 258.27 L 281.21 261.40 L 278.98 271.18 L 277.89 273.87 L 276.17 277.38 L 274.90 278.69 L 273.33 279.82 L 270.38 285.00 L 264.45 288.94 L 261.40 292.85 L 260.37 293.17 L 258.80 292.43 L 254.88 293.26 L 253.80 292.95 L 251.27 291.89 L 251.21 291.72 L 248.88 292.83 L 247.79 293.73 L 247.77 294.44 L 247.32 294.70 L 245.80 294.72 L 245.62 295.09 L 245.99 296.01 L 245.02 296.98 L 243.37 297.93 L 243.37 297.93 L 243.05 296.64 L 243.20 295.96 L 242.99 295.16 L 242.34 294.52 L 242.58 293.84 L 242.15 293.51 L 242.45 292.54 L 241.89 292.59 L 241.50 291.98 L 241.67 291.60 L 241.39 289.75 L 242.39 288.67 L 241.70 286.92 L 240.88 286.03 L 240.98 285.05 L 241.56 283.74 L 241.80 282.57 L 242.33 282.02 L 242.79 282.01 L 243.14 281.52 L 243.34 279.78 L 242.28 279.00 L 242.43 278.35 L 242.43 276.04 L 242.12 275.37 L 241.65 275.96 L 240.77 276.49 L 240.47 274.54 L 240.49 273.92 L 240.05 272.14 L 239.22 271.61 L 237.73 271.49 L 237.15 270.87 L 236.73 270.91 L 235.73 269.92 L 234.58 269.52 L 233.43 268.78 L 231.86 267.23 L 231.26 266.31 L 229.87 264.67 L 229.94 264.11 L 229.39 263.37 L 228.43 263.21 L 228.50 262.17 L 229.01 261.66 L 229.58 260.27 L 229.66 258.62 L 229.37 257.65 L 229.42 256.87 L 230.21 255.69 L 230.43 254.95 L 230.30 254.44 L 230.55 253.75 L 229.43 252.91 L 228.31 252.47 L 226.13 250.81 L 225.36 249.35 L 224.73 248.67 L 223.69 247.05 L 222.54 247.01 L 221.44 246.26 L 220.86 244.93 L 220.68 243.35 L 219.81 242.42 L 219.09 240.48 L 219.02 239.75 L 218.44 238.43 L 217.10 234.94 L 216.57 233.92 L 215.37 233.61 L 214.14 232.89 L 212.93 231.22 L 211.17 229.81 L 209.41 229.14 L 209.92 225.27 L 209.70 223.04 L 208.10 220.79 L 206.42 218.76 L 205.30 219.63 L 204.52 220.95 L 204.19 222.29 L 203.94 222.43 L 204.21 223.29 L 203.77 223.49 L 203.37 225.93 L 203.49 227.37 L 203.12 227.90 L 201.74 227.71 L 197.79 229.66 L 197.16 229.60 L 196.49 230.20 L 195.14 230.95 L 195.68 231.25 L 195.43 231.88 L 194.92 232.25 L 194.16 232.15 L 193.96 232.70 L 193.57 232.26 L 191.18 232.05 L 190.59 231.74 L 189.19 231.87 L 187.45 230.93 L 186.30 230.78 L 185.21 230.27 L 183.80 228.56 L 183.41 227.87 L 182.70 227.14 L 182.43 228.28 L 182.65 229.31 L 182.58 229.94 L 181.56 230.47 L 182.19 233.32 L 182.52 234.42 L 181.39 235.09 L 180.45 236.49 L 181.27 236.81 L 183.05 236.44 L 185.60 237.30 L 187.84 237.51 L 188.41 237.16 L 192.91 240.38 L 192.64 240.96 L 192.85 242.28 L 193.45 243.08 L 194.13 244.85 L 194.56 245.53 L 191.82 248.42 L 191.25 248.20 L 190.83 248.92 L 186.44 248.96 L 185.36 248.91 L 183.04 247.30 L 183.23 246.78 L 182.71 246.33 L 182.17 247.29 L 181.66 247.11 L 181.24 247.62 L 180.38 247.48 L 179.02 247.97 L 178.37 247.70 L 178.15 248.20 L 177.53 248.39 L 176.80 249.12 L 176.64 248.06 L 175.77 248.50 L 175.50 247.85 L 174.38 248.23 L 174.21 247.62 L 173.75 247.50 L 169.61 248.05 L 168.89 248.58 L 168.03 248.68 L 166.99 249.06 L 166.60 248.48 L 165.07 248.64 L 163.98 248.19 L 163.94 247.48 L 164.56 246.42 L 165.03 244.58 L 165.18 242.57 L 163.29 242.84 L 162.53 243.51 L 158.33 240.66 L 155.14 240.80 L 155.42 240.07 L 154.72 239.97 L 154.72 239.97 L 154.08 236.53 L 153.58 232.59 L 153.75 231.95 L 153.31 230.01 L 153.00 229.51 L 152.57 227.07 L 150.98 225.96 L 150.04 224.48 L 150.14 223.87 L 149.32 223.48 L 147.75 218.47 L 146.15 215.97 L 142.26 215.36 L 140.18 215.68 L 139.03 215.74 L 139.95 217.21 L 140.66 217.74 L 141.38 217.71 L 141.67 218.16 L 141.21 218.97 L 140.09 219.56 L 137.83 220.96 L 136.35 222.63 L 135.84 221.34 L 135.80 220.67 L 135.21 221.39 L 134.04 223.84 L 134.16 224.43 L 134.04 225.73 L 134.40 226.95 L 134.09 228.43 L 134.22 229.21 L 134.55 229.41 L 134.81 230.21 L 134.90 232.25 L 135.09 232.92 L 135.11 234.16 L 133.52 234.38 L 126.85 231.39 L 123.24 229.50 L 123.78 228.84 L 123.41 228.23 L 123.57 227.51 L 123.08 225.62 L 121.57 226.09 L 118.56 226.29 L 118.17 226.73 L 117.06 226.78 L 116.17 226.53 L 115.03 225.44 L 114.37 225.04 L 112.88 224.72 L 112.46 222.52 L 112.50 221.06 L 113.62 219.84 L 113.82 219.33 L 113.34 218.79 L 113.18 218.06 L 111.92 217.80 L 110.90 217.23 L 110.12 216.16 L 109.79 215.25 L 110.11 214.33 L 109.69 213.53 L 109.38 212.34 L 108.04 211.52 L 107.58 210.80 L 107.51 209.03 L 108.09 208.07 L 108.27 205.84 L 106.79 204.26 L 106.07 202.52 L 104.26 201.94 L 103.42 201.96 L 102.03 201.62 L 100.86 200.05 L 100.82 199.59 L 99.29 198.71 L 98.29 197.86 L 96.84 197.19 L 95.16 196.87 L 92.56 195.33 L 90.32 194.10 L 89.94 194.08 L 87.01 192.28 L 86.01 192.00 L 86.01 191.43 L 85.23 190.40 L 84.48 188.56 L 83.40 188.53 L 80.38 188.15 L 75.97 186.18 L 73.86 185.57 L 71.74 184.49 L 71.90 184.16 L 69.95 182.84 L 70.58 181.83 L 70.25 180.83 L 69.28 180.00 L 69.25 179.69 L 67.79 178.50 L 67.16 178.41 L 66.63 177.48 L 65.77 176.85 L 64.60 176.50 L 64.12 176.55 L 63.94 175.95 L 62.40 175.61 L 61.71 175.92 L 60.32 175.68 L 59.81 174.97 L 59.38 174.85 L 56.24 172.85 L 55.89 172.19 L 53.15 168.35 L 51.04 169.42 L 50.06 170.19 L 50.06 170.19 L 48.62 169.08 L 47.98 168.34 L 44.25 166.51 L 43.71 166.49 L 43.83 165.87 L 43.33 165.15 L 40.96 161.05 L 40.57 159.23 L 39.09 159.78 L 38.87 159.14 L 39.76 157.83 L 39.24 155.92 L 39.36 155.04 L 38.19 154.81 L 36.91 154.04 L 36.86 153.51 L 39.26 153.75 L 40.11 152.16 L 42.43 150.91 L 43.80 149.99 L 44.13 149.41 L 43.67 149.11 L 44.09 148.91 L 45.17 147.66 L 46.03 146.25 L 47.87 146.29 L 48.47 145.97 L 48.37 145.02 L 48.77 145.28 L 49.65 144.51 L 49.49 144.01 L 50.04 143.22 L 50.03 142.73 L 48.64 142.41 L 47.96 141.02 L 47.42 141.29 L 46.21 140.91 L 45.02 139.37 L 44.88 138.75 L 45.20 137.73 L 44.87 136.57 L 44.60 133.65 L 46.86 132.40 L 48.07 133.29 L 48.94 133.34 L 51.30 133.18 L 53.84 130.63 L 52.86 128.24 L 51.99 127.14 L 50.63 122.54 L 47.04 121.11 L 42.85 123.70 L 37.37 121.89 L 33.66 120.18 L 33.42 117.53 L 32.88 115.45 L 30.88 111.18 L 31.34 107.51 L 31.55 103.09 L 27.98 100.87 L 23.16 99.67 L 19.51 100.92 L 16.52 101.06 L 13.43 101.72 L 10.31 102.51 L 10.35 99.09 L 9.10 97.23 L 5.42 90.32 L 4.85 89.03 L 4.94 85.50 L 3.56 81.20 L 4.11 76.56 L 3.82 75.05 L 3.14 73.96 L 2.42 73.96 L 1.42 73.47 Z" fill="#90be6d" stroke="white" stroke-width="1.5" stroke-linejoin="round" fill-rule="evenodd"/>
</svg>