<svg xmlns="http://www.w3.org/2000/svg" viewBox="0 0 300 300" width="300" height="300">
  <path d="M 1.48 242.95 L 1.93 241.93 L 3.89 242.28 L 4.02 241.57 L 5.17 241.33 L 6.60 242.43 L 7.19 243.69 L 7.44 245.12 L 6.95 246.59 L 6.33 246.72 L 4.67 245.16 L 2.52 243.90 L 1.82 243.86 L 1.48 242.95 Z M 1.62 239.01 L 2.93 238.27 L 3.67 239.79 L 1.62 239.01 Z M 4.04 248.67 L 4.49 247.71 L 5.21 247.39 L 5.29 248.13 L 4.04 248.67 Z M 5.17 234.90 L 6.72 234.25 L 6.68 233.73 L 8.44 232.99 L 10.06 233.55 L 11.29 233.16 L 11.91 233.55 L 12.07 235.72 L 11.74 236.46 L 9.69 234.88 L 9.78 235.57 L 12.52 237.02 L 12.60 238.73 L 11.23 238.60 L 11.13 237.93 L 9.08 238.14 L 8.32 237.62 L 6.72 237.60 L 6.35 235.31 L 5.17 234.90 Z M 12.63 279.54 L 12.69 278.42 L 14.12 276.47 L 14.24 275.36 L 15.43 275.75 L 14.43 274.93 L 15.35 273.72 L 14.94 271.38 L 14.80 268.44 L 16.13 268.46 L 16.79 267.66 L 17.85 269.63 L 18.84 269.84 L 19.55 268.50 L 20.62 269.84 L 20.80 271.75 L 21.19 272.92 L 22.16 272.59 L 21.66 270.93 L 22.34 270.38 L 22.18 268.72 L 21.07 267.35 L 18.49 266.40 L 18.47 265.25 L 17.95 264.24 L 16.79 263.67 L 15.13 263.74 L 12.24 263.48 L 10.64 263.93 L 8.53 263.35 L 8.55 262.37 L 7.95 260.53 L 6.56 258.89 L 6.27 258.02 L 6.93 257.72 L 6.68 256.87 L 7.26 256.85 L 7.54 254.73 L 8.69 253.58 L 8.49 252.09 L 8.87 249.45 L 10.58 247.00 L 11.46 247.00 L 12.22 245.46 L 13.28 246.74 L 14.33 247.11 L 14.76 248.21 L 18.06 251.63 L 20.27 252.20 L 21.46 252.02 L 23.20 250.83 L 23.79 251.11 L 25.43 255.08 L 25.93 255.51 L 26.32 257.02 L 26.01 258.91 L 26.05 260.45 L 27.40 262.16 L 28.90 264.47 L 29.55 266.05 L 30.76 266.10 L 31.36 265.27 L 31.48 264.26 L 29.84 262.33 L 27.65 260.10 L 27.44 259.45 L 27.87 257.74 L 26.52 253.04 L 25.93 250.16 L 28.75 251.05 L 29.94 250.85 L 31.11 249.14 L 33.47 249.06 L 35.46 247.50 L 35.03 246.46 L 35.56 245.96 L 36.77 246.16 L 38.35 245.70 L 39.51 244.92 L 40.37 245.90 L 41.52 245.44 L 42.38 245.55 L 42.67 246.44 L 43.94 247.65 L 44.19 248.49 L 45.81 251.11 L 46.50 253.06 L 45.85 254.92 L 45.44 257.37 L 46.11 259.51 L 46.05 260.86 L 45.46 262.39 L 45.11 264.36 L 44.33 265.10 L 43.80 266.94 L 44.00 268.18 L 42.67 269.73 L 42.71 270.56 L 41.85 271.79 L 41.36 273.37 L 40.42 274.65 L 39.68 277.31 L 39.19 277.90 L 38.61 280.00 L 38.94 281.43 L 39.53 281.34 L 40.40 278.70 L 41.73 275.65 L 43.00 274.43 L 43.84 273.03 L 44.54 270.19 L 45.31 269.04 L 45.46 267.89 L 46.89 265.92 L 48.00 263.28 L 48.33 260.71 L 48.08 258.63 L 47.42 257.41 L 47.59 256.87 L 48.80 256.12 L 50.87 256.55 L 52.30 259.21 L 52.65 260.88 L 53.53 262.07 L 54.97 262.50 L 56.07 263.59 L 56.83 265.62 L 55.56 268.09 L 55.68 269.06 L 54.11 270.93 L 53.90 271.79 L 52.92 273.07 L 52.73 273.91 L 54.41 272.74 L 54.88 270.30 L 55.54 270.43 L 56.09 271.90 L 56.54 271.36 L 56.89 268.96 L 57.94 268.15 L 59.19 267.72 L 60.89 268.18 L 63.90 266.81 L 64.39 267.74 L 65.58 268.54 L 66.73 268.28 L 67.24 267.61 L 68.60 269.69 L 69.97 269.86 L 70.46 268.07 L 70.03 267.50 L 71.40 268.09 L 72.37 269.37 L 71.81 270.06 L 72.55 271.38 L 73.37 271.47 L 73.23 270.43 L 73.78 269.37 L 73.35 267.74 L 71.32 267.14 L 71.08 266.64 L 69.91 266.70 L 68.49 267.63 L 68.68 266.05 L 67.69 265.95 L 66.26 266.38 L 65.23 264.84 L 63.21 264.08 L 62.84 264.65 L 61.36 265.32 L 60.60 264.93 L 60.34 263.22 L 59.21 262.46 L 59.07 261.66 L 58.10 260.73 L 57.12 260.42 L 57.04 259.58 L 55.79 257.87 L 55.64 256.25 L 54.74 255.68 L 53.20 253.11 L 51.77 252.37 L 50.42 250.75 L 49.31 247.76 L 48.84 247.13 L 47.32 246.37 L 46.54 245.20 L 47.59 244.36 L 46.28 243.02 L 45.89 242.17 L 45.15 242.52 L 45.01 241.70 L 47.02 240.76 L 48.16 239.90 L 49.21 240.31 L 49.35 242.60 L 49.93 244.27 L 50.99 245.51 L 51.77 245.87 L 52.71 245.66 L 52.98 245.05 L 54.02 246.00 L 56.61 247.48 L 58.80 247.54 L 59.50 246.03 L 59.23 245.42 L 58.12 244.79 L 56.20 244.29 L 54.82 243.36 L 51.01 242.65 L 51.18 241.33 L 50.70 240.44 L 50.79 239.29 L 49.04 236.80 L 47.34 236.74 L 48.29 235.07 L 48.88 232.93 L 51.83 230.96 L 54.45 228.14 L 56.40 226.80 L 57.80 224.44 L 59.17 223.88 L 61.46 222.19 L 63.12 220.33 L 65.54 219.11 L 66.22 217.55 L 67.43 216.47 L 69.29 216.12 L 70.89 215.52 L 72.72 214.33 L 73.45 213.42 L 74.19 213.16 L 75.73 213.68 L 76.08 214.72 L 76.01 216.25 L 76.36 217.86 L 77.00 219.07 L 78.39 220.67 L 79.01 222.49 L 79.62 223.25 L 79.72 224.66 L 80.52 227.56 L 81.38 229.07 L 81.14 230.70 L 81.38 233.29 L 81.98 234.40 L 84.52 235.89 L 85.05 236.82 L 85.77 239.14 L 86.47 242.19 L 85.36 243.19 L 85.44 244.68 L 86.98 244.25 L 87.27 245.94 L 88.95 248.71 L 90.26 250.18 L 90.83 251.79 L 92.31 254.43 L 93.05 255.27 L 92.64 257.63 L 90.79 258.80 L 90.30 260.62 L 90.40 262.98 L 91.43 262.22 L 91.51 260.49 L 92.23 259.77 L 93.97 259.67 L 95.22 257.20 L 95.28 255.94 L 94.34 253.11 L 93.87 252.78 L 92.35 248.60 L 91.10 246.72 L 93.41 245.12 L 94.38 244.77 L 96.24 245.61 L 97.92 247.09 L 98.46 246.70 L 97.41 244.90 L 95.22 244.19 L 93.89 243.30 L 92.96 243.30 L 92.39 243.90 L 91.57 243.67 L 90.63 244.14 L 89.17 244.36 L 89.83 243.41 L 89.07 240.70 L 89.01 239.27 L 88.13 238.19 L 88.07 237.32 L 87.37 236.46 L 87.29 234.94 L 86.75 233.49 L 84.81 231.54 L 84.62 229.27 L 83.41 225.69 L 82.86 224.94 L 83.11 223.75 L 82.57 221.00 L 81.67 218.87 L 79.83 216.41 L 80.48 215.19 L 81.40 214.35 L 81.47 213.72 L 80.28 211.40 L 81.12 210.11 L 82.70 209.52 L 83.47 208.68 L 84.68 208.52 L 85.30 209.02 L 86.98 208.87 L 87.08 208.48 L 88.52 209.11 L 89.11 209.74 L 90.89 210.19 L 91.26 212.29 L 90.96 213.46 L 91.43 215.48 L 92.59 216.41 L 92.62 218.33 L 93.07 220.35 L 93.78 220.84 L 93.13 217.64 L 93.50 217.19 L 93.13 215.93 L 92.04 214.41 L 92.45 213.50 L 92.16 212.40 L 92.68 211.19 L 92.25 210.41 L 93.17 209.59 L 93.05 208.61 L 90.61 206.73 L 91.90 206.14 L 92.57 205.04 L 93.62 204.45 L 95.26 202.92 L 97.19 202.44 L 97.49 201.90 L 100.30 200.97 L 101.82 199.65 L 103.56 199.11 L 105.42 199.91 L 105.01 200.88 L 105.36 202.35 L 108.36 203.07 L 109.50 202.09 L 113.21 202.57 L 115.36 204.04 L 115.94 205.32 L 117.66 206.55 L 115.73 210.88 L 115.41 212.70 L 116.23 214.07 L 115.73 215.45 L 116.98 218.16 L 117.95 219.18 L 117.86 221.75 L 118.58 223.31 L 120.00 224.70 L 120.26 225.93 L 120.84 226.19 L 121.43 228.73 L 122.62 229.77 L 124.34 229.46 L 124.55 230.13 L 123.85 232.30 L 124.36 233.68 L 124.61 237.41 L 124.28 238.45 L 124.50 240.07 L 124.20 242.63 L 124.98 245.03 L 125.28 247.97 L 125.20 249.45 L 124.57 250.38 L 123.79 250.75 L 122.60 251.92 L 119.26 257.24 L 119.16 258.84 L 118.42 260.79 L 116.98 262.85 L 115.71 263.85 L 114.22 265.95 L 114.69 267.40 L 115.16 267.18 L 115.18 266.12 L 116.00 266.29 L 116.98 264.73 L 117.66 264.47 L 119.14 262.83 L 120.32 262.98 L 122.91 264.65 L 124.34 266.29 L 125.24 266.72 L 128.07 266.47 L 130.33 265.45 L 131.76 263.80 L 132.95 261.38 L 134.47 261.05 L 136.90 261.85 L 137.48 263.11 L 138.54 264.26 L 139.18 263.50 L 137.99 261.29 L 135.74 259.64 L 134.49 259.21 L 132.78 259.62 L 132.03 260.55 L 131.41 262.09 L 129.98 264.02 L 127.60 264.86 L 126.25 264.84 L 125.28 264.45 L 124.18 262.98 L 122.72 261.79 L 121.14 261.12 L 121.41 259.97 L 122.33 258.22 L 123.07 255.75 L 124.96 253.95 L 126.08 252.59 L 126.92 250.57 L 127.19 247.76 L 126.64 244.01 L 127.19 242.00 L 126.96 239.96 L 126.64 238.99 L 126.88 237.39 L 126.62 235.22 L 126.53 232.21 L 127.25 231.00 L 129.98 230.87 L 131.12 231.37 L 132.99 231.22 L 133.91 230.80 L 136.35 233.86 L 137.03 234.16 L 138.40 233.97 L 140.06 234.42 L 140.76 235.70 L 141.54 234.90 L 141.49 233.34 L 142.60 230.93 L 143.50 229.85 L 146.62 230.39 L 147.50 229.46 L 148.26 229.51 L 148.63 230.93 L 149.84 232.30 L 150.90 232.69 L 152.30 235.31 L 153.73 236.35 L 153.59 237.62 L 154.53 239.25 L 155.31 239.27 L 154.41 237.21 L 155.64 237.13 L 155.68 235.87 L 153.57 234.12 L 153.42 233.32 L 152.60 232.21 L 150.94 230.91 L 150.02 228.90 L 148.36 228.12 L 146.91 228.77 L 146.21 228.03 L 144.71 228.86 L 144.77 228.38 L 143.63 227.64 L 142.15 227.67 L 140.06 229.61 L 138.56 230.09 L 137.03 229.81 L 135.00 228.03 L 133.17 227.47 L 130.69 227.99 L 130.59 227.02 L 129.71 226.11 L 128.01 225.43 L 124.53 225.61 L 123.09 224.79 L 122.66 223.38 L 121.96 222.90 L 121.14 221.58 L 121.08 219.52 L 119.91 216.04 L 119.42 215.26 L 119.42 213.68 L 121.00 213.59 L 122.56 213.01 L 122.89 211.64 L 121.98 211.77 L 121.02 211.27 L 120.41 209.33 L 119.87 208.44 L 120.16 206.88 L 120.10 205.00 L 119.63 203.80 L 118.56 203.11 L 117.37 201.53 L 115.55 199.65 L 114.59 197.63 L 112.62 197.35 L 111.39 198.00 L 110.34 197.33 L 108.91 197.89 L 107.21 197.81 L 107.23 196.42 L 109.63 195.60 L 110.18 194.82 L 110.02 193.48 L 108.21 193.97 L 107.25 193.93 L 106.51 194.67 L 104.63 194.56 L 102.25 195.10 L 101.84 193.95 L 103.15 193.22 L 103.50 192.20 L 100.85 193.30 L 100.34 194.75 L 98.97 196.44 L 96.94 197.48 L 96.65 196.79 L 95.59 196.77 L 96.10 197.63 L 94.73 197.83 L 92.86 199.93 L 89.77 202.27 L 85.81 203.37 L 83.70 203.00 L 83.31 203.46 L 81.67 203.00 L 80.63 203.78 L 79.23 205.32 L 78.66 205.34 L 78.76 204.30 L 79.54 203.65 L 78.29 202.74 L 75.73 202.77 L 75.73 201.51 L 76.36 200.28 L 75.40 199.04 L 76.14 198.93 L 76.42 198.00 L 75.26 197.57 L 72.88 197.31 L 68.64 198.57 L 68.86 196.94 L 67.84 196.70 L 66.44 196.94 L 67.35 195.95 L 68.45 195.84 L 69.13 196.23 L 71.94 195.30 L 73.70 195.34 L 74.97 194.84 L 75.89 195.27 L 77.76 194.56 L 77.61 193.28 L 79.70 192.98 L 79.93 192.31 L 81.53 191.66 L 83.50 191.57 L 85.46 189.56 L 85.71 190.14 L 87.12 190.62 L 87.78 190.27 L 87.59 189.45 L 89.13 188.74 L 88.45 189.75 L 89.23 189.80 L 89.79 190.62 L 90.71 191.01 L 92.12 190.51 L 92.25 191.01 L 93.44 190.60 L 93.93 189.82 L 94.81 190.84 L 94.66 191.40 L 96.04 190.40 L 98.01 193.52 L 98.78 193.78 L 100.12 192.94 L 99.21 192.42 L 100.44 191.81 L 102.84 191.92 L 103.09 191.27 L 101.33 191.27 L 102.06 190.40 L 100.10 190.19 L 99.71 190.62 L 98.89 189.82 L 96.04 189.64 L 95.12 189.95 L 95.61 188.45 L 94.44 188.28 L 96.18 186.94 L 94.93 186.05 L 91.32 186.89 L 90.07 187.39 L 88.76 187.02 L 87.31 187.00 L 85.61 187.80 L 84.21 187.72 L 86.30 186.18 L 88.29 185.36 L 91.45 185.42 L 93.25 184.73 L 93.29 184.12 L 92.47 183.73 L 92.53 182.61 L 90.50 182.43 L 87.84 183.00 L 86.63 183.71 L 85.46 183.60 L 83.23 184.47 L 80.89 184.17 L 79.99 184.32 L 77.35 183.93 L 75.19 184.64 L 73.86 184.53 L 73.02 184.88 L 71.22 184.73 L 70.11 185.03 L 69.07 184.88 L 71.30 182.69 L 71.22 182.20 L 69.80 181.68 L 70.46 181.37 L 70.30 179.58 L 70.62 178.93 L 70.11 176.63 L 69.07 175.46 L 69.76 174.23 L 70.42 174.27 L 72.26 172.06 L 73.04 171.95 L 74.83 169.49 L 76.38 170.42 L 78.70 170.98 L 80.48 170.42 L 81.59 169.55 L 82.72 169.36 L 82.74 170.59 L 83.27 170.66 L 83.15 173.82 L 83.80 173.10 L 83.56 174.83 L 83.78 175.92 L 83.50 177.39 L 83.95 178.32 L 84.19 181.27 L 84.75 181.70 L 84.07 178.97 L 84.27 176.55 L 84.79 175.31 L 84.34 173.23 L 84.44 171.67 L 84.95 170.76 L 83.95 170.14 L 83.91 169.29 L 85.77 168.95 L 87.70 169.18 L 89.05 168.99 L 89.40 168.40 L 91.39 167.52 L 92.21 167.43 L 92.23 172.63 L 94.87 173.64 L 95.24 175.12 L 94.54 177.28 L 94.50 178.80 L 95.30 179.81 L 95.59 179.17 L 95.32 177.71 L 96.26 177.19 L 95.98 175.40 L 96.73 173.86 L 96.76 170.96 L 95.65 169.98 L 96.26 169.44 L 96.12 168.14 L 96.57 166.72 L 97.86 166.13 L 98.64 167.91 L 98.56 168.82 L 99.26 171.28 L 99.83 171.37 L 99.30 169.94 L 98.97 168.06 L 99.09 165.72 L 101.94 164.87 L 103.15 163.68 L 104.81 163.10 L 105.10 162.45 L 106.92 161.84 L 109.11 162.23 L 110.53 163.45 L 110.77 164.87 L 114.63 169.49 L 115.26 169.98 L 116.80 172.54 L 117.17 174.06 L 117.99 174.16 L 117.41 176.76 L 118.77 175.27 L 118.99 173.86 L 118.32 172.41 L 117.78 172.06 L 118.79 170.31 L 118.42 169.77 L 119.48 169.25 L 118.85 166.41 L 117.37 165.61 L 117.13 163.55 L 119.44 162.47 L 121.49 161.97 L 123.85 161.74 L 123.30 162.56 L 127.21 161.80 L 128.95 162.17 L 129.71 161.97 L 130.28 162.58 L 130.49 164.29 L 129.92 164.94 L 130.02 166.13 L 131.04 166.37 L 130.51 167.36 L 129.71 167.39 L 129.10 166.35 L 125.88 167.91 L 125.75 169.16 L 129.79 168.21 L 130.82 167.41 L 131.25 168.19 L 130.94 169.46 L 131.33 171.11 L 131.96 175.35 L 133.19 176.52 L 132.99 177.84 L 133.83 179.84 L 133.15 182.48 L 133.69 182.72 L 133.38 185.29 L 134.28 186.18 L 134.90 183.80 L 135.10 180.59 L 134.79 179.94 L 135.33 177.78 L 134.90 175.66 L 133.85 173.47 L 133.73 171.26 L 133.26 170.96 L 134.88 169.05 L 135.06 166.54 L 136.31 166.13 L 137.11 167.39 L 138.52 167.58 L 140.08 169.53 L 141.00 170.09 L 142.13 169.40 L 142.07 167.95 L 143.30 167.86 L 145.12 170.46 L 146.72 170.87 L 147.87 170.59 L 149.47 173.49 L 150.08 173.23 L 148.63 171.46 L 148.22 170.44 L 149.14 169.92 L 150.49 170.53 L 150.68 172.30 L 151.23 173.30 L 151.89 176.98 L 152.71 177.89 L 154.57 178.88 L 156.19 181.40 L 156.27 183.08 L 157.17 184.49 L 158.85 183.84 L 159.16 181.94 L 161.35 182.76 L 162.21 182.85 L 161.54 183.93 L 162.73 184.32 L 164.16 190.55 L 165.62 190.75 L 165.90 189.62 L 165.31 184.47 L 166.03 183.52 L 170.19 181.78 L 172.69 181.42 L 172.91 179.99 L 174.31 179.77 L 173.24 179.53 L 173.51 178.28 L 174.74 177.54 L 175.47 177.97 L 177.81 177.65 L 179.00 178.00 L 181.83 177.15 L 181.89 176.13 L 179.68 176.22 L 178.34 174.92 L 177.67 174.83 L 175.27 175.46 L 172.69 176.46 L 171.81 177.52 L 169.63 177.91 L 168.63 178.58 L 168.22 178.34 L 164.88 180.38 L 164.18 179.58 L 160.49 178.21 L 159.20 178.21 L 157.66 176.24 L 158.65 174.88 L 157.56 174.38 L 156.80 174.88 L 154.75 172.43 L 154.04 168.71 L 153.20 166.72 L 153.57 166.04 L 156.09 165.16 L 157.79 164.87 L 157.99 164.33 L 160.08 164.77 L 160.72 166.35 L 160.55 168.43 L 161.09 168.90 L 161.68 170.70 L 161.56 173.38 L 161.13 174.47 L 161.46 174.81 L 162.48 174.08 L 162.60 173.28 L 163.10 174.36 L 162.93 175.59 L 163.44 176.37 L 164.10 175.40 L 163.83 174.53 L 163.16 174.47 L 164.16 173.80 L 164.22 171.13 L 163.85 170.11 L 163.85 168.32 L 161.54 165.57 L 161.56 163.84 L 160.90 162.30 L 160.76 160.70 L 161.19 160.15 L 162.79 159.64 L 164.06 158.21 L 165.92 157.56 L 168.12 157.32 L 169.90 154.87 L 173.04 154.03 L 174.39 154.16 L 175.17 153.14 L 175.76 153.14 L 176.25 152.17 L 179.80 150.48 L 180.82 149.78 L 183.65 148.83 L 185.29 147.57 L 187.89 146.95 L 191.19 147.68 L 192.16 149.33 L 193.39 148.87 L 192.69 146.67 L 193.43 145.82 L 194.92 145.26 L 197.38 145.65 L 198.20 146.23 L 200.56 149.11 L 204.11 151.84 L 204.49 151.23 L 204.97 151.84 L 205.50 153.85 L 206.32 153.27 L 206.67 154.14 L 206.59 155.39 L 208.20 156.65 L 208.63 155.89 L 208.41 153.33 L 207.71 151.04 L 205.85 149.37 L 205.97 148.33 L 203.94 146.71 L 202.71 146.47 L 201.75 146.71 L 201.17 145.58 L 200.01 145.19 L 199.41 144.54 L 199.31 143.07 L 202.86 140.69 L 203.02 139.41 L 199.82 140.45 L 196.44 141.01 L 194.72 141.66 L 195.15 140.84 L 194.33 141.17 L 193.82 140.65 L 192.10 140.88 L 189.33 142.01 L 188.88 141.88 L 187.07 142.77 L 184.21 144.63 L 182.96 144.78 L 181.23 145.41 L 179.96 146.62 L 174.20 148.92 L 170.56 150.87 L 169.26 151.32 L 167.83 152.27 L 164.57 153.83 L 161.03 155.93 L 157.40 156.50 L 157.64 155.54 L 156.68 155.22 L 156.68 154.09 L 154.57 154.68 L 154.49 155.41 L 152.75 154.79 L 152.36 155.24 L 150.06 155.26 L 149.75 154.24 L 150.61 153.07 L 152.01 152.38 L 153.77 152.73 L 155.27 151.47 L 154.30 151.58 L 155.47 150.41 L 154.45 149.70 L 152.95 149.83 L 154.94 148.40 L 154.30 147.77 L 150.76 147.90 L 151.72 147.03 L 150.64 146.73 L 152.91 145.89 L 155.35 144.74 L 156.54 143.57 L 158.73 142.38 L 161.78 141.36 L 163.30 140.32 L 166.54 139.46 L 169.74 138.94 L 172.26 139.41 L 175.39 138.44 L 177.18 136.86 L 177.24 136.47 L 174.72 137.62 L 172.30 138.05 L 173.92 136.79 L 173.30 136.34 L 170.49 136.45 L 169.86 136.84 L 166.54 137.57 L 165.58 138.13 L 164.02 138.52 L 163.01 138.29 L 162.09 138.91 L 160.92 138.59 L 157.34 140.69 L 155.04 141.30 L 153.93 141.86 L 150.64 142.94 L 147.23 143.44 L 145.27 144.41 L 145.20 144.74 L 143.05 145.69 L 142.13 145.43 L 137.38 146.99 L 135.74 146.77 L 134.90 147.57 L 133.42 147.12 L 131.60 147.14 L 130.94 147.62 L 129.81 147.23 L 127.21 148.31 L 122.54 149.03 L 123.38 148.03 L 121.74 146.88 L 123.01 146.23 L 123.52 144.72 L 122.97 143.79 L 123.56 143.09 L 123.15 142.01 L 123.34 141.17 L 122.13 140.52 L 122.64 139.82 L 121.70 138.94 L 123.25 137.57 L 122.17 136.60 L 122.66 135.56 L 123.60 134.78 L 123.58 134.28 L 125.39 132.92 L 125.16 131.99 L 127.13 130.90 L 127.25 132.01 L 127.80 130.45 L 128.95 129.67 L 129.05 130.56 L 131.02 129.43 L 132.01 130.79 L 130.00 131.23 L 129.32 131.88 L 130.10 132.44 L 131.39 131.86 L 131.66 132.72 L 133.44 131.99 L 135.31 131.60 L 135.61 133.24 L 136.10 134.17 L 137.29 134.65 L 138.87 134.41 L 140.06 133.83 L 141.23 134.43 L 141.70 133.05 L 140.08 132.77 L 139.65 133.05 L 138.07 132.38 L 137.07 131.31 L 137.40 130.60 L 139.22 128.74 L 137.89 128.95 L 136.86 128.15 L 135.39 127.61 L 135.63 127.03 L 136.94 126.62 L 136.84 125.99 L 133.83 125.77 L 131.76 126.38 L 128.73 128.20 L 126.53 128.33 L 126.49 127.70 L 124.42 128.20 L 123.66 128.89 L 123.38 127.53 L 123.75 127.46 L 124.85 125.40 L 124.55 124.21 L 123.13 123.82 L 123.56 123.00 L 123.60 121.64 L 121.43 121.53 L 121.68 119.60 L 122.41 118.99 L 121.94 118.52 L 122.58 117.48 L 120.61 117.83 L 120.45 118.76 L 119.63 118.11 L 120.55 117.98 L 120.92 117.22 L 120.14 116.76 L 118.34 117.15 L 118.81 116.27 L 116.72 115.57 L 116.51 114.90 L 118.34 114.08 L 119.75 112.54 L 122.58 110.55 L 122.31 110.14 L 123.42 109.29 L 123.32 108.71 L 124.42 107.78 L 125.71 107.32 L 124.89 106.76 L 126.60 106.07 L 127.03 105.48 L 126.19 105.01 L 126.72 104.44 L 128.03 104.70 L 127.80 103.77 L 129.24 103.97 L 130.18 104.86 L 130.24 105.59 L 131.00 105.07 L 131.04 104.27 L 130.24 103.73 L 131.53 102.11 L 130.59 101.13 L 131.78 101.02 L 132.25 100.55 L 132.70 101.93 L 133.40 102.02 L 133.71 101.13 L 135.41 101.35 L 135.24 99.83 L 134.01 99.75 L 135.37 99.12 L 136.94 99.77 L 139.69 99.25 L 139.81 98.73 L 142.70 97.78 L 144.04 97.56 L 146.21 96.50 L 146.58 97.30 L 145.70 97.78 L 145.72 98.34 L 144.10 99.57 L 143.09 99.83 L 143.07 100.53 L 143.93 101.78 L 146.02 102.21 L 146.37 101.72 L 145.25 101.18 L 144.22 101.61 L 143.83 100.20 L 143.22 100.20 L 146.58 98.14 L 147.89 99.98 L 147.13 102.24 L 147.36 103.62 L 149.30 103.36 L 149.32 103.90 L 151.78 104.55 L 152.19 105.98 L 154.59 106.20 L 154.78 107.52 L 156.00 109.40 L 156.89 110.05 L 157.66 112.89 L 157.54 114.21 L 156.89 115.57 L 155.80 115.38 L 155.70 116.79 L 157.09 116.20 L 158.67 116.87 L 159.69 115.55 L 162.28 115.38 L 164.33 113.82 L 165.64 112.11 L 167.83 111.85 L 168.14 110.64 L 167.32 110.05 L 168.32 109.51 L 169.41 108.30 L 170.60 107.58 L 171.17 106.83 L 172.44 106.26 L 174.43 104.23 L 177.03 103.80 L 178.51 103.88 L 178.69 103.38 L 179.16 104.83 L 180.33 104.25 L 182.42 105.81 L 181.58 106.37 L 180.74 107.54 L 178.82 109.51 L 177.91 110.90 L 176.29 112.67 L 175.86 113.99 L 174.37 115.92 L 173.79 117.50 L 174.63 117.52 L 177.05 114.56 L 179.51 113.13 L 181.87 110.94 L 183.34 109.36 L 185.70 107.61 L 186.58 107.52 L 186.93 108.47 L 187.71 108.45 L 187.91 107.43 L 189.55 105.81 L 190.68 105.83 L 191.62 105.31 L 192.94 105.51 L 194.33 104.94 L 195.87 103.34 L 196.54 103.97 L 197.92 103.84 L 199.43 104.92 L 199.90 104.40 L 200.66 105.09 L 200.46 106.09 L 200.91 106.96 L 202.45 107.02 L 203.14 109.88 L 204.11 111.22 L 205.83 111.74 L 205.31 113.00 L 206.61 112.95 L 205.29 115.55 L 205.60 116.29 L 204.74 117.22 L 204.39 118.89 L 205.97 119.02 L 205.60 120.29 L 205.99 124.21 L 206.54 126.66 L 207.04 127.14 L 207.10 128.56 L 208.12 131.53 L 210.64 133.54 L 210.52 134.80 L 212.90 135.64 L 213.18 136.16 L 214.80 137.14 L 215.68 138.07 L 216.40 138.13 L 217.16 138.96 L 218.72 138.96 L 218.86 138.18 L 220.87 138.07 L 220.87 139.52 L 222.49 141.79 L 223.70 142.18 L 224.93 143.09 L 226.22 143.59 L 227.57 145.26 L 228.29 147.45 L 228.64 150.04 L 229.66 150.02 L 229.87 147.70 L 233.47 149.16 L 234.09 150.15 L 235.05 150.26 L 235.01 153.03 L 235.30 153.18 L 235.07 154.79 L 235.95 155.95 L 235.81 156.60 L 236.36 158.83 L 238.04 157.90 L 237.84 157.06 L 238.78 156.43 L 239.17 154.48 L 238.72 150.37 L 237.74 148.07 L 236.88 147.12 L 235.63 146.58 L 234.07 145.19 L 232.20 144.44 L 231.30 143.37 L 230.52 143.09 L 230.11 141.90 L 228.02 140.39 L 226.92 139.24 L 225.38 138.87 L 222.74 137.14 L 222.26 135.51 L 221.57 134.54 L 217.59 133.46 L 215.87 133.35 L 215.21 132.22 L 213.86 130.88 L 212.26 130.30 L 211.11 128.13 L 210.70 126.23 L 209.95 125.84 L 209.35 124.84 L 210.03 122.78 L 209.37 119.60 L 208.84 118.58 L 210.11 116.79 L 211.89 116.24 L 212.98 115.12 L 212.61 114.30 L 211.36 114.73 L 208.98 115.12 L 209.54 113.80 L 208.68 110.23 L 208.00 109.64 L 207.82 108.15 L 205.40 106.11 L 204.86 105.20 L 203.82 104.99 L 203.51 103.95 L 202.55 102.99 L 201.79 103.34 L 199.60 98.82 L 197.75 98.58 L 198.00 97.60 L 197.44 97.47 L 196.93 96.28 L 198.35 94.87 L 196.46 92.51 L 195.85 92.88 L 196.48 91.45 L 195.13 91.04 L 196.19 89.44 L 195.64 88.05 L 196.34 86.99 L 195.72 86.60 L 195.76 84.89 L 195.35 84.22 L 196.22 82.10 L 198.26 80.67 L 199.68 80.04 L 200.36 79.33 L 201.75 78.94 L 202.75 78.16 L 204.39 78.07 L 204.80 78.87 L 205.87 78.83 L 206.20 81.82 L 207.12 81.99 L 207.49 83.16 L 208.06 83.14 L 207.47 84.52 L 208.22 84.74 L 208.29 85.48 L 207.16 86.71 L 207.00 89.33 L 205.31 89.61 L 204.78 89.20 L 203.96 89.55 L 201.95 91.41 L 202.57 91.58 L 203.43 90.37 L 204.95 89.72 L 206.63 89.70 L 206.71 90.24 L 207.73 90.33 L 207.53 92.15 L 209.25 93.79 L 210.58 93.73 L 211.65 95.35 L 212.00 96.56 L 215.58 97.88 L 216.89 99.64 L 216.67 100.59 L 215.81 101.35 L 215.64 102.24 L 216.53 102.15 L 216.73 103.10 L 218.29 101.37 L 219.76 102.37 L 222.39 104.99 L 222.43 106.24 L 221.28 107.26 L 218.66 111.78 L 219.37 112.15 L 219.87 113.50 L 221.42 114.58 L 222.20 116.27 L 222.71 118.54 L 222.16 118.99 L 219.99 123.26 L 219.93 124.19 L 220.81 122.96 L 220.95 124.36 L 221.79 122.42 L 223.06 121.59 L 224.76 119.32 L 225.32 119.38 L 226.38 120.79 L 228.43 122.24 L 229.29 123.58 L 229.68 124.78 L 231.45 126.72 L 232.51 126.98 L 233.60 126.72 L 234.52 128.17 L 235.40 128.41 L 236.26 126.83 L 235.93 125.06 L 235.42 124.36 L 232.49 122.31 L 231.38 121.85 L 230.34 119.95 L 229.54 119.38 L 229.05 117.59 L 228.21 116.48 L 228.88 116.59 L 231.24 119.51 L 234.07 120.77 L 234.64 121.87 L 235.97 123.28 L 238.56 123.48 L 239.40 122.94 L 239.95 123.26 L 240.69 122.63 L 241.43 123.32 L 241.32 124.36 L 242.35 126.23 L 242.98 126.38 L 243.09 127.37 L 244.85 129.82 L 246.63 129.80 L 248.23 131.31 L 249.42 131.77 L 249.56 130.04 L 248.70 129.26 L 246.55 128.41 L 245.46 127.66 L 244.42 127.57 L 244.17 125.53 L 244.34 123.39 L 243.19 121.68 L 243.00 120.53 L 241.53 119.45 L 237.68 120.66 L 237.55 118.99 L 236.24 119.04 L 235.36 117.67 L 233.66 116.48 L 232.92 116.55 L 231.83 115.14 L 231.55 112.41 L 229.97 110.75 L 229.35 109.77 L 228.90 108.02 L 229.11 107.41 L 231.32 107.06 L 233.56 105.70 L 234.95 106.65 L 236.77 106.46 L 239.70 105.46 L 240.87 104.75 L 241.98 104.83 L 243.21 104.12 L 246.14 103.60 L 245.67 100.98 L 246.10 100.59 L 245.32 100.03 L 243.68 100.79 L 242.72 100.07 L 239.99 100.83 L 239.03 101.89 L 238.27 102.04 L 235.73 104.03 L 234.66 104.18 L 233.82 103.51 L 231.98 103.90 L 232.94 101.28 L 234.23 99.79 L 236.57 98.47 L 238.64 96.61 L 241.20 95.18 L 240.61 94.29 L 239.11 94.81 L 238.31 95.59 L 234.97 97.65 L 232.04 99.94 L 231.96 100.48 L 230.93 100.61 L 228.54 102.80 L 225.77 104.14 L 224.70 103.95 L 223.39 100.83 L 221.65 99.70 L 222.12 98.40 L 223.29 96.80 L 224.33 96.97 L 226.03 96.33 L 226.36 96.74 L 229.58 96.97 L 231.65 96.52 L 232.24 95.89 L 234.27 95.05 L 233.56 94.31 L 232.16 94.53 L 231.49 95.05 L 229.72 95.59 L 227.08 95.57 L 225.89 95.94 L 225.65 94.87 L 223.43 94.59 L 223.02 95.33 L 220.40 96.95 L 218.96 96.24 L 218.68 95.68 L 217.06 95.13 L 216.79 94.66 L 216.79 94.66 L 218.00 93.64 L 219.68 91.41 L 222.04 90.11 L 222.76 91.86 L 223.23 90.87 L 224.07 90.50 L 225.87 88.75 L 227.51 87.95 L 229.17 89.81 L 230.03 88.92 L 230.05 86.37 L 231.26 84.85 L 233.33 83.77 L 234.50 87.06 L 234.83 89.40 L 236.61 87.77 L 238.17 88.10 L 238.64 87.08 L 240.26 86.54 L 241.53 86.50 L 243.72 85.37 L 244.50 85.78 L 245.59 85.07 L 245.96 86.60 L 248.62 84.91 L 249.89 83.18 L 251.02 82.71 L 252.02 81.04 L 255.16 78.70 L 254.81 77.94 L 256.28 75.82 L 257.35 75.13 L 259.30 75.21 L 261.00 76.71 L 261.26 77.38 L 264.11 75.95 L 265.04 76.73 L 269.38 73.79 L 270.16 75.45 L 270.36 76.90 L 271.23 79.35 L 269.52 80.78 L 268.56 81.30 L 269.50 84.27 L 269.59 85.07 L 272.58 84.83 L 273.91 83.83 L 274.09 83.03 L 275.49 81.97 L 277.78 81.78 L 278.34 85.85 L 279.28 90.33 L 280.02 91.02 L 279.26 91.97 L 279.30 93.06 L 280.63 93.97 L 281.35 95.35 L 283.13 95.29 L 281.90 95.76 L 283.11 96.04 L 281.96 98.25 L 282.50 99.16 L 284.71 99.68 L 284.40 101.33 L 283.93 101.24 L 282.60 99.68 L 281.16 101.89 L 280.30 102.39 L 279.77 103.64 L 280.12 104.66 L 279.94 105.61 L 281.27 106.18 L 281.00 106.63 L 280.04 106.13 L 280.82 108.21 L 280.45 108.84 L 280.67 110.40 L 281.41 110.85 L 281.66 111.78 L 283.19 112.17 L 283.99 113.39 L 284.71 113.62 L 286.60 112.17 L 291.27 112.04 L 294.32 115.81 L 294.63 118.37 L 293.73 118.71 L 292.70 120.96 L 296.04 123.76 L 295.55 125.60 L 295.47 133.44 L 296.00 135.41 L 298.52 136.25 L 282.44 143.18 L 281.68 143.11 L 279.26 143.61 L 278.50 142.90 L 277.29 142.60 L 275.86 145.04 L 270.59 145.86 L 265.69 151.39 L 270.20 160.52 L 272.50 160.18 L 277.54 167.30 L 279.81 170.94 L 280.86 174.42 L 282.64 175.96 L 282.83 176.93 L 284.30 176.74 L 286.06 176.16 L 286.56 177.04 L 287.91 176.59 L 288.71 177.78 L 289.59 180.01 L 289.08 182.33 L 289.16 183.65 L 288.62 182.98 L 287.62 186.68 L 286.82 186.35 L 287.29 189.10 L 285.20 198.00 L 286.27 199.97 L 285.14 203.80 L 282.09 209.00 L 279.32 212.01 L 276.16 213.74 L 276.16 213.74 L 273.09 216.23 L 269.46 217.19 L 265.61 217.27 L 263.44 213.22 L 256.28 212.68 L 244.66 213.46 L 231.98 215.43 L 226.53 215.35 L 218.10 218.27 L 215.23 220.17 L 212.98 221.26 L 210.29 226.15 L 208.43 227.69 L 207.53 228.75 L 207.36 229.74 L 205.87 231.95 L 205.75 232.69 L 204.56 234.94 L 203.65 236.04 L 196.58 249.62 L 191.95 250.46 L 187.75 250.85 L 185.05 247.39 L 181.77 248.00 L 178.20 248.30 L 172.34 256.35 L 166.74 259.84 L 169.00 263.35 L 169.16 264.13 L 170.62 266.62 L 167.67 268.54 L 167.07 270.23 L 164.88 269.47 L 161.93 264.34 L 159.84 265.79 L 157.23 266.05 L 154.59 265.32 L 154.10 266.08 L 154.69 266.55 L 153.93 269.54 L 153.53 269.73 L 153.69 271.06 L 152.30 272.81 L 149.26 275.73 L 150.00 276.88 L 149.73 280.84 L 149.73 280.84 L 148.24 280.78 L 146.97 278.94 L 145.00 279.00 L 141.74 278.76 L 141.25 275.99 L 138.36 276.62 L 139.01 277.42 L 138.28 279.22 L 136.58 280.04 L 135.55 279.43 L 129.48 280.54 L 130.08 281.21 L 129.08 282.77 L 128.46 284.31 L 127.76 285.11 L 126.90 285.24 L 124.89 284.72 L 123.44 284.89 L 122.74 285.63 L 121.00 284.26 L 120.32 284.35 L 118.42 285.61 L 117.45 286.80 L 116.29 285.52 L 114.34 286.49 L 113.05 286.71 L 112.84 288.03 L 112.23 288.96 L 110.59 288.05 L 108.77 287.77 L 107.62 288.61 L 107.35 289.91 L 106.63 289.81 L 106.18 290.50 L 104.73 290.82 L 103.89 290.39 L 102.31 290.89 L 99.38 289.16 L 98.62 289.16 L 96.06 289.91 L 94.38 291.60 L 92.27 292.23 L 89.83 292.14 L 89.32 293.68 L 88.66 294.18 L 88.84 295.05 L 88.35 295.76 L 87.16 296.32 L 86.38 295.70 L 86.20 294.53 L 85.36 294.35 L 85.03 292.75 L 82.10 291.30 L 81.77 290.54 L 81.88 287.97 L 81.24 285.63 L 80.05 284.89 L 78.02 286.19 L 76.94 288.16 L 75.87 289.11 L 75.11 289.05 L 73.15 289.85 L 73.31 288.74 L 71.40 286.47 L 70.65 286.45 L 67.57 283.76 L 69.17 281.23 L 66.20 280.52 L 64.91 280.86 L 63.60 280.30 L 62.75 283.33 L 59.91 284.63 L 60.64 287.12 L 58.78 288.66 L 56.71 289.29 L 54.86 288.03 L 53.45 289.22 L 52.86 290.24 L 51.50 288.18 L 50.99 286.82 L 49.41 285.89 L 48.31 284.63 L 47.57 283.33 L 46.24 284.48 L 44.78 282.88 L 43.12 283.61 L 38.57 287.14 L 35.60 288.51 L 34.76 288.38 L 34.25 287.19 L 32.01 287.21 L 31.69 285.93 L 29.64 285.95 L 28.28 287.99 L 27.52 288.16 L 26.56 287.01 L 25.27 287.29 L 22.13 288.42 L 20.90 288.49 L 18.88 289.18 L 17.07 289.52 L 16.07 288.68 L 14.55 286.77 L 12.50 285.93 L 11.50 284.83 L 10.41 286.69 L 9.04 286.99 L 9.96 285.00 L 11.17 283.22 L 12.28 282.57 L 13.51 280.80 L 13.34 279.85 L 12.63 279.54 Z M 9.31 241.35 L 10.68 241.28 L 11.33 241.74 L 11.48 243.19 L 10.82 243.69 L 9.96 242.78 L 10.17 242.39 L 9.31 241.35 Z M 11.56 223.18 L 12.07 222.21 L 11.56 221.00 L 12.73 220.15 L 12.93 219.50 L 14.39 221.58 L 14.41 222.10 L 12.30 223.75 L 11.56 223.18 Z M 13.04 215.02 L 14.53 214.59 L 15.70 213.81 L 17.61 213.40 L 17.20 215.02 L 17.34 215.82 L 18.45 216.75 L 19.20 216.84 L 19.70 216.02 L 20.90 218.29 L 20.76 219.74 L 18.22 220.56 L 15.51 221.69 L 15.02 220.30 L 13.75 219.11 L 14.33 218.85 L 15.11 217.49 L 14.86 216.41 L 13.63 215.78 L 13.04 215.02 Z M 15.35 240.07 L 16.48 239.16 L 17.97 240.46 L 19.76 241.09 L 20.39 240.27 L 24.43 242.47 L 24.10 241.26 L 22.07 240.44 L 21.79 239.64 L 18.67 239.01 L 15.60 236.67 L 15.47 234.83 L 16.83 234.51 L 17.77 234.66 L 18.75 235.61 L 19.02 234.44 L 17.58 233.68 L 16.85 232.47 L 17.03 230.63 L 16.74 229.94 L 17.77 228.47 L 18.53 228.03 L 22.01 227.82 L 22.87 228.21 L 23.63 227.17 L 26.75 227.67 L 27.14 227.19 L 29.04 228.14 L 29.06 226.06 L 30.50 225.82 L 31.85 226.58 L 30.97 227.84 L 31.07 228.55 L 30.37 229.57 L 30.56 230.48 L 32.07 229.55 L 33.49 229.25 L 33.04 230.50 L 34.39 229.12 L 34.94 228.96 L 35.66 230.33 L 36.40 229.29 L 37.61 229.57 L 37.71 231.13 L 36.77 231.26 L 36.83 231.93 L 37.57 231.65 L 36.77 233.38 L 35.62 233.55 L 35.62 234.77 L 34.33 236.17 L 34.55 237.93 L 36.21 237.97 L 36.38 239.98 L 35.19 241.70 L 34.80 242.95 L 34.31 243.10 L 32.77 244.77 L 29.74 244.94 L 26.73 246.16 L 24.59 246.44 L 23.22 247.20 L 21.44 247.24 L 21.09 247.91 L 19.53 246.87 L 18.81 245.81 L 18.86 244.83 L 18.16 243.32 L 17.42 243.34 L 17.09 242.19 L 16.05 241.48 L 15.35 240.07 Z M 19.31 206.19 L 20.27 206.60 L 21.64 206.64 L 22.40 207.81 L 23.96 208.33 L 25.15 207.40 L 24.82 208.20 L 25.23 209.07 L 24.37 209.82 L 24.04 210.76 L 22.16 211.01 L 21.60 211.49 L 20.78 211.08 L 21.62 210.13 L 20.29 208.74 L 19.31 206.19 Z M 20.39 221.73 L 20.90 220.35 L 23.02 219.05 L 25.68 218.57 L 26.03 218.87 L 26.13 220.76 L 24.98 222.04 L 24.08 222.14 L 24.66 222.79 L 24.04 223.92 L 23.53 223.31 L 21.40 222.56 L 20.39 221.73 Z M 21.56 214.44 L 22.81 212.68 L 23.67 214.20 L 26.23 213.42 L 26.30 214.20 L 25.72 215.37 L 24.23 215.91 L 23.10 215.95 L 21.99 215.32 L 21.56 214.44 Z M 24.88 222.62 L 25.99 221.65 L 27.18 221.17 L 26.52 219.39 L 27.44 219.68 L 27.48 219.03 L 25.62 217.01 L 26.38 216.02 L 29.35 214.89 L 29.57 216.58 L 30.19 216.28 L 30.41 215.15 L 30.93 214.78 L 31.46 215.43 L 31.17 218.57 L 30.74 218.74 L 29.90 220.54 L 30.13 221.28 L 30.87 221.15 L 30.91 222.34 L 29.55 223.27 L 27.40 223.36 L 26.34 222.97 L 25.68 222.21 L 24.88 222.62 Z M 26.03 224.46 L 26.95 224.53 L 26.27 225.02 L 26.03 224.46 Z M 26.17 225.61 L 27.69 224.85 L 28.86 225.35 L 26.87 225.80 L 26.17 225.61 Z M 31.32 228.92 L 32.05 228.21 L 32.48 228.66 L 31.32 228.92 Z M 32.81 222.73 L 33.71 222.47 L 34.19 221.65 L 34.82 222.25 L 35.31 221.78 L 37.38 221.56 L 37.79 220.89 L 38.12 222.71 L 39.21 223.29 L 38.53 223.81 L 38.63 225.41 L 37.85 225.05 L 37.28 225.82 L 36.40 226.00 L 35.85 226.80 L 36.64 227.10 L 35.37 227.92 L 34.49 227.58 L 33.37 227.80 L 33.86 226.78 L 34.78 226.56 L 34.35 225.28 L 34.70 223.85 L 34.04 223.12 L 32.81 222.73 Z M 33.02 219.24 L 33.16 218.81 L 34.90 218.29 L 34.82 219.07 L 33.02 219.24 Z M 33.30 214.22 L 33.55 213.48 L 34.49 213.72 L 33.30 214.22 Z M 34.94 221.54 L 35.44 220.93 L 35.76 221.56 L 34.94 221.54 Z M 35.91 236.30 L 37.40 235.46 L 37.24 234.68 L 38.55 234.68 L 37.87 234.07 L 38.28 233.66 L 39.64 233.62 L 39.94 232.26 L 40.70 231.87 L 40.60 230.96 L 39.33 228.90 L 37.75 230.37 L 38.16 229.42 L 39.08 228.51 L 37.77 227.08 L 38.96 226.69 L 39.39 226.00 L 38.76 225.35 L 39.66 224.31 L 38.90 224.22 L 40.07 223.29 L 39.84 221.39 L 38.71 219.63 L 38.59 218.98 L 37.44 219.70 L 36.42 219.89 L 37.28 219.07 L 37.42 217.23 L 36.99 216.80 L 36.62 215.06 L 36.75 212.70 L 37.18 212.51 L 38.35 209.52 L 38.98 209.11 L 38.94 207.64 L 41.28 205.62 L 42.71 204.80 L 43.67 204.84 L 46.30 204.09 L 47.88 204.13 L 49.66 204.91 L 50.34 204.63 L 50.70 206.34 L 50.81 208.52 L 52.02 210.84 L 52.67 211.53 L 52.86 212.64 L 52.41 213.87 L 52.90 214.74 L 55.73 215.89 L 56.18 217.08 L 54.86 218.64 L 57.10 217.23 L 57.63 217.64 L 58.33 217.21 L 58.59 217.81 L 57.43 219.22 L 55.79 220.13 L 55.05 221.39 L 53.35 222.82 L 52.75 223.88 L 50.42 226.02 L 49.66 227.04 L 48.00 227.95 L 46.69 229.74 L 46.48 230.83 L 45.05 232.86 L 43.96 235.68 L 43.08 236.15 L 41.13 236.02 L 40.15 236.52 L 39.39 235.74 L 39.25 236.26 L 35.91 236.30 Z M 36.64 240.01 L 37.53 239.42 L 37.96 239.88 L 36.64 240.01 Z M 37.46 232.10 L 37.79 231.48 L 38.82 231.32 L 37.46 232.10 Z M 38.12 233.29 L 38.90 232.62 L 39.31 233.32 L 38.12 233.29 Z M 39.41 239.51 L 40.83 238.38 L 40.37 238.30 L 41.48 237.15 L 41.83 237.45 L 43.26 236.35 L 43.80 236.43 L 43.28 237.67 L 42.14 238.88 L 39.78 240.18 L 39.41 239.51 Z M 41.24 241.13 L 41.56 239.75 L 42.61 239.75 L 42.24 241.02 L 41.24 241.13 Z M 45.11 180.96 L 46.34 180.62 L 45.76 181.63 L 45.11 180.96 Z M 45.29 196.57 L 45.93 194.80 L 47.63 193.17 L 47.28 192.09 L 47.88 191.83 L 48.51 193.04 L 49.82 192.96 L 50.62 193.52 L 53.25 193.26 L 53.49 194.67 L 52.67 196.81 L 51.54 196.03 L 49.49 196.53 L 48.06 197.29 L 46.75 197.24 L 45.29 196.57 Z M 46.58 238.45 L 47.51 238.71 L 48.96 238.38 L 48.59 238.97 L 46.58 238.45 Z M 50.83 180.79 L 52.34 180.20 L 52.81 178.58 L 53.63 178.69 L 54.13 177.74 L 57.67 177.28 L 56.95 175.70 L 55.44 175.16 L 56.14 174.14 L 58.18 173.62 L 59.29 173.99 L 59.60 175.01 L 58.90 176.70 L 60.09 179.36 L 59.21 181.33 L 60.01 183.43 L 59.72 184.99 L 58.78 183.84 L 57.61 181.81 L 57.61 181.07 L 56.46 180.33 L 56.09 181.27 L 54.76 181.46 L 55.13 182.59 L 54.52 183.00 L 52.47 183.30 L 51.22 183.76 L 52.16 182.69 L 53.06 182.65 L 52.61 181.87 L 51.52 181.87 L 50.83 180.79 Z M 51.69 188.30 L 53.37 188.15 L 53.49 188.58 L 54.78 187.57 L 55.15 189.32 L 54.80 190.29 L 53.55 190.84 L 52.41 190.42 L 52.55 189.15 L 51.69 188.30 Z M 54.29 201.88 L 54.91 201.49 L 58.41 201.83 L 59.76 201.47 L 60.40 201.70 L 61.65 201.34 L 63.55 201.55 L 65.28 199.69 L 66.14 199.21 L 67.45 199.84 L 67.65 202.07 L 69.46 200.60 L 70.32 200.82 L 71.22 201.68 L 71.53 202.85 L 70.52 203.83 L 70.48 204.50 L 72.31 204.09 L 72.18 203.24 L 73.82 203.59 L 76.49 202.90 L 77.20 204.95 L 74.72 206.19 L 73.84 204.17 L 72.98 204.17 L 74.03 204.95 L 74.27 205.67 L 73.86 207.07 L 73.31 207.57 L 71.26 207.79 L 69.31 208.39 L 68.17 208.22 L 66.22 209.15 L 63.37 209.67 L 60.48 209.28 L 58.68 208.55 L 56.73 206.60 L 55.87 205.99 L 54.74 203.59 L 54.29 201.88 Z M 56.50 198.22 L 57.32 196.36 L 56.75 195.95 L 57.47 195.56 L 58.61 195.75 L 58.86 196.94 L 61.16 197.59 L 62.78 197.01 L 62.32 197.83 L 61.20 198.24 L 59.70 198.22 L 57.80 198.87 L 56.50 198.22 Z M 57.04 189.54 L 57.71 188.84 L 57.47 187.83 L 57.53 185.55 L 59.13 184.86 L 59.89 185.99 L 60.56 186.05 L 59.99 188.45 L 60.46 190.12 L 59.35 191.25 L 57.47 190.45 L 57.04 189.54 Z M 59.09 196.08 L 59.78 195.40 L 61.53 195.19 L 61.24 195.97 L 59.09 196.08 Z M 59.58 165.76 L 60.89 164.96 L 62.28 165.63 L 62.82 165.03 L 64.46 165.78 L 64.97 166.91 L 66.10 167.86 L 66.42 169.03 L 66.38 171.28 L 65.56 172.00 L 63.00 170.66 L 62.39 169.75 L 61.16 169.44 L 60.99 168.69 L 59.89 166.85 L 59.58 165.76 Z M 61.30 194.84 L 64.09 193.95 L 64.72 194.43 L 69.19 194.34 L 69.42 195.38 L 67.51 195.69 L 66.87 196.18 L 66.81 195.45 L 64.17 196.29 L 64.00 195.75 L 61.67 195.71 L 61.30 194.84 Z M 61.94 159.66 L 62.61 158.73 L 62.69 156.65 L 63.33 157.15 L 64.23 156.76 L 65.05 157.36 L 65.89 159.22 L 66.98 160.39 L 67.96 160.20 L 68.64 162.32 L 70.50 165.07 L 70.05 166.65 L 68.72 166.28 L 67.39 164.31 L 65.85 162.73 L 63.98 161.87 L 62.86 161.89 L 63.39 161.28 L 61.94 159.66 Z M 62.34 191.90 L 63.41 190.42 L 66.81 189.84 L 67.39 189.49 L 67.65 188.15 L 68.43 187.87 L 69.35 188.39 L 70.38 188.02 L 70.21 187.50 L 71.42 187.59 L 73.00 187.24 L 73.29 188.04 L 74.54 189.23 L 76.32 189.15 L 77.10 188.48 L 79.11 188.45 L 81.16 187.78 L 83.21 186.81 L 83.97 187.22 L 83.86 187.87 L 82.90 188.82 L 80.24 189.64 L 79.03 190.29 L 78.13 191.70 L 77.80 191.03 L 75.65 191.05 L 74.40 191.79 L 73.31 191.38 L 72.67 192.03 L 71.01 192.26 L 69.99 191.66 L 68.84 191.79 L 68.37 191.16 L 66.89 190.97 L 67.53 190.34 L 66.71 190.08 L 66.57 190.71 L 65.40 191.12 L 64.48 191.98 L 62.34 191.90 Z M 63.62 183.13 L 64.44 182.17 L 64.19 183.15 L 63.62 183.13 Z M 63.76 186.16 L 64.39 184.95 L 65.54 184.02 L 65.54 185.01 L 64.33 186.22 L 63.76 186.16 Z M 64.09 154.98 L 65.26 155.17 L 65.15 156.32 L 64.25 155.95 L 64.09 154.98 Z M 64.99 156.52 L 66.51 156.93 L 67.43 156.13 L 67.00 154.81 L 68.14 154.94 L 69.99 155.98 L 70.32 155.46 L 71.69 155.78 L 73.33 157.15 L 74.50 157.49 L 75.89 159.64 L 75.89 160.59 L 74.23 162.62 L 72.31 161.76 L 69.89 159.76 L 69.37 157.92 L 67.76 156.65 L 66.26 156.99 L 64.99 156.52 Z M 66.34 180.79 L 67.06 180.12 L 67.12 178.62 L 68.00 176.91 L 68.90 176.44 L 69.21 177.09 L 68.06 178.84 L 67.55 181.33 L 66.34 180.79 Z M 68.14 181.11 L 69.05 178.71 L 69.72 179.66 L 69.72 180.59 L 68.14 181.11 Z M 69.91 193.93 L 70.79 193.50 L 70.52 194.47 L 69.91 193.93 Z M 69.93 200.10 L 70.67 199.78 L 71.53 200.15 L 72.26 199.73 L 73.04 200.60 L 71.87 200.77 L 69.93 200.10 Z M 71.94 193.74 L 73.06 193.15 L 73.35 193.61 L 71.94 193.74 Z M 72.31 202.42 L 73.82 201.66 L 73.00 201.29 L 73.19 200.64 L 74.17 200.67 L 74.89 201.27 L 74.99 202.64 L 74.07 202.87 L 73.51 202.44 L 72.31 202.42 Z M 73.49 152.51 L 76.22 152.43 L 78.97 151.28 L 80.87 151.36 L 82.02 153.64 L 81.49 155.20 L 79.87 155.85 L 78.21 155.30 L 76.83 153.92 L 75.40 153.68 L 73.49 152.51 Z M 74.79 193.07 L 76.06 192.00 L 77.08 191.72 L 75.36 193.41 L 74.79 193.07 Z M 77.65 143.31 L 78.84 143.37 L 77.78 143.81 L 77.65 143.31 Z M 80.40 141.99 L 81.30 140.54 L 83.13 139.26 L 82.78 138.85 L 83.43 137.87 L 83.74 138.26 L 84.36 137.42 L 85.11 137.77 L 85.18 139.17 L 84.68 139.95 L 85.09 142.10 L 86.18 143.85 L 85.52 146.04 L 84.58 148.27 L 83.56 148.83 L 81.63 146.90 L 82.08 146.43 L 81.28 145.19 L 83.04 144.22 L 83.19 142.96 L 80.77 141.88 L 80.40 141.99 Z M 82.59 189.60 L 83.78 189.30 L 84.32 189.69 L 83.00 189.90 L 82.59 189.60 Z M 85.67 135.21 L 87.39 134.74 L 87.57 135.82 L 86.43 136.27 L 86.10 135.15 L 85.67 135.21 Z M 88.15 164.42 L 89.71 162.32 L 90.89 161.97 L 91.49 162.84 L 89.50 164.31 L 88.15 164.42 Z M 88.72 131.92 L 89.68 132.18 L 89.83 133.00 L 89.09 132.81 L 88.72 131.92 Z M 89.05 135.10 L 89.73 134.89 L 89.62 135.75 L 89.05 135.10 Z M 89.64 124.26 L 90.57 123.65 L 90.73 125.01 L 89.64 124.26 Z M 90.89 187.78 L 93.37 187.85 L 93.35 188.45 L 91.88 188.95 L 91.00 188.56 L 90.89 187.78 Z M 91.41 162.51 L 92.08 162.34 L 92.02 161.43 L 93.25 160.70 L 92.29 160.44 L 94.11 158.60 L 93.76 157.36 L 95.05 156.52 L 95.32 154.79 L 97.53 153.49 L 97.68 154.63 L 97.31 156.37 L 97.29 158.42 L 97.68 158.88 L 98.87 158.64 L 99.26 160.52 L 98.56 161.17 L 96.92 161.80 L 95.26 161.56 L 93.41 162.90 L 91.41 162.51 Z M 92.64 130.75 L 93.21 130.12 L 94.05 130.97 L 94.07 132.96 L 92.78 131.62 L 92.64 130.75 Z M 93.33 166.91 L 93.76 166.43 L 95.59 166.28 L 95.67 166.80 L 94.56 167.26 L 93.33 166.91 Z M 93.46 170.09 L 93.76 169.29 L 94.79 169.21 L 94.15 170.20 L 93.46 170.09 Z M 93.84 168.36 L 94.32 167.73 L 94.93 168.01 L 93.84 168.36 Z M 96.55 138.11 L 97.19 137.72 L 97.86 138.18 L 98.76 137.75 L 98.52 138.83 L 97.02 139.22 L 96.55 138.11 Z M 97.39 150.63 L 99.52 149.74 L 98.99 150.78 L 98.17 151.36 L 97.39 150.63 Z M 98.62 156.82 L 98.74 155.98 L 100.38 154.11 L 102.06 153.59 L 101.59 152.47 L 100.92 152.06 L 99.97 150.00 L 100.87 149.46 L 102.21 149.39 L 101.55 148.48 L 100.55 148.01 L 101.14 147.16 L 103.27 146.06 L 103.58 147.53 L 104.91 147.12 L 104.54 148.03 L 103.52 148.83 L 104.01 149.91 L 103.89 151.43 L 103.27 152.01 L 103.56 152.60 L 104.65 151.95 L 103.93 151.45 L 104.56 150.58 L 105.10 148.87 L 106.92 147.34 L 110.38 147.32 L 111.80 146.51 L 113.54 146.28 L 114.56 145.56 L 117.27 145.06 L 117.86 144.44 L 118.52 144.67 L 118.23 145.63 L 118.79 147.14 L 119.42 147.73 L 119.01 148.83 L 119.32 150.06 L 119.05 150.89 L 119.48 151.75 L 118.46 152.71 L 117.41 153.03 L 115.86 154.29 L 113.97 154.83 L 113.38 155.48 L 111.27 156.39 L 110.49 156.02 L 107.21 157.28 L 105.40 157.69 L 103.50 159.14 L 101.51 159.79 L 100.08 160.78 L 100.53 159.68 L 99.40 158.49 L 99.99 158.29 L 98.62 156.82 Z M 106.53 127.03 L 107.39 126.53 L 107.15 127.27 L 109.20 126.40 L 110.14 125.58 L 110.75 126.38 L 112.50 126.01 L 112.64 127.07 L 113.17 127.35 L 113.34 128.67 L 114.93 128.69 L 115.10 127.59 L 118.19 124.67 L 118.66 125.27 L 119.96 124.45 L 119.63 125.27 L 119.89 126.14 L 121.68 126.10 L 120.71 127.68 L 120.30 129.00 L 120.80 128.95 L 120.98 130.84 L 119.50 132.25 L 118.48 132.57 L 117.29 131.88 L 115.84 132.27 L 116.10 133.11 L 117.11 132.70 L 117.33 133.44 L 116.78 134.22 L 117.02 136.10 L 118.60 136.21 L 117.76 138.11 L 117.82 139.87 L 116.96 139.91 L 115.75 139.37 L 114.89 138.42 L 113.79 138.29 L 113.95 137.07 L 112.37 136.84 L 112.60 135.75 L 110.92 134.95 L 109.93 135.04 L 110.65 134.35 L 108.60 133.93 L 107.43 134.32 L 106.70 133.93 L 107.97 132.72 L 107.00 131.92 L 108.58 131.42 L 109.28 132.20 L 110.22 131.79 L 110.55 130.17 L 109.20 129.76 L 109.26 129.13 L 108.11 127.96 L 106.53 127.03 Z M 114.28 159.05 L 117.25 157.21 L 118.50 157.08 L 117.91 158.08 L 114.67 159.42 L 114.28 159.05 Z M 117.29 142.83 L 117.72 142.25 L 118.50 142.72 L 117.29 142.83 Z M 119.34 120.79 L 120.45 119.43 L 120.84 120.25 L 119.34 120.79 Z M 119.81 111.09 L 120.43 110.36 L 122.07 109.86 L 122.31 110.46 L 120.63 111.31 L 119.81 111.09 Z M 124.53 131.47 L 126.08 129.76 L 126.10 130.86 L 125.20 131.60 L 124.53 131.47 Z M 132.58 151.26 L 135.74 150.24 L 135.90 150.52 L 132.58 151.26 Z M 132.87 130.47 L 134.24 129.80 L 134.88 129.97 L 134.03 131.31 L 132.87 130.47 Z M 132.91 129.69 L 134.83 128.59 L 135.14 128.91 L 133.58 130.06 L 132.91 129.69 Z M 133.46 127.92 L 134.36 127.14 L 134.71 127.87 L 133.99 128.69 L 133.46 127.92 Z M 137.76 150.30 L 140.88 148.96 L 141.62 148.29 L 141.88 149.18 L 137.76 150.30 Z M 138.44 152.30 L 140.33 151.04 L 141.04 151.26 L 141.54 150.56 L 142.38 150.45 L 145.80 148.98 L 144.14 149.00 L 143.40 147.88 L 145.70 147.06 L 148.46 147.14 L 149.39 147.86 L 147.13 148.85 L 145.76 149.11 L 144.32 150.30 L 141.76 151.04 L 138.81 152.36 L 138.44 152.30 Z M 140.24 160.24 L 141.52 158.99 L 141.21 158.42 L 143.01 157.90 L 143.28 157.19 L 145.49 157.47 L 147.27 159.27 L 151.27 159.57 L 151.93 160.52 L 152.62 160.70 L 152.13 161.45 L 147.75 163.14 L 147.25 162.77 L 145.80 163.14 L 143.26 163.03 L 141.82 162.69 L 141.25 162.10 L 141.19 160.96 L 140.24 160.24 Z M 143.93 96.46 L 145.25 95.70 L 144.55 96.82 L 143.93 96.46 Z M 149.96 101.87 L 150.59 100.22 L 151.31 99.55 L 152.07 99.64 L 152.23 98.69 L 154.39 97.45 L 154.16 96.43 L 155.47 96.20 L 156.19 95.63 L 157.36 95.44 L 158.38 94.29 L 157.73 93.92 L 156.07 94.83 L 155.31 94.03 L 154.10 93.81 L 155.37 93.40 L 154.47 92.86 L 157.19 92.15 L 156.58 91.71 L 155.31 91.67 L 155.37 90.61 L 156.44 90.83 L 158.53 90.54 L 157.19 90.24 L 155.35 90.39 L 156.03 88.94 L 156.64 89.33 L 158.05 87.95 L 158.71 88.18 L 160.72 87.30 L 161.91 87.58 L 161.31 88.44 L 162.36 88.60 L 160.41 90.13 L 159.76 91.15 L 161.60 90.13 L 163.98 90.02 L 163.77 90.61 L 165.12 90.91 L 164.59 92.25 L 165.53 93.45 L 166.01 93.29 L 166.33 94.40 L 165.80 95.96 L 165.94 96.63 L 167.01 96.04 L 167.11 94.83 L 167.85 94.40 L 166.85 93.58 L 167.40 91.43 L 167.09 90.65 L 166.25 90.44 L 165.68 89.35 L 167.40 88.75 L 168.26 87.34 L 169.33 87.43 L 170.66 86.41 L 171.42 85.24 L 170.02 85.59 L 169.74 84.96 L 168.42 84.57 L 168.55 83.44 L 169.80 82.94 L 170.60 83.14 L 170.72 82.42 L 169.55 81.84 L 170.35 81.19 L 169.22 80.15 L 168.14 80.15 L 168.04 78.48 L 169.12 77.94 L 168.28 77.79 L 170.23 77.01 L 171.93 77.79 L 172.97 77.27 L 173.38 77.83 L 172.11 79.24 L 172.65 79.20 L 172.46 80.48 L 173.77 80.82 L 172.99 82.81 L 172.77 84.11 L 173.40 84.22 L 172.71 85.07 L 172.93 85.54 L 174.06 85.67 L 173.26 87.30 L 172.44 87.86 L 172.75 88.40 L 173.57 88.05 L 173.28 89.68 L 173.73 90.37 L 173.59 92.36 L 174.08 93.14 L 173.65 93.66 L 174.65 95.03 L 176.34 95.68 L 176.62 96.71 L 177.65 97.19 L 176.81 99.07 L 174.90 100.98 L 171.27 102.91 L 169.82 104.44 L 168.45 105.14 L 166.27 107.17 L 165.27 107.63 L 164.35 108.67 L 163.08 109.51 L 161.91 109.49 L 161.15 110.29 L 160.23 110.18 L 160.19 107.39 L 159.65 107.09 L 159.33 105.96 L 156.95 104.83 L 155.62 104.57 L 154.90 103.75 L 153.61 103.75 L 151.56 103.12 L 149.96 101.87 Z M 152.13 95.85 L 152.58 95.22 L 153.38 95.74 L 152.13 95.85 Z M 152.87 90.35 L 155.19 89.05 L 155.21 91.04 L 154.18 91.06 L 153.67 90.37 L 152.87 90.35 Z M 154.12 159.72 L 155.29 158.08 L 156.72 158.42 L 154.55 160.13 L 154.12 159.72 Z M 155.39 88.53 L 155.82 87.36 L 156.60 87.84 L 156.74 86.32 L 157.36 87.23 L 156.35 88.55 L 155.39 88.53 Z M 157.40 86.60 L 158.71 87.14 L 158.55 86.41 L 159.37 86.58 L 161.11 86.28 L 160.29 87.14 L 157.60 87.77 L 157.40 86.60 Z M 160.47 85.65 L 162.09 85.28 L 161.54 86.11 L 160.47 85.65 Z M 161.91 84.18 L 162.83 83.79 L 162.71 84.55 L 161.91 84.18 Z M 163.36 83.36 L 164.39 82.25 L 164.18 83.25 L 163.36 83.36 Z M 164.74 90.37 L 165.62 90.02 L 165.74 91.04 L 164.74 90.37 Z M 164.86 84.03 L 166.99 82.90 L 168.06 83.33 L 168.45 86.91 L 167.56 87.69 L 166.31 87.88 L 167.34 86.78 L 165.02 86.65 L 165.94 84.27 L 164.86 84.03 Z M 165.25 79.29 L 166.11 79.00 L 165.92 79.76 L 165.25 79.29 Z M 165.80 80.28 L 166.64 78.85 L 167.97 78.53 L 167.93 80.04 L 166.91 80.48 L 165.80 80.28 Z M 166.09 82.36 L 167.26 81.93 L 166.66 83.01 L 166.09 82.36 Z M 174.80 77.31 L 175.09 76.67 L 176.34 75.73 L 175.41 75.99 L 175.33 74.61 L 177.05 74.28 L 177.67 75.37 L 177.93 74.07 L 178.75 73.66 L 179.37 74.80 L 179.92 76.75 L 178.63 77.34 L 177.83 76.04 L 178.00 78.44 L 176.87 78.85 L 176.46 77.60 L 174.80 77.31 Z M 175.37 91.52 L 176.07 90.37 L 175.60 88.66 L 176.72 87.92 L 177.28 90.15 L 177.65 88.01 L 176.52 86.41 L 176.09 85.26 L 176.58 84.94 L 176.27 84.05 L 177.13 82.68 L 178.49 81.91 L 179.72 81.65 L 180.41 82.75 L 181.89 82.90 L 182.75 81.71 L 181.99 81.56 L 182.79 80.22 L 186.46 78.92 L 187.38 79.65 L 188.92 79.16 L 189.41 80.24 L 190.27 79.85 L 190.09 81.45 L 190.50 81.58 L 189.27 84.78 L 190.19 84.68 L 189.33 85.87 L 189.90 86.24 L 188.88 87.69 L 188.92 88.27 L 187.59 89.98 L 186.36 90.72 L 185.76 91.65 L 184.35 92.75 L 184.74 93.29 L 183.28 94.22 L 180.19 93.29 L 178.75 93.84 L 178.00 92.43 L 175.56 92.06 L 175.37 91.52 Z M 175.72 86.65 L 176.54 87.40 L 176.09 87.66 L 175.72 86.65 Z M 176.72 79.76 L 178.77 78.44 L 179.04 79.39 L 178.14 79.87 L 176.72 79.76 Z M 178.92 94.96 L 179.43 93.97 L 180.56 93.49 L 180.82 94.07 L 182.03 94.61 L 181.21 95.05 L 178.92 94.96 Z M 178.94 77.77 L 180.11 77.25 L 182.85 74.89 L 184.06 73.57 L 184.98 73.96 L 185.41 75.13 L 185.80 74.76 L 184.92 73.55 L 185.84 72.92 L 186.15 73.66 L 187.10 73.68 L 187.96 75.04 L 188.45 76.58 L 187.87 78.16 L 186.42 78.66 L 183.90 78.81 L 182.34 79.18 L 181.15 78.66 L 179.20 78.85 L 178.94 77.77 Z M 180.07 75.00 L 182.16 73.96 L 181.68 74.93 L 180.35 75.47 L 180.07 75.00 Z M 180.27 81.95 L 181.73 81.73 L 180.89 82.60 L 180.27 81.95 Z M 180.66 30.63 L 181.07 29.94 L 182.16 30.09 L 181.54 30.70 L 180.66 30.63 Z M 181.36 31.85 L 182.44 31.48 L 182.46 32.17 L 181.62 32.41 L 181.36 31.85 Z M 181.46 31.26 L 182.36 30.53 L 182.55 31.22 L 181.46 31.26 Z M 181.60 28.55 L 182.11 28.27 L 183.00 29.70 L 184.06 30.63 L 182.63 31.17 L 182.46 30.16 L 181.60 28.55 Z M 181.66 102.86 L 182.55 102.45 L 182.48 101.24 L 183.20 100.33 L 184.78 99.29 L 185.87 99.05 L 186.83 99.98 L 187.12 101.26 L 188.37 101.89 L 186.64 103.86 L 185.60 103.60 L 183.98 104.64 L 183.47 104.60 L 181.66 102.86 Z M 181.91 39.51 L 182.01 38.75 L 182.96 38.41 L 182.75 39.12 L 181.91 39.51 Z M 182.05 23.27 L 184.35 21.56 L 184.72 20.70 L 186.01 20.59 L 187.26 18.64 L 188.10 19.76 L 188.04 17.90 L 190.03 17.69 L 189.80 19.68 L 190.87 19.37 L 190.50 18.81 L 191.13 17.86 L 192.59 17.08 L 193.69 19.07 L 193.33 17.73 L 194.56 16.21 L 195.29 14.68 L 197.12 14.00 L 198.67 12.47 L 199.39 12.66 L 199.13 13.85 L 199.99 12.75 L 199.97 13.44 L 201.48 14.07 L 202.08 13.57 L 203.76 13.72 L 205.36 12.32 L 206.83 14.33 L 207.43 14.70 L 207.71 15.93 L 208.59 16.49 L 208.86 18.62 L 208.41 19.09 L 209.09 19.74 L 209.84 19.33 L 209.52 22.02 L 210.32 21.89 L 209.89 23.25 L 210.21 24.85 L 210.87 25.50 L 211.73 25.29 L 212.28 26.32 L 212.67 25.87 L 212.57 28.68 L 213.14 29.85 L 212.36 31.52 L 211.50 31.67 L 212.34 32.30 L 211.81 33.21 L 210.48 33.90 L 209.00 33.38 L 208.16 34.49 L 210.11 34.53 L 210.32 35.51 L 209.00 35.61 L 206.40 36.50 L 203.80 36.24 L 205.93 36.93 L 206.89 37.63 L 206.56 38.02 L 204.80 38.32 L 204.09 37.78 L 202.94 37.63 L 201.38 38.95 L 200.40 38.34 L 197.71 39.06 L 197.30 38.56 L 195.72 38.60 L 194.84 37.78 L 194.78 36.20 L 192.79 34.99 L 192.92 34.29 L 193.98 34.12 L 196.71 34.96 L 198.65 35.35 L 198.98 36.11 L 200.52 36.24 L 199.15 35.09 L 196.97 34.64 L 193.55 33.08 L 192.18 33.04 L 193.65 33.84 L 191.91 34.31 L 190.46 33.95 L 190.60 33.06 L 188.67 33.25 L 187.59 32.84 L 189.49 30.91 L 191.30 29.96 L 193.51 29.25 L 193.18 28.94 L 189.96 30.42 L 190.21 29.49 L 187.83 31.76 L 187.10 31.07 L 187.07 32.24 L 186.07 32.84 L 184.88 32.26 L 184.39 32.58 L 184.12 31.63 L 184.90 31.02 L 184.96 30.31 L 184.16 30.61 L 183.02 29.49 L 182.30 28.12 L 184.35 26.48 L 182.91 27.19 L 183.82 25.37 L 186.17 24.25 L 184.00 24.35 L 183.12 23.66 L 182.44 23.88 L 182.05 23.27 Z M 182.55 25.35 L 182.85 24.74 L 183.43 25.46 L 182.55 25.35 Z M 182.57 36.70 L 183.32 36.02 L 183.51 36.63 L 182.57 36.70 Z M 182.67 26.26 L 183.49 25.63 L 183.47 26.28 L 182.67 26.26 Z M 182.89 31.24 L 183.24 31.46 L 184.35 30.61 L 183.88 31.69 L 182.89 31.24 Z M 183.30 19.44 L 183.41 18.70 L 184.06 19.03 L 183.30 19.44 Z M 183.34 39.38 L 183.45 38.45 L 184.31 38.49 L 184.41 39.27 L 183.34 39.38 Z M 185.39 12.51 L 186.25 12.14 L 185.82 13.05 L 185.39 12.51 Z M 185.95 66.51 L 187.32 66.19 L 188.06 66.64 L 187.03 67.31 L 186.13 67.38 L 185.95 66.51 Z M 185.97 35.66 L 187.32 34.68 L 186.58 34.75 L 186.36 33.99 L 188.71 33.58 L 191.19 34.47 L 189.84 35.31 L 192.01 35.03 L 192.38 35.51 L 191.15 35.70 L 189.33 36.44 L 189.78 36.80 L 188.55 37.09 L 187.89 38.06 L 186.58 37.82 L 186.97 35.66 L 185.97 35.66 Z M 185.97 19.22 L 186.30 18.23 L 186.93 18.79 L 186.25 19.63 L 185.97 19.22 Z M 186.52 32.99 L 187.55 32.39 L 187.38 33.40 L 186.52 32.99 Z M 187.36 46.96 L 188.20 46.14 L 188.22 47.18 L 187.36 46.96 Z M 188.63 68.78 L 189.57 67.77 L 190.31 68.11 L 191.50 67.48 L 192.01 67.87 L 192.98 69.84 L 192.90 70.41 L 190.89 70.54 L 191.15 69.95 L 188.76 69.22 L 188.63 68.78 Z M 188.92 100.33 L 189.12 99.72 L 190.56 99.59 L 189.70 99.23 L 190.01 97.69 L 189.45 96.61 L 190.35 95.94 L 189.72 95.57 L 189.51 93.62 L 190.87 92.54 L 191.30 91.22 L 193.06 90.48 L 194.94 90.96 L 195.25 91.61 L 194.45 93.10 L 194.45 94.18 L 193.94 94.68 L 195.09 94.68 L 195.25 95.16 L 196.40 93.27 L 197.22 94.44 L 196.56 96.15 L 195.27 96.71 L 194.31 98.79 L 193.41 98.79 L 190.72 99.88 L 190.13 100.46 L 188.92 100.33 Z M 189.00 15.85 L 189.80 15.59 L 189.82 16.52 L 189.00 15.85 Z M 190.21 67.57 L 190.95 66.66 L 191.32 67.35 L 190.21 67.57 Z M 191.01 66.38 L 192.38 64.45 L 194.49 63.02 L 194.99 63.44 L 197.01 62.35 L 195.50 61.96 L 198.78 61.01 L 199.70 61.08 L 199.88 60.08 L 201.38 57.50 L 202.79 56.46 L 205.42 55.08 L 205.52 55.49 L 207.18 54.91 L 206.85 55.62 L 207.84 55.88 L 207.86 56.88 L 208.59 57.96 L 208.37 58.67 L 208.82 60.06 L 209.39 59.99 L 209.86 61.01 L 209.62 62.12 L 210.27 62.50 L 210.15 63.63 L 210.73 64.09 L 210.89 65.56 L 210.42 68.83 L 211.07 68.65 L 211.91 69.26 L 211.40 69.93 L 209.93 69.82 L 209.07 70.21 L 207.92 69.93 L 206.40 70.39 L 205.03 71.58 L 203.65 72.01 L 201.69 71.64 L 200.21 72.40 L 199.66 71.90 L 197.22 71.95 L 196.87 71.25 L 194.35 71.86 L 193.90 70.88 L 195.70 70.58 L 195.70 69.97 L 194.08 70.34 L 193.35 68.57 L 192.08 67.14 L 191.01 66.38 Z M 192.28 36.07 L 193.71 36.07 L 193.57 36.50 L 192.28 36.07 Z M 193.84 13.85 L 195.46 14.07 L 194.92 12.62 L 196.34 12.16 L 196.44 13.07 L 195.95 13.96 L 195.01 14.44 L 193.84 13.85 Z M 193.94 72.62 L 194.51 72.01 L 194.68 72.70 L 193.94 72.62 Z M 194.02 4.22 L 194.62 3.68 L 195.62 4.43 L 195.64 5.15 L 194.02 4.22 Z M 194.27 82.16 L 195.01 80.76 L 194.86 80.24 L 196.17 79.52 L 195.76 80.76 L 196.32 81.23 L 194.27 82.16 Z M 194.35 47.52 L 195.72 47.28 L 195.25 48.28 L 194.35 47.52 Z M 194.37 61.75 L 196.67 60.66 L 196.89 60.32 L 199.08 60.10 L 198.18 60.71 L 195.46 61.81 L 194.37 61.75 Z M 194.58 73.70 L 195.15 73.27 L 195.40 73.96 L 194.58 73.70 Z M 195.76 8.53 L 196.24 7.42 L 196.87 7.94 L 196.73 8.61 L 195.76 8.53 Z M 195.78 60.17 L 197.22 59.45 L 196.81 60.14 L 195.78 60.17 Z M 195.99 44.47 L 196.79 43.88 L 197.94 44.04 L 197.12 45.03 L 195.99 44.47 Z M 196.15 13.81 L 196.79 12.60 L 197.44 13.64 L 196.15 13.81 Z M 196.46 41.35 L 196.83 40.55 L 197.42 41.00 L 198.18 40.59 L 196.81 40.18 L 198.39 39.16 L 201.52 39.08 L 200.74 39.32 L 201.71 39.94 L 201.85 40.96 L 199.84 41.39 L 198.20 42.50 L 196.97 42.41 L 197.18 41.78 L 196.46 41.35 Z M 196.58 9.15 L 197.71 8.33 L 197.67 8.90 L 196.58 9.15 Z M 196.65 80.76 L 197.16 80.15 L 198.78 79.42 L 199.78 78.53 L 200.15 78.90 L 198.18 80.32 L 196.65 80.76 Z M 196.85 9.87 L 197.53 9.37 L 197.61 10.30 L 196.85 9.87 Z M 197.06 45.27 L 198.08 44.32 L 198.51 45.62 L 198.02 46.03 L 197.06 45.27 Z M 199.39 46.42 L 201.20 44.69 L 200.70 44.73 L 201.97 43.36 L 204.09 43.15 L 204.90 42.33 L 206.09 42.41 L 205.25 43.62 L 203.47 45.40 L 201.65 45.83 L 199.92 46.72 L 199.39 46.42 Z M 199.80 41.78 L 200.91 41.24 L 201.01 41.70 L 199.80 41.78 Z M 200.29 43.67 L 201.17 42.91 L 201.15 43.78 L 200.29 43.67 Z M 203.55 42.63 L 203.90 41.68 L 205.29 41.63 L 203.55 42.63 Z M 203.61 39.58 L 204.54 39.38 L 204.72 39.92 L 203.61 39.58 Z M 204.95 11.82 L 206.97 12.03 L 206.91 13.20 L 204.95 11.82 Z M 205.36 47.15 L 205.75 46.09 L 207.06 45.53 L 207.14 44.82 L 208.55 43.43 L 208.94 42.52 L 209.91 41.81 L 211.28 42.17 L 210.99 41.05 L 213.08 38.64 L 213.29 39.42 L 214.37 40.90 L 213.29 42.15 L 211.77 43.08 L 210.85 43.99 L 208.12 45.38 L 207.32 46.59 L 205.60 47.48 L 205.36 47.15 Z M 206.91 36.63 L 207.88 36.35 L 208.86 36.72 L 208.45 37.28 L 206.91 36.63 Z M 208.22 40.59 L 209.11 40.07 L 209.97 38.97 L 210.34 39.79 L 208.37 40.87 L 208.22 40.59 Z M 208.78 54.82 L 209.66 54.26 L 209.78 52.91 L 210.50 52.35 L 212.32 53.04 L 211.83 53.50 L 212.90 54.23 L 213.06 55.25 L 213.86 55.40 L 211.98 57.07 L 211.87 56.64 L 210.75 57.01 L 210.93 56.14 L 209.99 55.99 L 208.78 54.82 Z M 209.54 59.17 L 213.25 56.66 L 214.91 56.46 L 215.38 58.52 L 216.20 60.34 L 216.81 60.77 L 217.57 62.16 L 218.60 62.09 L 220.01 64.24 L 220.48 64.24 L 220.60 65.32 L 221.26 65.86 L 221.69 67.29 L 221.44 68.26 L 220.05 68.48 L 217.28 68.46 L 215.52 69.28 L 212.82 69.59 L 211.65 68.39 L 212.00 66.86 L 211.38 64.97 L 210.95 61.55 L 211.65 61.31 L 211.34 60.40 L 210.36 60.73 L 209.54 59.17 Z M 210.05 51.96 L 210.70 51.53 L 211.65 51.70 L 211.57 52.39 L 210.05 51.96 Z M 211.20 23.70 L 212.00 23.36 L 212.06 24.01 L 211.20 23.70 Z M 212.14 35.57 L 212.26 35.12 L 213.57 35.33 L 212.14 35.57 Z M 212.43 37.06 L 214.11 35.87 L 214.21 36.35 L 213.27 37.09 L 212.43 37.06 Z M 213.59 27.41 L 214.97 27.62 L 215.05 28.25 L 213.59 27.41 Z M 213.66 35.35 L 214.64 34.40 L 215.68 34.10 L 214.11 35.48 L 213.66 35.35 Z M 215.01 51.64 L 215.54 51.05 L 216.16 51.61 L 215.01 51.64 Z M 215.52 49.75 L 218.29 48.37 L 219.99 49.41 L 220.52 51.03 L 221.59 50.34 L 221.30 51.12 L 223.29 50.86 L 224.33 49.93 L 224.81 48.82 L 225.54 49.21 L 226.10 50.29 L 226.71 53.22 L 226.65 55.19 L 226.16 56.25 L 226.53 57.63 L 226.30 58.43 L 226.73 60.10 L 227.49 60.04 L 228.21 58.22 L 227.65 55.81 L 226.90 54.75 L 226.79 53.71 L 227.31 52.87 L 227.00 52.24 L 227.69 51.61 L 226.79 51.35 L 226.14 50.57 L 227.35 49.67 L 226.08 49.41 L 226.26 48.80 L 228.31 47.11 L 229.07 47.44 L 230.67 46.18 L 231.20 47.35 L 232.12 47.31 L 232.43 48.52 L 231.92 48.95 L 232.70 49.34 L 233.13 51.09 L 233.58 54.56 L 234.79 55.55 L 234.93 56.81 L 236.16 57.01 L 236.65 56.36 L 237.49 57.27 L 238.13 57.27 L 238.47 61.10 L 239.95 61.03 L 240.09 62.12 L 239.54 61.88 L 240.03 64.17 L 240.57 64.89 L 239.58 66.01 L 236.77 67.66 L 236.14 67.70 L 235.30 68.65 L 233.06 69.43 L 231.16 68.68 L 231.20 68.22 L 230.09 67.81 L 228.90 69.17 L 225.44 68.70 L 224.09 68.81 L 223.25 68.22 L 222.86 66.12 L 221.87 64.91 L 221.26 62.85 L 220.21 62.18 L 218.39 59.45 L 217.04 58.46 L 217.47 57.27 L 216.65 55.27 L 218.33 54.19 L 218.39 53.45 L 217.75 52.63 L 217.94 51.74 L 216.18 50.16 L 216.69 49.56 L 215.52 49.75 Z M 215.66 56.64 L 216.24 56.07 L 217.22 57.27 L 216.24 57.31 L 215.66 56.64 Z M 221.55 42.61 L 222.82 41.89 L 223.21 42.46 L 222.45 43.21 L 221.55 42.61 Z M 222.88 48.39 L 224.27 46.89 L 224.03 48.21 L 222.88 48.39 Z M 224.21 41.78 L 224.50 40.83 L 225.26 40.18 L 225.09 39.64 L 226.30 38.51 L 227.43 39.10 L 227.45 37.93 L 228.39 38.71 L 228.31 37.65 L 229.11 37.04 L 229.70 37.22 L 229.09 38.02 L 231.47 37.06 L 231.67 38.69 L 233.23 38.93 L 233.29 39.84 L 232.43 40.83 L 232.78 41.42 L 231.92 41.48 L 231.51 42.20 L 227.76 42.95 L 227.82 42.22 L 226.36 42.93 L 226.12 42.52 L 224.74 42.39 L 224.21 41.78 Z M 226.10 114.32 L 226.42 113.39 L 228.23 116.03 L 227.55 116.63 L 226.10 114.32 Z M 230.13 143.20 L 231.16 144.65 L 230.58 144.44 L 230.13 143.20 Z M 230.65 36.11 L 232.45 34.86 L 232.76 35.18 L 234.13 34.05 L 234.91 34.05 L 235.54 35.09 L 236.57 34.49 L 235.89 33.04 L 234.60 33.43 L 234.17 32.71 L 235.44 31.72 L 235.30 30.79 L 234.66 30.63 L 234.87 29.18 L 235.83 28.23 L 237.29 27.54 L 239.13 27.17 L 239.75 26.61 L 240.98 26.37 L 241.59 26.95 L 242.06 28.40 L 243.05 28.27 L 243.99 27.30 L 244.38 28.30 L 245.50 27.97 L 246.51 31.89 L 247.10 32.37 L 248.17 31.93 L 249.23 32.43 L 248.37 33.82 L 248.89 34.94 L 248.68 35.64 L 249.97 35.68 L 249.21 36.98 L 247.04 38.06 L 245.12 38.38 L 243.68 38.97 L 243.33 39.62 L 242.20 40.12 L 240.13 40.53 L 239.05 40.49 L 239.25 39.19 L 240.16 38.80 L 239.21 38.00 L 239.89 36.57 L 238.66 35.72 L 236.16 35.14 L 235.95 35.98 L 237.25 36.15 L 237.16 36.96 L 238.00 37.26 L 237.72 38.02 L 238.43 38.93 L 237.94 39.32 L 236.26 38.75 L 234.74 38.73 L 234.03 38.06 L 232.55 38.45 L 231.63 36.74 L 230.65 36.11 Z M 233.54 50.27 L 234.36 49.69 L 233.86 48.82 L 234.54 48.43 L 235.26 49.64 L 234.15 50.66 L 233.54 50.27 Z M 233.60 52.50 L 234.52 51.25 L 234.25 50.90 L 235.36 50.21 L 236.14 52.11 L 235.59 53.22 L 235.85 54.34 L 237.04 55.58 L 236.18 56.49 L 235.52 56.23 L 234.44 53.69 L 233.60 52.50 Z M 259.22 61.25 L 258.17 61.96 L 256.69 62.03 L 252.27 62.87 L 249.91 63.13 L 248.17 62.66 L 248.80 61.90 L 247.90 62.03 L 246.65 63.09 L 244.97 63.83 L 244.01 63.65 L 242.02 62.59 L 242.88 61.42 L 242.18 60.62 L 240.83 61.53 L 241.94 59.86 L 240.83 59.06 L 240.95 57.05 L 239.70 56.18 L 240.09 55.29 L 238.64 54.26 L 239.09 53.06 L 238.50 51.98 L 236.63 51.66 L 236.51 50.88 L 237.14 49.99 L 236.57 49.99 L 236.86 48.45 L 235.28 47.65 L 234.01 47.54 L 234.64 44.90 L 236.40 45.51 L 237.06 44.95 L 237.27 43.41 L 236.20 43.36 L 236.40 42.82 L 237.72 42.89 L 238.21 41.98 L 240.24 41.20 L 240.73 41.37 L 244.62 39.73 L 246.39 40.07 L 246.88 38.99 L 248.29 38.23 L 249.81 38.34 L 250.36 37.71 L 253.15 36.44 L 253.27 36.83 L 254.73 35.48 L 255.83 35.03 L 257.82 34.79 L 258.95 35.09 L 259.99 34.77 L 259.63 33.79 L 256.65 34.14 L 256.08 34.55 L 254.44 34.64 L 253.29 35.29 L 251.84 34.68 L 251.82 34.18 L 249.56 34.73 L 250.30 34.10 L 249.46 31.17 L 247.96 29.70 L 247.45 29.70 L 246.86 27.84 L 246.90 26.91 L 246.10 26.39 L 245.69 24.40 L 246.08 23.42 L 247.23 22.62 L 248.82 22.43 L 249.99 21.76 L 251.32 22.75 L 252.45 21.91 L 252.04 21.17 L 253.52 20.37 L 253.52 20.37 L 254.09 22.12 L 255.79 23.64 L 257.06 24.44 L 256.90 26.71 L 256.51 28.04 L 256.76 30.11 L 258.74 30.03 L 260.42 31.11 L 261.84 30.24 L 262.06 31.17 L 263.62 33.40 L 265.04 32.86 L 264.54 34.27 L 262.92 35.22 L 262.90 36.59 L 262.00 37.76 L 261.49 39.25 L 261.65 40.31 L 261.70 44.12 L 260.47 45.08 L 257.99 49.47 L 258.40 50.51 L 258.89 53.50 L 261.45 55.88 L 261.39 58.02 L 259.60 58.85 L 259.22 61.25 Z" fill="#43aa8b" stroke="white" stroke-width="1.5" stroke-linejoin="round" fill-rule="evenodd"/>
</svg>