<svg xmlns="http://www.w3.org/2000/svg" viewBox="0 0 300 300" width="300" height="300">
  <path d="M 11.94 113.10 L 66.67 64.70 L 76.45 63.83 L 73.80 59.58 L 71.31 45.00 L 61.86 31.47 L 78.61 19.30 L 78.61 19.30 L 89.39 16.40 L 106.30 18.24 L 126.04 17.76 L 135.66 23.94 L 140.46 24.52 L 142.12 29.25 L 147.93 28.96 L 160.03 24.13 L 178.27 34.47 L 171.97 40.26 L 170.98 45.58 L 174.63 46.74 L 190.71 71.95 L 209.45 74.46 L 207.63 80.84 L 208.29 96.29 L 204.64 99.77 L 204.64 106.24 L 210.45 113.00 L 213.76 108.27 L 219.73 121.50 L 220.06 128.84 L 227.03 125.56 L 232.00 130.39 L 236.98 131.26 L 242.62 139.08 L 253.23 142.95 L 264.84 142.85 L 272.63 140.63 L 279.60 151.84 L 279.60 159.37 L 283.08 166.13 L 288.06 168.84 L 284.74 173.86 L 274.62 180.72 L 267.82 193.08 L 261.85 221.58 L 263.18 229.50 L 261.52 233.94 L 264.67 241.96 L 269.32 247.18 L 279.10 265.24 L 273.63 269.20 L 267.82 268.43 L 257.87 270.36 L 245.44 282.24 L 239.63 280.41 L 231.51 283.60 L 226.20 281.47 L 225.04 277.41 L 207.96 276.45 L 204.97 270.46 L 196.85 272.49 L 183.75 269.78 L 180.60 272.00 L 177.61 268.24 L 177.61 268.24 L 181.09 264.28 L 179.27 260.22 L 186.23 250.17 L 188.39 242.15 L 186.90 235.01 L 182.42 227.76 L 177.11 227.86 L 176.62 220.52 L 164.84 220.71 L 172.30 217.33 L 168.66 212.60 L 173.80 207.28 L 173.47 204.00 L 165.84 203.71 L 161.69 207.28 L 155.56 200.91 L 143.95 204.58 L 131.51 194.63 L 134.00 202.55 L 138.97 206.12 L 131.18 212.11 L 122.89 213.85 L 117.91 208.92 L 115.42 197.91 L 123.05 194.82 L 121.56 192.89 L 112.27 197.53 L 103.15 199.84 L 103.15 199.84 L 97.68 196.85 L 93.20 189.99 L 93.87 185.16 L 99.17 179.95 L 99.50 172.02 L 94.86 158.98 L 84.41 146.43 L 73.30 146.23 L 65.51 139.18 L 51.74 129.91 L 47.76 132.42 L 38.64 126.72 L 29.19 127.78 L 11.94 113.10 Z M 132.17 217.52 L 136.32 215.30 L 136.48 220.32 L 132.17 217.52 Z M 139.97 218.29 L 148.59 214.24 L 147.60 219.74 L 139.97 218.29 Z M 151.41 212.60 L 156.22 209.99 L 153.57 216.65 L 151.41 212.60 Z M 167.00 237.81 L 171.48 236.55 L 170.48 231.05 L 175.12 234.91 L 174.63 238.48 L 168.32 241.00 L 167.00 237.81 Z M 177.78 234.23 L 183.42 231.63 L 181.43 236.84 L 177.78 234.23 Z" fill="#f94144" stroke="white" stroke-width="1.5" stroke-linejoin="round" fill-rule="evenodd"/>
</svg>