<svg xmlns="http://www.w3.org/2000/svg" viewBox="0 0 300 300" width="300" height="300">
  <path d="M 4.68 118.23 L 5.00 113.46 L 10.32 111.94 L 11.56 109.55 L 12.08 106.03 L 13.57 106.06 L 15.91 104.09 L 13.70 102.08 L 13.76 98.71 L 16.88 98.52 L 17.53 96.81 L 19.74 95.98 L 20.58 93.78 L 18.76 92.61 L 18.83 90.90 L 23.05 91.70 L 23.05 94.99 L 25.39 97.42 L 21.62 101.25 L 23.50 104.51 L 20.45 105.31 L 21.49 110.31 L 18.70 112.92 L 19.93 115.28 L 16.88 116.49 L 15.32 119.14 L 13.05 117.28 L 8.83 119.71 L 5.65 119.48 L 4.68 118.23 Z M 15.84 88.17 L 19.09 89.08 L 17.08 90.26 L 15.84 88.17 Z M 17.40 150.95 L 19.48 148.14 L 21.69 150.95 L 17.40 150.95 Z M 269.29 53.18 L 264.49 58.03 L 262.93 64.25 L 271.69 89.46 L 275.91 95.87 L 277.41 99.69 L 278.96 106.52 L 279.22 116.03 L 282.28 120.66 L 283.64 129.60 L 286.36 133.47 L 285.98 134.57 L 292.14 143.02 L 293.38 153.64 L 293.12 155.84 L 294.35 168.58 L 295.32 175.97 L 294.48 177.45 L 288.44 181.58 L 284.35 187.68 L 284.55 191.25 L 282.86 196.82 L 282.79 207.17 L 283.25 210.20 L 281.17 213.23 L 279.87 217.14 L 282.08 218.92 L 283.12 221.38 L 282.66 226.05 L 276.37 232.45 L 273.25 237.84 L 270.13 241.40 L 267.41 243.18 L 266.24 249.06 L 264.49 254.02 L 261.31 258.08 L 263.12 258.80 L 263.45 261.11 L 261.31 262.25 L 262.47 267.75 L 260.79 270.89 L 258.71 272.79 L 259.23 274.99 L 256.50 275.06 L 255.20 276.24 L 253.78 284.20 L 248.78 283.40 L 247.74 284.43 L 239.43 289.16 L 236.44 287.00 L 235.21 290.07 L 230.73 286.51 L 228.13 289.96 L 226.25 291.06 L 227.35 292.54 L 225.02 293.56 L 218.26 289.62 L 214.24 288.94 L 208.27 289.92 L 208.01 280.82 L 209.69 275.48 L 208.79 269.30 L 209.43 262.67 L 207.42 258.69 L 209.04 257.66 L 211.84 260.35 L 212.36 258.15 L 210.34 257.28 L 210.41 254.14 L 206.71 249.74 L 205.34 249.59 L 205.60 246.02 L 203.27 244.70 L 202.42 241.97 L 199.76 241.47 L 199.44 238.82 L 202.88 233.44 L 200.02 232.98 L 200.48 236.43 L 198.66 235.18 L 197.62 236.32 L 196.32 234.23 L 198.14 234.35 L 196.52 230.48 L 195.28 231.24 L 193.14 228.96 L 191.58 222.71 L 188.92 222.07 L 191.71 216.23 L 188.60 218.69 L 189.18 216.19 L 181.19 216.38 L 176.26 216.04 L 172.11 218.92 L 170.42 219.15 L 168.99 221.42 L 161.13 222.79 L 153.93 225.59 L 151.33 224.91 L 153.54 220.09 L 151.59 220.40 L 148.93 224.57 L 148.02 223.28 L 149.25 219.53 L 151.07 218.35 L 151.20 215.55 L 155.42 210.65 L 152.69 212.89 L 148.28 218.01 L 147.05 217.67 L 149.32 213.99 L 146.98 216.30 L 144.19 216.27 L 145.49 213.84 L 142.18 213.08 L 143.02 207.39 L 147.83 207.62 L 149.12 208.27 L 151.92 206.52 L 149.25 205.27 L 148.34 206.33 L 145.68 204.89 L 142.50 204.70 L 143.74 197.58 L 145.36 196.21 L 144.58 190.71 L 143.15 190.83 L 143.09 193.90 L 137.31 192.27 L 134.32 190.26 L 134.52 191.74 L 136.59 192.46 L 138.28 194.77 L 137.50 195.91 L 139.84 199.51 L 140.23 202.35 L 135.30 202.96 L 134.91 204.32 L 132.70 204.32 L 132.24 206.45 L 129.45 207.47 L 128.41 203.94 L 129.19 202.28 L 127.44 200.46 L 124.39 194.81 L 121.08 194.43 L 118.74 190.98 L 119.13 187.15 L 116.66 183.97 L 115.75 185.48 L 116.79 188.71 L 118.22 189.16 L 119.33 193.37 L 120.88 195.42 L 122.83 195.98 L 122.77 198.33 L 124.91 199.74 L 124.71 202.01 L 126.47 202.66 L 126.92 208.19 L 125.49 209.59 L 126.27 211.15 L 123.09 211.38 L 121.99 213.54 L 118.42 214.67 L 117.18 214.18 L 117.96 208.57 L 116.40 210.54 L 115.75 209.56 L 112.70 211.38 L 111.86 210.31 L 109.46 212.66 L 108.35 212.10 L 109.78 209.86 L 109.59 207.02 L 111.86 202.01 L 109.78 203.76 L 108.16 203.64 L 107.25 205.76 L 105.69 203.22 L 105.50 200.57 L 103.48 201.06 L 103.10 196.21 L 105.04 194.62 L 103.94 193.63 L 102.45 195.42 L 99.46 195.26 L 99.46 193.25 L 94.85 194.05 L 93.88 197.01 L 91.41 196.67 L 88.75 190.11 L 90.05 187.68 L 88.16 188.10 L 85.96 185.29 L 82.78 184.65 L 81.74 182.26 L 79.59 186.24 L 76.15 187.11 L 77.32 189.92 L 70.51 196.86 L 68.10 193.33 L 67.78 196.97 L 68.82 198.68 L 62.39 201.56 L 60.38 204.67 L 61.16 198.52 L 59.53 199.17 L 56.35 190.83 L 53.82 191.17 L 55.18 193.41 L 52.07 190.45 L 55.96 187.45 L 53.50 186.39 L 52.13 184.54 L 48.04 181.28 L 45.71 178.58 L 46.48 176.69 L 52.91 168.88 L 51.55 169.07 L 47.39 174.15 L 45.06 178.39 L 43.30 177.83 L 42.14 179.49 L 40.90 178.81 L 38.11 180.59 L 39.86 171.95 L 37.66 173.12 L 37.92 170.70 L 39.47 168.58 L 41.03 171.95 L 42.65 167.02 L 40.97 165.24 L 42.59 162.89 L 40.77 161.41 L 46.22 156.71 L 51.94 152.77 L 53.56 150.68 L 49.41 150.99 L 48.82 152.39 L 45.71 154.74 L 43.04 151.48 L 44.08 147.04 L 42.20 147.19 L 42.14 144.62 L 43.95 143.37 L 40.51 142.65 L 37.92 143.48 L 37.20 146.13 L 35.38 146.40 L 35.06 148.79 L 31.10 151.25 L 28.70 155.76 L 26.94 155.38 L 27.01 152.73 L 25.71 152.09 L 27.66 150.11 L 27.46 148.75 L 25.52 150.76 L 22.79 148.14 L 21.62 145.49 L 22.46 143.82 L 22.14 140.64 L 25.13 138.10 L 22.40 138.85 L 22.46 131.61 L 20.91 132.56 L 20.32 134.99 L 19.61 131.31 L 20.32 129.49 L 18.89 126.84 L 20.97 119.48 L 21.23 115.62 L 20.19 113.99 L 23.76 111.29 L 25.13 105.31 L 28.63 98.67 L 27.72 96.74 L 27.72 96.74 L 30.25 95.18 L 33.11 96.13 L 34.41 100.19 L 37.20 102.12 L 41.42 98.90 L 43.56 97.95 L 42.26 95.56 L 49.73 94.43 L 48.11 89.76 L 49.99 84.38 L 51.42 82.07 L 50.96 77.90 L 47.85 76.46 L 53.95 73.69 L 55.83 72.32 L 57.39 73.08 L 62.58 71.87 L 65.51 70.66 L 65.12 68.84 L 66.93 68.08 L 64.21 67.66 L 63.23 66.41 L 65.05 65.16 L 67.39 65.35 L 68.23 63.26 L 71.09 62.32 L 69.86 59.40 L 70.44 58.49 L 74.08 59.43 L 76.02 58.22 L 73.69 56.63 L 73.23 54.85 L 75.70 53.48 L 79.53 54.36 L 81.61 50.72 L 83.03 51.89 L 86.35 50.56 L 86.87 45.64 L 89.98 44.95 L 92.19 49.43 L 93.23 46.74 L 95.95 44.35 L 97.71 41.31 L 94.59 41.09 L 94.66 39.00 L 90.31 37.37 L 91.67 32.29 L 93.55 30.36 L 94.33 27.10 L 99.07 27.10 L 104.00 28.58 L 108.87 31.19 L 111.34 31.27 L 113.55 29.03 L 122.05 28.73 L 125.75 27.86 L 124.78 30.24 L 125.95 31.42 L 131.66 28.01 L 133.48 28.73 L 136.40 33.28 L 141.66 34.30 L 146.20 33.43 L 149.06 34.07 L 155.16 34.23 L 154.71 31.00 L 154.90 26.00 L 156.39 18.99 L 158.28 13.72 L 156.78 10.34 L 159.25 8.79 L 160.35 6.44 L 166.72 8.90 L 173.21 9.93 L 177.88 10.23 L 181.65 11.10 L 181.65 12.92 L 185.54 15.23 L 186.52 17.92 L 188.53 19.90 L 186.71 24.48 L 187.75 29.60 L 199.63 37.03 L 203.79 37.68 L 207.42 37.45 L 210.34 39.65 L 212.55 42.26 L 214.04 45.60 L 218.78 49.69 L 219.17 52.76 L 217.68 53.45 L 212.88 53.10 L 212.75 60.53 L 216.58 62.92 L 223.00 60.31 L 224.95 57.43 L 224.82 55.49 L 228.85 55.04 L 227.55 50.49 L 225.73 48.37 L 229.30 46.55 L 233.97 47.15 L 239.23 44.88 L 241.31 42.94 L 247.54 39.87 L 248.19 38.74 L 247.15 36.01 L 252.35 36.42 L 253.71 37.79 L 255.85 37.75 L 262.93 38.96 L 270.33 41.39 L 269.42 43.48 L 268.97 53.03 L 269.29 53.18 Z M 21.23 157.32 L 23.83 155.19 L 25.39 157.47 L 23.24 158.11 L 21.23 157.32 Z M 27.40 179.34 L 28.37 175.29 L 32.59 173.73 L 31.10 176.23 L 32.53 178.47 L 32.01 180.44 L 30.12 182.07 L 33.18 184.61 L 32.33 185.48 L 28.57 183.02 L 27.40 179.34 Z M 35.38 153.37 L 36.62 151.63 L 39.47 151.93 L 40.38 150.00 L 42.65 151.29 L 42.14 154.13 L 39.21 155.80 L 36.16 156.10 L 37.72 152.73 L 35.38 153.37 Z M 36.75 167.32 L 37.98 164.29 L 41.03 164.41 L 39.99 167.48 L 38.05 167.36 L 38.76 164.78 L 36.75 167.32 Z M 43.69 183.74 L 45.84 179.83 L 51.48 185.82 L 52.46 187.91 L 51.68 189.62 L 48.50 191.81 L 48.56 189.92 L 46.16 188.52 L 47.00 186.62 L 44.73 186.01 L 43.69 183.74 Z M 44.41 217.18 L 47.85 218.39 L 46.03 218.92 L 44.41 217.18 Z M 47.72 221.16 L 50.90 221.27 L 50.77 224.42 L 47.72 221.16 Z M 61.16 223.01 L 62.71 220.74 L 69.01 221.12 L 72.84 217.78 L 74.92 217.44 L 81.41 214.10 L 80.44 218.35 L 81.67 217.33 L 82.97 220.40 L 81.93 222.71 L 75.63 229.34 L 73.10 230.82 L 72.91 229.46 L 69.60 229.80 L 67.91 231.43 L 65.44 229.53 L 66.03 226.88 L 64.47 228.28 L 64.60 223.05 L 62.20 224.07 L 61.16 223.01 Z M 63.95 219.07 L 67.91 216.64 L 66.48 214.33 L 69.99 213.57 L 72.39 215.81 L 71.22 218.62 L 69.14 220.47 L 63.95 219.07 Z M 71.15 239.50 L 72.84 235.64 L 76.41 238.37 L 77.06 239.84 L 74.47 241.93 L 74.27 239.84 L 71.15 239.50 Z M 73.69 196.40 L 78.36 188.97 L 81.22 185.37 L 84.53 184.95 L 86.99 186.81 L 88.55 191.59 L 87.32 192.65 L 87.71 195.23 L 89.85 195.68 L 88.23 198.07 L 90.37 198.86 L 89.33 202.31 L 89.59 204.44 L 86.93 209.29 L 83.88 210.24 L 80.96 209.21 L 79.53 203.26 L 77.13 203.94 L 81.80 199.55 L 79.92 200.12 L 78.94 196.36 L 77.45 196.48 L 78.49 193.63 L 74.21 197.65 L 73.69 196.40 Z M 74.72 231.39 L 74.79 230.90 L 82.13 223.54 L 84.07 220.66 L 87.58 219.87 L 89.14 221.69 L 86.48 226.08 L 85.96 228.13 L 82.71 233.21 L 80.44 233.32 L 78.94 235.22 L 78.43 233.82 L 81.41 231.24 L 77.19 233.70 L 74.72 231.39 Z M 81.41 236.17 L 83.49 235.56 L 84.92 231.58 L 87.51 226.50 L 90.76 226.35 L 90.57 230.44 L 91.99 231.35 L 91.15 235.22 L 93.68 239.01 L 93.23 241.97 L 89.14 241.93 L 88.36 244.24 L 86.80 240.57 L 85.18 239.92 L 86.41 238.14 L 84.27 238.25 L 81.41 236.17 Z M 85.24 215.01 L 86.41 212.32 L 88.29 213.50 L 86.48 216.15 L 85.24 215.01 Z M 85.63 217.74 L 89.01 214.07 L 88.55 216.11 L 85.63 217.74 Z M 86.93 210.96 L 89.33 205.92 L 91.28 206.75 L 91.28 208.87 L 89.98 212.25 L 86.93 210.96 Z M 86.99 218.35 L 89.20 216.11 L 88.88 218.08 L 86.99 218.35 Z M 88.94 259.97 L 90.57 258.38 L 92.19 260.92 L 88.94 259.97 Z M 89.72 221.46 L 92.25 218.24 L 92.97 221.31 L 89.98 223.96 L 89.72 221.46 Z M 91.47 228.74 L 94.20 224.91 L 94.20 228.36 L 91.47 228.74 Z M 95.82 201.06 L 98.23 200.38 L 97.25 202.31 L 95.82 201.06 Z M 96.67 233.86 L 96.99 231.88 L 99.46 233.67 L 98.94 235.49 L 96.67 233.86 Z M 98.10 228.06 L 103.16 225.10 L 109.07 223.13 L 111.47 224.76 L 110.11 227.03 L 110.30 232.38 L 111.40 230.14 L 114.91 229.04 L 120.88 230.86 L 116.92 228.81 L 117.96 227.11 L 121.92 227.49 L 121.92 232.23 L 116.86 237.65 L 114.85 238.86 L 115.88 239.81 L 114.00 241.66 L 115.56 241.93 L 114.33 244.28 L 111.79 246.14 L 109.20 246.59 L 107.96 248.37 L 104.13 246.93 L 105.50 245.87 L 102.84 244.74 L 98.68 244.36 L 98.68 237.38 L 102.12 235.18 L 101.15 232.41 L 99.59 231.35 L 98.10 228.06 Z M 102.19 251.60 L 104.33 252.24 L 102.45 253.23 L 102.19 251.60 Z M 102.77 206.64 L 104.98 203.76 L 104.85 205.54 L 102.77 206.64 Z M 109.39 256.75 L 109.72 255.35 L 111.86 254.74 L 110.50 253.30 L 112.51 251.60 L 114.72 252.89 L 113.29 254.29 L 115.49 255.65 L 113.94 258.27 L 111.15 256.56 L 109.39 256.75 Z M 113.09 228.59 L 113.16 226.73 L 115.30 225.67 L 117.18 227.33 L 115.82 229.00 L 113.09 228.59 Z M 114.72 250.27 L 116.40 248.26 L 125.56 246.02 L 127.83 246.93 L 126.99 248.72 L 121.86 250.12 L 120.04 255.65 L 119.58 254.14 L 117.51 253.87 L 117.25 251.22 L 115.43 251.90 L 114.72 250.27 Z M 118.22 238.14 L 120.49 234.69 L 121.27 235.98 L 119.65 238.21 L 118.22 238.14 Z M 119.84 245.83 L 119.91 244.43 L 123.03 242.76 L 123.09 239.58 L 124.19 239.96 L 126.40 236.74 L 127.83 238.75 L 126.79 240.22 L 127.18 242.46 L 124.97 244.85 L 119.84 245.83 Z M 128.80 219.45 L 130.10 216.11 L 132.96 215.13 L 135.43 215.89 L 133.74 217.44 L 134.19 219.26 L 131.85 222.33 L 128.80 219.45 Z M 130.75 208.87 L 132.83 206.52 L 134.32 209.63 L 131.98 211.41 L 130.75 208.87 Z M 133.48 206.83 L 133.54 205.46 L 136.33 204.85 L 137.83 206.18 L 135.10 208.57 L 133.48 206.83 Z M 183.08 217.63 L 186.26 216.91 L 184.83 218.54 L 183.08 217.63 Z" fill="#ffd166" stroke="white" stroke-width="1.5" stroke-linejoin="round" fill-rule="evenodd"/>
</svg>