<svg xmlns="http://www.w3.org/2000/svg" viewBox="0 0 300 300" width="300" height="300">
  <path d="M 2.50 104.08 L 3.19 102.87 L 4.62 102.72 L 5.69 101.97 L 6.42 103.36 L 6.46 102.17 L 7.85 101.71 L 9.31 102.39 L 8.72 103.47 L 9.65 104.67 L 9.44 105.47 L 7.88 106.19 L 7.43 105.44 L 6.25 106.50 L 5.73 105.29 L 4.06 105.93 L 2.50 104.08 Z M 29.48 79.61 L 31.28 77.63 L 32.12 78.77 L 32.32 80.25 L 31.52 81.26 L 29.48 79.61 Z M 32.39 79.68 L 33.30 79.08 L 32.81 80.58 L 32.39 79.68 Z M 33.40 80.31 L 33.89 78.99 L 34.72 79.35 L 33.40 80.31 Z M 33.92 83.59 L 35.24 83.08 L 35.03 84.49 L 33.92 83.59 Z M 34.79 79.90 L 36.21 80.16 L 35.73 80.86 L 34.79 79.90 Z M 38.64 90.14 L 39.51 88.23 L 42.60 89.77 L 41.25 90.58 L 40.79 90.21 L 39.68 91.37 L 38.64 90.14 Z M 39.27 91.59 L 40.62 91.75 L 40.17 92.56 L 39.27 91.59 Z M 40.10 86.95 L 40.93 86.12 L 41.42 87.04 L 41.14 88.78 L 40.10 86.95 Z M 41.49 123.17 L 41.87 122.07 L 43.47 120.94 L 41.77 119.16 L 42.50 118.15 L 44.02 117.71 L 43.54 116.99 L 45.13 115.36 L 44.37 114.33 L 43.09 114.37 L 43.61 111.47 L 45.17 110.94 L 43.82 110.06 L 44.16 108.28 L 45.31 108.50 L 45.10 109.34 L 46.80 108.15 L 46.80 105.55 L 47.70 104.83 L 52.77 108.63 L 53.15 108.41 L 47.98 104.41 L 47.22 103.07 L 48.26 103.16 L 47.81 102.19 L 45.72 101.66 L 45.00 100.28 L 46.00 99.60 L 44.09 98.30 L 44.06 97.40 L 45.45 96.45 L 44.20 95.70 L 45.31 95.29 L 47.67 96.76 L 47.18 96.08 L 47.84 93.99 L 48.50 93.53 L 49.82 94.52 L 50.62 93.24 L 50.76 91.66 L 51.21 93.51 L 52.74 92.93 L 50.90 91.59 L 49.82 92.65 L 48.40 90.84 L 47.70 88.87 L 48.33 87.90 L 48.19 86.51 L 49.86 87.04 L 49.27 86.01 L 50.41 84.38 L 53.81 86.87 L 56.94 90.47 L 57.32 92.54 L 55.65 92.78 L 55.52 94.14 L 56.24 95.26 L 57.15 94.58 L 57.04 97.00 L 55.55 97.42 L 55.76 99.05 L 57.84 99.86 L 57.53 100.45 L 59.44 101.82 L 60.41 101.18 L 61.28 103.27 L 60.27 104.34 L 59.26 103.58 L 56.66 104.50 L 59.06 105.18 L 58.05 105.77 L 58.57 106.94 L 59.79 106.39 L 59.68 108.02 L 58.05 108.30 L 60.79 108.68 L 61.87 110.57 L 61.63 115.29 L 61.21 117.01 L 61.28 119.85 L 60.76 120.70 L 60.72 122.42 L 59.92 125.30 L 59.92 127.47 L 59.30 128.09 L 59.37 131.01 L 58.47 130.73 L 57.70 133.04 L 57.98 134.25 L 57.15 135.28 L 56.70 133.67 L 55.65 133.72 L 55.06 132.86 L 55.10 134.71 L 53.02 133.78 L 52.84 134.51 L 50.62 134.75 L 50.20 133.43 L 49.44 133.67 L 48.12 132.91 L 48.22 133.83 L 47.01 134.62 L 44.96 134.20 L 44.58 133.06 L 45.34 132.31 L 44.37 128.62 L 42.53 128.16 L 43.16 126.82 L 42.25 126.57 L 42.60 125.39 L 43.75 124.59 L 41.97 124.33 L 41.49 123.17 Z M 44.44 106.21 L 45.27 105.11 L 46.11 105.95 L 44.44 106.21 Z M 200.53 293.80 L 200.25 293.54 L 194.01 296.09 L 191.78 296.27 L 187.24 293.72 L 187.37 292.88 L 185.95 291.78 L 188.10 288.83 L 189.04 288.81 L 189.70 287.49 L 187.24 288.48 L 186.09 290.18 L 183.76 289.34 L 181.85 289.23 L 181.65 288.24 L 179.35 287.41 L 179.49 288.26 L 178.24 287.27 L 178.56 285.51 L 178.07 284.48 L 177.10 285.82 L 177.72 285.89 L 177.86 287.34 L 175.71 286.15 L 177.17 287.67 L 175.71 287.76 L 174.04 287.21 L 171.33 285.25 L 170.54 285.89 L 168.00 284.83 L 166.61 284.70 L 162.34 282.44 L 160.92 282.26 L 157.86 280.30 L 157.24 278.52 L 154.63 278.37 L 153.42 276.74 L 151.61 277.89 L 150.02 276.83 L 148.52 275.09 L 147.52 272.54 L 147.69 271.71 L 146.27 271.53 L 146.37 270.76 L 148.00 269.20 L 147.21 267.27 L 146.48 268.01 L 147.17 269.11 L 146.75 269.95 L 144.98 269.57 L 144.32 266.65 L 144.64 264.32 L 143.00 261.90 L 143.63 260.85 L 145.43 261.86 L 145.30 259.24 L 144.46 259.13 L 143.70 260.47 L 142.48 260.78 L 140.85 260.10 L 136.44 260.89 L 134.95 260.71 L 131.86 261.42 L 130.05 261.40 L 129.60 260.27 L 128.21 259.44 L 130.23 259.02 L 129.99 258.52 L 127.97 258.45 L 126.55 259.39 L 126.30 258.16 L 124.95 257.79 L 124.05 258.73 L 123.81 257.66 L 122.00 257.75 L 120.78 256.34 L 119.26 256.25 L 118.49 255.02 L 119.81 253.30 L 119.92 252.03 L 118.49 251.22 L 117.10 249.52 L 115.65 248.75 L 111.76 247.90 L 108.32 248.18 L 105.68 246.60 L 105.75 245.98 L 103.32 244.77 L 101.93 242.24 L 100.61 238.84 L 98.67 236.79 L 96.14 232.70 L 93.84 229.65 L 93.88 228.46 L 92.18 227.73 L 91.31 226.15 L 89.40 225.34 L 89.33 224.17 L 88.15 222.54 L 88.98 221.47 L 88.64 220.61 L 89.40 219.20 L 87.14 216.74 L 85.89 216.34 L 85.30 215.42 L 85.68 214.08 L 84.57 209.81 L 83.60 208.61 L 81.80 207.62 L 83.39 205.11 L 86.66 202.91 L 88.12 201.39 L 89.12 198.34 L 89.02 196.80 L 88.01 194.64 L 90.34 192.09 L 90.79 190.00 L 88.98 189.15 L 89.43 187.32 L 90.65 187.19 L 90.06 186.07 L 92.00 185.50 L 92.32 184.64 L 95.37 184.40 L 95.93 182.99 L 95.48 181.67 L 93.15 180.48 L 92.91 177.87 L 94.26 177.85 L 92.63 175.69 L 94.36 176.22 L 96.27 175.47 L 95.96 174.33 L 94.09 174.81 L 92.07 174.00 L 91.10 172.17 L 92.70 169.05 L 94.12 168.59 L 96.69 169.45 L 96.31 171.07 L 99.12 172.90 L 97.77 173.29 L 98.77 174.13 L 98.70 177.36 L 97.52 179.03 L 101.20 180.59 L 100.86 179.03 L 102.94 177.38 L 104.54 177.30 L 103.46 176.77 L 106.38 174.83 L 106.38 174.35 L 104.47 172.22 L 101.27 174.22 L 100.02 173.65 L 100.06 171.93 L 98.36 171.07 L 99.57 171.14 L 98.53 169.54 L 96.73 168.61 L 95.30 168.48 L 94.36 167.27 L 97.18 165.71 L 96.41 164.06 L 94.82 164.15 L 91.27 165.03 L 90.61 163.82 L 91.69 162.96 L 91.31 160.74 L 92.00 160.32 L 91.45 159.40 L 92.45 158.23 L 93.91 158.39 L 94.57 157.40 L 93.01 156.83 L 93.60 154.58 L 96.03 155.82 L 96.17 157.02 L 97.66 156.89 L 100.82 159.09 L 102.80 159.47 L 103.56 161.51 L 105.09 162.06 L 105.58 161.42 L 107.97 163.05 L 110.68 165.27 L 111.65 166.76 L 112.24 166.11 L 113.42 166.72 L 114.92 166.48 L 115.65 167.51 L 116.86 167.95 L 116.51 168.92 L 114.64 170.39 L 113.60 168.59 L 113.67 170.37 L 114.95 171.51 L 115.23 172.79 L 114.19 175.87 L 113.25 175.38 L 112.35 176.59 L 113.39 176.94 L 112.49 178.40 L 114.57 180.51 L 113.98 184.22 L 113.25 185.01 L 114.26 187.17 L 113.32 189.06 L 114.88 188.09 L 114.85 186.86 L 116.03 184.88 L 117.04 184.18 L 117.63 181.74 L 117.17 180.70 L 118.11 174.92 L 119.33 174.00 L 119.33 172.77 L 120.44 174.24 L 122.56 175.25 L 124.19 175.25 L 125.89 173.73 L 127.03 174.59 L 126.93 172.55 L 127.49 172.17 L 126.30 170.99 L 127.45 169.58 L 128.39 169.97 L 128.35 168.35 L 130.05 167.80 L 132.42 167.97 L 133.63 169.38 L 135.85 170.11 L 136.69 171.18 L 137.21 169.86 L 139.78 170.72 L 141.09 171.62 L 141.23 173.01 L 143.00 173.16 L 143.63 174.83 L 142.03 175.38 L 141.34 176.83 L 142.38 178.70 L 141.34 179.36 L 142.90 179.47 L 145.47 180.77 L 147.27 179.63 L 148.25 180.70 L 150.78 181.50 L 151.58 180.88 L 154.18 182.11 L 153.59 183.32 L 154.95 183.21 L 154.91 183.87 L 157.07 185.12 L 158.84 187.32 L 160.47 188.22 L 160.95 189.04 L 162.83 188.69 L 164.25 190.44 L 167.55 192.18 L 169.08 191.68 L 168.77 190.97 L 172.90 190.53 L 176.19 190.64 L 177.65 191.24 L 180.71 191.32 L 180.60 189.98 L 177.10 189.21 L 167.93 189.63 L 166.99 189.50 L 164.95 188.09 L 162.48 185.59 L 161.79 185.70 L 160.26 184.64 L 159.25 183.12 L 158.52 181.08 L 156.44 179.91 L 158.52 178.62 L 158.21 175.91 L 160.64 174.17 L 160.09 173.27 L 161.68 171.62 L 162.59 171.80 L 162.52 170.70 L 163.73 170.94 L 163.94 169.82 L 166.96 169.38 L 167.45 168.35 L 168.73 168.06 L 169.25 166.98 L 171.92 165.86 L 173.10 165.80 L 175.57 163.86 L 179.15 162.63 L 181.02 161.42 L 183.24 161.84 L 186.64 160.96 L 191.09 160.74 L 195.85 159.53 L 198.14 158.43 L 198.80 158.70 L 204.00 157.20 L 210.29 155.84 L 212.44 155.99 L 215.36 154.83 L 217.58 154.56 L 218.38 153.64 L 219.84 153.53 L 226.33 151.81 L 226.29 151.09 L 221.26 152.14 L 219.04 152.25 L 216.50 153.11 L 213.79 153.29 L 211.26 154.14 L 208.55 153.79 L 205.98 154.19 L 202.06 155.35 L 192.69 157.05 L 188.00 158.28 L 185.92 158.30 L 180.40 159.11 L 179.01 159.09 L 175.36 160.76 L 172.79 162.74 L 171.13 163.27 L 170.43 164.06 L 160.02 171.27 L 158.11 172.04 L 157.62 175.38 L 156.09 175.96 L 154.74 179.43 L 153.45 178.18 L 152.59 176.00 L 151.13 175.08 L 151.82 174.55 L 150.50 173.69 L 149.11 174.26 L 149.70 172.97 L 148.70 173.14 L 146.89 169.97 L 146.16 169.82 L 146.23 168.22 L 145.23 167.73 L 145.40 166.22 L 146.68 165.78 L 147.93 163.97 L 147.90 163.09 L 150.16 163.14 L 150.16 161.93 L 151.79 162.39 L 152.73 161.51 L 156.65 164.26 L 156.65 163.73 L 154.88 161.20 L 151.82 159.77 L 150.95 157.99 L 150.33 158.52 L 149.11 157.18 L 147.62 156.96 L 144.39 157.42 L 142.69 156.91 L 141.20 157.71 L 139.64 156.72 L 136.16 153.33 L 135.23 152.14 L 134.74 149.55 L 133.84 149.68 L 132.21 148.80 L 131.86 147.66 L 132.35 146.71 L 131.96 145.39 L 135.54 144.18 L 135.09 143.13 L 137.48 142.69 L 137.83 141.17 L 139.74 141.04 L 139.88 139.83 L 142.14 139.30 L 143.42 138.62 L 148.84 140.07 L 152.76 138.97 L 152.55 137.72 L 154.84 136.60 L 156.02 137.24 L 157.55 137.10 L 156.61 136.62 L 156.82 135.50 L 159.04 135.74 L 159.53 135.13 L 162.31 135.72 L 166.33 135.81 L 167.38 135.28 L 166.13 133.28 L 163.31 133.87 L 161.47 133.67 L 160.16 134.58 L 158.21 133.98 L 158.35 132.99 L 157.34 132.86 L 154.08 134.93 L 151.65 135.65 L 148.46 134.62 L 149.67 131.65 L 152.10 129.65 L 152.07 128.38 L 154.36 127.67 L 153.73 126.38 L 154.36 125.28 L 157.38 124.77 L 158.00 124.00 L 156.75 122.11 L 158.28 122.13 L 157.97 120.81 L 159.08 120.31 L 160.09 121.38 L 160.50 120.37 L 161.40 120.57 L 163.35 118.20 L 164.88 117.45 L 165.71 118.00 L 167.17 117.71 L 168.21 116.88 L 167.48 115.16 L 169.67 113.18 L 171.72 112.66 L 172.72 111.71 L 174.11 111.29 L 176.85 111.12 L 179.15 111.27 L 180.43 110.26 L 183.52 109.14 L 184.70 109.27 L 185.46 110.28 L 186.92 110.92 L 187.48 110.26 L 186.54 109.56 L 186.05 108.15 L 187.17 107.36 L 190.08 106.41 L 193.03 104.76 L 193.73 104.81 L 197.86 103.07 L 203.17 102.41 L 207.27 102.59 L 212.51 102.50 L 215.46 101.64 L 215.46 101.22 L 211.33 101.99 L 207.27 101.86 L 206.54 101.42 L 203.66 100.94 L 201.99 101.51 L 198.73 100.72 L 197.03 101.24 L 193.59 101.29 L 189.49 102.17 L 186.99 104.98 L 186.30 104.98 L 183.90 106.30 L 180.12 107.14 L 179.32 108.06 L 176.78 109.07 L 170.22 110.70 L 169.29 110.65 L 167.27 112.24 L 164.77 112.59 L 164.08 110.65 L 162.55 109.71 L 160.22 107.09 L 159.84 104.87 L 162.13 103.80 L 164.18 104.21 L 167.27 104.21 L 170.15 103.42 L 177.51 103.14 L 179.81 105.84 L 179.46 103.51 L 180.19 103.11 L 179.08 102.06 L 181.85 101.97 L 179.22 101.42 L 176.13 98.72 L 175.78 97.20 L 174.88 96.36 L 174.60 94.05 L 173.17 88.91 L 172.38 89.77 L 172.90 92.32 L 174.11 95.09 L 172.65 96.17 L 173.04 97.88 L 174.18 97.92 L 175.40 99.93 L 173.97 101.00 L 172.13 101.07 L 169.29 102.08 L 169.49 100.52 L 170.88 100.39 L 169.81 99.46 L 171.85 98.52 L 172.38 97.59 L 170.92 97.18 L 169.42 97.79 L 168.70 99.24 L 169.04 100.74 L 167.72 102.23 L 164.74 102.87 L 162.48 102.72 L 160.40 101.33 L 158.00 100.98 L 158.31 99.66 L 157.38 98.63 L 158.14 97.42 L 157.90 95.33 L 158.66 93.95 L 157.03 95.20 L 155.75 97.40 L 156.89 96.83 L 156.79 98.65 L 156.02 100.59 L 155.54 99.71 L 151.65 100.43 L 150.43 100.04 L 150.50 98.83 L 149.22 99.40 L 148.25 97.53 L 149.08 95.37 L 150.89 93.75 L 150.43 92.78 L 151.48 91.90 L 151.34 91.04 L 153.49 89.24 L 155.33 89.55 L 156.65 88.60 L 155.88 88.16 L 158.80 87.74 L 158.59 86.49 L 159.56 87.15 L 161.20 87.15 L 162.86 86.07 L 161.51 84.91 L 162.20 83.70 L 165.88 82.45 L 167.76 82.56 L 168.94 81.98 L 170.78 79.26 L 172.27 78.36 L 172.48 80.42 L 171.92 81.19 L 171.89 83.13 L 170.95 85.59 L 171.92 85.00 L 172.72 83.57 L 173.35 80.40 L 175.50 77.24 L 175.43 76.42 L 176.58 75.34 L 177.41 73.50 L 176.19 71.87 L 176.68 69.30 L 177.72 68.13 L 179.49 66.97 L 183.14 65.96 L 184.08 66.04 L 185.64 65.12 L 189.80 64.13 L 191.54 63.14 L 192.79 63.49 L 194.84 63.01 L 196.19 61.60 L 199.70 60.90 L 201.43 59.84 L 203.62 59.01 L 208.66 58.52 L 210.50 58.96 L 213.41 58.11 L 216.29 57.62 L 218.65 57.73 L 220.49 57.07 L 218.31 56.83 L 214.49 57.34 L 213.20 56.92 L 211.78 57.25 L 208.20 57.40 L 206.99 57.07 L 205.67 57.49 L 203.86 57.10 L 201.23 57.34 L 199.00 57.97 L 198.10 58.77 L 193.80 59.60 L 191.68 59.45 L 190.12 60.17 L 190.64 60.68 L 188.35 61.78 L 186.23 61.80 L 186.19 62.42 L 184.21 63.30 L 182.62 63.47 L 181.23 64.44 L 179.49 64.79 L 179.46 63.34 L 180.85 61.12 L 181.09 59.65 L 182.44 57.60 L 182.41 56.96 L 184.25 56.00 L 186.64 53.20 L 187.10 50.30 L 186.89 49.60 L 186.82 44.89 L 188.17 44.32 L 191.12 42.25 L 190.95 41.18 L 188.45 40.25 L 188.10 41.16 L 184.74 41.70 L 183.80 42.30 L 183.07 44.12 L 182.34 44.54 L 181.82 46.04 L 182.48 47.88 L 181.75 49.44 L 181.68 50.87 L 183.62 51.20 L 183.35 52.35 L 183.97 53.29 L 180.53 55.80 L 178.80 58.41 L 179.22 61.08 L 177.76 62.13 L 177.10 64.22 L 172.79 66.68 L 171.30 68.31 L 170.95 70.27 L 172.41 70.79 L 172.90 72.95 L 171.33 74.05 L 167.55 77.89 L 167.38 79.10 L 164.91 81.92 L 162.83 82.12 L 160.95 82.95 L 160.64 85.52 L 159.53 85.79 L 158.42 84.93 L 154.84 85.26 L 151.72 86.16 L 153.14 86.38 L 151.89 87.48 L 149.70 87.04 L 148.66 86.25 L 148.66 84.58 L 147.45 84.84 L 146.23 86.05 L 146.30 87.00 L 147.90 85.79 L 148.42 88.25 L 148.11 89.83 L 147.07 91.33 L 145.37 90.71 L 143.32 92.41 L 142.03 94.69 L 142.87 95.68 L 141.03 94.74 L 140.75 95.66 L 138.94 94.67 L 138.56 92.85 L 137.59 91.48 L 137.83 90.34 L 136.86 87.92 L 135.16 86.29 L 135.82 85.68 L 135.92 83.90 L 134.88 82.64 L 134.98 80.71 L 136.51 79.87 L 134.85 77.96 L 136.86 76.66 L 138.42 77.96 L 142.21 78.58 L 145.43 77.65 L 147.27 78.31 L 148.98 77.13 L 150.64 77.17 L 152.38 76.07 L 157.90 75.10 L 163.73 73.81 L 165.19 73.12 L 167.83 73.19 L 169.74 72.93 L 170.33 71.52 L 166.68 70.18 L 165.78 70.53 L 165.57 71.63 L 160.92 71.91 L 156.34 72.84 L 153.39 72.99 L 152.31 72.13 L 151.23 72.49 L 148.42 72.49 L 146.44 71.85 L 143.98 72.62 L 142.69 72.33 L 138.60 72.90 L 135.47 72.49 L 134.29 72.88 L 131.27 71.50 L 132.90 70.75 L 132.87 68.66 L 130.75 68.97 L 129.36 67.32 L 128.98 64.11 L 129.46 62.68 L 129.50 60.61 L 128.04 59.76 L 126.13 60.97 L 125.75 63.76 L 123.56 63.32 L 121.65 64.75 L 122.80 64.46 L 124.36 66.42 L 125.02 68.37 L 126.96 70.40 L 127.69 72.95 L 127.38 74.82 L 125.47 76.27 L 124.29 76.27 L 120.54 77.76 L 117.73 79.74 L 116.79 79.90 L 115.99 79.08 L 114.92 76.03 L 115.13 75.17 L 113.84 74.03 L 113.08 72.55 L 112.31 72.35 L 112.80 74.62 L 113.36 75.23 L 112.59 76.71 L 114.64 78.38 L 113.91 79.08 L 114.50 81.08 L 110.82 83.99 L 109.81 83.90 L 108.56 85.13 L 106.24 85.66 L 104.05 88.36 L 106.20 87.00 L 108.36 86.84 L 114.81 83.48 L 115.61 83.83 L 117.73 81.92 L 118.60 82.12 L 120.58 81.15 L 125.96 79.76 L 126.51 81.30 L 126.37 82.80 L 128.28 86.62 L 129.50 87.99 L 131.20 88.65 L 132.76 90.25 L 132.80 91.50 L 131.83 93.37 L 132.14 95.92 L 131.41 96.19 L 130.99 97.59 L 129.99 98.50 L 130.02 97.31 L 128.39 96.83 L 125.37 97.31 L 123.94 99.95 L 122.76 98.98 L 122.31 96.69 L 121.03 96.23 L 120.37 97.07 L 121.06 98.21 L 120.54 100.15 L 119.47 100.94 L 118.74 99.42 L 117.24 98.74 L 115.30 99.93 L 114.92 98.56 L 113.42 97.40 L 112.97 99.20 L 113.88 99.55 L 111.90 101.38 L 111.52 102.63 L 108.49 104.72 L 106.76 105.51 L 106.24 104.85 L 105.34 105.93 L 103.04 107.58 L 102.59 108.30 L 103.46 110.26 L 102.77 112.08 L 101.62 112.90 L 99.71 110.83 L 101.97 107.75 L 100.54 107.66 L 101.97 106.10 L 100.75 105.11 L 101.72 104.34 L 101.79 102.65 L 101.13 102.32 L 101.76 100.50 L 102.45 101.42 L 104.92 101.20 L 106.69 100.17 L 104.47 98.14 L 103.22 97.70 L 102.49 93.53 L 100.09 90.03 L 99.99 88.51 L 99.29 87.57 L 100.41 86.07 L 99.36 85.66 L 98.91 84.36 L 98.95 82.31 L 97.77 79.06 L 97.42 76.40 L 97.84 75.04 L 97.28 73.65 L 97.77 69.32 L 99.61 70.46 L 99.33 67.32 L 98.25 68.02 L 94.61 68.11 L 94.26 67.45 L 92.87 67.98 L 90.93 70.27 L 90.37 73.04 L 88.08 72.84 L 87.59 74.71 L 86.80 75.23 L 87.00 77.32 L 86.07 78.22 L 84.40 77.39 L 83.88 77.74 L 81.41 76.69 L 79.61 75.34 L 78.81 75.89 L 78.98 77.24 L 78.43 78.71 L 78.46 80.47 L 79.09 80.56 L 79.40 79.17 L 83.67 80.97 L 84.19 80.40 L 84.85 81.41 L 88.36 79.13 L 88.77 77.30 L 89.47 77.63 L 90.75 76.77 L 90.61 74.09 L 91.38 73.39 L 93.46 72.68 L 94.71 72.75 L 94.95 74.62 L 94.50 76.47 L 97.00 77.63 L 98.15 82.67 L 97.63 83.99 L 98.11 85.39 L 97.04 84.42 L 94.89 83.96 L 93.50 85.39 L 94.89 85.94 L 97.14 85.48 L 98.36 87.00 L 98.57 89.57 L 96.62 90.82 L 97.80 92.32 L 96.66 92.45 L 96.73 93.48 L 97.73 95.31 L 97.28 100.01 L 94.85 101.38 L 95.27 102.23 L 94.16 105.14 L 91.83 107.60 L 90.55 109.91 L 89.09 110.85 L 88.64 109.86 L 86.93 109.73 L 86.00 110.74 L 83.05 110.30 L 81.83 110.94 L 80.93 109.97 L 79.64 109.53 L 78.88 107.77 L 79.40 106.81 L 78.46 102.92 L 77.53 102.78 L 77.94 100.74 L 79.64 101.82 L 80.89 100.39 L 81.94 99.93 L 81.28 99.35 L 78.67 101.31 L 77.73 99.86 L 78.26 97.20 L 80.30 93.22 L 79.40 91.92 L 80.13 91.72 L 79.05 89.15 L 80.51 87.90 L 79.68 87.35 L 79.09 88.14 L 78.15 91.11 L 78.85 92.38 L 78.78 94.14 L 77.63 95.40 L 77.60 97.44 L 76.90 98.14 L 75.86 98.01 L 76.76 99.05 L 77.25 103.64 L 77.84 106.30 L 76.14 106.74 L 72.74 106.65 L 70.65 104.98 L 69.78 103.62 L 70.27 102.15 L 69.47 100.17 L 69.37 98.56 L 70.17 96.69 L 69.37 96.10 L 68.36 91.68 L 71.21 88.98 L 69.99 89.06 L 69.68 87.63 L 68.64 86.23 L 68.29 83.74 L 68.74 82.40 L 66.73 85.13 L 67.70 89.13 L 66.24 90.98 L 66.49 94.25 L 66.90 94.52 L 67.49 98.25 L 64.06 100.21 L 63.05 99.22 L 62.32 99.77 L 61.07 98.14 L 60.38 95.26 L 58.67 93.55 L 57.77 91.28 L 57.91 89.37 L 56.21 88.01 L 55.38 85.90 L 52.43 82.45 L 52.84 81.87 L 52.08 80.80 L 50.38 80.53 L 50.13 79.26 L 51.42 78.33 L 49.89 76.18 L 50.27 74.44 L 51.90 74.16 L 50.86 73.63 L 49.27 73.83 L 51.07 72.60 L 48.68 71.91 L 48.99 71.19 L 48.40 67.76 L 51.04 67.43 L 51.80 68.15 L 54.37 69.28 L 53.74 70.64 L 55.41 71.63 L 57.39 71.06 L 58.47 71.58 L 58.47 71.58 L 59.96 72.66 L 62.42 71.45 L 64.65 70.84 L 64.89 69.72 L 66.94 68.95 L 67.32 70.86 L 70.79 71.01 L 69.30 69.72 L 72.91 69.01 L 73.46 68.13 L 74.89 68.55 L 77.77 68.42 L 77.77 68.42 L 78.26 69.58 L 77.46 70.31 L 78.32 71.50 L 78.60 69.47 L 79.19 69.65 L 78.81 66.37 L 80.10 65.10 L 84.33 65.93 L 84.05 65.01 L 85.06 64.92 L 85.20 63.60 L 86.38 61.49 L 87.39 61.03 L 88.39 61.71 L 89.43 63.89 L 89.26 61.65 L 88.57 60.33 L 91.07 58.04 L 91.80 55.69 L 90.93 53.95 L 91.10 52.72 L 92.11 51.62 L 93.60 51.18 L 93.39 50.41 L 91.66 50.74 L 90.55 50.28 L 89.71 48.28 L 90.72 47.14 L 89.75 45.40 L 89.71 44.10 L 91.45 42.41 L 89.85 41.95 L 90.65 40.21 L 90.44 39.55 L 91.73 37.00 L 94.47 34.67 L 94.89 33.50 L 96.55 33.39 L 97.66 34.03 L 97.07 34.52 L 99.02 35.77 L 101.72 37.09 L 102.87 36.85 L 104.26 37.53 L 103.84 36.54 L 105.79 36.56 L 106.93 37.42 L 109.47 37.97 L 113.70 39.66 L 115.33 39.66 L 117.21 40.30 L 117.14 40.83 L 118.60 42.78 L 119.29 45.62 L 117.56 47.95 L 114.19 48.67 L 113.18 49.31 L 116.13 49.49 L 119.95 48.87 L 121.97 48.30 L 123.18 47.51 L 121.03 46.12 L 120.23 44.32 L 119.60 41.42 L 123.60 40.85 L 123.60 40.85 L 123.46 41.81 L 124.92 43.49 L 126.13 43.95 L 128.28 43.93 L 132.07 44.61 L 132.73 45.16 L 133.04 47.22 L 134.01 47.93 L 136.16 47.53 L 141.03 49.20 L 141.82 49.84 L 141.82 53.31 L 146.23 52.17 L 146.68 50.28 L 147.45 50.74 L 150.95 51.07 L 153.04 49.73 L 156.79 50.32 L 160.40 52.13 L 161.79 51.77 L 163.59 52.26 L 168.52 51.99 L 169.22 50.52 L 169.25 48.23 L 167.90 46.63 L 169.08 45.38 L 168.52 44.78 L 169.32 42.80 L 168.90 42.01 L 169.91 41.16 L 170.57 41.79 L 172.31 39.00 L 172.93 35.06 L 174.11 33.75 L 173.76 32.23 L 179.18 30.12 L 179.39 25.13 L 179.91 23.26 L 182.48 20.09 L 183.45 18.14 L 186.33 17.26 L 186.64 15.50 L 198.83 13.94 L 200.91 10.86 L 206.50 8.24 L 209.91 5.84 L 212.93 4.06 L 215.95 5.14 L 216.85 6.13 L 220.95 5.87 L 226.64 4.42 L 227.75 3.73 L 231.36 6.35 L 232.33 7.78 L 231.47 9.21 L 230.94 13.10 L 230.46 13.45 L 230.42 15.50 L 231.92 17.76 L 229.38 21.76 L 229.28 22.82 L 227.16 27.33 L 227.16 28.60 L 227.82 30.40 L 231.71 31.52 L 234.63 31.81 L 237.96 30.73 L 242.05 30.25 L 242.40 29.22 L 247.68 26.51 L 260.25 20.93 L 267.82 17.28 L 282.71 15.28 L 282.71 15.28 L 284.48 18.90 L 285.21 28.12 L 284.45 30.62 L 292.47 33.33 L 297.29 35.53 L 297.50 35.83 L 297.50 35.83 L 297.08 36.52 L 295.52 36.91 L 287.99 37.77 L 283.02 39.81 L 281.81 45.71 L 279.69 47.31 L 278.40 48.74 L 276.74 51.86 L 272.26 50.06 L 269.66 49.95 L 267.99 60.35 L 268.20 63.69 L 266.04 64.99 L 266.67 65.78 L 268.65 66.73 L 270.28 67.06 L 271.39 67.87 L 270.97 68.97 L 272.57 69.69 L 273.54 71.58 L 271.98 72.64 L 270.56 75.04 L 265.25 78.38 L 261.46 79.87 L 256.01 81.43 L 258.79 84.01 L 262.09 86.23 L 261.32 86.47 L 260.42 88.03 L 259.76 87.61 L 258.34 88.16 L 257.02 87.06 L 253.82 92.63 L 253.10 94.23 L 251.60 98.85 L 249.62 102.17 L 248.72 111.03 L 250.77 114.55 L 250.39 125.45 L 251.60 127.30 L 258.68 126.77 L 263.06 127.45 L 260.94 128.82 L 261.29 130.44 L 257.96 131.81 L 256.36 133.50 L 255.63 135.15 L 256.71 135.08 L 258.48 137.06 L 257.99 138.69 L 258.62 140.25 L 256.36 142.16 L 244.14 151.57 L 243.30 153.88 L 240.25 155.49 L 236.36 158.67 L 233.97 161.09 L 233.48 162.50 L 228.86 164.15 L 224.80 172.64 L 215.77 178.22 L 216.61 182.75 L 218.13 183.54 L 221.36 183.14 L 221.71 183.80 L 217.72 189.56 L 216.40 190.88 L 214.80 193.92 L 214.66 195.37 L 212.82 198.60 L 210.43 204.82 L 212.13 204.69 L 215.56 205.55 L 216.61 205.07 L 217.72 205.86 L 217.37 209.68 L 221.43 212.41 L 222.72 214.56 L 223.52 216.65 L 223.41 218.15 L 220.81 219.84 L 217.89 220.46 L 215.08 221.62 L 209.04 223.14 L 205.29 222.74 L 201.99 224.22 L 200.15 226.88 L 204.28 228.59 L 206.50 230.88 L 206.05 231.74 L 207.82 234.24 L 212.23 230.88 L 216.75 232.42 L 218.48 233.23 L 222.51 231.41 L 221.15 234.57 L 220.08 235.41 L 219.14 237.91 L 221.88 240.09 L 221.71 243.26 L 222.93 244.44 L 222.16 245.96 L 222.33 246.97 L 221.33 247.39 L 222.06 248.25 L 219.73 253.08 L 219.77 254.67 L 219.11 256.10 L 220.18 255.39 L 221.57 256.73 L 222.09 257.90 L 222.09 259.55 L 223.06 260.25 L 222.33 260.71 L 223.13 262.76 L 224.66 263.84 L 224.42 265.27 L 221.85 267.75 L 220.08 270.39 L 220.15 271.73 L 221.74 278.28 L 220.77 280.35 L 219.56 281.27 L 217.65 283.78 L 215.70 286.99 L 213.59 288.46 L 210.18 289.56 L 206.09 291.45 L 202.96 292.55 L 200.53 293.80 Z M 51.90 83.24 L 52.56 82.82 L 53.36 84.03 L 51.90 83.24 Z M 52.56 84.49 L 53.50 84.16 L 54.89 85.52 L 53.54 85.44 L 52.56 84.49 Z M 57.67 97.20 L 58.33 96.78 L 59.20 97.59 L 57.67 97.20 Z M 58.05 95.29 L 58.15 94.58 L 59.37 95.35 L 58.05 95.29 Z M 62.39 102.32 L 62.74 101.68 L 65.20 100.10 L 66.69 101.75 L 66.17 99.13 L 67.87 99.11 L 66.94 100.94 L 67.91 101.16 L 68.33 102.32 L 67.08 104.89 L 67.08 106.10 L 66.14 107.33 L 68.19 106.30 L 68.57 108.46 L 66.76 109.86 L 66.35 108.59 L 65.24 111.31 L 64.33 110.59 L 62.67 106.10 L 62.91 105.11 L 62.39 102.32 Z M 65.34 113.40 L 66.56 114.44 L 65.93 115.16 L 65.34 113.40 Z M 65.51 113.23 L 65.76 111.80 L 66.45 113.05 L 65.51 113.23 Z M 67.25 126.51 L 68.15 125.25 L 70.86 126.62 L 72.25 127.65 L 71.31 129.12 L 69.71 128.66 L 70.86 130.77 L 69.54 131.70 L 68.60 130.49 L 67.25 126.51 Z M 67.42 124.07 L 67.56 120.97 L 69.26 121.12 L 68.19 120.39 L 67.67 118.94 L 69.19 118.22 L 69.89 117.01 L 68.78 117.07 L 69.37 115.32 L 71.42 116.53 L 72.63 115.71 L 75.30 118.06 L 77.73 119.52 L 77.73 120.90 L 78.81 122.90 L 79.82 123.91 L 78.74 124.15 L 79.85 126.13 L 78.29 127.30 L 77.04 129.52 L 77.70 130.05 L 76.97 131.06 L 75.62 130.64 L 74.09 130.88 L 75.30 129.74 L 74.96 128.77 L 73.22 127.25 L 72.42 127.50 L 69.40 125.72 L 69.99 124.73 L 67.42 124.07 Z M 69.26 150.12 L 70.24 148.01 L 71.55 148.71 L 72.32 147.44 L 73.60 148.36 L 72.67 150.78 L 70.93 149.92 L 70.13 150.56 L 69.26 150.12 Z M 69.37 108.96 L 70.44 107.12 L 72.25 108.39 L 72.74 110.19 L 71.69 110.76 L 71.73 109.69 L 69.78 110.06 L 69.37 108.96 Z M 70.06 153.18 L 71.21 153.16 L 71.17 153.92 L 70.06 153.18 Z M 73.43 150.87 L 73.71 148.03 L 74.40 150.23 L 73.43 150.87 Z M 73.67 107.75 L 74.75 107.05 L 74.75 108.46 L 73.67 107.75 Z M 73.67 147.79 L 74.02 147.22 L 75.13 148.63 L 74.78 149.68 L 73.67 147.79 Z M 74.51 183.52 L 75.41 182.31 L 75.37 183.50 L 74.51 183.52 Z M 75.34 109.42 L 75.41 108.06 L 76.69 107.44 L 76.45 108.48 L 75.34 109.42 Z M 76.73 114.55 L 78.01 114.13 L 79.51 114.68 L 81.41 117.40 L 83.39 118.59 L 82.53 119.34 L 83.81 120.44 L 82.11 120.94 L 81.24 122.51 L 78.39 119.80 L 77.32 117.27 L 77.77 115.95 L 76.73 114.55 Z M 77.80 112.02 L 78.43 110.59 L 80.37 111.64 L 81.21 112.88 L 81.00 114.08 L 79.09 113.93 L 78.05 113.05 L 77.80 112.02 Z M 79.16 148.63 L 80.20 147.35 L 80.27 148.25 L 79.16 148.63 Z M 80.93 145.53 L 82.42 144.87 L 81.94 145.70 L 80.93 145.53 Z M 82.25 176.53 L 84.26 177.14 L 83.88 175.43 L 85.93 175.76 L 86.10 177.14 L 84.68 178.31 L 83.25 178.07 L 82.25 176.53 Z M 87.63 112.48 L 88.91 112.13 L 87.77 113.32 L 87.63 112.48 Z M 90.86 143.37 L 91.62 142.54 L 93.25 143.28 L 94.78 143.15 L 95.13 144.65 L 94.23 145.70 L 93.08 145.88 L 91.69 144.80 L 92.04 144.07 L 90.86 143.37 Z M 91.24 142.05 L 95.68 141.17 L 96.59 141.90 L 96.17 143.44 L 94.95 143.13 L 94.61 142.23 L 92.94 142.89 L 91.24 142.05 Z M 91.34 138.40 L 92.45 138.16 L 92.56 137.30 L 95.58 138.25 L 93.60 136.29 L 94.78 135.28 L 96.34 134.95 L 96.38 136.27 L 99.09 137.46 L 101.06 136.45 L 101.06 137.26 L 102.77 137.26 L 103.98 137.98 L 107.11 138.89 L 107.94 139.85 L 109.08 139.19 L 108.88 138.47 L 110.47 138.86 L 109.74 137.98 L 113.39 137.85 L 115.75 138.62 L 118.42 141.30 L 118.01 142.29 L 117.83 145.04 L 118.63 146.27 L 118.25 147.26 L 115.23 148.71 L 113.08 148.25 L 111.24 146.58 L 108.18 145.04 L 108.49 143.20 L 105.58 143.41 L 103.50 142.38 L 101.79 141.96 L 98.46 140.60 L 97.70 139.48 L 95.82 139.08 L 93.15 139.24 L 92.87 139.90 L 91.34 138.40 Z M 92.49 70.73 L 93.88 71.17 L 92.94 72.00 L 92.49 70.73 Z M 96.45 143.72 L 96.79 143.02 L 99.54 142.60 L 101.52 143.55 L 101.72 144.40 L 105.13 145.22 L 105.47 146.78 L 107.94 147.57 L 108.95 149.22 L 107.49 150.58 L 106.52 150.03 L 103.84 149.37 L 105.40 147.33 L 103.74 147.26 L 103.50 148.23 L 101.10 148.60 L 100.65 147.46 L 98.29 147.66 L 97.14 146.56 L 96.62 145.28 L 97.18 143.99 L 96.45 143.72 Z M 98.01 96.32 L 98.70 95.35 L 99.85 96.12 L 98.50 94.34 L 100.37 91.86 L 101.48 92.93 L 101.55 94.30 L 102.73 96.08 L 101.90 96.34 L 101.10 98.47 L 100.06 97.79 L 98.15 97.62 L 98.01 96.32 Z M 98.53 102.01 L 98.70 100.96 L 99.54 101.60 L 98.53 102.01 Z M 98.77 152.69 L 99.40 151.77 L 101.31 152.76 L 104.19 153.13 L 104.05 153.90 L 102.63 155.11 L 100.75 155.51 L 99.26 153.88 L 98.77 152.69 Z M 98.98 174.39 L 100.13 174.44 L 99.82 175.74 L 98.98 174.39 Z M 100.51 151.20 L 105.06 150.78 L 105.47 151.44 L 104.43 152.28 L 102.84 152.28 L 100.51 151.20 Z M 103.77 110.92 L 104.64 108.39 L 105.34 108.46 L 104.68 111.29 L 104.09 112.57 L 103.77 110.92 Z M 104.36 154.65 L 105.58 154.25 L 105.44 155.49 L 104.36 154.65 Z M 105.89 153.09 L 106.62 152.45 L 108.18 152.94 L 107.73 154.14 L 109.99 154.32 L 111.62 152.98 L 112.00 152.06 L 117.69 152.36 L 117.59 153.48 L 114.64 154.58 L 113.25 154.36 L 109.92 154.87 L 108.77 155.51 L 107.35 154.96 L 105.89 153.09 Z M 106.97 105.84 L 109.47 104.37 L 108.67 105.84 L 106.97 105.84 Z M 109.15 161.53 L 110.79 159.80 L 112.42 160.30 L 112.42 159.71 L 114.74 159.25 L 115.02 160.61 L 113.67 160.70 L 114.95 162.94 L 112.04 164.74 L 110.65 164.19 L 111.10 162.63 L 109.54 163.09 L 109.15 161.53 Z M 110.82 34.08 L 111.90 33.53 L 111.93 34.52 L 112.90 34.82 L 114.64 34.12 L 114.78 34.93 L 112.97 35.42 L 113.32 36.49 L 110.82 34.08 Z M 114.08 36.89 L 115.58 36.36 L 115.47 37.35 L 114.08 36.89 Z M 115.72 158.48 L 116.48 157.66 L 116.79 158.72 L 115.72 158.48 Z M 115.99 159.53 L 117.31 160.65 L 116.97 161.33 L 115.99 159.53 Z M 116.97 129.06 L 118.11 128.38 L 120.13 130.88 L 121.93 129.59 L 120.96 127.01 L 122.21 126.84 L 121.72 125.56 L 122.52 124.66 L 124.50 123.80 L 126.51 124.73 L 126.44 125.23 L 128.39 126.49 L 129.95 126.73 L 130.51 129.19 L 130.09 130.86 L 128.94 130.90 L 127.73 131.74 L 125.68 134.58 L 126.06 135.08 L 123.98 135.54 L 123.11 134.62 L 120.33 135.61 L 118.81 134.77 L 117.04 131.78 L 117.52 131.50 L 117.83 129.26 L 116.97 129.06 Z M 118.29 162.30 L 118.32 161.07 L 119.26 160.39 L 119.78 161.75 L 119.50 163.25 L 118.29 162.30 Z M 119.05 115.10 L 120.06 113.58 L 120.06 112.22 L 121.44 111.97 L 123.46 112.88 L 123.49 111.53 L 124.36 110.70 L 125.71 111.80 L 125.71 113.07 L 122.97 114.50 L 122.45 116.02 L 121.10 116.50 L 119.05 115.10 Z M 119.64 118.24 L 119.99 117.73 L 123.63 118.90 L 125.23 118.68 L 125.68 119.80 L 124.40 120.18 L 120.99 119.34 L 120.92 118.48 L 119.64 118.24 Z M 119.88 139.48 L 121.41 139.24 L 124.67 140.51 L 126.65 139.90 L 128.15 140.71 L 127.97 142.07 L 126.20 142.10 L 125.09 142.69 L 123.22 141.57 L 122.90 142.12 L 121.24 140.62 L 120.26 140.49 L 119.88 139.48 Z M 119.99 108.41 L 120.85 107.47 L 121.20 108.68 L 119.99 108.41 Z M 120.19 145.15 L 120.96 144.71 L 122.87 145.50 L 124.08 146.56 L 122.03 146.82 L 120.19 145.15 Z M 120.96 163.40 L 121.69 162.59 L 122.56 163.27 L 121.72 163.88 L 120.96 163.40 Z M 121.03 170.19 L 122.87 169.47 L 123.15 168.48 L 125.19 168.94 L 125.58 171.84 L 123.84 173.07 L 122.07 171.71 L 122.17 170.70 L 121.03 170.19 Z M 122.38 151.64 L 123.56 151.33 L 123.94 152.72 L 124.88 152.85 L 124.50 154.69 L 122.76 153.97 L 123.01 153.16 L 122.38 151.64 Z M 122.66 116.04 L 124.36 115.67 L 124.81 116.66 L 123.70 117.45 L 122.66 116.04 Z M 123.18 164.04 L 123.53 163.49 L 124.88 164.50 L 123.98 164.92 L 123.18 164.04 Z M 123.98 165.62 L 125.37 164.52 L 126.10 164.98 L 124.99 166.63 L 123.98 165.62 Z M 125.12 168.57 L 125.92 168.15 L 126.65 169.49 L 125.99 170.13 L 125.12 168.57 Z M 125.47 115.21 L 125.99 113.71 L 127.10 114.22 L 126.34 115.49 L 125.47 115.21 Z M 125.65 119.30 L 125.75 117.84 L 127.76 117.89 L 126.72 120.18 L 125.65 119.30 Z M 125.92 111.45 L 128.53 110.11 L 128.60 109.25 L 130.05 109.78 L 131.55 111.95 L 131.30 113.65 L 128.98 115.27 L 126.90 113.95 L 125.92 111.45 Z M 127.73 133.30 L 128.63 131.81 L 129.71 132.38 L 129.12 133.17 L 127.73 133.30 Z M 127.73 261.02 L 128.87 260.43 L 129.12 261.11 L 127.73 261.02 Z M 128.53 266.96 L 129.29 265.02 L 131.23 264.89 L 131.65 265.37 L 128.63 268.04 L 128.53 266.96 Z M 129.88 118.46 L 130.51 117.62 L 131.10 118.64 L 129.88 118.46 Z M 129.95 267.95 L 131.79 265.44 L 131.79 263.26 L 135.89 261.55 L 140.09 260.63 L 142.14 261.44 L 142.87 262.27 L 143.77 265.51 L 142.69 265.70 L 143.25 267.07 L 144.15 266.89 L 143.53 268.08 L 144.43 269.62 L 142.83 269.40 L 143.32 270.50 L 142.59 271.71 L 141.16 271.84 L 141.55 270.37 L 140.12 270.08 L 139.78 269.18 L 138.70 269.09 L 139.53 268.19 L 138.07 267.44 L 137.48 266.45 L 137.03 263.55 L 136.03 262.85 L 135.96 263.84 L 134.39 262.93 L 133.49 264.41 L 134.39 265.31 L 134.50 267.11 L 133.60 268.54 L 131.86 268.94 L 130.19 268.72 L 129.95 267.95 Z M 130.02 138.12 L 130.75 136.86 L 132.35 137.35 L 133.42 137.08 L 132.80 135.24 L 132.94 133.85 L 133.87 132.36 L 134.92 132.42 L 136.06 131.56 L 137.14 131.94 L 138.21 134.05 L 139.78 135.48 L 139.19 136.67 L 137.90 136.34 L 137.28 137.85 L 134.08 139.39 L 133.11 139.00 L 132.35 139.74 L 131.93 138.29 L 131.30 139.66 L 130.33 139.41 L 130.02 138.12 Z M 130.51 116.59 L 131.51 116.31 L 133.25 116.99 L 132.38 119.25 L 131.23 119.05 L 130.51 116.59 Z M 131.37 156.91 L 132.97 156.52 L 133.49 158.08 L 131.37 156.91 Z M 131.83 141.15 L 133.21 140.47 L 132.00 141.79 L 131.83 141.15 Z M 133.21 163.49 L 133.39 162.85 L 136.10 161.97 L 138.63 162.96 L 141.62 165.14 L 141.44 165.80 L 139.36 166.15 L 135.64 164.72 L 133.21 163.49 Z M 135.64 123.30 L 136.89 123.30 L 137.35 122.37 L 139.36 122.33 L 140.54 124.90 L 141.82 125.19 L 142.41 126.49 L 142.41 128.38 L 140.96 128.31 L 140.30 126.79 L 138.63 126.20 L 137.35 124.73 L 137.59 124.20 L 135.64 123.30 Z M 135.78 112.63 L 136.10 110.33 L 137.28 109.38 L 138.73 109.73 L 139.01 108.19 L 140.02 108.43 L 140.40 107.62 L 142.59 106.74 L 144.67 107.14 L 148.94 106.63 L 150.78 106.06 L 152.79 106.06 L 155.05 108.08 L 157.13 109.23 L 158.52 110.83 L 158.91 112.44 L 158.07 113.91 L 153.56 116.22 L 151.89 116.77 L 148.87 116.99 L 148.39 117.49 L 146.58 117.38 L 144.81 118.33 L 142.76 118.57 L 141.89 119.19 L 140.02 119.38 L 137.00 118.86 L 138.42 117.69 L 137.00 116.90 L 137.28 115.65 L 136.20 114.22 L 135.78 112.63 Z M 136.86 129.19 L 138.77 129.21 L 139.53 130.60 L 137.87 131.70 L 136.86 129.19 Z M 139.39 129.96 L 140.30 130.00 L 140.05 131.23 L 139.39 129.96 Z M 139.50 98.78 L 139.91 98.08 L 141.37 98.23 L 142.31 97.70 L 143.59 98.10 L 142.41 99.22 L 141.16 98.76 L 141.34 99.53 L 139.50 98.78 Z M 140.78 130.77 L 143.39 130.44 L 144.57 131.26 L 142.87 132.36 L 141.41 131.78 L 140.78 130.77 Z M 141.86 165.47 L 142.31 163.71 L 144.08 162.72 L 144.50 163.71 L 146.06 164.68 L 143.84 167.38 L 143.25 166.33 L 141.86 165.47 Z M 142.48 133.24 L 143.94 132.07 L 144.98 131.92 L 143.18 133.78 L 142.48 133.24 Z M 143.49 175.49 L 143.98 174.90 L 145.33 175.78 L 145.92 175.34 L 146.75 176.22 L 148.00 176.46 L 148.98 178.11 L 148.73 179.28 L 145.50 178.29 L 145.16 176.70 L 144.25 176.79 L 143.49 175.49 Z M 144.22 127.56 L 145.30 126.33 L 146.89 128.40 L 144.88 128.11 L 144.22 127.56 Z M 144.36 123.43 L 144.88 122.35 L 146.34 121.85 L 145.57 120.90 L 149.39 120.57 L 151.09 120.75 L 151.54 120.09 L 153.49 119.52 L 152.90 118.57 L 157.52 117.78 L 158.28 118.46 L 158.28 119.67 L 155.92 122.09 L 153.14 123.74 L 152.14 124.68 L 151.09 126.97 L 149.39 127.19 L 149.25 126.05 L 147.97 127.28 L 146.68 127.39 L 146.16 125.58 L 148.04 124.66 L 146.48 123.89 L 144.36 123.43 Z M 147.27 136.18 L 147.62 135.24 L 148.91 135.17 L 148.84 136.34 L 147.27 136.18 Z M 149.29 159.53 L 149.36 158.37 L 150.16 159.14 L 149.29 159.53 Z M 149.32 73.21 L 150.99 72.68 L 153.25 73.28 L 151.20 73.76 L 149.32 73.21 Z M 149.57 88.38 L 151.41 87.92 L 149.88 89.53 L 149.57 88.38 Z M 150.78 89.57 L 152.14 88.12 L 153.04 88.73 L 152.45 89.39 L 150.78 89.57 Z M 156.61 87.35 L 157.10 85.94 L 158.18 86.23 L 157.45 87.66 L 156.61 87.35 Z M 165.88 82.29 L 166.47 81.43 L 167.97 81.96 L 165.88 82.29 Z" fill="#f3722c" stroke="white" stroke-width="1.5" stroke-linejoin="round" fill-rule="evenodd"/>
</svg>