<svg xmlns="http://www.w3.org/2000/svg" viewBox="0 0 300 300" width="300" height="300">
  <path d="M 2.11 87.61 L 7.30 81.65 L 6.95 79.44 L 8.65 78.21 L 8.86 76.60 L 8.15 75.73 L 8.30 74.66 L 7.39 74.47 L 6.86 73.02 L 8.21 71.20 L 8.65 69.77 L 7.45 67.53 L 9.45 63.27 L 16.54 50.56 L 19.39 47.72 L 19.74 46.58 L 22.09 45.30 L 24.40 45.27 L 25.72 45.78 L 29.16 43.72 L 31.71 42.87 L 38.04 38.92 L 38.69 31.09 L 39.74 28.98 L 43.53 22.50 L 43.53 22.50 L 60.19 16.75 L 72.71 19.01 L 77.82 21.75 L 89.23 14.64 L 103.66 9.19 L 105.39 8.12 L 106.65 6.62 L 108.56 5.04 L 110.49 5.14 L 111.55 4.65 L 113.81 4.87 L 115.57 7.10 L 117.30 7.20 L 115.21 4.51 L 119.61 4.12 L 127.59 6.83 L 129.88 6.93 L 138.15 5.57 L 145.95 7.85 L 148.91 8.12 L 157.27 6.37 L 167.28 7.46 L 173.93 5.19 L 178.80 7.88 L 183.06 11.42 L 185.55 12.12 L 188.25 14.26 L 197.40 22.16 L 198.75 22.69 L 198.95 24.10 L 200.95 28.76 L 201.42 32.54 L 201.42 35.26 L 201.86 37.08 L 202.12 40.28 L 203.44 43.53 L 201.89 44.81 L 202.44 46.85 L 205.23 46.17 L 206.99 48.13 L 208.96 49.18 L 209.40 50.70 L 214.21 51.33 L 215.06 53.08 L 217.93 55.38 L 222.15 57.49 L 223.53 60.02 L 221.63 63.46 L 223.12 64.12 L 222.80 67.51 L 222.10 70.54 L 223.12 75.44 L 222.86 78.50 L 224.62 79.83 L 228.11 81.62 L 229.99 81.21 L 231.07 82.69 L 233.92 83.37 L 238.02 85.29 L 240.34 87.40 L 242.04 87.91 L 241.51 88.51 L 239.55 92.85 L 239.75 97.44 L 239.02 98.70 L 239.49 99.35 L 239.02 100.64 L 240.69 100.90 L 239.49 103.14 L 238.40 106.14 L 240.37 106.41 L 246.00 107.84 L 246.03 113.13 L 247.88 116.81 L 248.41 119.53 L 249.32 122.51 L 251.93 129.81 L 252.28 132.09 L 253.07 134.03 L 257.65 137.98 L 255.12 142.54 L 254.33 144.41 L 252.69 147.01 L 253.04 149.50 L 258.50 148.78 L 259.79 149.21 L 261.52 148.46 L 264.95 152.75 L 264.36 153.63 L 265.18 156.00 L 268.85 158.52 L 269.17 161.31 L 272.93 164.81 L 275.30 164.20 L 277.59 164.00 L 285.39 163.96 L 285.39 163.96 L 285.54 168.39 L 285.25 170.41 L 284.48 171.47 L 284.86 174.04 L 285.89 176.66 L 284.69 178.24 L 282.99 181.90 L 285.25 183.70 L 288.82 189.30 L 288.82 190.68 L 291.52 192.79 L 294.10 196.11 L 295.04 196.94 L 295.25 199.51 L 295.95 203.34 L 293.75 204.41 L 296.68 209.04 L 297.89 212.36 L 296.74 213.94 L 293.49 214.96 L 291.02 215.05 L 290.44 215.85 L 290.82 219.71 L 289.88 222.13 L 292.81 225.80 L 293.63 228.37 L 292.99 233.58 L 291.76 233.87 L 292.14 235.86 L 291.82 237.34 L 291.85 239.74 L 291.85 239.74 L 291.26 241.00 L 291.26 241.00 L 290.35 240.06 L 289.23 241.15 L 289.23 241.15 L 288.50 241.22 L 287.62 237.92 L 287.77 236.22 L 287.03 234.58 L 287.18 232.66 L 288.00 230.06 L 287.27 230.04 L 286.92 232.39 L 286.27 233.99 L 286.54 234.62 L 285.36 236.49 L 285.57 239.26 L 285.30 240.54 L 284.25 239.72 L 283.13 237.68 L 283.19 236.56 L 281.05 233.61 L 280.29 233.80 L 280.85 235.25 L 279.20 234.55 L 278.73 233.73 L 279.06 231.11 L 278.26 229.94 L 279.35 227.11 L 278.91 226.26 L 277.47 226.50 L 277.36 228.22 L 276.36 228.73 L 277.00 230.65 L 276.24 234.24 L 277.12 235.74 L 276.33 236.25 L 277.65 237.44 L 276.21 238.36 L 275.68 237.56 L 273.54 237.44 L 272.25 235.40 L 271.20 231.88 L 271.61 226.96 L 270.02 225.19 L 268.73 224.54 L 268.23 222.89 L 269.58 221.38 L 269.88 223.32 L 271.02 224.29 L 271.11 225.38 L 271.75 223.74 L 270.08 222.04 L 269.58 220.90 L 267.03 223.61 L 266.09 223.15 L 264.63 223.47 L 265.83 224.22 L 265.56 224.78 L 263.72 224.07 L 263.04 223.30 L 260.99 223.01 L 259.64 221.70 L 258.29 221.72 L 257.15 222.79 L 258.00 223.57 L 258.61 222.96 L 261.63 224.34 L 262.46 225.12 L 261.78 225.99 L 262.87 227.01 L 264.71 227.25 L 266.77 229.82 L 269.44 231.88 L 269.76 234.82 L 269.52 236.03 L 270.81 236.27 L 271.69 237.95 L 270.58 237.87 L 271.58 239.16 L 274.51 238.26 L 275.89 239.11 L 276.97 239.11 L 278.73 241.61 L 280.46 243.11 L 282.11 245.61 L 281.84 246.72 L 282.37 248.06 L 282.52 251.38 L 281.40 248.98 L 280.76 249.71 L 279.17 246.89 L 279.26 248.62 L 278.65 247.72 L 277.44 248.13 L 278.44 250.29 L 277.74 251.45 L 276.59 251.16 L 273.98 249.71 L 272.22 250.97 L 273.40 251.31 L 274.36 252.38 L 275.30 251.77 L 275.51 252.71 L 276.71 252.47 L 277.44 253.54 L 276.24 254.41 L 277.27 254.44 L 275.98 255.92 L 275.71 254.34 L 272.72 255.29 L 271.81 254.32 L 271.69 255.36 L 272.60 255.79 L 271.81 256.86 L 270.90 256.91 L 267.56 259.02 L 265.48 259.92 L 266.44 261.66 L 267.85 261.06 L 268.73 261.32 L 267.71 262.78 L 267.59 262.05 L 265.21 264.02 L 264.48 264.26 L 263.22 263.26 L 261.19 262.66 L 261.37 263.43 L 259.61 263.36 L 259.49 262.78 L 257.97 263.48 L 255.15 261.62 L 254.07 261.32 L 251.81 261.83 L 254.01 262.42 L 253.45 264.45 L 254.24 264.65 L 254.27 263.02 L 255.12 262.95 L 257.06 264.55 L 255.18 264.84 L 253.48 266.10 L 253.89 266.71 L 253.01 268.89 L 252.75 267.17 L 252.04 267.12 L 251.16 269.76 L 252.39 270.10 L 251.72 272.36 L 250.52 269.69 L 249.49 270.01 L 249.84 268.82 L 249.23 268.11 L 248.00 268.77 L 247.82 267.85 L 245.15 268.45 L 243.01 269.64 L 242.07 270.71 L 242.04 272.84 L 243.33 272.60 L 244.65 271.07 L 244.65 269.79 L 245.50 269.69 L 246.35 268.60 L 247.47 268.62 L 248.14 272.38 L 247.32 273.69 L 245.24 272.99 L 244.04 274.49 L 246.09 273.50 L 247.47 274.49 L 246.41 276.65 L 243.33 276.70 L 240.93 277.04 L 240.46 276.46 L 238.14 275.90 L 236.97 275.00 L 236.41 272.72 L 235.27 271.41 L 234.77 272.29 L 235.71 273.50 L 235.00 278.59 L 234.09 279.10 L 235.32 280.12 L 232.86 282.23 L 235.65 281.60 L 236.91 282.66 L 235.15 283.61 L 236.20 284.14 L 236.44 283.27 L 240.55 280.70 L 241.01 280.77 L 244.74 279.44 L 249.20 280.02 L 250.58 281.40 L 252.13 282.16 L 252.63 283.95 L 251.46 284.85 L 248.29 286.06 L 245.06 286.71 L 246.18 288.02 L 242.54 290.45 L 245.47 289.82 L 247.12 289.09 L 248.88 287.54 L 249.14 289.46 L 247.09 290.50 L 246.00 291.78 L 243.89 292.54 L 244.39 293.21 L 243.42 293.97 L 243.77 294.60 L 241.86 295.88 L 241.86 295.88 L 237.93 293.02 L 236.76 294.67 L 235.41 295.74 L 232.22 290.86 L 227.61 290.79 L 223.94 289.26 L 225.18 287.27 L 223.47 287.01 L 223.33 280.75 L 222.51 277.11 L 220.16 272.48 L 216.38 270.66 L 213.27 268.36 L 210.89 267.05 L 206.87 262.68 L 204.59 255.89 L 204.12 253.49 L 203.35 252.93 L 203.29 251.33 L 202.65 250.19 L 196.84 251.67 L 192.76 251.74 L 185.70 251.26 L 185.49 253.32 L 184.43 254.99 L 178.07 259.41 L 177.28 260.60 L 178.04 261.69 L 181.53 263.87 L 183.47 265.71 L 185.31 266.80 L 183.64 268.84 L 183.09 271.17 L 181.85 272.60 L 180.09 276.07 L 181.30 276.70 L 180.89 277.16 L 180.65 281.02 L 178.28 282.62 L 176.13 283.51 L 174.81 281.84 L 173.99 279.73 L 170.59 278.01 L 166.60 275.68 L 166.87 274.95 L 166.07 273.30 L 164.87 271.99 L 164.28 270.61 L 161.97 266.47 L 160.50 265.66 L 158.86 264.06 L 158.36 262.92 L 157.24 263.80 L 153.96 265.59 L 150.70 267.75 L 147.89 272.09 L 144.72 270.10 L 141.99 268.70 L 141.88 268.26 L 138.03 266.63 L 136.33 266.68 L 133.57 265.96 L 132.05 265.98 L 130.32 265.37 L 130.14 264.09 L 128.62 261.83 L 127.06 260.77 L 126.07 259.55 L 122.63 257.42 L 121.43 256.33 L 121.05 254.90 L 118.23 253.83 L 115.89 252.42 L 114.69 252.64 L 110.99 251.89 L 107.88 253.85 L 105.97 254.53 L 107.00 255.99 L 110.67 255.96 L 112.02 256.81 L 110.46 258.07 L 108.14 258.61 L 107.26 259.41 L 103.39 259.07 L 101.43 258.24 L 98.58 256.06 L 96.03 256.69 L 94.21 255.50 L 93.74 254.10 L 91.43 251.48 L 90.93 249.25 L 91.28 247.67 L 88.20 246.94 L 87.26 243.52 L 84.56 240.78 L 84.62 239.16 L 83.57 237.24 L 83.62 236.42 L 81.45 232.85 L 79.43 230.45 L 76.99 224.68 L 74.85 223.25 L 73.18 221.02 L 70.34 219.18 L 68.96 214.35 L 69.69 213.62 L 69.98 211.92 L 71.07 208.72 L 70.48 207.92 L 71.10 206.03 L 72.51 204.65 L 73.77 204.75 L 74.38 203.36 L 71.98 201.76 L 71.30 200.43 L 70.66 197.03 L 69.93 196.89 L 68.52 195.09 L 67.55 189.08 L 65.47 181.51 L 63.06 180.30 L 59.89 180.08 L 57.99 180.37 L 56.90 181.15 L 56.35 179.50 L 56.64 177.05 L 54.97 173.44 L 54.82 171.23 L 52.42 169.19 L 48.98 166.67 L 49.42 165.48 L 52.86 161.12 L 53.44 159.28 L 51.74 158.52 L 58.02 153.70 L 54.76 150.21 L 53.71 145.65 L 48.57 140.89 L 46.29 133.18 L 50.19 127.99 L 48.31 126.44 L 48.75 124.91 L 45.52 123.72 L 42.09 118.73 L 43.03 117.69 L 41.01 115.92 L 39.83 115.50 L 38.19 113.85 L 38.66 113.15 L 36.11 113.73 L 34.35 113.01 L 34.96 114.97 L 33.82 115.55 L 33.41 118.49 L 30.74 118.03 L 30.97 117.69 L 27.01 115.58 L 26.60 116.30 L 25.40 115.41 L 25.61 114.80 L 23.70 113.27 L 22.12 113.81 L 17.57 111.45 L 16.87 111.82 L 14.61 110.29 L 14.61 110.29 L 14.43 109.95 L 10.35 107.52 L 3.58 104.54 L 4.22 101.78 L 3.61 91.62 L 2.11 87.61 Z M 235.85 276.12 L 237.32 277.14 L 236.32 277.21 L 235.85 276.12 Z M 241.89 278.95 L 242.57 277.98 L 244.83 277.79 L 246.32 278.23 L 243.36 279.00 L 241.89 278.95 Z M 249.17 277.62 L 254.18 277.28 L 253.98 276.02 L 257.32 275.15 L 258.44 275.27 L 258.70 276.17 L 257.67 276.67 L 257.94 277.57 L 260.31 276.53 L 258.85 278.40 L 259.35 279.34 L 257.23 280.94 L 256.15 280.51 L 257.21 279.22 L 256.68 278.30 L 255.59 278.98 L 253.33 278.83 L 252.72 279.54 L 249.17 277.62 Z M 249.55 275.95 L 250.08 273.16 L 250.96 272.75 L 252.89 273.38 L 253.22 274.86 L 252.63 275.75 L 249.55 275.95 Z M 250.49 278.74 L 253.13 279.63 L 253.36 280.53 L 254.51 280.89 L 254.21 281.69 L 252.69 280.41 L 251.25 279.90 L 250.49 278.74 Z M 252.92 275.63 L 254.83 274.95 L 253.71 275.92 L 252.92 275.63 Z M 253.89 270.42 L 254.86 269.23 L 254.48 268.58 L 255.62 266.32 L 257.76 266.95 L 260.23 266.54 L 261.55 267.82 L 259.49 268.31 L 259.05 268.96 L 257.00 269.42 L 256.71 269.91 L 254.07 271.34 L 253.89 270.42 Z M 254.01 273.86 L 254.27 271.87 L 255.09 271.07 L 261.43 268.04 L 261.63 269.69 L 258.58 271.87 L 258.32 272.53 L 257.21 271.70 L 256.15 272.53 L 256.38 274.59 L 255.59 275.12 L 254.01 273.86 Z M 254.27 266.08 L 254.92 265.57 L 256.68 265.71 L 254.71 266.34 L 254.27 266.08 Z M 257.12 266.44 L 257.62 265.98 L 259.43 266.13 L 257.12 266.44 Z M 258.88 274.54 L 259.96 273.21 L 263.13 270.81 L 262.84 271.75 L 260.81 273.13 L 263.04 272.79 L 263.39 273.67 L 260.40 274.57 L 258.88 274.54 Z M 260.70 283.10 L 263.10 280.70 L 263.89 279.37 L 263.45 278.03 L 265.45 276.77 L 266.65 274.08 L 267.88 272.19 L 267.56 275.56 L 266.86 276.00 L 265.04 279.15 L 263.36 281.19 L 260.70 283.10 Z M 261.46 264.14 L 263.01 264.57 L 261.93 265.03 L 261.46 264.14 Z M 261.96 268.53 L 262.69 267.48 L 263.01 268.24 L 261.96 268.53 Z M 262.31 265.03 L 263.75 264.57 L 264.07 265.25 L 262.31 265.03 Z M 263.25 270.10 L 264.83 269.42 L 265.98 268.28 L 265.07 270.22 L 265.33 270.90 L 263.80 271.05 L 263.25 270.10 Z M 268.00 259.67 L 268.20 259.21 L 269.96 259.65 L 269.00 261.62 L 268.00 259.67 Z M 270.64 268.74 L 272.46 268.77 L 271.31 270.32 L 270.64 270.20 L 270.64 268.74 Z M 277.33 255.31 L 278.44 254.78 L 278.38 256.04 L 277.33 255.31 Z M 278.88 235.18 L 280.41 235.23 L 279.82 236.20 L 278.88 235.18 Z M 279.20 236.98 L 279.73 236.37 L 281.17 237.58 L 282.28 239.04 L 280.70 239.84 L 279.20 236.98 Z M 280.41 236.37 L 281.43 236.78 L 281.81 237.97 L 280.41 236.37 Z M 281.40 240.52 L 282.96 241.22 L 283.78 242.09 L 283.63 243.43 L 282.55 243.72 L 282.25 241.95 L 281.40 240.52 Z M 282.49 246.43 L 282.99 247.36 L 283.31 250.39 L 282.87 249.71 L 282.49 246.43 Z M 283.78 243.60 L 284.25 242.43 L 285.22 242.99 L 285.63 244.06 L 285.07 245.97 L 284.60 246.12 L 283.78 243.60 Z M 287.91 242.77 L 290.06 242.21 L 290.94 243.67 L 291.11 244.93 L 290.53 247.36 L 288.94 244.91 L 289.53 244.69 L 287.91 242.77 Z" fill="#8ecae6" stroke="white" stroke-width="1.5" stroke-linejoin="round" fill-rule="evenodd"/>
</svg>