<svg xmlns="http://www.w3.org/2000/svg" viewBox="0 0 300 300" width="300" height="300">
  <path d="M 22.10 269.49 L 20.77 269.81 L 19.57 270.78 L 17.77 269.10 L 17.70 268.25 L 17.33 267.59 L 17.33 266.87 L 18.01 266.18 L 18.68 265.11 L 18.53 263.96 L 17.33 262.37 L 17.77 262.09 L 17.55 260.88 L 16.93 260.28 L 15.91 258.21 L 15.25 258.86 L 15.17 259.80 L 14.72 260.14 L 14.49 261.59 L 14.54 262.81 L 13.78 264.46 L 13.61 265.91 L 12.92 266.46 L 13.28 267.97 L 12.99 270.22 L 12.22 270.43 L 10.46 270.14 L 9.46 272.80 L 8.53 273.74 L 8.41 274.55 L 7.61 274.75 L 7.35 275.32 L 7.49 276.52 L 6.92 276.70 L 5.34 278.08 L 4.63 279.57 L 4.83 280.73 L 4.16 281.71 L 3.54 282.03 L 3.17 282.84 L 3.09 283.85 L 1.84 282.40 L 1.71 281.48 L 2.47 280.45 L 2.39 279.81 L 3.20 279.34 L 4.19 277.51 L 3.65 275.62 L 3.99 275.19 L 3.79 274.73 L 3.86 273.62 L 3.37 273.05 L 3.28 271.51 L 2.39 271.07 L 2.32 269.79 L 1.76 268.85 L 1.37 266.69 L 1.44 265.82 L 0.82 264.76 L 1.70 263.86 L 2.44 263.96 L 3.87 262.28 L 4.15 260.76 L 3.54 259.43 L 3.65 258.15 L 3.14 256.83 L 2.95 255.39 L 3.62 255.44 L 4.28 254.74 L 4.39 253.98 L 5.23 253.02 L 6.23 253.55 L 6.66 254.15 L 7.53 253.82 L 7.97 252.81 L 8.35 252.51 L 8.42 251.66 L 8.86 250.10 L 9.44 248.77 L 8.87 248.50 L 8.36 247.10 L 8.94 245.21 L 8.62 243.86 L 9.41 243.60 L 11.07 243.93 L 12.55 243.90 L 12.83 243.56 L 13.07 242.46 L 12.96 241.10 L 13.98 240.44 L 14.86 240.62 L 15.75 239.17 L 15.92 239.65 L 16.32 239.20 L 16.32 237.70 L 17.64 236.92 L 17.64 236.92 L 17.34 240.66 L 17.02 241.79 L 17.02 243.47 L 16.39 244.62 L 16.17 245.63 L 15.15 247.76 L 13.95 249.14 L 14.04 250.10 L 13.16 250.59 L 12.64 251.62 L 13.17 252.15 L 12.22 252.77 L 11.39 252.35 L 11.14 252.93 L 10.42 253.27 L 9.43 254.05 L 8.18 256.12 L 8.29 257.32 L 7.88 257.71 L 8.87 260.14 L 9.12 264.44 L 9.29 265.72 L 8.15 266.51 L 7.38 266.14 L 7.09 266.80 L 7.35 267.20 L 6.99 268.30 L 6.21 269.36 L 6.18 270.32 L 6.85 270.37 L 7.18 269.93 L 7.42 268.87 L 8.60 266.97 L 9.28 266.92 L 9.95 266.39 L 10.26 265.49 L 10.43 263.57 L 10.11 263.50 L 10.01 261.34 L 9.87 261.01 L 10.21 260.21 L 9.87 258.77 L 9.47 257.80 L 10.87 256.58 L 11.72 255.13 L 12.84 255.14 L 12.77 254.17 L 13.47 253.80 L 14.52 252.82 L 15.80 251.27 L 17.35 249.09 L 18.34 249.34 L 18.58 249.76 L 19.47 249.69 L 19.46 250.29 L 19.95 251.58 L 19.94 253.99 L 19.46 254.33 L 20.11 254.84 L 20.95 254.61 L 21.20 253.37 L 21.06 252.43 L 20.66 252.15 L 20.62 250.72 L 20.82 250.06 L 20.40 249.16 L 19.43 248.45 L 18.85 248.45 L 18.40 247.14 L 19.29 245.60 L 19.52 244.75 L 19.32 244.22 L 19.63 241.15 L 19.46 240.85 L 19.72 239.36 L 20.57 237.97 L 20.99 238.11 L 21.79 238.94 L 24.15 240.21 L 25.13 240.27 L 25.84 239.79 L 26.09 239.95 L 27.33 239.68 L 27.64 240.07 L 28.21 241.79 L 28.83 242.09 L 29.01 243.07 L 29.35 243.56 L 29.82 242.98 L 29.46 242.32 L 29.57 241.74 L 28.75 241.10 L 28.89 240.71 L 28.29 240.14 L 27.62 239.95 L 27.68 239.61 L 28.55 239.13 L 28.44 238.74 L 27.38 238.23 L 27.71 237.24 L 27.31 236.39 L 25.27 234.90 L 24.26 234.44 L 24.23 233.89 L 22.71 232.88 L 22.32 232.21 L 21.17 227.98 L 20.99 226.99 L 21.25 226.40 L 21.81 226.26 L 22.48 223.57 L 24.07 222.91 L 25.12 220.64 L 25.86 220.38 L 26.87 220.77 L 27.32 220.63 L 28.13 220.96 L 28.91 222.31 L 29.18 224.33 L 30.17 225.55 L 30.77 225.71 L 31.57 225.14 L 30.99 223.92 L 30.99 222.68 L 29.77 218.36 L 28.42 217.03 L 27.69 216.80 L 27.71 215.97 L 27.41 215.03 L 27.70 214.00 L 27.71 212.91 L 28.05 212.07 L 28.61 212.30 L 28.57 213.19 L 29.74 216.55 L 32.03 218.61 L 34.17 221.51 L 35.25 222.38 L 35.74 222.29 L 36.40 221.53 L 36.90 221.37 L 37.51 222.10 L 37.51 222.88 L 37.85 224.08 L 37.52 225.09 L 37.40 226.95 L 38.85 227.29 L 38.66 227.96 L 39.37 226.77 L 39.94 226.99 L 40.05 225.87 L 39.77 225.39 L 40.51 224.58 L 41.54 224.42 L 41.76 224.67 L 41.75 226.21 L 40.76 226.54 L 39.93 228.07 L 39.60 229.04 L 39.95 229.61 L 39.63 230.99 L 39.65 232.81 L 40.12 232.44 L 39.91 231.50 L 40.69 230.53 L 41.79 231.06 L 41.98 231.82 L 41.50 232.79 L 41.87 232.85 L 41.71 233.66 L 41.23 233.98 L 41.21 234.49 L 40.47 234.12 L 40.30 235.79 L 40.87 236.53 L 40.92 237.20 L 40.28 238.09 L 40.80 238.46 L 40.86 239.88 L 40.20 241.35 L 39.46 242.62 L 40.28 242.64 L 41.10 242.32 L 41.20 240.80 L 41.72 240.27 L 41.88 240.71 L 41.60 242.38 L 41.79 242.59 L 41.55 244.41 L 41.14 245.19 L 41.37 245.97 L 40.71 246.13 L 40.54 245.79 L 39.76 247.03 L 40.12 247.48 L 39.45 247.44 L 39.50 247.88 L 40.62 248.11 L 40.91 248.41 L 41.46 248.10 L 41.36 248.79 L 42.11 249.51 L 42.54 248.84 L 43.20 249.44 L 42.48 249.30 L 41.59 249.94 L 41.69 251.05 L 41.08 251.14 L 41.77 251.89 L 41.54 253.57 L 40.87 254.44 L 40.71 255.76 L 39.73 257.94 L 39.07 258.42 L 37.71 259.08 L 38.30 260.19 L 37.94 260.76 L 38.11 262.09 L 37.88 263.13 L 38.33 263.75 L 39.07 263.87 L 38.53 264.12 L 38.61 265.06 L 38.40 265.49 L 37.64 265.65 L 36.37 266.74 L 35.39 266.35 L 35.03 265.66 L 34.01 265.03 L 32.72 264.97 L 31.60 265.42 L 30.27 265.47 L 30.06 266.05 L 30.43 266.34 L 29.09 266.87 L 28.50 266.66 L 27.95 265.84 L 27.23 265.70 L 26.73 266.44 L 25.96 266.90 L 25.19 268.99 L 24.40 269.79 L 24.32 270.46 L 23.10 270.78 L 22.85 268.43 L 22.47 267.63 L 21.11 266.66 L 20.94 267.38 L 22.18 268.64 L 22.10 269.49 Z M 9.79 256.06 L 9.96 255.59 L 10.89 254.56 L 11.34 255.09 L 10.30 256.21 L 9.79 256.06 Z M 15.81 226.44 L 16.28 225.59 L 16.20 223.27 L 16.54 222.36 L 17.50 221.34 L 18.34 219.87 L 18.77 219.78 L 18.94 220.77 L 18.69 221.71 L 16.96 224.65 L 16.08 226.37 L 15.81 226.44 Z M 19.73 218.41 L 20.10 217.44 L 20.45 217.60 L 19.82 218.91 L 19.73 218.41 Z M 19.89 233.71 L 19.90 233.08 L 20.39 231.68 L 21.24 233.77 L 22.31 234.85 L 22.71 235.66 L 23.44 235.79 L 24.29 236.74 L 24.65 238.05 L 24.11 238.30 L 21.26 236.53 L 20.39 234.46 L 19.89 233.71 Z M 20.52 288.24 L 20.75 287.59 L 21.67 286.70 L 22.09 285.60 L 22.38 286.74 L 22.68 285.41 L 22.69 284.29 L 23.25 283.67 L 25.03 283.44 L 26.45 283.92 L 27.21 283.62 L 27.66 283.11 L 27.46 282.65 L 26.35 283.02 L 24.99 282.74 L 24.46 283.14 L 23.33 283.13 L 23.15 282.75 L 22.55 282.91 L 22.30 282.29 L 22.64 281.28 L 22.72 279.53 L 23.31 278.98 L 24.10 279.02 L 23.56 278.26 L 23.37 276.98 L 23.44 276.02 L 24.35 275.33 L 24.95 273.92 L 24.71 273.33 L 25.08 273.24 L 25.00 272.59 L 25.46 272.25 L 25.88 272.59 L 26.00 271.84 L 26.55 271.65 L 26.51 270.68 L 26.95 268.64 L 27.86 268.13 L 29.34 268.57 L 29.87 267.61 L 30.52 267.49 L 31.23 266.87 L 31.94 266.78 L 33.26 267.28 L 34.06 268.50 L 35.11 270.46 L 36.15 271.51 L 35.78 273.19 L 35.15 273.99 L 35.74 274.59 L 35.98 275.35 L 36.36 275.40 L 37.66 276.98 L 38.31 278.47 L 38.51 279.73 L 38.34 280.45 L 36.96 280.10 L 35.82 280.59 L 34.90 280.73 L 34.71 281.48 L 35.90 282.70 L 36.45 283.94 L 35.29 286.12 L 34.39 286.79 L 34.38 287.07 L 33.35 287.38 L 32.28 286.92 L 32.01 287.29 L 31.14 286.51 L 30.63 287.15 L 31.15 287.36 L 29.35 287.71 L 28.86 287.02 L 28.27 286.95 L 27.65 287.87 L 27.98 288.08 L 27.18 288.53 L 26.42 289.31 L 25.59 289.77 L 25.54 290.42 L 24.75 291.38 L 23.62 292.32 L 22.52 292.35 L 22.83 291.25 L 22.07 291.01 L 22.13 290.17 L 21.58 290.30 L 21.85 289.04 L 20.80 289.18 L 20.52 288.24 Z M 26.13 203.29 L 26.62 202.86 L 26.71 203.54 L 26.13 203.29 Z M 26.79 202.17 L 27.51 202.42 L 26.81 202.56 L 26.79 202.17 Z M 26.84 205.89 L 27.11 205.33 L 27.37 205.68 L 26.84 205.89 Z M 26.98 206.94 L 27.16 206.44 L 27.44 207.03 L 26.98 206.94 Z M 27.72 206.51 L 28.11 204.69 L 28.12 203.79 L 29.13 201.80 L 29.79 201.11 L 30.17 201.61 L 31.47 202.24 L 32.25 202.05 L 33.02 202.14 L 34.26 204.09 L 34.73 205.15 L 35.44 205.93 L 37.09 206.39 L 37.52 205.64 L 38.13 205.33 L 38.48 206.35 L 39.25 207.34 L 39.71 207.49 L 40.04 208.23 L 40.54 208.55 L 41.01 208.37 L 40.44 205.70 L 40.88 204.99 L 41.67 204.60 L 41.80 205.47 L 42.44 205.66 L 42.77 207.10 L 42.46 207.59 L 42.34 208.60 L 43.21 209.36 L 43.27 210.50 L 43.86 210.14 L 43.15 211.67 L 42.55 212.22 L 42.48 214.30 L 42.64 214.91 L 43.61 215.01 L 43.59 215.88 L 42.80 216.48 L 42.04 217.39 L 40.76 218.34 L 40.57 219.00 L 40.29 218.73 L 39.11 218.56 L 38.11 217.85 L 36.59 217.94 L 36.24 217.16 L 35.13 216.78 L 34.86 215.79 L 33.44 214.27 L 32.49 212.85 L 32.41 212.23 L 31.90 211.31 L 31.90 210.28 L 31.65 209.31 L 30.10 207.68 L 29.40 207.38 L 29.13 207.59 L 28.37 206.57 L 27.72 206.51 Z M 32.53 198.28 L 33.14 197.62 L 32.94 198.54 L 32.53 198.28 Z M 35.37 200.83 L 35.72 200.00 L 36.40 199.52 L 36.78 198.70 L 36.76 197.83 L 38.65 196.86 L 39.75 197.29 L 39.79 197.87 L 39.16 199.38 L 39.26 200.35 L 40.84 200.21 L 41.16 201.18 L 41.06 202.79 L 40.22 203.22 L 39.96 202.33 L 38.84 201.71 L 38.52 201.98 L 37.48 202.07 L 36.76 203.06 L 36.46 202.24 L 35.77 202.23 L 35.82 201.52 L 35.37 200.83 Z M 40.24 283.25 L 39.83 282.68 L 39.35 282.74 L 38.60 283.32 L 37.93 283.16 L 38.48 282.56 L 38.53 281.53 L 39.04 279.73 L 38.97 278.86 L 39.16 277.99 L 38.92 277.00 L 38.62 276.87 L 37.98 275.62 L 36.00 274.52 L 36.22 273.00 L 36.68 272.27 L 36.75 271.67 L 36.41 269.98 L 36.65 269.74 L 36.28 269.06 L 36.81 269.36 L 37.42 268.98 L 38.31 267.82 L 38.02 267.47 L 38.74 266.43 L 39.27 266.11 L 40.02 266.78 L 40.16 267.66 L 41.17 269.05 L 41.51 269.79 L 42.02 269.84 L 42.59 270.39 L 43.14 269.65 L 43.03 267.31 L 43.28 266.55 L 43.84 266.58 L 44.06 265.11 L 43.70 264.42 L 43.06 266.02 L 42.32 265.17 L 42.17 264.48 L 41.50 264.35 L 40.45 262.76 L 40.83 262.58 L 40.49 261.89 L 40.69 261.25 L 40.35 260.51 L 40.78 258.03 L 41.36 256.76 L 41.55 255.53 L 42.27 255.46 L 42.22 254.51 L 42.53 253.83 L 43.54 253.55 L 43.67 253.09 L 45.57 252.38 L 46.22 252.93 L 46.89 252.81 L 46.72 250.63 L 46.96 249.87 L 48.19 248.93 L 49.60 248.31 L 50.10 247.37 L 50.87 247.65 L 51.83 247.09 L 52.73 247.53 L 52.91 248.11 L 53.46 248.22 L 54.24 247.81 L 54.95 246.57 L 55.44 245.24 L 56.03 244.73 L 56.48 243.63 L 56.93 243.17 L 57.73 242.85 L 59.32 243.14 L 59.99 242.82 L 60.30 243.88 L 60.09 245.35 L 60.16 246.61 L 60.83 247.78 L 60.83 248.40 L 61.26 248.33 L 61.65 249.23 L 62.95 248.96 L 62.70 249.69 L 63.12 250.24 L 63.29 251.39 L 63.04 252.04 L 63.97 253.66 L 64.75 253.50 L 65.44 253.71 L 66.12 252.77 L 65.81 252.84 L 66.89 251.35 L 65.47 251.21 L 64.38 250.26 L 64.18 249.69 L 63.69 249.78 L 63.01 249.34 L 63.28 248.59 L 63.13 248.06 L 62.32 247.55 L 62.67 246.47 L 62.94 243.61 L 63.27 243.03 L 65.60 242.25 L 66.67 241.44 L 67.41 241.14 L 68.84 239.98 L 69.31 240.18 L 70.26 239.95 L 70.27 240.91 L 70.66 241.38 L 71.64 241.14 L 72.11 241.86 L 73.10 241.47 L 73.29 241.08 L 74.65 240.85 L 75.63 242.14 L 75.71 243.30 L 76.02 244.29 L 75.76 245.67 L 75.80 246.78 L 76.41 247.65 L 76.76 247.76 L 76.66 246.96 L 77.16 248.22 L 77.52 248.01 L 78.36 248.41 L 79.73 248.57 L 80.25 248.34 L 80.74 247.56 L 81.38 247.63 L 82.19 247.30 L 82.57 247.69 L 83.84 248.33 L 85.53 249.88 L 86.24 249.87 L 86.30 249.05 L 83.98 246.89 L 82.37 246.06 L 81.07 246.06 L 80.71 246.38 L 80.64 247.12 L 80.00 246.50 L 78.59 245.81 L 77.92 245.26 L 77.98 244.11 L 77.42 242.85 L 77.64 241.45 L 77.22 240.07 L 75.73 238.67 L 74.63 238.23 L 73.95 238.39 L 73.40 239.05 L 72.39 239.31 L 71.47 239.79 L 71.13 239.28 L 71.12 238.55 L 69.18 237.08 L 68.72 237.03 L 68.61 235.93 L 69.22 234.18 L 70.61 233.64 L 71.36 233.17 L 72.09 232.10 L 72.67 231.78 L 73.16 230.99 L 73.87 230.42 L 74.46 229.43 L 75.32 228.47 L 75.42 227.80 L 77.36 227.23 L 78.29 227.68 L 79.28 228.56 L 80.11 229.68 L 80.94 230.23 L 81.71 231.16 L 83.64 232.62 L 84.70 233.15 L 85.14 232.99 L 87.19 233.34 L 88.52 233.87 L 89.29 235.17 L 89.79 235.17 L 89.66 235.82 L 90.92 238.05 L 91.17 235.73 L 90.83 235.01 L 90.93 234.14 L 90.33 233.22 L 89.80 231.98 L 89.37 231.54 L 88.01 231.06 L 86.49 231.04 L 84.93 230.81 L 83.56 229.69 L 83.04 229.09 L 81.97 228.46 L 80.14 226.51 L 78.46 226.01 L 77.68 225.37 L 77.84 224.70 L 78.55 224.03 L 79.25 222.72 L 79.85 222.19 L 81.03 220.72 L 81.52 219.26 L 82.32 218.82 L 82.31 218.24 L 82.84 217.97 L 83.73 216.55 L 85.19 215.83 L 85.85 215.74 L 86.54 216.15 L 86.92 215.03 L 87.56 215.21 L 88.09 216.29 L 87.67 217.51 L 86.45 217.90 L 87.61 219.28 L 88.18 219.65 L 88.74 219.25 L 89.12 219.65 L 90.95 220.31 L 91.50 220.88 L 91.76 220.61 L 93.17 220.40 L 93.07 219.58 L 92.39 219.09 L 91.89 217.72 L 90.64 216.04 L 90.71 215.46 L 90.05 214.45 L 88.14 213.28 L 87.64 214.00 L 87.17 213.28 L 87.30 212.18 L 87.86 212.02 L 87.53 211.10 L 87.80 210.46 L 86.82 210.04 L 85.67 210.50 L 84.26 211.83 L 83.01 212.29 L 81.40 213.21 L 80.17 213.63 L 79.67 214.27 L 79.25 213.97 L 78.79 214.71 L 77.93 215.21 L 77.26 216.25 L 76.99 216.11 L 76.57 213.95 L 76.86 212.13 L 78.09 210.30 L 77.99 208.99 L 77.52 207.29 L 78.63 206.55 L 79.56 206.46 L 80.14 206.76 L 81.07 206.72 L 81.40 205.31 L 80.74 205.01 L 80.59 202.60 L 79.59 203.18 L 78.25 203.15 L 78.18 202.16 L 77.71 201.52 L 77.90 200.61 L 78.33 200.95 L 78.67 200.15 L 79.21 199.59 L 80.02 198.01 L 80.08 197.25 L 80.87 195.12 L 82.57 193.78 L 83.33 192.08 L 85.99 188.54 L 86.32 187.58 L 86.76 187.19 L 86.28 186.48 L 85.77 186.66 L 84.97 185.53 L 83.68 186.15 L 84.63 183.84 L 84.91 183.83 L 86.16 182.92 L 87.45 182.21 L 88.52 182.20 L 88.98 182.94 L 89.72 182.46 L 90.59 182.67 L 91.12 181.82 L 91.86 181.15 L 92.90 180.73 L 93.18 180.94 L 94.29 180.12 L 94.75 180.04 L 96.23 178.23 L 97.11 178.30 L 98.18 177.41 L 98.98 177.17 L 99.71 177.82 L 100.60 177.40 L 101.63 177.95 L 101.46 178.55 L 101.41 180.27 L 101.95 179.59 L 102.38 180.14 L 102.62 179.52 L 103.94 178.94 L 104.54 178.34 L 105.30 178.41 L 105.12 177.88 L 105.91 177.75 L 105.03 176.60 L 105.49 176.33 L 104.74 176.09 L 104.20 176.46 L 103.85 176.30 L 103.89 174.72 L 103.69 175.54 L 103.04 175.80 L 102.58 176.35 L 101.99 174.90 L 102.55 173.96 L 102.42 173.52 L 101.50 173.20 L 101.25 172.53 L 101.61 170.81 L 101.86 170.42 L 101.57 169.41 L 102.24 168.17 L 102.26 166.79 L 102.64 166.54 L 102.66 165.35 L 102.35 165.57 L 101.19 164.91 L 99.46 165.28 L 98.83 165.94 L 98.15 166.17 L 98.00 164.75 L 98.75 163.41 L 99.19 161.62 L 99.09 160.22 L 98.58 159.39 L 99.05 154.96 L 98.72 154.04 L 98.96 153.40 L 99.60 153.51 L 100.45 152.66 L 101.04 152.51 L 101.70 151.68 L 102.66 148.76 L 103.27 148.67 L 103.70 147.79 L 103.36 147.43 L 103.65 145.01 L 103.11 143.04 L 103.88 142.26 L 104.91 142.19 L 105.92 142.40 L 106.43 141.46 L 106.23 140.63 L 105.42 140.12 L 105.78 138.38 L 105.96 136.86 L 105.71 134.66 L 104.78 132.50 L 104.57 131.42 L 104.99 131.14 L 105.41 129.93 L 107.01 131.07 L 107.41 130.22 L 107.90 130.24 L 108.54 129.60 L 108.68 127.90 L 109.07 127.47 L 109.78 127.70 L 110.18 127.40 L 111.51 128.09 L 111.35 128.55 L 112.60 129.74 L 113.20 129.83 L 113.24 130.84 L 113.48 131.21 L 114.07 130.96 L 114.29 131.30 L 114.13 132.98 L 114.39 133.39 L 114.05 136.91 L 113.64 138.12 L 113.85 140.06 L 113.23 142.53 L 112.12 144.58 L 112.03 145.43 L 112.36 145.22 L 112.40 144.44 L 112.89 144.07 L 113.09 143.27 L 113.66 142.67 L 113.75 142.15 L 114.51 141.87 L 114.80 140.79 L 115.40 140.61 L 116.00 141.23 L 116.61 141.41 L 117.68 142.46 L 117.84 142.88 L 118.73 143.22 L 119.09 143.62 L 119.56 144.88 L 119.37 146.39 L 119.12 146.94 L 119.31 147.45 L 119.06 148.71 L 119.11 150.55 L 119.51 151.33 L 119.62 152.78 L 119.34 156.04 L 119.13 157.01 L 119.41 158.27 L 119.90 159.07 L 119.62 159.78 L 119.63 161.05 L 118.87 163.21 L 119.02 165.28 L 118.61 167.69 L 118.57 168.61 L 118.87 168.58 L 119.27 166.75 L 119.98 164.75 L 119.96 162.96 L 120.10 161.92 L 120.50 161.32 L 121.16 158.55 L 120.98 157.05 L 121.35 155.68 L 121.43 152.57 L 121.35 151.59 L 120.76 150.25 L 121.25 149.03 L 120.94 148.03 L 121.31 147.22 L 122.01 146.40 L 122.32 146.40 L 122.89 147.54 L 122.84 148.32 L 123.18 148.46 L 123.00 150.41 L 122.64 150.87 L 122.46 152.28 L 123.48 153.75 L 124.21 155.44 L 125.22 156.39 L 125.88 157.39 L 127.07 158.20 L 127.70 159.30 L 127.49 161.14 L 127.81 162.17 L 128.15 161.85 L 128.49 159.72 L 128.27 158.66 L 128.33 158.00 L 127.39 157.24 L 125.80 154.69 L 125.33 153.06 L 126.49 152.85 L 126.78 151.66 L 128.66 151.89 L 129.51 151.70 L 129.96 151.06 L 131.51 150.97 L 131.77 151.22 L 131.51 151.81 L 133.05 151.75 L 133.67 151.26 L 134.91 151.22 L 134.82 151.63 L 135.89 151.68 L 135.78 152.66 L 134.11 153.98 L 135.31 154.32 L 136.91 155.44 L 137.47 155.28 L 138.19 155.51 L 137.75 155.74 L 137.80 156.64 L 138.79 157.10 L 140.12 156.77 L 139.96 156.06 L 139.60 156.04 L 138.90 155.37 L 138.77 154.85 L 139.36 154.45 L 138.19 153.21 L 137.99 152.78 L 138.22 151.84 L 137.33 151.04 L 136.14 150.41 L 135.69 150.85 L 134.79 150.32 L 134.09 150.37 L 133.28 149.36 L 132.51 149.38 L 132.74 150.25 L 131.91 149.75 L 131.33 149.03 L 130.19 148.02 L 129.35 148.11 L 128.58 147.72 L 127.44 146.64 L 127.29 146.09 L 125.71 145.22 L 124.87 144.37 L 124.00 143.04 L 123.72 142.07 L 123.99 141.50 L 123.48 140.15 L 123.57 139.30 L 122.56 137.85 L 122.41 137.21 L 121.58 135.96 L 120.05 134.20 L 118.87 133.48 L 118.86 134.31 L 118.40 134.43 L 117.66 133.88 L 117.74 131.58 L 118.04 131.21 L 118.31 129.76 L 118.82 128.69 L 118.71 126.96 L 117.87 125.35 L 117.22 125.14 L 117.16 124.09 L 117.39 123.33 L 118.08 122.90 L 119.37 122.60 L 119.95 122.23 L 121.00 122.18 L 121.32 121.72 L 122.18 121.19 L 123.17 120.87 L 123.84 119.82 L 124.29 119.68 L 125.39 119.86 L 126.59 119.68 L 127.14 119.08 L 128.64 118.74 L 129.50 118.35 L 130.82 118.49 L 131.58 118.10 L 131.79 116.99 L 132.38 116.72 L 132.38 115.96 L 132.97 115.50 L 134.05 116.81 L 134.26 118.67 L 134.57 119.50 L 134.34 120.28 L 134.77 121.33 L 134.51 121.79 L 134.77 123.13 L 134.68 124.13 L 133.29 125.72 L 133.45 126.37 L 134.11 127.56 L 135.14 126.46 L 135.63 126.39 L 135.87 128.34 L 136.12 129.03 L 136.40 130.98 L 136.19 131.63 L 136.32 132.47 L 136.85 133.37 L 137.58 134.04 L 137.60 134.66 L 138.14 134.61 L 137.80 135.28 L 138.00 135.80 L 138.78 135.78 L 139.91 136.72 L 139.50 140.47 L 139.52 141.55 L 140.00 141.64 L 140.04 142.17 L 141.42 144.72 L 142.89 146.74 L 143.65 147.56 L 144.49 148.14 L 145.59 148.48 L 146.52 148.51 L 147.28 148.18 L 148.52 148.05 L 150.73 148.49 L 151.56 148.19 L 152.05 148.30 L 153.18 149.73 L 153.81 151.47 L 154.01 153.13 L 154.34 153.45 L 153.93 154.36 L 153.94 155.24 L 153.53 156.11 L 152.54 156.91 L 151.78 157.86 L 152.05 158.02 L 151.32 159.14 L 151.05 160.04 L 150.41 161.03 L 150.11 162.13 L 149.59 162.54 L 149.76 164.73 L 150.32 165.92 L 150.87 166.58 L 152.10 166.58 L 152.79 166.08 L 152.65 165.48 L 153.92 164.61 L 154.87 164.40 L 155.32 165.02 L 155.72 164.88 L 157.93 166.06 L 159.15 167.09 L 159.89 166.65 L 160.38 167.46 L 161.84 168.08 L 162.54 167.73 L 162.01 167.21 L 159.98 166.05 L 159.73 165.46 L 158.63 164.47 L 157.53 162.79 L 157.04 161.64 L 156.76 159.78 L 156.78 155.28 L 157.09 152.05 L 156.76 151.52 L 156.12 149.34 L 155.49 148.00 L 154.68 145.93 L 154.42 144.88 L 155.27 143.66 L 154.52 143.80 L 153.18 144.39 L 152.34 144.10 L 151.05 142.90 L 150.79 143.16 L 149.28 143.20 L 147.12 143.75 L 144.90 143.80 L 143.87 142.69 L 143.02 141.07 L 142.77 139.82 L 142.64 136.88 L 142.32 135.05 L 141.29 134.01 L 140.50 133.97 L 139.87 133.28 L 139.84 132.41 L 139.33 131.90 L 139.10 130.98 L 138.78 131.03 L 139.04 128.62 L 139.88 126.55 L 139.70 124.48 L 140.01 123.29 L 140.62 123.65 L 140.13 122.96 L 140.42 122.12 L 141.25 121.88 L 142.22 120.57 L 142.76 118.85 L 143.45 117.71 L 144.90 117.33 L 145.41 116.97 L 146.77 116.81 L 147.09 118.09 L 147.80 119.38 L 148.62 120.50 L 149.82 122.78 L 150.19 122.28 L 150.06 121.58 L 148.09 117.87 L 147.43 116.32 L 147.37 115.45 L 147.60 114.56 L 146.98 114.12 L 145.92 115.87 L 145.44 115.63 L 143.67 116.35 L 142.66 116.48 L 141.62 117.52 L 141.45 119.33 L 140.63 120.60 L 140.22 120.65 L 139.58 119.33 L 138.57 118.94 L 138.18 116.49 L 137.71 115.93 L 137.89 115.36 L 137.66 114.77 L 137.66 113.34 L 137.33 109.92 L 137.57 106.84 L 137.76 105.92 L 138.91 103.60 L 139.32 103.12 L 139.29 102.36 L 139.82 101.92 L 140.34 102.54 L 140.45 100.75 L 140.88 99.63 L 141.18 99.56 L 142.44 97.21 L 142.81 97.01 L 143.11 96.21 L 143.80 93.24 L 143.70 92.55 L 143.90 91.65 L 144.07 89.73 L 144.80 88.79 L 145.40 87.68 L 146.10 88.39 L 146.87 88.37 L 147.93 86.28 L 148.03 85.57 L 148.56 84.99 L 149.85 84.30 L 151.24 83.00 L 151.93 83.59 L 153.08 82.95 L 153.78 83.48 L 154.79 83.68 L 155.59 83.11 L 156.41 83.23 L 157.30 82.15 L 157.81 81.98 L 158.22 82.37 L 159.26 81.36 L 160.16 80.86 L 160.72 80.19 L 161.15 80.24 L 162.27 79.73 L 162.98 80.44 L 163.85 79.39 L 164.42 79.18 L 165.73 78.17 L 166.27 78.20 L 166.88 77.57 L 168.07 77.37 L 169.49 78.06 L 169.96 79.04 L 169.76 80.97 L 169.35 82.47 L 169.56 82.79 L 169.22 84.08 L 168.50 85.64 L 167.66 86.37 L 167.67 87.04 L 168.16 87.75 L 168.68 89.10 L 168.57 90.34 L 168.16 92.02 L 167.63 93.42 L 167.38 94.67 L 167.22 96.82 L 166.87 99.01 L 166.03 100.16 L 166.05 101.56 L 166.61 100.52 L 167.00 101.00 L 168.01 101.05 L 169.99 102.94 L 170.21 104.31 L 169.32 106.19 L 168.98 107.71 L 169.40 108.75 L 168.36 112.21 L 168.31 112.90 L 168.64 113.27 L 168.06 115.24 L 167.39 116.16 L 167.32 116.83 L 166.59 117.59 L 166.19 118.74 L 166.29 119.65 L 165.81 122.16 L 166.04 122.21 L 165.85 123.35 L 166.20 125.44 L 166.62 126.29 L 167.43 126.66 L 167.56 127.37 L 167.00 128.78 L 164.82 132.36 L 162.77 134.80 L 162.78 135.19 L 161.67 138.01 L 160.85 139.52 L 159.47 140.90 L 158.73 140.68 L 158.01 141.09 L 157.95 141.50 L 158.81 141.61 L 159.96 140.74 L 160.64 140.95 L 161.45 140.05 L 163.88 135.85 L 165.15 134.75 L 165.51 135.71 L 166.19 136.49 L 166.49 137.21 L 166.29 137.85 L 166.48 138.45 L 166.61 137.05 L 167.08 136.97 L 166.66 135.44 L 166.21 134.72 L 166.46 134.19 L 166.47 133.18 L 167.38 130.59 L 168.26 129.33 L 168.76 128.93 L 169.27 127.69 L 169.98 126.99 L 169.91 125.70 L 169.06 125.15 L 168.80 124.27 L 169.16 123.74 L 169.26 122.57 L 169.86 121.22 L 170.23 120.88 L 170.29 120.12 L 170.04 119.26 L 169.60 118.74 L 169.31 116.67 L 170.63 114.07 L 171.03 111.80 L 170.83 110.44 L 170.18 110.13 L 170.32 111.14 L 169.82 110.31 L 170.04 109.62 L 169.86 108.75 L 171.10 108.82 L 171.26 108.40 L 172.25 108.01 L 172.95 108.74 L 172.97 109.11 L 174.44 109.16 L 174.86 109.94 L 175.45 109.57 L 176.49 110.35 L 177.00 110.29 L 177.54 111.02 L 180.26 112.60 L 181.80 112.63 L 182.41 112.47 L 183.93 112.63 L 185.79 112.14 L 186.84 112.61 L 186.68 112.10 L 185.27 111.57 L 183.99 111.92 L 182.38 111.92 L 180.89 111.50 L 179.51 110.61 L 178.59 109.21 L 177.12 108.52 L 176.15 108.36 L 175.24 107.89 L 175.42 107.50 L 174.17 106.73 L 173.28 103.33 L 173.55 101.76 L 173.11 100.08 L 172.71 99.35 L 171.71 98.45 L 171.45 97.93 L 171.61 96.37 L 172.20 95.68 L 172.45 94.71 L 172.53 92.90 L 173.24 91.88 L 173.44 91.19 L 174.11 90.88 L 174.64 90.25 L 174.61 88.26 L 174.17 87.01 L 174.78 84.14 L 175.28 83.30 L 175.90 82.74 L 176.69 82.63 L 177.08 82.06 L 177.27 80.51 L 177.99 77.69 L 178.51 76.33 L 179.24 75.55 L 179.79 73.62 L 180.15 72.93 L 180.64 72.78 L 180.47 73.60 L 180.63 75.37 L 180.38 77.14 L 180.40 77.99 L 179.88 78.95 L 179.33 81.94 L 179.09 82.63 L 179.27 83.34 L 178.86 84.65 L 178.95 85.57 L 180.22 85.09 L 180.53 83.75 L 180.57 82.60 L 180.27 82.67 L 180.87 81.73 L 181.81 77.39 L 182.07 76.43 L 182.65 73.40 L 184.10 68.11 L 185.29 65.19 L 185.32 64.11 L 186.07 59.68 L 186.45 58.92 L 187.28 58.16 L 187.62 59.18 L 187.68 60.67 L 187.59 63.52 L 187.27 63.70 L 187.12 65.44 L 187.84 66.62 L 187.77 67.21 L 188.06 67.99 L 187.99 68.78 L 188.79 71.54 L 189.31 71.01 L 189.13 69.15 L 188.44 67.42 L 188.03 65.61 L 187.98 64.51 L 188.30 64.05 L 188.58 62.41 L 188.71 60.87 L 189.03 58.99 L 189.54 57.84 L 191.17 55.41 L 191.19 54.28 L 191.59 53.34 L 192.56 53.14 L 193.07 53.73 L 193.31 54.49 L 193.78 54.81 L 193.88 55.50 L 194.36 55.75 L 194.36 56.58 L 194.85 58.39 L 195.22 58.79 L 195.39 61.34 L 195.99 63.50 L 196.23 64.99 L 196.87 65.59 L 197.04 66.20 L 196.94 68.02 L 196.61 69.90 L 195.82 71.46 L 195.47 73.78 L 195.52 74.75 L 195.36 76.57 L 194.69 78.81 L 193.75 82.83 L 193.32 85.08 L 193.02 88.72 L 192.74 90.25 L 192.60 92.21 L 192.00 92.35 L 191.75 92.99 L 192.58 93.61 L 192.51 95.01 L 191.99 96.29 L 191.18 97.56 L 191.99 98.29 L 191.99 101.32 L 192.79 102.32 L 194.13 102.79 L 194.46 103.94 L 195.21 104.18 L 195.26 105.30 L 195.10 107.48 L 194.84 108.40 L 193.96 109.59 L 194.03 110.24 L 193.66 111.92 L 192.86 112.44 L 192.47 112.08 L 192.32 111.30 L 191.89 111.76 L 191.88 112.88 L 191.49 113.16 L 190.07 113.31 L 190.21 114.90 L 189.92 115.75 L 190.26 116.88 L 190.09 117.59 L 190.75 118.16 L 191.00 117.82 L 192.25 117.52 L 192.24 117.95 L 191.61 118.71 L 190.77 119.31 L 190.28 120.71 L 190.70 121.65 L 190.67 122.43 L 190.15 123.26 L 189.83 123.17 L 189.84 124.60 L 189.37 125.51 L 190.21 125.40 L 191.26 125.76 L 190.96 126.30 L 190.90 127.72 L 190.43 128.77 L 190.76 128.68 L 190.56 129.76 L 189.91 131.09 L 189.46 130.89 L 189.10 131.97 L 188.83 131.37 L 188.96 130.70 L 189.41 130.15 L 188.91 129.97 L 188.81 127.74 L 188.29 127.63 L 187.93 129.05 L 187.89 130.48 L 187.51 132.27 L 187.13 133.28 L 187.63 133.76 L 187.19 134.96 L 187.37 136.43 L 187.27 138.26 L 186.67 140.42 L 185.43 141.75 L 185.08 142.37 L 184.22 143.11 L 183.16 143.70 L 182.49 144.70 L 181.90 145.08 L 181.16 145.94 L 180.04 147.59 L 179.59 148.90 L 180.22 149.52 L 179.88 150.23 L 179.05 152.78 L 178.13 154.36 L 177.61 155.67 L 176.74 159.16 L 177.68 160.08 L 178.34 159.78 L 178.12 159.19 L 179.21 158.54 L 179.16 157.49 L 179.50 155.86 L 180.57 154.29 L 180.81 153.05 L 181.31 152.18 L 181.21 151.84 L 181.87 150.51 L 181.81 149.86 L 182.62 149.75 L 182.56 149.15 L 183.12 148.87 L 183.32 147.87 L 184.03 146.95 L 184.60 146.76 L 184.86 145.96 L 185.82 145.20 L 187.70 143.20 L 188.58 141.94 L 189.96 143.11 L 190.50 143.11 L 191.33 143.75 L 191.68 143.31 L 191.40 142.05 L 191.88 140.74 L 191.75 139.59 L 191.33 137.85 L 191.39 137.41 L 192.20 136.24 L 192.44 134.24 L 193.25 133.44 L 193.37 132.47 L 194.07 131.32 L 194.25 129.16 L 194.66 127.30 L 194.98 125.08 L 195.51 123.74 L 195.44 122.59 L 195.98 121.17 L 196.32 119.77 L 196.38 118.65 L 196.73 117.63 L 196.78 114.92 L 197.20 112.86 L 197.14 112.03 L 198.04 111.18 L 198.76 111.30 L 199.31 112.05 L 200.88 113.45 L 201.54 113.78 L 202.24 114.56 L 202.59 115.34 L 202.72 116.44 L 202.76 118.39 L 203.47 118.46 L 204.11 117.63 L 205.12 118.53 L 205.76 120.67 L 206.39 122.05 L 206.94 122.55 L 209.30 123.28 L 210.88 122.80 L 211.59 123.10 L 213.14 125.26 L 214.24 125.99 L 214.44 125.28 L 213.47 124.00 L 212.30 121.56 L 211.39 121.52 L 210.20 121.15 L 209.17 121.63 L 208.77 120.96 L 207.97 120.34 L 207.10 119.24 L 205.75 116.79 L 205.19 115.39 L 204.78 112.99 L 204.39 112.15 L 202.45 109.20 L 201.43 108.61 L 200.65 107.80 L 199.75 104.41 L 199.67 103.48 L 200.11 102.08 L 200.15 100.70 L 200.65 99.31 L 200.99 98.94 L 201.70 97.17 L 202.50 93.61 L 202.34 90.21 L 201.89 89.04 L 200.79 88.05 L 200.99 87.08 L 200.78 86.63 L 200.01 86.33 L 199.67 85.50 L 200.65 85.15 L 201.17 84.69 L 202.00 85.32 L 203.11 84.85 L 203.71 83.76 L 204.38 83.57 L 205.33 82.76 L 207.52 81.23 L 208.12 81.09 L 209.33 81.23 L 210.03 80.70 L 210.31 79.60 L 210.87 79.18 L 212.16 77.39 L 212.88 75.78 L 212.78 74.50 L 213.12 73.78 L 213.21 72.91 L 212.58 71.62 L 212.03 71.30 L 211.56 70.23 L 211.56 69.47 L 212.36 67.12 L 213.45 66.02 L 214.52 65.75 L 215.03 65.40 L 215.66 64.35 L 215.78 62.78 L 216.48 61.88 L 218.64 60.64 L 219.56 60.69 L 220.20 60.33 L 220.44 59.64 L 220.87 59.79 L 221.28 58.56 L 221.84 58.14 L 222.08 57.27 L 223.12 56.10 L 224.07 55.68 L 224.61 55.75 L 225.09 56.35 L 224.69 57.43 L 224.66 58.40 L 223.79 59.11 L 223.47 59.06 L 223.07 59.82 L 222.75 59.82 L 221.77 60.97 L 221.42 61.84 L 220.46 61.96 L 220.20 62.55 L 220.46 63.10 L 220.16 63.84 L 219.54 64.34 L 219.15 65.12 L 218.97 66.13 L 218.50 67.08 L 218.27 68.11 L 217.36 69.95 L 216.42 70.93 L 215.43 71.53 L 215.92 72.48 L 216.88 72.09 L 217.67 72.20 L 218.61 71.85 L 219.24 72.04 L 219.06 72.94 L 219.90 73.90 L 219.66 74.24 L 218.65 74.11 L 218.01 74.57 L 217.76 75.21 L 217.76 76.56 L 218.17 76.82 L 218.46 77.62 L 218.67 79.73 L 219.18 80.84 L 219.57 80.58 L 220.28 81.82 L 220.37 83.14 L 220.95 83.68 L 221.70 83.09 L 221.84 82.33 L 222.35 83.45 L 222.53 81.39 L 222.17 81.02 L 222.78 80.59 L 222.89 81.11 L 223.39 81.32 L 223.79 80.91 L 222.58 79.39 L 222.22 79.20 L 221.49 78.10 L 221.30 77.21 L 221.56 76.33 L 222.39 75.69 L 222.77 75.05 L 223.42 75.14 L 224.01 74.52 L 224.25 72.91 L 224.01 71.78 L 223.40 71.56 L 222.93 70.77 L 223.03 70.22 L 223.68 69.35 L 223.35 68.62 L 223.93 68.27 L 223.98 68.94 L 224.82 67.79 L 225.33 67.60 L 225.68 68.14 L 226.80 68.32 L 226.96 67.95 L 228.22 67.70 L 229.73 68.46 L 229.57 69.30 L 229.76 70.41 L 229.15 71.63 L 227.82 73.46 L 228.15 74.38 L 227.75 75.21 L 227.02 75.90 L 227.20 77.37 L 227.02 78.35 L 227.20 79.46 L 227.54 79.05 L 227.72 77.64 L 228.00 76.89 L 228.91 76.33 L 229.21 75.07 L 229.85 74.72 L 230.26 74.08 L 231.00 72.38 L 231.06 71.62 L 229.92 68.30 L 229.60 67.12 L 229.41 65.29 L 230.34 64.57 L 231.26 64.99 L 232.87 64.90 L 233.38 64.73 L 234.19 65.03 L 234.61 64.89 L 234.98 64.04 L 234.86 62.88 L 234.03 62.42 L 232.16 62.05 L 231.23 61.54 L 229.51 59.91 L 229.31 59.15 L 229.94 58.05 L 229.75 57.06 L 230.08 55.55 L 230.42 55.25 L 230.34 53.22 L 231.26 49.74 L 231.28 48.98 L 231.61 48.43 L 232.47 48.42 L 233.61 48.08 L 234.34 47.11 L 235.41 46.61 L 236.08 47.23 L 236.16 46.79 L 236.90 46.56 L 237.21 46.96 L 238.15 47.02 L 238.53 47.69 L 239.59 47.64 L 239.97 48.77 L 239.84 49.62 L 240.91 49.92 L 242.24 51.44 L 243.20 52.70 L 243.32 53.99 L 243.02 53.99 L 242.40 53.18 L 242.46 53.64 L 243.45 56.39 L 244.84 57.04 L 244.80 57.57 L 245.27 58.53 L 244.75 59.24 L 244.73 60.81 L 245.16 62.41 L 246.18 63.79 L 247.20 63.93 L 247.94 64.92 L 248.53 65.26 L 249.96 66.71 L 251.75 67.60 L 252.88 67.79 L 254.86 70.82 L 254.75 71.31 L 255.41 72.70 L 256.18 73.32 L 257.76 73.44 L 257.62 73.90 L 256.87 74.31 L 257.28 74.73 L 257.39 76.29 L 258.00 77.71 L 258.66 78.82 L 259.67 82.21 L 259.64 82.95 L 261.20 84.63 L 262.10 84.90 L 262.73 84.26 L 263.76 84.14 L 263.02 84.49 L 262.90 85.36 L 263.21 85.18 L 263.30 86.07 L 263.83 86.74 L 264.90 87.59 L 264.34 87.68 L 263.93 88.49 L 264.92 88.94 L 262.86 89.54 L 261.94 89.43 L 261.05 88.58 L 260.93 89.22 L 262.07 90.39 L 263.20 90.94 L 264.39 90.48 L 265.12 91.31 L 265.06 90.55 L 265.44 89.61 L 266.54 89.04 L 267.89 89.50 L 267.66 89.17 L 268.36 88.44 L 268.26 87.57 L 267.94 87.45 L 264.65 84.77 L 263.89 84.70 L 264.65 84.30 L 265.53 84.56 L 266.33 83.39 L 265.75 82.91 L 264.19 80.59 L 263.83 79.90 L 262.62 78.38 L 261.64 76.66 L 261.06 76.11 L 261.17 77.34 L 260.78 77.81 L 260.19 77.55 L 259.43 76.08 L 258.67 75.42 L 258.08 74.57 L 258.05 73.85 L 258.41 73.09 L 258.32 72.40 L 259.26 73.32 L 259.76 73.32 L 260.14 73.85 L 261.62 73.97 L 262.36 73.46 L 263.11 73.62 L 263.74 72.64 L 263.60 71.86 L 262.75 70.48 L 261.78 69.76 L 260.78 69.46 L 260.22 69.53 L 258.88 68.71 L 258.54 67.38 L 258.02 66.64 L 258.16 65.98 L 257.96 65.17 L 258.18 64.09 L 257.43 63.27 L 257.71 62.80 L 257.48 62.34 L 257.57 61.27 L 257.02 59.52 L 257.37 57.86 L 258.20 57.89 L 258.21 57.18 L 259.12 57.68 L 259.45 57.02 L 259.20 56.19 L 258.25 55.73 L 257.51 54.22 L 257.32 53.11 L 257.80 52.12 L 261.13 50.81 L 262.29 50.98 L 262.66 51.36 L 263.09 52.45 L 263.20 54.84 L 262.78 56.65 L 262.77 57.47 L 261.66 57.71 L 262.00 58.24 L 263.21 58.94 L 263.64 58.94 L 264.06 59.64 L 264.65 58.40 L 264.13 57.15 L 263.94 56.21 L 264.20 54.69 L 264.13 53.30 L 264.39 52.13 L 264.34 51.11 L 263.71 49.37 L 262.92 47.81 L 263.63 47.16 L 265.09 46.79 L 266.32 45.37 L 265.71 44.98 L 265.12 45.39 L 264.20 45.39 L 262.78 45.95 L 262.27 46.34 L 261.69 46.33 L 261.20 47.18 L 260.18 47.26 L 258.84 48.03 L 257.79 47.94 L 256.86 48.11 L 255.97 47.57 L 254.76 45.95 L 254.14 45.55 L 253.47 44.43 L 253.68 43.92 L 254.68 43.12 L 255.15 43.07 L 256.44 41.63 L 256.96 40.57 L 257.86 40.69 L 258.40 40.50 L 259.45 40.59 L 261.39 39.84 L 261.57 39.35 L 262.18 39.14 L 262.74 38.53 L 262.78 37.35 L 263.52 36.18 L 263.81 35.38 L 264.73 34.76 L 265.07 34.25 L 265.62 31.18 L 265.49 30.51 L 265.06 30.48 L 264.64 31.45 L 264.48 32.71 L 264.04 33.88 L 262.91 34.85 L 262.65 33.72 L 262.29 33.88 L 262.24 35.33 L 261.36 36.37 L 260.91 37.67 L 260.38 38.18 L 259.42 38.00 L 258.21 38.13 L 256.19 38.83 L 255.63 38.53 L 255.18 37.84 L 255.23 36.64 L 254.68 36.50 L 254.49 37.05 L 254.48 38.37 L 255.25 39.61 L 254.79 40.15 L 253.09 40.78 L 252.62 41.38 L 251.49 41.95 L 250.73 41.33 L 249.91 40.04 L 249.47 40.27 L 248.62 39.65 L 247.24 38.21 L 246.18 37.45 L 245.83 36.46 L 246.35 34.64 L 245.71 33.17 L 245.40 33.03 L 245.05 34.80 L 244.52 36.05 L 243.53 36.28 L 243.29 35.88 L 241.22 35.52 L 240.41 34.78 L 240.15 34.02 L 240.04 32.21 L 239.03 29.36 L 238.36 27.84 L 238.81 27.48 L 240.04 27.11 L 240.74 26.14 L 241.51 24.68 L 240.89 23.55 L 239.79 24.29 L 239.31 24.84 L 238.82 24.91 L 237.09 26.01 L 235.10 26.21 L 233.06 25.04 L 232.01 23.11 L 232.42 22.67 L 232.05 21.96 L 232.17 21.28 L 231.48 20.52 L 230.97 20.31 L 231.06 19.46 L 230.51 18.20 L 229.97 18.93 L 229.93 19.42 L 229.46 19.42 L 229.63 17.88 L 229.41 16.91 L 229.57 16.50 L 229.57 16.50 L 230.30 16.36 L 232.27 16.86 L 233.77 17.87 L 234.22 18.49 L 235.25 19.27 L 236.04 19.41 L 236.48 19.99 L 238.19 20.70 L 238.94 20.74 L 238.79 21.94 L 239.74 22.33 L 240.68 21.16 L 241.56 21.04 L 241.87 22.01 L 242.52 22.40 L 243.29 22.24 L 243.82 20.81 L 245.01 20.40 L 247.45 21.27 L 247.03 22.47 L 246.64 22.97 L 247.15 23.59 L 247.44 24.77 L 247.83 24.74 L 248.69 25.66 L 248.80 26.61 L 249.78 26.99 L 249.56 27.46 L 250.39 28.37 L 251.23 28.62 L 250.87 29.98 L 250.90 30.56 L 251.38 31.40 L 253.11 31.68 L 254.00 32.07 L 255.00 33.22 L 255.11 33.91 L 255.64 34.60 L 257.59 33.03 L 257.30 30.23 L 259.07 28.39 L 259.09 25.96 L 261.19 27.31 L 262.07 26.65 L 262.88 25.25 L 264.42 24.88 L 265.96 23.96 L 267.50 24.14 L 267.90 28.88 L 267.71 29.93 L 266.95 30.72 L 267.50 31.80 L 269.58 40.07 L 270.87 39.97 L 271.31 40.94 L 271.49 43.95 L 271.05 45.14 L 270.26 45.90 L 270.27 48.24 L 270.86 48.79 L 271.84 51.09 L 272.15 52.51 L 272.74 53.36 L 272.56 55.64 L 273.72 57.15 L 274.15 57.94 L 276.52 59.40 L 279.09 61.13 L 280.55 60.80 L 282.95 61.98 L 284.15 64.64 L 280.96 68.82 L 282.14 70.36 L 283.20 70.32 L 284.36 70.69 L 284.97 72.93 L 284.44 73.26 L 283.56 75.23 L 282.58 76.96 L 281.07 81.23 L 283.15 82.93 L 284.55 84.42 L 285.32 87.68 L 284.65 90.94 L 286.00 95.44 L 293.49 103.09 L 295.46 101.23 L 296.74 99.81 L 298.16 101.33 L 299.18 102.79 L 297.23 106.68 L 294.39 108.90 L 294.13 112.90 L 293.03 115.87 L 293.00 117.45 L 291.36 118.62 L 292.14 123.68 L 290.21 122.57 L 288.44 122.09 L 283.50 122.94 L 278.18 126.98 L 274.04 127.61 L 273.79 129.40 L 274.96 132.06 L 274.37 135.60 L 275.92 140.58 L 276.02 144.81 L 277.57 145.59 L 278.95 150.80 L 280.35 153.91 L 281.18 156.87 L 282.34 160.04 L 283.01 160.32 L 283.42 160.86 L 284.27 164.31 L 284.03 166.35 L 284.41 169.66 L 283.73 173.43 L 284.22 175.17 L 284.24 175.86 L 282.83 178.62 L 283.09 181.19 L 282.19 183.61 L 279.70 184.68 L 277.02 186.61 L 275.66 188.16 L 271.47 188.32 L 262.58 189.16 L 261.95 189.17 L 261.95 189.17 L 256.35 178.46 L 251.32 167.89 L 247.40 158.55 L 239.82 155.84 L 233.16 153.24 L 225.69 160.91 L 221.90 166.70 L 221.25 171.29 L 223.67 179.17 L 224.03 181.79 L 226.20 184.52 L 224.11 194.68 L 216.91 188.29 L 210.21 182.13 L 203.47 191.10 L 193.28 192.22 L 183.35 193.27 L 185.33 196.84 L 190.62 206.74 L 193.43 211.24 L 194.05 221.85 L 194.62 229.87 L 192.09 239.20 L 189.19 250.38 L 183.04 261.64 L 178.35 266.62 L 181.96 270.69 L 190.16 276.71 L 185.42 283.78 L 180.00 292.16 L 177.69 296.99 L 168.95 291.29 L 158.40 284.61 L 151.02 280.01 L 139.37 272.78 L 129.42 273.76 L 127.16 274.06 L 124.55 274.29 L 121.75 270.39 L 119.02 266.83 L 115.75 263.02 L 111.43 265.63 L 104.32 269.84 L 104.32 269.84 L 101.41 262.44 L 100.12 259.02 L 99.77 259.18 L 97.52 259.18 L 88.78 260.67 L 80.69 260.74 L 72.11 265.95 L 66.30 266.69 L 63.96 266.12 L 52.87 264.39 L 50.26 268.60 L 50.02 268.50 L 49.67 269.56 L 48.75 269.95 L 48.36 270.99 L 47.94 271.31 L 47.94 272.04 L 46.64 273.70 L 44.76 274.80 L 43.14 275.49 L 41.05 275.03 L 40.64 275.09 L 40.07 276.79 L 40.02 278.96 L 40.36 280.17 L 40.04 281.39 L 40.61 282.12 L 40.24 283.25 Z M 36.57 196.47 L 37.08 196.05 L 37.62 196.13 L 37.04 196.63 L 36.57 196.47 Z M 36.73 193.42 L 36.88 192.84 L 38.00 192.27 L 38.40 192.72 L 37.49 194.40 L 36.96 194.29 L 37.23 193.76 L 36.73 193.42 Z M 36.85 268.51 L 37.67 268.23 L 37.15 268.75 L 36.85 268.51 Z M 37.49 188.34 L 38.17 187.53 L 37.73 188.52 L 37.49 188.34 Z M 37.69 196.51 L 38.24 196.10 L 38.42 194.75 L 39.04 194.97 L 40.19 194.97 L 40.37 195.28 L 40.17 196.83 L 39.92 196.91 L 37.69 196.51 Z M 37.72 189.48 L 37.93 188.73 L 38.50 188.09 L 38.38 188.78 L 38.89 189.39 L 37.72 189.48 Z M 38.34 191.87 L 38.78 191.09 L 38.86 190.25 L 39.11 191.18 L 39.95 190.93 L 39.50 191.72 L 39.48 192.56 L 38.34 191.87 Z M 40.04 221.02 L 41.03 220.91 L 40.77 221.73 L 40.27 221.94 L 40.04 221.02 Z M 42.23 234.12 L 42.47 233.15 L 42.69 234.23 L 42.44 234.78 L 42.23 234.12 Z M 42.53 176.03 L 42.85 175.57 L 43.07 175.96 L 42.53 176.03 Z M 42.65 226.44 L 42.80 225.75 L 43.18 225.90 L 42.65 226.44 Z M 43.24 240.85 L 44.12 239.33 L 44.76 240.80 L 44.42 241.91 L 43.99 242.30 L 43.65 241.52 L 43.40 241.68 L 43.24 240.85 Z M 43.95 206.44 L 44.36 206.48 L 45.14 205.86 L 45.47 204.49 L 46.01 204.26 L 46.93 204.46 L 46.64 205.06 L 46.86 205.54 L 47.61 205.25 L 47.62 206.18 L 48.55 206.28 L 48.58 206.67 L 47.71 207.33 L 46.07 209.84 L 44.98 210.85 L 44.66 210.37 L 44.92 208.73 L 44.24 208.76 L 44.06 208.41 L 44.36 207.47 L 44.05 207.33 L 43.95 206.44 Z M 45.07 221.00 L 45.14 219.79 L 45.38 219.03 L 47.23 218.71 L 47.31 219.21 L 46.84 219.81 L 45.67 220.77 L 45.35 221.28 L 45.07 221.00 Z M 45.09 217.42 L 45.27 215.74 L 45.92 215.31 L 46.82 215.35 L 46.61 216.57 L 45.81 217.86 L 45.34 217.95 L 45.09 217.42 Z M 45.86 218.34 L 46.78 217.53 L 46.34 218.71 L 45.86 218.34 Z M 49.26 160.11 L 49.72 159.33 L 50.18 160.11 L 49.77 160.73 L 49.26 160.11 Z M 49.38 191.49 L 50.31 191.14 L 50.40 190.43 L 50.86 190.01 L 50.41 189.72 L 49.54 189.83 L 49.48 188.27 L 49.72 186.43 L 49.40 185.65 L 49.61 184.71 L 50.24 183.51 L 50.72 181.72 L 51.28 181.56 L 52.57 182.25 L 53.15 183.06 L 54.60 184.18 L 54.89 184.07 L 54.92 182.60 L 54.42 181.63 L 54.25 180.46 L 55.15 179.63 L 56.12 179.26 L 57.45 179.54 L 57.38 178.69 L 58.16 177.57 L 58.81 178.87 L 59.37 179.50 L 60.63 179.29 L 60.92 178.69 L 61.77 178.85 L 61.83 178.00 L 61.43 177.49 L 60.65 177.10 L 60.85 176.05 L 61.40 175.01 L 60.85 174.53 L 62.10 174.60 L 63.40 173.68 L 63.35 173.02 L 64.05 173.08 L 65.40 172.19 L 65.65 171.69 L 66.71 171.06 L 66.95 170.63 L 66.53 170.08 L 65.93 170.63 L 64.54 171.31 L 63.52 172.14 L 61.91 172.92 L 61.42 172.92 L 59.91 171.45 L 57.71 171.46 L 56.55 170.37 L 55.26 169.96 L 54.59 169.99 L 53.99 170.40 L 53.68 169.96 L 54.15 168.90 L 55.20 169.43 L 55.69 169.18 L 55.92 168.49 L 54.69 167.16 L 53.34 166.40 L 54.16 164.96 L 54.61 164.65 L 56.07 164.54 L 58.26 163.99 L 58.27 163.44 L 59.29 164.06 L 60.18 164.96 L 62.02 166.06 L 63.19 166.05 L 63.62 165.58 L 63.58 164.50 L 63.77 163.35 L 64.36 163.09 L 64.55 162.52 L 64.08 162.33 L 63.03 163.64 L 62.82 163.60 L 62.45 162.13 L 62.50 160.94 L 63.30 159.05 L 64.33 158.39 L 65.14 157.31 L 65.85 156.94 L 65.39 156.78 L 63.96 157.44 L 63.59 157.30 L 62.17 158.38 L 61.64 160.06 L 61.16 160.75 L 60.40 160.94 L 59.89 160.09 L 58.86 159.37 L 58.75 158.96 L 59.42 158.50 L 59.98 158.77 L 61.16 158.57 L 61.11 157.95 L 60.05 158.00 L 58.95 157.23 L 58.05 157.58 L 56.97 158.62 L 56.41 158.48 L 56.24 157.35 L 56.53 156.69 L 57.40 156.11 L 57.89 155.42 L 59.20 154.52 L 58.98 153.95 L 57.93 154.16 L 56.95 155.01 L 55.71 155.45 L 55.06 155.35 L 54.83 154.52 L 54.16 153.33 L 54.54 152.37 L 55.33 152.05 L 56.76 152.21 L 57.17 151.56 L 58.18 150.62 L 59.32 150.60 L 59.85 150.32 L 61.25 151.33 L 61.48 151.22 L 62.49 153.08 L 63.85 154.11 L 64.52 153.63 L 63.37 153.36 L 63.18 152.90 L 62.25 151.91 L 62.45 150.67 L 63.59 149.79 L 63.74 149.17 L 64.60 149.34 L 64.19 148.62 L 63.42 148.42 L 62.84 149.27 L 61.91 149.65 L 60.72 149.20 L 59.21 146.65 L 59.50 145.61 L 60.05 145.41 L 65.61 147.50 L 65.68 146.83 L 62.26 145.64 L 61.17 144.90 L 59.88 144.33 L 59.22 144.39 L 58.27 145.02 L 57.71 145.98 L 55.54 145.34 L 53.59 145.43 L 52.92 144.16 L 52.99 143.31 L 53.38 143.75 L 53.93 143.71 L 54.59 144.21 L 55.09 143.59 L 55.57 142.40 L 55.04 141.91 L 55.03 141.38 L 55.94 141.04 L 55.71 139.87 L 55.88 139.21 L 56.73 139.43 L 57.78 141.06 L 58.96 140.70 L 59.23 139.92 L 60.54 139.59 L 60.91 139.73 L 61.13 141.18 L 61.49 141.84 L 62.31 142.61 L 62.71 142.58 L 62.65 141.69 L 63.53 140.79 L 63.68 139.09 L 64.36 138.31 L 64.09 137.82 L 65.11 137.94 L 65.51 137.67 L 65.91 138.42 L 66.65 138.19 L 66.84 137.44 L 67.64 138.05 L 67.82 137.57 L 68.41 138.13 L 69.28 138.10 L 69.47 139.04 L 70.80 140.05 L 71.64 141.18 L 71.96 142.07 L 73.02 143.43 L 74.46 145.77 L 74.95 145.24 L 74.61 144.49 L 74.93 143.50 L 75.13 142.23 L 74.33 141.43 L 73.01 141.23 L 72.33 140.91 L 70.91 139.78 L 70.45 139.60 L 70.01 138.67 L 70.92 139.60 L 71.46 139.06 L 72.05 139.78 L 72.38 139.69 L 71.88 138.63 L 71.53 138.54 L 70.32 136.93 L 71.03 135.97 L 72.18 137.92 L 72.78 137.44 L 74.15 137.20 L 74.52 136.89 L 75.38 137.04 L 75.49 136.10 L 77.06 135.76 L 78.53 136.45 L 78.63 135.99 L 78.29 135.16 L 77.40 134.22 L 76.67 133.72 L 75.71 133.72 L 74.25 134.80 L 73.03 134.43 L 72.38 133.85 L 71.12 133.67 L 70.32 133.07 L 69.55 132.89 L 69.16 132.04 L 68.81 132.02 L 68.26 131.19 L 68.12 130.50 L 67.40 130.08 L 67.79 129.24 L 67.29 128.34 L 66.89 128.11 L 66.86 126.23 L 66.41 125.44 L 66.46 124.96 L 67.25 124.18 L 68.50 125.44 L 69.00 126.43 L 69.48 126.69 L 70.25 127.77 L 70.32 128.64 L 70.88 130.24 L 71.49 130.80 L 71.97 131.69 L 72.61 131.30 L 72.60 130.77 L 71.88 129.26 L 71.70 128.48 L 71.87 126.55 L 72.14 126.48 L 73.24 127.26 L 73.87 128.00 L 74.31 128.15 L 74.81 127.21 L 74.38 126.06 L 73.35 124.71 L 72.54 123.40 L 72.37 122.43 L 71.55 120.88 L 70.90 120.02 L 70.77 119.11 L 71.00 118.71 L 71.70 119.27 L 72.44 119.15 L 73.37 120.35 L 73.80 120.48 L 74.02 119.65 L 75.05 121.31 L 75.47 121.65 L 75.85 121.01 L 76.30 121.63 L 76.27 122.37 L 76.92 122.66 L 77.87 122.44 L 78.38 123.75 L 78.32 124.80 L 78.49 125.51 L 77.92 125.97 L 78.25 127.12 L 78.78 125.93 L 78.77 125.24 L 79.62 124.91 L 80.97 126.55 L 80.95 128.18 L 80.76 128.75 L 81.32 129.23 L 81.90 130.55 L 82.74 131.26 L 82.93 130.75 L 84.26 130.52 L 85.15 129.79 L 85.69 130.01 L 86.20 129.62 L 85.71 129.12 L 84.89 128.78 L 83.12 126.16 L 82.28 123.54 L 81.70 122.69 L 81.11 121.31 L 79.83 119.82 L 78.65 118.80 L 78.82 118.00 L 78.12 116.62 L 77.86 115.34 L 77.32 114.17 L 77.33 113.66 L 78.15 112.72 L 78.25 110.95 L 77.91 110.26 L 78.38 109.67 L 79.10 110.08 L 79.33 111.23 L 80.10 112.31 L 80.95 114.16 L 81.66 114.46 L 82.20 115.09 L 82.49 116.53 L 82.92 116.95 L 82.95 118.51 L 83.37 119.93 L 83.72 120.16 L 84.11 121.08 L 83.98 123.36 L 84.13 124.09 L 84.89 125.17 L 85.17 126.73 L 86.03 127.67 L 86.17 126.71 L 85.56 125.45 L 85.17 122.53 L 86.04 123.10 L 87.09 123.36 L 87.51 122.78 L 87.28 122.11 L 86.55 121.73 L 86.00 120.81 L 86.08 119.73 L 85.71 118.16 L 85.34 118.81 L 84.93 117.77 L 85.70 118.10 L 85.35 114.90 L 85.37 114.24 L 84.72 112.15 L 83.90 110.42 L 84.18 110.22 L 84.77 111.09 L 85.58 111.29 L 86.43 110.19 L 86.83 111.53 L 87.42 112.40 L 87.39 113.52 L 87.73 114.30 L 88.22 116.10 L 88.60 116.28 L 89.23 117.84 L 89.27 118.74 L 89.90 119.10 L 90.21 120.02 L 90.59 120.11 L 90.89 118.33 L 90.60 116.49 L 91.02 116.09 L 91.78 113.91 L 92.49 114.14 L 92.90 115.04 L 93.53 115.13 L 93.14 113.96 L 93.18 112.61 L 94.27 112.93 L 94.88 114.58 L 94.83 115.68 L 95.54 116.32 L 95.47 116.97 L 95.85 117.24 L 95.99 118.02 L 95.50 119.63 L 95.75 120.51 L 95.88 122.18 L 95.12 123.49 L 95.29 124.20 L 94.78 124.64 L 93.84 124.94 L 93.29 125.72 L 92.84 127.15 L 93.38 129.72 L 92.67 130.75 L 92.73 131.28 L 92.07 130.89 L 91.61 131.28 L 92.35 131.83 L 93.01 133.00 L 93.46 132.64 L 94.16 133.09 L 94.55 132.10 L 94.59 131.05 L 94.92 130.16 L 94.46 127.40 L 94.97 127.12 L 95.27 126.41 L 95.20 125.58 L 95.60 125.05 L 95.97 125.15 L 96.43 124.59 L 96.89 122.34 L 97.54 122.53 L 97.67 121.70 L 98.58 122.30 L 98.94 123.01 L 99.32 123.10 L 100.51 125.22 L 101.00 125.86 L 101.94 126.55 L 101.40 127.69 L 100.52 128.94 L 99.98 128.71 L 99.53 128.96 L 99.94 130.61 L 99.36 130.04 L 99.35 131.74 L 98.83 133.74 L 97.87 134.04 L 97.70 135.39 L 96.96 136.75 L 97.53 138.38 L 97.92 139.06 L 99.12 139.34 L 99.35 139.07 L 98.99 138.54 L 98.88 137.43 L 99.04 136.42 L 99.39 135.92 L 99.67 134.38 L 100.08 133.41 L 100.79 133.12 L 101.11 133.48 L 100.95 134.20 L 102.03 134.56 L 102.45 135.99 L 101.78 137.99 L 101.75 138.63 L 100.99 139.18 L 101.82 140.63 L 100.83 139.89 L 100.86 141.11 L 101.45 140.60 L 101.75 141.22 L 101.69 141.92 L 101.25 142.46 L 101.70 143.15 L 101.35 144.08 L 101.74 145.57 L 102.54 145.09 L 103.00 145.79 L 102.35 146.76 L 102.58 147.22 L 100.79 147.17 L 100.25 147.91 L 99.38 147.80 L 98.30 148.57 L 98.11 148.30 L 97.29 149.15 L 96.40 149.10 L 96.06 150.66 L 95.44 151.49 L 95.96 152.71 L 95.10 152.36 L 95.03 151.97 L 94.09 152.36 L 94.12 153.12 L 94.66 153.67 L 94.89 154.89 L 95.19 154.37 L 95.56 154.53 L 96.03 156.41 L 95.62 157.58 L 95.55 157.10 L 95.08 157.54 L 94.68 159.01 L 95.04 159.46 L 95.97 158.59 L 96.97 159.16 L 97.07 159.76 L 96.70 160.98 L 96.87 161.41 L 97.66 161.44 L 97.75 162.33 L 97.44 163.58 L 96.38 164.81 L 94.05 165.12 L 94.04 164.24 L 93.63 164.56 L 93.69 165.39 L 93.31 165.46 L 93.73 166.58 L 94.86 167.82 L 96.05 167.69 L 95.88 169.09 L 96.45 169.71 L 96.48 170.92 L 97.02 170.33 L 97.17 171.00 L 97.63 170.22 L 98.41 170.07 L 98.60 170.53 L 99.41 170.63 L 99.46 171.45 L 98.62 172.47 L 97.45 173.57 L 96.31 174.09 L 95.99 173.93 L 95.31 174.49 L 94.01 175.13 L 92.47 176.28 L 91.81 176.37 L 91.09 175.68 L 90.06 175.61 L 88.15 174.67 L 87.50 174.88 L 86.58 175.95 L 85.88 176.23 L 85.06 177.26 L 83.59 178.02 L 83.13 177.77 L 83.33 176.37 L 82.75 175.89 L 82.54 176.35 L 81.98 176.00 L 81.57 176.30 L 80.63 176.35 L 80.28 176.09 L 79.54 176.55 L 79.14 177.33 L 78.89 177.13 L 78.41 178.00 L 77.83 177.65 L 78.40 176.02 L 79.35 175.25 L 79.27 175.84 L 79.89 176.10 L 79.96 175.08 L 79.70 174.67 L 80.06 173.22 L 79.10 173.71 L 78.38 173.66 L 78.36 173.09 L 79.43 171.91 L 80.51 171.07 L 80.11 170.33 L 80.14 169.76 L 79.28 169.76 L 78.43 169.48 L 78.40 169.06 L 77.07 170.03 L 76.73 171.06 L 76.25 171.84 L 76.29 173.01 L 75.15 174.24 L 75.29 175.17 L 74.63 175.61 L 74.91 176.03 L 74.25 177.33 L 72.84 179.22 L 71.84 179.06 L 71.33 179.84 L 71.80 180.69 L 71.46 181.44 L 70.41 182.60 L 69.47 183.19 L 69.39 184.13 L 68.63 185.53 L 67.15 187.00 L 65.71 187.31 L 65.52 187.72 L 66.04 188.32 L 66.69 188.48 L 66.14 190.10 L 65.53 190.89 L 65.19 192.50 L 66.16 194.33 L 66.13 192.56 L 66.42 192.04 L 67.23 192.20 L 67.13 193.35 L 67.48 193.65 L 67.73 195.00 L 67.48 196.68 L 66.94 197.07 L 66.16 196.54 L 65.81 197.21 L 65.21 197.25 L 64.43 198.12 L 64.06 197.82 L 63.71 198.28 L 61.92 199.07 L 61.33 198.90 L 60.44 199.15 L 60.01 198.93 L 59.87 198.08 L 60.60 196.12 L 60.13 194.75 L 59.53 194.81 L 59.84 194.06 L 60.50 193.89 L 60.84 194.29 L 61.70 194.31 L 62.77 193.81 L 62.92 193.30 L 62.40 193.25 L 62.43 192.08 L 62.03 192.38 L 61.53 192.01 L 60.96 193.32 L 60.29 193.83 L 60.01 192.31 L 60.67 192.11 L 60.55 191.58 L 61.36 191.81 L 61.77 191.53 L 62.63 190.06 L 63.07 190.33 L 63.69 190.08 L 63.85 189.26 L 64.70 188.52 L 65.07 187.53 L 63.97 187.62 L 62.27 188.55 L 60.55 189.14 L 60.79 188.43 L 60.27 188.63 L 60.23 189.23 L 59.16 189.97 L 58.86 189.79 L 59.21 188.96 L 58.32 188.36 L 56.83 188.77 L 55.94 190.31 L 56.10 190.48 L 55.36 191.18 L 54.82 190.87 L 54.16 191.78 L 53.26 192.01 L 52.45 191.85 L 51.41 192.22 L 50.70 192.24 L 49.38 191.49 Z M 49.54 156.43 L 49.86 155.95 L 49.93 156.75 L 49.54 156.43 Z M 51.12 240.99 L 51.80 240.06 L 52.01 238.34 L 52.57 237.06 L 52.59 234.72 L 54.24 233.59 L 54.90 233.93 L 55.10 233.54 L 55.00 232.44 L 55.15 231.27 L 56.08 227.87 L 56.36 227.75 L 56.29 226.63 L 56.85 225.80 L 57.43 223.87 L 57.79 223.74 L 57.97 222.95 L 58.62 222.06 L 58.66 221.39 L 59.28 220.29 L 59.65 220.15 L 60.21 220.89 L 60.07 223.16 L 60.39 223.23 L 60.63 224.01 L 61.48 224.97 L 61.68 225.67 L 61.61 227.14 L 61.81 227.78 L 62.16 227.68 L 62.23 228.70 L 62.82 229.91 L 63.54 230.00 L 64.46 231.75 L 65.48 231.54 L 65.78 233.18 L 65.55 233.63 L 65.82 234.14 L 65.27 235.73 L 64.35 236.44 L 63.84 237.43 L 63.12 237.93 L 62.06 238.12 L 61.10 238.55 L 60.44 238.41 L 59.08 238.48 L 57.82 238.83 L 56.09 240.06 L 54.78 240.48 L 53.93 241.29 L 52.79 241.14 L 51.95 241.33 L 51.12 240.99 Z M 52.68 176.88 L 53.55 176.19 L 54.02 176.28 L 53.55 176.83 L 52.68 176.88 Z M 53.50 196.17 L 54.11 195.21 L 54.83 194.70 L 55.28 194.74 L 55.17 195.36 L 54.14 196.28 L 53.50 196.17 Z M 58.18 148.92 L 58.54 148.32 L 59.39 149.17 L 58.95 149.57 L 58.18 148.92 Z M 62.33 213.88 L 63.07 213.31 L 63.00 211.28 L 64.92 212.13 L 65.98 213.12 L 65.51 213.19 L 65.44 214.36 L 66.15 216.36 L 67.90 219.42 L 69.42 220.98 L 70.26 221.50 L 70.90 221.28 L 70.49 220.56 L 69.84 220.18 L 67.88 217.65 L 66.05 213.10 L 66.46 212.52 L 66.40 211.90 L 67.89 210.57 L 68.77 210.73 L 69.28 211.22 L 70.25 211.12 L 71.45 211.60 L 73.02 211.56 L 73.45 211.79 L 74.16 212.78 L 75.07 215.40 L 75.79 216.71 L 76.72 217.26 L 77.06 217.14 L 77.56 217.72 L 78.09 218.91 L 77.90 219.76 L 77.54 220.10 L 76.85 221.96 L 75.57 223.04 L 74.74 224.24 L 73.73 225.18 L 73.34 226.05 L 72.37 226.93 L 71.70 228.03 L 70.29 229.27 L 69.51 230.24 L 68.78 230.72 L 67.22 230.90 L 66.20 229.59 L 65.86 228.90 L 65.52 226.83 L 65.34 226.45 L 65.82 225.23 L 65.36 223.83 L 65.28 222.86 L 64.76 221.50 L 64.37 220.95 L 64.30 220.24 L 63.80 220.10 L 63.94 219.33 L 63.67 218.73 L 63.46 216.71 L 62.61 215.26 L 62.33 213.88 Z M 62.43 132.33 L 63.54 132.89 L 63.78 133.44 L 62.88 133.58 L 62.43 132.33 Z M 63.43 134.29 L 63.88 133.69 L 64.53 133.80 L 63.43 134.29 Z M 66.69 133.97 L 66.72 133.57 L 67.41 133.71 L 67.93 134.24 L 66.69 133.97 Z M 68.67 190.79 L 68.76 189.95 L 69.07 189.74 L 68.67 190.79 Z M 72.29 200.33 L 72.97 199.16 L 73.15 198.26 L 72.92 197.57 L 72.71 195.27 L 73.65 193.58 L 73.89 191.81 L 74.66 189.07 L 75.22 188.15 L 76.33 187.37 L 78.55 187.00 L 78.83 187.31 L 80.02 186.77 L 80.19 186.45 L 82.12 185.84 L 82.28 186.55 L 81.66 187.17 L 81.10 187.26 L 80.56 188.20 L 80.87 188.80 L 80.88 190.50 L 80.40 191.28 L 79.89 193.39 L 79.11 194.40 L 77.70 194.68 L 77.22 195.50 L 76.48 197.75 L 76.38 198.56 L 74.92 201.27 L 74.30 201.52 L 73.63 202.30 L 72.77 201.61 L 72.29 200.33 Z M 74.87 178.55 L 75.97 177.82 L 76.68 178.32 L 76.31 179.26 L 75.31 179.24 L 74.87 178.55 Z M 77.16 175.84 L 78.08 175.11 L 78.48 174.42 L 78.63 174.99 L 78.11 175.27 L 77.87 175.91 L 77.16 175.84 Z M 85.66 214.62 L 86.28 214.27 L 86.17 215.03 L 85.66 214.62 Z M 88.64 214.68 L 89.39 215.08 L 89.87 216.75 L 89.39 216.43 L 88.78 215.35 L 88.64 214.68 Z M 91.38 110.15 L 92.06 110.21 L 92.26 109.53 L 93.16 110.99 L 93.07 111.23 L 91.94 110.86 L 91.38 110.15 Z M 94.52 106.61 L 95.22 106.66 L 95.14 106.08 L 95.68 106.10 L 96.40 108.01 L 96.03 108.49 L 95.22 107.44 L 94.87 107.55 L 94.52 106.61 Z M 97.20 103.62 L 97.37 103.05 L 97.76 103.55 L 97.97 102.61 L 98.55 103.33 L 98.96 102.89 L 99.43 103.07 L 99.39 103.60 L 98.72 103.81 L 99.09 104.33 L 97.88 104.82 L 97.90 104.50 L 97.20 103.62 Z M 99.21 104.70 L 99.99 104.52 L 100.36 105.34 L 100.70 104.88 L 101.09 105.88 L 100.57 106.08 L 100.02 105.19 L 99.21 104.70 Z M 99.21 149.54 L 99.33 149.13 L 100.34 148.44 L 100.22 149.19 L 99.21 149.54 Z M 99.35 107.44 L 99.47 106.89 L 100.06 106.70 L 99.92 107.30 L 99.35 107.44 Z M 99.42 114.85 L 99.73 113.68 L 99.48 113.11 L 99.94 111.62 L 100.27 111.66 L 99.99 110.90 L 100.77 110.31 L 99.85 110.42 L 99.88 109.00 L 100.19 109.18 L 101.42 109.00 L 101.11 107.69 L 101.53 106.56 L 102.33 106.63 L 102.54 107.57 L 102.88 107.87 L 103.51 106.98 L 104.70 106.19 L 105.56 105.19 L 105.42 104.72 L 107.58 106.82 L 108.16 106.40 L 107.82 105.69 L 108.61 105.71 L 108.66 106.26 L 109.12 106.93 L 109.96 107.21 L 110.17 108.67 L 110.89 109.66 L 110.82 110.74 L 110.47 112.58 L 110.64 112.38 L 111.43 109.99 L 111.76 108.67 L 112.52 108.26 L 113.29 107.55 L 114.49 106.10 L 115.40 105.23 L 115.49 104.24 L 115.10 104.27 L 114.39 105.07 L 113.22 105.83 L 112.15 106.72 L 110.92 106.95 L 110.59 106.24 L 110.03 105.81 L 109.61 104.47 L 108.93 103.00 L 108.90 101.88 L 108.03 100.78 L 107.95 98.71 L 107.55 97.35 L 106.73 95.65 L 106.56 94.60 L 106.77 93.47 L 109.61 95.24 L 110.45 94.83 L 111.89 96.16 L 112.24 96.09 L 113.20 96.85 L 113.68 96.45 L 113.80 95.83 L 114.75 95.26 L 115.60 95.19 L 115.99 94.76 L 116.32 95.06 L 119.05 95.36 L 120.06 95.29 L 121.66 95.74 L 122.75 96.29 L 124.06 96.39 L 124.51 95.47 L 124.27 94.85 L 122.69 94.55 L 121.23 93.45 L 119.90 93.45 L 118.11 93.82 L 117.37 93.17 L 116.31 92.96 L 114.93 93.10 L 114.50 92.87 L 113.14 93.42 L 112.36 92.78 L 112.24 90.26 L 112.41 89.61 L 112.06 88.17 L 111.47 84.53 L 111.52 83.59 L 113.11 81.94 L 114.14 81.30 L 114.18 80.84 L 115.11 80.84 L 115.69 81.78 L 115.39 83.73 L 116.60 83.78 L 117.25 82.90 L 117.91 82.60 L 118.72 83.32 L 118.87 84.46 L 118.59 88.67 L 119.11 89.02 L 119.43 88.53 L 119.46 86.32 L 120.08 85.52 L 120.45 83.71 L 121.24 82.86 L 120.84 81.18 L 120.94 80.90 L 122.25 80.44 L 123.25 79.18 L 124.27 79.46 L 125.22 79.18 L 125.83 80.06 L 125.59 81.09 L 125.42 82.90 L 125.10 83.73 L 125.13 84.56 L 125.61 85.09 L 125.30 86.00 L 124.20 86.03 L 124.77 86.92 L 124.76 87.38 L 125.29 88.23 L 125.45 88.92 L 125.30 90.25 L 125.92 92.39 L 125.64 94.60 L 125.36 95.31 L 125.69 96.71 L 126.00 97.12 L 127.02 96.87 L 127.98 97.15 L 128.44 97.51 L 129.22 97.24 L 129.01 96.75 L 129.76 96.82 L 129.33 96.43 L 128.40 96.41 L 127.81 96.13 L 127.01 95.19 L 126.99 94.02 L 127.94 92.43 L 128.00 90.57 L 127.91 89.54 L 128.09 88.14 L 128.47 86.90 L 128.40 85.98 L 128.72 83.82 L 130.24 83.20 L 130.17 82.60 L 129.07 82.28 L 129.27 81.66 L 130.92 81.94 L 130.57 81.07 L 130.97 79.90 L 128.78 79.57 L 129.07 78.61 L 127.55 77.58 L 126.10 75.32 L 126.31 74.68 L 126.96 74.70 L 126.81 74.02 L 125.86 73.05 L 125.50 71.86 L 125.44 70.39 L 126.98 68.46 L 127.19 67.38 L 127.95 67.67 L 129.01 69.90 L 129.23 70.94 L 129.40 70.36 L 130.01 70.27 L 129.20 68.07 L 129.79 67.72 L 130.21 67.05 L 130.74 67.47 L 131.43 67.45 L 132.23 68.18 L 132.54 68.84 L 132.59 69.86 L 132.86 70.18 L 132.95 71.33 L 132.70 72.13 L 132.08 72.59 L 131.62 72.45 L 131.34 73.09 L 132.03 73.63 L 132.83 73.44 L 133.41 72.38 L 134.42 73.14 L 135.21 74.52 L 135.36 74.10 L 136.14 74.25 L 136.62 75.35 L 136.54 76.04 L 137.10 76.26 L 136.98 75.74 L 137.81 75.09 L 138.53 75.10 L 139.88 77.18 L 140.85 79.66 L 141.12 80.93 L 141.86 82.40 L 142.27 83.84 L 141.97 85.46 L 141.29 86.63 L 141.04 87.94 L 140.08 89.59 L 138.86 90.58 L 137.85 90.35 L 138.07 91.54 L 137.92 92.16 L 138.16 92.74 L 137.72 92.73 L 137.24 94.14 L 136.76 94.66 L 135.58 95.03 L 135.20 96.21 L 134.63 96.32 L 134.37 96.92 L 133.24 97.26 L 131.49 97.51 L 130.23 98.94 L 129.67 98.36 L 129.77 99.58 L 130.16 100.15 L 129.75 100.93 L 129.65 102.17 L 128.98 103.64 L 128.80 105.02 L 128.92 105.41 L 129.45 104.73 L 130.01 105.51 L 130.64 105.42 L 131.10 104.45 L 131.68 104.49 L 132.42 106.19 L 132.24 106.79 L 132.69 109.02 L 133.20 108.49 L 133.42 109.48 L 133.08 110.52 L 132.17 109.73 L 132.16 111.04 L 131.68 112.74 L 130.59 114.95 L 129.14 116.24 L 128.66 116.32 L 128.02 115.75 L 127.26 116.14 L 126.64 115.59 L 125.47 113.91 L 124.83 113.66 L 124.00 114.88 L 123.78 115.66 L 123.03 116.81 L 122.34 117.41 L 120.75 117.71 L 119.81 118.14 L 118.36 118.18 L 116.65 119.04 L 115.34 120.14 L 114.13 120.58 L 112.72 120.34 L 110.97 120.65 L 109.95 121.35 L 109.26 121.31 L 107.80 122.07 L 106.85 121.82 L 105.49 120.81 L 104.87 118.94 L 103.88 116.99 L 103.27 116.28 L 102.88 116.90 L 101.91 117.29 L 101.10 116.76 L 100.47 116.81 L 99.58 115.45 L 99.42 114.85 Z M 101.21 88.85 L 101.84 88.21 L 102.18 88.48 L 102.68 88.17 L 103.14 88.39 L 102.95 89.43 L 103.21 89.96 L 102.87 90.35 L 101.25 89.54 L 101.21 88.85 Z M 101.43 168.21 L 101.65 167.55 L 101.93 167.78 L 101.43 168.21 Z M 101.76 102.56 L 102.19 102.34 L 102.71 102.96 L 103.15 102.64 L 103.38 101.86 L 102.58 100.66 L 103.38 100.31 L 104.21 100.68 L 105.11 100.02 L 103.23 99.19 L 102.37 99.24 L 102.12 98.36 L 103.61 97.49 L 104.72 98.78 L 105.53 98.59 L 106.08 99.39 L 106.25 101.12 L 105.29 102.08 L 104.48 103.12 L 104.20 102.87 L 103.46 103.39 L 101.93 102.87 L 101.76 102.56 Z M 103.15 85.80 L 103.40 85.08 L 103.85 84.74 L 103.86 85.68 L 103.57 86.17 L 103.15 85.80 Z M 104.08 84.23 L 104.54 83.53 L 105.17 84.74 L 105.65 84.46 L 105.54 85.59 L 105.16 86.28 L 104.36 86.01 L 104.47 85.43 L 104.08 84.23 Z M 104.64 81.23 L 105.57 80.91 L 105.37 81.37 L 104.64 81.23 Z M 104.80 94.67 L 105.59 94.44 L 105.95 96.53 L 106.56 97.56 L 105.63 97.97 L 105.14 96.75 L 104.80 94.67 Z M 105.62 88.37 L 105.66 87.59 L 106.29 86.81 L 107.75 86.16 L 108.02 85.39 L 108.44 85.80 L 108.36 86.39 L 108.88 87.13 L 109.45 90.03 L 109.26 91.01 L 107.86 91.27 L 107.85 90.71 L 106.24 89.34 L 106.34 88.92 L 105.75 88.81 L 105.62 88.37 Z M 106.31 104.15 L 106.64 103.49 L 106.59 104.38 L 106.31 104.15 Z M 108.28 92.48 L 108.73 92.35 L 109.01 92.81 L 108.28 92.48 Z M 115.53 73.86 L 115.64 73.30 L 116.15 72.71 L 116.33 73.37 L 116.27 75.02 L 116.58 75.87 L 115.78 76.11 L 116.23 74.87 L 115.53 73.86 Z M 116.86 74.64 L 117.91 72.93 L 119.36 72.29 L 119.89 71.63 L 119.60 70.32 L 120.61 71.26 L 122.01 71.69 L 122.31 71.40 L 123.37 72.16 L 123.41 73.10 L 122.64 73.56 L 122.95 74.34 L 123.45 74.77 L 123.33 75.55 L 122.49 76.57 L 120.88 75.99 L 120.23 76.10 L 118.56 76.84 L 117.29 76.57 L 116.86 74.64 Z M 117.28 129.16 L 117.42 128.20 L 117.79 128.50 L 117.72 129.70 L 117.28 129.16 Z M 118.31 136.49 L 118.95 135.83 L 119.16 136.43 L 118.88 136.89 L 118.31 136.49 Z M 118.56 60.81 L 119.19 60.53 L 118.98 61.11 L 118.56 60.81 Z M 118.79 52.31 L 119.58 51.76 L 119.34 52.29 L 118.79 52.31 Z M 118.95 34.58 L 119.70 33.56 L 120.37 33.81 L 120.36 34.30 L 119.52 35.08 L 118.95 34.58 Z M 118.95 163.74 L 119.02 163.11 L 119.45 162.56 L 119.54 163.44 L 119.06 164.17 L 118.95 163.74 Z M 119.19 164.79 L 119.24 163.94 L 119.61 163.57 L 119.44 165.00 L 119.19 164.79 Z M 119.31 50.68 L 120.13 50.40 L 120.03 51.41 L 119.31 50.68 Z M 119.72 54.07 L 120.04 53.37 L 120.75 53.04 L 120.58 53.96 L 121.25 54.61 L 121.01 54.88 L 120.11 54.93 L 119.72 54.07 Z M 120.16 44.24 L 120.72 43.78 L 120.55 42.20 L 120.87 41.81 L 122.46 42.39 L 122.44 43.62 L 121.81 45.90 L 121.16 45.62 L 120.37 45.76 L 120.44 44.50 L 120.16 44.24 Z M 121.14 66.09 L 121.79 66.39 L 122.10 66.11 L 123.26 67.42 L 123.17 67.67 L 122.40 66.89 L 122.01 67.22 L 121.14 66.09 Z M 122.07 68.06 L 122.26 67.79 L 122.98 68.06 L 122.48 68.52 L 122.07 68.06 Z M 123.87 73.76 L 124.32 73.51 L 125.07 74.56 L 124.86 76.08 L 124.20 75.92 L 124.63 75.05 L 123.87 73.76 Z M 124.99 44.20 L 125.36 43.67 L 125.52 44.77 L 125.38 45.30 L 124.99 44.20 Z M 125.61 28.37 L 125.76 27.23 L 126.14 28.21 L 125.61 28.37 Z M 125.78 43.88 L 126.02 43.17 L 125.81 42.34 L 126.11 42.08 L 126.32 40.75 L 126.59 40.45 L 126.57 39.17 L 127.43 38.41 L 128.33 38.50 L 128.70 38.11 L 128.59 37.22 L 127.83 36.74 L 128.51 35.74 L 127.86 34.55 L 127.64 33.27 L 128.31 31.75 L 128.96 31.72 L 129.26 32.39 L 130.26 33.15 L 130.74 33.86 L 131.09 33.47 L 131.40 34.57 L 131.79 37.35 L 131.49 40.16 L 131.93 41.00 L 131.79 41.56 L 132.42 41.53 L 132.49 39.37 L 132.78 38.71 L 133.18 38.60 L 133.67 36.90 L 134.11 36.82 L 135.02 34.83 L 135.30 33.38 L 135.66 33.65 L 136.37 32.62 L 136.43 36.27 L 137.05 36.43 L 136.79 35.22 L 137.99 36.02 L 138.20 36.80 L 138.81 37.17 L 139.35 37.97 L 139.35 38.41 L 138.22 39.74 L 138.01 39.77 L 137.96 40.91 L 136.90 42.68 L 135.94 43.39 L 135.48 42.94 L 134.23 43.30 L 133.97 43.14 L 133.36 43.78 L 132.79 43.49 L 132.35 44.73 L 131.79 44.94 L 130.99 46.47 L 130.46 45.67 L 129.96 47.39 L 129.92 48.17 L 129.57 47.96 L 129.41 49.58 L 128.84 49.53 L 128.91 50.56 L 128.41 50.77 L 128.48 51.83 L 128.20 52.10 L 127.44 51.32 L 126.85 50.19 L 126.95 49.53 L 126.17 49.04 L 126.36 48.26 L 126.99 48.40 L 126.40 47.85 L 126.99 47.39 L 127.10 46.18 L 128.47 45.32 L 128.04 44.80 L 127.10 45.65 L 126.57 45.74 L 125.97 45.17 L 125.78 43.88 Z M 127.26 52.24 L 127.77 52.33 L 127.60 53.07 L 127.26 52.24 Z M 127.74 117.75 L 128.02 117.29 L 129.48 116.88 L 129.79 117.11 L 129.48 118.12 L 128.76 118.00 L 128.19 118.30 L 127.74 117.75 Z M 127.77 28.42 L 127.80 27.43 L 128.11 27.98 L 127.77 28.42 Z M 127.88 59.57 L 128.39 58.24 L 128.31 57.57 L 128.59 56.70 L 129.27 55.48 L 130.51 55.94 L 131.51 56.72 L 132.41 56.97 L 132.66 57.71 L 133.77 59.13 L 134.20 57.18 L 134.61 56.69 L 135.31 55.07 L 136.31 55.18 L 136.17 54.69 L 135.29 54.65 L 134.97 54.99 L 134.52 54.53 L 133.68 54.72 L 132.15 52.10 L 132.10 50.19 L 132.49 47.99 L 133.36 47.96 L 133.86 47.19 L 133.44 46.13 L 134.59 45.71 L 134.85 45.35 L 135.79 45.17 L 137.18 45.37 L 137.68 46.15 L 137.69 47.30 L 138.59 46.45 L 139.02 44.45 L 139.60 43.69 L 140.01 43.69 L 140.83 44.94 L 141.70 45.58 L 141.61 46.38 L 141.84 48.17 L 142.72 48.82 L 142.38 47.32 L 142.69 46.75 L 143.74 47.02 L 143.52 45.48 L 143.62 45.05 L 142.55 43.67 L 141.81 43.09 L 141.64 42.45 L 141.18 42.13 L 141.46 41.28 L 141.12 40.75 L 141.68 40.38 L 140.97 39.74 L 141.61 38.78 L 141.82 38.02 L 142.10 38.62 L 141.98 40.68 L 142.43 41.00 L 143.07 40.34 L 143.24 39.42 L 143.96 37.77 L 144.70 37.28 L 145.67 37.31 L 145.80 38.52 L 146.08 38.50 L 146.82 36.73 L 147.49 36.18 L 148.69 36.18 L 149.03 36.46 L 149.21 37.63 L 148.63 38.34 L 148.22 39.47 L 148.33 40.39 L 149.10 40.39 L 149.72 38.83 L 150.99 38.21 L 151.75 37.35 L 152.47 37.17 L 152.31 38.13 L 152.64 38.48 L 152.14 39.10 L 151.41 41.42 L 151.36 42.59 L 151.56 43.19 L 151.08 44.50 L 151.88 45.00 L 152.54 46.24 L 152.20 47.46 L 153.09 47.92 L 153.32 48.88 L 154.22 50.79 L 155.10 51.60 L 156.58 51.52 L 155.60 49.46 L 155.44 48.19 L 155.85 47.69 L 155.70 47.12 L 156.17 47.07 L 156.14 44.80 L 156.78 44.71 L 156.88 43.47 L 157.72 43.70 L 158.57 41.90 L 159.26 42.59 L 159.93 41.99 L 161.84 43.05 L 162.11 44.45 L 161.80 46.38 L 162.26 49.67 L 161.82 52.26 L 162.11 52.21 L 162.93 50.97 L 162.78 50.38 L 162.95 48.61 L 164.48 46.10 L 164.90 46.86 L 165.52 47.00 L 166.98 49.48 L 167.53 49.94 L 167.59 50.63 L 167.36 52.60 L 167.45 53.29 L 165.88 54.44 L 165.19 55.82 L 164.11 56.14 L 162.92 56.24 L 161.97 56.54 L 160.46 57.48 L 159.42 57.27 L 159.29 58.71 L 160.04 59.91 L 160.20 60.53 L 159.90 61.75 L 159.90 63.04 L 159.53 64.20 L 158.95 65.20 L 157.77 66.20 L 157.09 67.86 L 157.18 68.36 L 156.67 70.09 L 155.88 71.05 L 155.51 72.16 L 154.95 73.12 L 154.86 74.27 L 154.52 74.79 L 154.53 75.76 L 153.99 76.52 L 152.79 77.28 L 152.29 78.54 L 150.60 79.14 L 149.71 80.33 L 147.95 80.49 L 147.16 81.20 L 146.17 81.32 L 145.21 81.76 L 144.04 81.87 L 142.78 81.18 L 142.45 79.82 L 141.99 78.61 L 140.88 77.39 L 140.93 76.96 L 140.55 75.65 L 140.61 74.89 L 139.77 73.56 L 139.52 73.55 L 137.80 72.15 L 137.18 71.93 L 136.72 70.68 L 137.25 69.69 L 136.71 69.38 L 135.84 69.60 L 135.41 69.15 L 135.38 68.34 L 135.02 67.35 L 134.27 66.82 L 134.02 66.99 L 132.84 65.84 L 131.62 64.94 L 130.08 64.16 L 128.78 62.94 L 128.63 62.30 L 127.96 61.29 L 128.11 59.64 L 127.88 59.57 Z M 130.44 100.55 L 131.14 100.70 L 131.96 100.50 L 132.60 99.47 L 133.25 99.63 L 132.83 101.16 L 132.67 102.29 L 131.70 102.89 L 130.89 102.25 L 130.44 100.55 Z M 130.94 25.57 L 131.08 24.77 L 131.96 24.90 L 132.34 23.66 L 132.88 23.36 L 132.83 22.24 L 133.01 21.21 L 133.69 20.54 L 134.43 21.09 L 134.88 20.93 L 134.85 21.57 L 135.42 20.86 L 136.00 21.28 L 135.62 21.74 L 135.91 23.00 L 135.32 23.41 L 135.57 23.66 L 135.45 25.68 L 135.71 27.00 L 135.27 28.46 L 134.59 28.46 L 134.24 27.82 L 133.70 27.50 L 131.66 27.39 L 131.45 27.75 L 131.08 26.67 L 130.94 25.57 Z M 131.60 30.12 L 132.11 29.52 L 133.81 30.03 L 133.80 33.04 L 134.12 33.42 L 133.80 34.66 L 133.67 36.20 L 133.08 36.90 L 132.75 37.83 L 132.30 36.99 L 132.29 35.98 L 132.60 35.06 L 132.34 34.23 L 131.76 33.61 L 132.18 32.72 L 131.84 32.39 L 132.00 31.75 L 131.60 30.12 Z M 133.06 57.36 L 133.61 56.88 L 133.87 57.20 L 133.65 58.58 L 133.06 57.36 Z M 133.48 104.08 L 134.00 104.06 L 134.13 105.60 L 133.83 105.65 L 133.48 104.08 Z M 135.67 98.15 L 135.98 97.76 L 136.22 96.52 L 136.74 96.62 L 137.09 95.35 L 138.24 94.99 L 138.73 95.15 L 139.07 93.95 L 139.60 93.15 L 140.46 92.62 L 140.67 92.80 L 140.89 95.22 L 140.50 96.11 L 140.37 97.19 L 139.08 98.87 L 139.06 99.83 L 138.76 100.34 L 138.97 101.17 L 138.47 102.80 L 137.56 103.97 L 137.38 104.70 L 136.54 105.85 L 136.16 105.05 L 135.80 102.98 L 136.58 99.37 L 135.99 98.16 L 135.67 98.15 Z M 136.30 151.68 L 137.26 151.38 L 137.46 152.34 L 136.83 151.75 L 136.30 151.68 Z M 137.91 21.74 L 138.40 21.51 L 138.81 22.12 L 138.60 20.86 L 139.43 20.84 L 139.40 21.28 L 139.82 22.44 L 139.61 23.60 L 139.73 24.10 L 139.45 25.04 L 138.58 25.61 L 138.58 24.86 L 138.09 23.89 L 137.91 21.74 Z M 137.91 35.19 L 138.53 35.13 L 138.82 35.54 L 138.50 36.07 L 137.91 35.19 Z M 138.03 30.53 L 139.20 30.23 L 139.92 30.60 L 140.28 31.63 L 140.49 32.85 L 140.98 34.34 L 141.70 34.57 L 141.37 34.90 L 141.11 35.88 L 140.70 35.19 L 140.75 34.55 L 139.84 35.49 L 139.56 36.37 L 140.12 36.98 L 139.68 37.28 L 139.29 36.83 L 139.12 35.98 L 139.42 35.31 L 139.32 34.69 L 138.57 34.05 L 138.70 33.57 L 138.28 32.48 L 138.41 31.75 L 138.03 30.53 Z M 139.14 26.76 L 139.58 25.98 L 140.13 26.17 L 140.41 25.41 L 140.86 25.45 L 141.06 24.95 L 141.96 24.14 L 142.99 24.17 L 143.48 25.04 L 143.30 26.28 L 143.71 26.99 L 144.43 27.16 L 144.09 26.31 L 144.39 25.23 L 144.28 23.48 L 143.67 22.19 L 143.89 20.88 L 145.23 19.94 L 146.08 20.35 L 146.82 19.92 L 146.66 19.35 L 145.06 18.52 L 144.20 18.79 L 143.91 17.80 L 144.98 16.96 L 144.94 16.47 L 143.65 14.68 L 143.41 13.92 L 144.12 13.08 L 144.68 13.17 L 144.92 14.01 L 145.23 13.99 L 145.22 13.00 L 145.46 12.73 L 146.26 14.20 L 146.54 13.69 L 146.26 13.30 L 146.67 12.69 L 146.45 11.72 L 146.65 11.10 L 147.12 10.82 L 147.33 11.42 L 147.97 11.86 L 147.93 10.94 L 148.26 10.52 L 148.62 11.79 L 149.02 12.32 L 148.89 12.93 L 149.28 13.74 L 150.13 14.87 L 149.73 16.47 L 149.42 16.89 L 148.30 17.10 L 149.57 18.08 L 150.06 18.88 L 150.09 21.48 L 150.64 22.26 L 150.48 23.27 L 149.59 24.97 L 149.13 26.42 L 149.38 26.70 L 149.03 27.55 L 149.57 28.24 L 149.26 30.05 L 148.21 30.39 L 147.99 31.15 L 148.05 32.16 L 147.37 32.19 L 147.07 32.55 L 144.72 33.29 L 143.97 32.57 L 143.94 32.19 L 143.11 31.11 L 143.10 30.72 L 142.21 29.25 L 140.60 28.08 L 140.32 27.54 L 139.14 26.76 Z M 139.83 24.28 L 140.53 23.82 L 140.29 23.18 L 140.71 22.74 L 140.78 24.14 L 140.00 24.65 L 139.83 24.28 Z M 147.32 9.68 L 147.99 9.60 L 147.50 10.00 L 147.32 9.68 Z M 151.86 11.33 L 152.28 10.96 L 152.17 11.70 L 151.86 11.33 Z M 153.53 30.71 L 153.61 29.63 L 154.11 27.84 L 154.75 26.40 L 155.35 25.66 L 155.65 25.80 L 155.95 25.09 L 156.70 24.65 L 157.74 25.52 L 158.41 27.00 L 159.05 27.57 L 159.06 28.03 L 159.98 28.79 L 162.08 30.94 L 162.59 31.25 L 163.18 32.37 L 163.67 32.26 L 163.55 33.88 L 163.18 34.99 L 162.57 35.47 L 161.81 34.97 L 161.08 35.04 L 160.46 35.68 L 158.99 34.97 L 157.51 34.67 L 157.27 34.14 L 156.28 33.22 L 155.30 32.85 L 154.52 32.88 L 154.18 31.59 L 153.53 30.71 Z M 153.94 40.61 L 154.64 40.32 L 154.41 39.26 L 154.52 37.26 L 154.84 37.10 L 155.53 37.98 L 155.62 39.19 L 155.99 39.58 L 156.10 40.34 L 155.58 40.69 L 155.67 41.40 L 155.02 41.72 L 153.94 40.61 Z M 156.17 77.42 L 156.62 76.03 L 157.12 76.24 L 157.01 77.05 L 156.17 77.42 Z M 156.63 73.74 L 156.86 71.81 L 157.90 70.71 L 158.63 68.16 L 159.24 66.64 L 160.29 64.73 L 161.31 61.89 L 162.36 60.94 L 162.90 60.74 L 164.18 59.45 L 164.79 59.63 L 165.54 59.02 L 167.29 56.58 L 167.63 56.58 L 168.25 55.64 L 168.83 54.30 L 169.42 54.17 L 169.96 52.81 L 170.32 50.91 L 171.67 48.70 L 172.84 49.30 L 173.77 49.50 L 174.25 49.87 L 174.84 50.97 L 175.42 52.56 L 175.90 52.84 L 176.09 53.66 L 175.41 55.27 L 173.45 58.58 L 172.93 59.09 L 172.47 60.56 L 172.10 61.06 L 171.96 62.23 L 171.55 63.56 L 171.59 64.27 L 171.24 66.75 L 170.69 68.96 L 169.49 71.70 L 168.01 71.76 L 166.67 71.21 L 166.08 71.69 L 164.25 72.32 L 162.62 72.47 L 161.41 73.21 L 160.79 73.23 L 159.36 73.74 L 158.77 74.29 L 158.11 74.24 L 157.91 74.68 L 156.76 74.24 L 156.63 73.74 Z M 160.20 13.19 L 160.56 12.27 L 161.03 12.66 L 161.40 11.47 L 162.09 11.95 L 162.65 13.16 L 163.58 13.70 L 162.98 12.98 L 163.12 12.15 L 162.40 11.28 L 162.76 11.31 L 163.55 9.12 L 163.52 7.97 L 163.86 6.96 L 165.07 6.92 L 165.45 7.12 L 165.81 6.71 L 166.53 7.61 L 166.53 8.67 L 167.12 9.93 L 167.06 10.89 L 167.28 12.13 L 167.32 13.72 L 167.17 14.47 L 167.33 15.65 L 167.68 16.24 L 168.09 15.56 L 167.79 14.54 L 168.22 14.34 L 168.95 14.71 L 169.89 15.55 L 169.74 16.36 L 170.58 18.36 L 170.79 19.76 L 170.65 22.91 L 171.19 25.87 L 171.87 26.38 L 172.81 25.59 L 172.71 24.49 L 173.32 23.80 L 173.71 22.51 L 173.69 21.27 L 173.98 19.83 L 173.88 19.18 L 174.06 18.03 L 174.67 19.16 L 175.31 19.94 L 176.04 20.01 L 177.27 20.98 L 177.18 21.43 L 177.82 22.36 L 177.59 23.78 L 177.22 23.27 L 176.67 23.21 L 176.33 24.14 L 176.48 25.45 L 177.02 25.50 L 177.34 26.01 L 177.69 27.54 L 178.06 27.70 L 178.99 29.89 L 179.08 29.29 L 179.88 29.25 L 180.09 30.35 L 179.21 30.51 L 180.51 31.50 L 181.53 32.03 L 181.99 31.56 L 182.61 32.03 L 183.07 31.73 L 183.40 32.42 L 183.91 32.51 L 184.00 33.68 L 185.24 33.75 L 185.74 33.49 L 186.11 34.55 L 186.01 34.92 L 185.19 35.45 L 184.66 35.40 L 184.52 36.25 L 183.79 36.20 L 183.06 36.66 L 181.71 37.17 L 180.82 37.26 L 180.77 38.36 L 180.45 38.96 L 181.21 39.12 L 180.64 40.80 L 179.46 41.97 L 177.84 42.04 L 177.27 42.48 L 176.11 42.75 L 175.05 41.65 L 173.83 41.79 L 173.04 41.60 L 172.53 41.85 L 171.93 41.38 L 170.43 41.26 L 169.57 40.57 L 168.93 38.94 L 168.94 37.75 L 168.73 36.13 L 167.99 35.08 L 168.19 34.44 L 168.90 34.62 L 169.33 34.25 L 169.08 32.21 L 168.73 31.66 L 168.82 31.02 L 168.59 29.96 L 167.68 29.31 L 167.31 28.30 L 166.66 27.25 L 166.89 26.53 L 167.22 26.69 L 167.50 25.98 L 167.38 25.36 L 165.95 22.13 L 165.58 21.85 L 164.67 19.51 L 164.03 18.65 L 162.62 18.06 L 161.33 17.30 L 160.90 16.41 L 160.60 14.87 L 161.02 12.73 L 160.60 12.55 L 160.20 13.19 Z M 169.03 12.75 L 169.59 12.23 L 169.99 10.55 L 171.26 10.25 L 171.73 11.17 L 171.85 13.19 L 171.33 15.23 L 170.96 15.76 L 170.17 15.97 L 170.00 14.57 L 169.13 13.90 L 169.03 12.75 Z M 170.86 5.20 L 171.19 4.92 L 172.10 5.79 L 171.97 6.50 L 171.30 5.95 L 170.86 5.20 Z M 174.81 47.18 L 175.23 46.66 L 176.19 46.33 L 177.11 46.82 L 177.09 47.25 L 177.60 47.99 L 178.11 47.94 L 178.62 48.65 L 179.09 48.77 L 179.85 48.45 L 179.98 49.09 L 179.48 50.54 L 178.74 50.17 L 178.06 50.63 L 177.29 50.43 L 175.16 48.43 L 175.22 47.87 L 174.81 47.18 Z M 178.50 25.22 L 179.00 23.71 L 179.50 23.04 L 180.53 22.42 L 180.64 23.64 L 181.38 23.60 L 182.09 24.38 L 182.39 24.29 L 183.39 25.68 L 183.22 26.99 L 182.82 27.31 L 182.51 28.14 L 181.94 27.57 L 181.66 26.81 L 180.43 26.14 L 179.75 26.35 L 178.50 25.22 Z M 179.31 27.43 L 179.87 26.85 L 180.70 27.29 L 180.56 28.65 L 181.10 28.70 L 181.16 30.10 L 180.23 29.73 L 181.04 30.37 L 180.31 30.53 L 180.13 29.34 L 179.63 29.11 L 179.88 28.16 L 179.31 27.43 Z M 187.22 25.22 L 187.50 23.69 L 187.77 26.00 L 188.13 26.37 L 187.54 26.69 L 187.22 25.22 Z M 187.65 5.36 L 187.97 4.78 L 187.70 3.47 L 188.13 3.06 L 188.82 3.01 L 189.25 4.18 L 189.81 4.88 L 190.62 7.12 L 190.77 8.37 L 192.00 9.90 L 192.73 9.90 L 192.61 11.86 L 190.96 14.16 L 190.93 14.68 L 190.18 16.15 L 189.79 17.44 L 189.31 16.47 L 189.05 14.61 L 189.00 13.24 L 189.10 10.87 L 188.83 10.11 L 188.97 9.56 L 188.41 6.71 L 187.94 6.27 L 187.65 5.36 Z M 190.85 142.70 L 191.41 142.56 L 191.32 143.00 L 190.85 142.70 Z M 191.02 116.23 L 191.51 116.19 L 191.30 116.72 L 191.02 116.23 Z M 194.46 98.98 L 194.78 98.00 L 195.42 98.45 L 195.37 97.81 L 196.35 98.32 L 196.07 99.85 L 196.24 100.00 L 195.67 101.39 L 195.13 101.56 L 194.78 100.82 L 194.89 100.06 L 194.46 98.98 Z M 195.81 37.12 L 196.21 36.74 L 196.11 34.46 L 196.27 33.57 L 196.32 31.20 L 196.66 29.24 L 196.21 28.65 L 196.79 26.93 L 196.53 26.58 L 197.22 26.07 L 197.80 23.99 L 197.62 23.13 L 198.76 22.21 L 198.89 21.73 L 200.49 20.68 L 201.74 21.00 L 202.10 20.54 L 202.30 19.46 L 202.05 18.34 L 202.13 17.78 L 202.93 16.01 L 203.88 15.78 L 205.87 14.78 L 207.23 15.23 L 207.87 14.84 L 208.67 14.91 L 209.27 14.09 L 210.02 14.08 L 211.44 15.14 L 211.77 14.84 L 212.04 16.84 L 212.55 16.91 L 212.86 17.39 L 213.38 17.35 L 213.76 18.08 L 214.00 19.42 L 213.96 21.80 L 213.14 24.56 L 212.96 26.74 L 212.45 28.95 L 211.85 30.58 L 211.51 35.17 L 212.02 36.83 L 213.31 39.19 L 213.68 40.84 L 213.33 42.02 L 211.96 42.50 L 210.59 43.33 L 208.54 43.03 L 207.48 42.39 L 207.41 40.50 L 207.02 40.52 L 206.77 41.70 L 206.67 43.19 L 206.09 44.17 L 205.29 44.63 L 203.73 45.03 L 202.77 44.70 L 202.78 43.62 L 203.34 41.95 L 203.48 41.00 L 204.15 39.12 L 204.27 38.07 L 203.96 37.10 L 203.21 35.45 L 203.42 35.31 L 203.20 34.32 L 203.22 33.03 L 202.93 32.74 L 202.77 35.06 L 202.92 36.44 L 203.31 37.79 L 202.93 39.28 L 202.17 40.32 L 201.40 39.30 L 200.94 39.67 L 201.21 41.05 L 201.23 42.55 L 199.97 42.96 L 199.21 42.89 L 198.41 41.95 L 197.04 40.91 L 196.11 39.06 L 196.01 37.52 L 195.81 37.12 Z M 201.99 73.49 L 202.59 71.35 L 203.30 70.34 L 203.40 68.55 L 203.80 67.49 L 203.36 66.02 L 204.40 64.89 L 204.69 63.79 L 205.59 63.93 L 206.73 64.71 L 208.08 64.25 L 208.48 64.35 L 209.19 63.38 L 210.58 62.85 L 210.90 63.08 L 211.12 64.00 L 210.22 65.68 L 209.36 66.67 L 209.40 68.62 L 209.07 69.61 L 208.95 71.00 L 210.62 73.58 L 210.96 75.07 L 210.13 77.00 L 209.28 78.03 L 207.00 79.55 L 204.75 81.46 L 203.72 81.64 L 202.89 80.13 L 202.69 79.20 L 202.55 76.54 L 202.00 75.02 L 201.99 73.49 Z M 205.80 56.62 L 206.01 55.62 L 206.59 54.92 L 206.44 54.31 L 206.60 53.02 L 206.07 51.82 L 206.63 51.00 L 207.30 51.50 L 207.93 53.53 L 208.51 54.10 L 208.86 55.27 L 208.61 57.43 L 207.80 59.20 L 206.58 58.51 L 206.18 57.94 L 205.80 56.62 Z M 207.86 61.52 L 208.81 60.67 L 209.08 61.13 L 208.35 61.61 L 208.12 62.41 L 207.86 61.52 Z M 208.52 62.80 L 208.54 61.98 L 209.45 61.96 L 209.52 62.62 L 208.52 62.80 Z M 209.97 47.83 L 210.34 46.47 L 211.54 45.07 L 212.66 44.45 L 213.24 43.85 L 215.15 44.66 L 215.53 45.05 L 216.36 46.56 L 216.86 48.24 L 217.72 48.95 L 217.62 50.10 L 219.32 52.95 L 219.68 52.81 L 220.48 51.82 L 220.10 50.75 L 220.29 50.24 L 221.11 49.43 L 221.18 50.13 L 221.76 50.13 L 222.97 49.18 L 223.35 49.11 L 222.93 50.22 L 223.59 50.19 L 224.51 49.69 L 224.70 50.51 L 224.12 51.11 L 223.34 52.33 L 222.58 52.24 L 221.54 52.60 L 220.76 53.50 L 220.39 54.28 L 219.62 54.03 L 219.58 54.49 L 220.23 55.25 L 220.32 56.01 L 219.74 57.43 L 219.12 58.46 L 218.09 59.43 L 216.45 60.48 L 215.89 61.10 L 214.80 61.43 L 213.17 60.02 L 212.48 58.58 L 212.46 58.19 L 211.52 56.00 L 211.73 54.69 L 211.56 53.27 L 210.94 51.32 L 210.71 51.04 L 210.05 49.04 L 209.97 47.83 Z M 212.30 32.90 L 212.55 31.93 L 213.58 29.75 L 214.40 27.25 L 214.98 26.35 L 215.36 26.24 L 216.07 28.70 L 216.86 29.82 L 217.32 31.93 L 217.84 32.30 L 218.06 33.38 L 218.80 34.51 L 218.81 35.38 L 218.06 37.12 L 217.29 38.23 L 216.83 39.26 L 215.85 39.92 L 215.14 39.97 L 214.72 39.65 L 214.19 38.52 L 213.04 36.60 L 212.57 34.62 L 212.30 32.90 Z M 218.25 47.53 L 218.60 46.29 L 219.56 45.17 L 219.53 44.29 L 220.23 43.21 L 220.29 42.24 L 220.59 40.84 L 220.92 40.48 L 221.65 40.39 L 221.56 41.30 L 221.97 41.69 L 222.10 42.64 L 222.49 43.32 L 221.58 44.36 L 221.11 44.38 L 220.46 45.62 L 221.21 45.26 L 222.06 45.19 L 222.09 45.51 L 221.07 47.71 L 220.42 48.43 L 218.89 49.14 L 218.43 48.56 L 218.25 47.53 Z M 220.84 82.67 L 221.51 82.47 L 221.29 83.16 L 220.84 82.67 Z M 224.70 47.99 L 224.79 46.86 L 225.04 46.43 L 225.43 46.77 L 225.41 47.41 L 224.70 47.99 Z M 229.71 43.53 L 229.76 43.16 L 230.90 42.36 L 231.37 41.74 L 232.79 41.97 L 233.16 44.15 L 232.76 44.34 L 232.04 45.44 L 230.98 45.88 L 229.71 43.53 Z M 233.68 33.20 L 234.11 32.87 L 233.87 32.09 L 234.28 31.73 L 235.38 31.70 L 235.87 32.16 L 236.66 33.54 L 236.80 34.85 L 236.47 35.40 L 234.78 34.90 L 233.95 34.44 L 233.68 33.20 Z M 243.19 54.35 L 243.64 54.47 L 243.61 55.02 L 243.19 54.35 Z M 244.18 47.11 L 244.71 46.77 L 245.10 47.21 L 245.30 46.17 L 244.66 45.42 L 245.82 44.87 L 245.61 44.47 L 245.92 43.90 L 247.42 43.05 L 248.09 43.94 L 248.88 44.27 L 249.48 45.78 L 250.95 46.73 L 251.75 47.83 L 251.61 48.63 L 250.99 49.09 L 250.69 50.52 L 249.73 51.13 L 248.85 49.60 L 247.75 49.07 L 247.37 49.14 L 246.93 48.31 L 246.30 48.31 L 245.68 47.71 L 245.01 47.62 L 244.18 47.11 Z M 247.24 60.64 L 248.22 60.18 L 248.38 59.56 L 249.31 58.12 L 251.14 58.28 L 251.58 59.29 L 251.49 60.12 L 251.88 60.95 L 251.71 62.53 L 250.23 61.70 L 249.74 61.98 L 248.63 61.26 L 248.45 61.41 L 247.46 61.03 L 247.24 60.64 Z M 253.65 61.04 L 254.18 60.74 L 254.87 61.56 L 255.33 63.06 L 255.24 63.50 L 256.06 64.48 L 256.30 65.63 L 256.04 66.04 L 255.82 67.31 L 254.42 63.36 L 254.46 62.94 L 253.89 62.35 L 253.65 61.04 Z M 254.53 57.62 L 255.04 57.29 L 254.53 58.17 L 254.53 57.62 Z M 261.01 79.64 L 261.74 79.37 L 262.15 79.92 L 262.23 80.79 L 261.59 80.84 L 261.01 79.64 Z M 262.32 81.00 L 262.56 80.75 L 263.16 81.46 L 262.32 81.00 Z" fill="#219ebc" stroke="white" stroke-width="1.5" stroke-linejoin="round" fill-rule="evenodd"/>
</svg>