<svg xmlns="http://www.w3.org/2000/svg" viewBox="0 0 300 300" width="300" height="300">
  <path d="M 0.96 210.73 L 1.75 210.26 L 1.19 210.88 L 0.96 210.73 Z M 6.66 221.39 L 5.50 220.67 L 4.83 220.56 L 4.64 219.95 L 5.38 219.16 L 5.57 218.53 L 5.39 217.90 L 5.31 216.61 L 4.35 215.72 L 3.48 215.46 L 3.37 214.97 L 2.85 214.65 L 3.00 213.46 L 2.44 212.89 L 1.98 212.82 L 1.78 212.04 L 2.06 211.61 L 1.91 210.97 L 2.42 210.46 L 3.04 210.49 L 3.93 209.97 L 4.03 209.65 L 5.38 209.33 L 5.32 209.67 L 5.89 210.64 L 6.65 212.35 L 7.04 212.52 L 7.72 213.46 L 7.92 213.20 L 8.60 213.34 L 9.06 214.11 L 8.03 214.87 L 7.72 215.64 L 8.09 216.10 L 9.61 215.69 L 10.64 215.16 L 10.86 214.85 L 10.06 215.03 L 9.75 214.59 L 10.52 214.08 L 9.90 213.79 L 9.47 213.25 L 9.54 212.73 L 9.90 212.49 L 9.30 211.93 L 8.29 211.50 L 7.38 211.51 L 6.19 210.27 L 5.85 209.39 L 6.03 208.85 L 7.41 208.55 L 9.02 208.81 L 10.42 208.46 L 10.30 208.80 L 10.88 209.44 L 12.08 210.17 L 13.91 209.80 L 14.88 209.20 L 15.14 209.73 L 16.24 209.58 L 16.88 210.12 L 17.62 209.55 L 18.33 209.44 L 18.81 210.33 L 19.25 210.36 L 19.72 209.90 L 20.32 209.81 L 21.70 211.26 L 22.38 211.00 L 22.89 212.20 L 23.85 213.93 L 24.33 213.84 L 24.63 213.26 L 24.35 212.81 L 24.43 211.96 L 24.15 211.47 L 23.49 211.52 L 23.64 211.11 L 23.26 210.60 L 22.10 210.69 L 21.20 209.68 L 21.53 209.31 L 21.03 209.18 L 21.53 208.77 L 20.67 207.52 L 21.77 206.67 L 23.36 206.31 L 23.55 206.45 L 24.84 206.07 L 25.42 206.08 L 25.85 205.65 L 28.71 204.83 L 29.57 204.86 L 30.01 205.20 L 30.66 204.94 L 31.79 204.81 L 32.24 204.53 L 33.81 204.36 L 34.10 203.94 L 35.38 203.80 L 36.05 204.10 L 37.61 203.68 L 39.32 203.76 L 39.75 203.47 L 41.54 203.24 L 41.73 202.52 L 39.65 202.93 L 37.74 202.96 L 36.94 203.10 L 35.37 203.05 L 34.35 203.18 L 34.35 203.18 L 34.61 201.87 L 35.77 201.42 L 35.81 200.26 L 34.14 198.96 L 33.82 197.33 L 33.55 196.76 L 35.17 194.37 L 35.97 193.85 L 35.95 191.77 L 35.84 191.19 L 36.17 190.38 L 36.76 189.74 L 36.78 189.00 L 37.83 188.48 L 38.15 187.71 L 37.23 188.01 L 36.21 186.79 L 36.07 186.29 L 35.14 186.76 L 34.05 186.17 L 32.75 186.22 L 32.59 185.08 L 32.84 184.36 L 32.95 183.12 L 32.12 182.69 L 31.01 181.86 L 30.64 180.91 L 30.64 180.91 L 32.13 180.56 L 32.15 180.94 L 33.77 180.45 L 34.69 180.81 L 35.77 180.48 L 36.58 181.08 L 36.70 181.58 L 36.28 182.18 L 36.25 182.69 L 36.68 182.91 L 36.87 183.96 L 37.19 184.42 L 37.86 184.60 L 38.07 184.14 L 37.73 183.31 L 36.86 182.62 L 36.70 182.25 L 37.34 181.87 L 37.70 182.68 L 38.10 182.09 L 38.23 182.35 L 38.81 182.05 L 38.39 181.51 L 38.73 181.02 L 39.53 180.86 L 39.29 181.70 L 40.28 181.73 L 40.15 182.63 L 40.87 182.50 L 40.58 182.81 L 41.45 182.82 L 41.65 182.59 L 42.49 182.66 L 42.74 182.29 L 43.61 182.05 L 42.93 181.60 L 42.19 181.76 L 41.51 181.27 L 42.41 180.52 L 41.24 179.34 L 42.72 178.52 L 42.22 178.48 L 42.58 177.89 L 42.25 177.80 L 42.37 176.97 L 43.47 176.91 L 43.79 178.79 L 45.35 178.61 L 45.23 178.94 L 46.49 179.31 L 47.02 179.11 L 46.69 180.61 L 47.24 180.85 L 47.30 181.45 L 47.99 181.21 L 48.79 181.28 L 49.15 182.03 L 49.06 182.52 L 49.49 182.70 L 49.86 183.99 L 49.49 184.78 L 49.55 185.74 L 50.86 185.52 L 51.09 186.02 L 49.82 186.92 L 49.24 187.12 L 48.39 188.01 L 48.12 189.15 L 48.63 188.92 L 49.03 189.30 L 47.93 190.23 L 47.56 191.18 L 47.16 191.48 L 46.44 192.50 L 46.92 192.34 L 46.48 193.68 L 46.78 193.84 L 46.90 194.68 L 47.29 194.68 L 48.72 193.21 L 48.52 192.48 L 49.15 192.06 L 49.28 191.50 L 50.72 191.16 L 51.36 190.64 L 51.57 189.94 L 52.07 190.00 L 52.23 189.37 L 53.22 189.63 L 53.57 190.23 L 54.10 189.98 L 54.21 189.38 L 53.93 188.68 L 54.85 188.39 L 54.97 188.74 L 56.07 188.02 L 56.13 187.63 L 57.26 187.02 L 58.15 187.09 L 57.63 187.43 L 58.68 187.55 L 58.92 187.08 L 60.05 187.10 L 60.44 186.68 L 61.95 186.45 L 63.99 185.59 L 65.38 184.71 L 66.02 184.58 L 66.53 183.62 L 65.55 183.86 L 65.02 184.36 L 63.45 184.92 L 63.06 184.80 L 62.42 185.32 L 61.24 185.48 L 60.03 185.96 L 58.18 186.13 L 57.83 185.86 L 56.56 186.23 L 54.44 186.58 L 53.49 186.06 L 53.85 185.61 L 53.95 184.91 L 53.62 184.39 L 52.80 185.02 L 52.28 184.46 L 52.36 184.15 L 51.79 183.92 L 50.94 181.90 L 51.53 181.50 L 51.24 181.14 L 51.61 180.88 L 51.65 180.35 L 52.98 179.87 L 53.43 180.75 L 53.93 179.73 L 54.89 179.94 L 55.42 179.10 L 55.96 179.28 L 56.17 180.05 L 57.06 179.46 L 57.18 179.16 L 58.07 178.76 L 58.30 178.96 L 59.55 178.38 L 60.19 178.71 L 61.24 177.98 L 61.66 178.03 L 62.01 177.52 L 63.00 177.27 L 63.93 176.59 L 64.51 177.08 L 66.07 176.81 L 66.41 176.28 L 66.41 175.60 L 67.04 174.88 L 65.45 175.20 L 63.04 176.51 L 61.50 177.19 L 61.51 176.85 L 60.74 176.99 L 59.99 177.69 L 59.33 177.59 L 58.78 177.79 L 58.69 177.13 L 59.16 176.48 L 59.05 176.07 L 58.06 175.76 L 57.11 176.13 L 56.98 175.88 L 57.63 175.28 L 56.56 174.11 L 55.92 173.72 L 55.79 174.15 L 56.17 174.56 L 56.00 175.44 L 56.87 175.54 L 56.08 176.25 L 56.05 176.67 L 56.68 176.77 L 57.69 176.52 L 58.45 176.92 L 58.33 177.87 L 57.08 178.58 L 56.60 178.39 L 56.25 177.78 L 56.07 178.22 L 55.34 177.98 L 54.26 178.55 L 53.59 178.55 L 53.22 178.23 L 53.31 177.74 L 52.95 177.56 L 51.71 177.57 L 50.80 177.11 L 51.25 176.66 L 50.50 176.36 L 50.77 175.60 L 50.30 175.05 L 49.51 174.52 L 50.50 174.12 L 51.53 173.06 L 52.01 173.10 L 52.08 172.66 L 52.63 172.48 L 52.92 171.60 L 53.51 171.40 L 54.14 171.66 L 53.99 172.23 L 54.48 173.06 L 54.90 173.14 L 54.52 174.29 L 55.08 174.17 L 55.53 173.24 L 55.53 172.65 L 55.18 172.74 L 54.06 171.31 L 54.17 170.97 L 56.04 170.48 L 56.56 170.51 L 56.92 170.95 L 56.51 171.17 L 56.67 171.83 L 57.91 171.11 L 57.70 170.51 L 58.26 170.06 L 58.09 169.82 L 58.84 169.25 L 58.93 168.87 L 59.72 168.46 L 59.93 167.95 L 60.59 168.03 L 61.34 167.39 L 61.62 167.95 L 62.25 167.77 L 62.14 168.12 L 61.57 168.18 L 61.54 168.97 L 61.24 169.64 L 61.11 171.15 L 61.59 171.33 L 61.15 171.74 L 61.57 172.66 L 62.13 172.88 L 62.35 173.37 L 62.98 173.00 L 62.61 172.69 L 62.25 170.81 L 63.29 169.72 L 63.72 169.69 L 63.84 168.86 L 64.84 167.83 L 64.51 167.13 L 65.69 167.08 L 65.35 166.67 L 65.93 166.03 L 66.30 166.17 L 66.10 166.64 L 66.77 166.94 L 68.12 166.34 L 68.95 166.42 L 69.39 166.94 L 69.83 167.95 L 69.82 168.90 L 70.31 170.45 L 70.66 170.45 L 70.27 169.56 L 70.15 167.60 L 69.95 166.84 L 69.28 166.28 L 69.40 165.67 L 69.86 165.17 L 69.16 165.03 L 68.96 164.68 L 66.96 165.16 L 66.52 165.59 L 66.10 165.37 L 67.44 164.70 L 67.79 164.12 L 68.25 163.98 L 68.88 164.36 L 69.00 163.63 L 67.88 164.00 L 67.59 163.75 L 68.04 163.18 L 68.83 162.83 L 69.78 162.63 L 69.85 162.26 L 71.18 161.64 L 71.53 161.16 L 73.43 161.23 L 74.39 160.79 L 74.96 159.96 L 75.63 159.50 L 77.70 158.73 L 78.69 158.68 L 78.38 159.07 L 78.42 159.68 L 78.06 160.40 L 78.05 160.94 L 77.06 161.58 L 76.96 161.83 L 77.94 161.62 L 78.03 162.35 L 78.80 163.04 L 78.65 163.72 L 79.12 164.01 L 78.81 164.95 L 79.41 165.39 L 80.24 165.63 L 80.63 166.52 L 80.32 167.18 L 81.24 167.46 L 81.87 168.08 L 81.97 168.69 L 82.48 169.19 L 82.45 169.96 L 82.17 170.76 L 81.58 171.05 L 81.23 171.61 L 82.05 172.51 L 82.41 172.53 L 82.46 173.20 L 82.98 172.81 L 83.47 173.17 L 83.21 173.91 L 83.25 174.90 L 84.24 175.04 L 84.21 175.28 L 85.14 175.99 L 86.07 176.28 L 85.94 176.77 L 86.19 177.30 L 87.04 177.19 L 87.13 177.89 L 87.53 177.92 L 88.28 178.58 L 89.53 179.07 L 89.10 181.01 L 89.14 181.46 L 88.76 182.56 L 88.40 184.13 L 87.79 186.05 L 87.52 186.18 L 86.43 188.00 L 85.44 188.78 L 83.45 189.99 L 81.85 191.30 L 81.99 191.86 L 82.57 192.25 L 82.90 191.64 L 84.05 192.01 L 85.57 190.69 L 87.04 189.98 L 88.03 189.33 L 88.59 188.65 L 89.14 188.43 L 90.65 188.78 L 92.15 188.53 L 92.95 188.60 L 93.44 189.14 L 94.49 190.89 L 95.76 190.55 L 96.60 191.10 L 97.85 191.41 L 97.97 191.82 L 98.70 192.33 L 99.89 191.78 L 99.99 191.28 L 100.71 191.03 L 101.11 189.67 L 102.10 189.12 L 100.54 188.71 L 99.95 188.92 L 99.48 188.73 L 98.88 188.98 L 97.63 188.84 L 96.55 188.00 L 95.79 188.02 L 95.77 187.66 L 94.58 186.27 L 94.06 186.32 L 93.34 184.85 L 93.79 184.06 L 93.85 182.94 L 94.53 182.39 L 95.01 181.71 L 96.39 180.86 L 97.43 180.87 L 98.07 179.76 L 99.30 179.20 L 99.79 178.29 L 100.52 178.16 L 100.64 178.41 L 101.66 177.93 L 102.26 178.13 L 103.05 177.97 L 103.88 178.17 L 105.22 177.89 L 106.41 178.55 L 106.98 178.58 L 107.42 179.05 L 107.52 179.92 L 107.85 180.13 L 108.88 180.19 L 109.94 179.42 L 110.06 178.94 L 110.70 178.90 L 111.00 179.34 L 110.97 178.57 L 111.61 178.22 L 112.11 177.60 L 113.04 178.13 L 113.46 179.49 L 113.95 179.09 L 114.66 179.83 L 116.09 180.34 L 116.63 180.16 L 117.61 180.28 L 119.32 179.21 L 119.81 179.04 L 120.09 179.54 L 121.50 179.02 L 122.15 179.14 L 122.52 179.55 L 122.88 179.21 L 123.44 179.51 L 125.06 180.07 L 125.61 179.77 L 126.02 180.07 L 126.85 180.02 L 127.75 180.33 L 128.41 182.00 L 129.02 182.04 L 129.65 181.46 L 129.31 180.48 L 129.58 179.79 L 130.42 179.90 L 131.29 179.44 L 131.33 179.80 L 132.31 178.89 L 133.02 178.89 L 133.59 178.45 L 134.22 178.64 L 134.42 177.79 L 134.02 178.35 L 133.67 178.25 L 134.01 176.80 L 134.05 177.48 L 134.41 177.48 L 134.49 176.48 L 133.89 175.89 L 133.35 176.34 L 132.75 175.62 L 131.60 175.83 L 131.21 176.27 L 129.73 176.10 L 127.93 174.57 L 128.03 174.10 L 127.02 173.07 L 126.89 172.41 L 127.08 171.30 L 127.29 171.26 L 127.81 169.67 L 128.47 169.34 L 128.96 169.45 L 129.79 169.14 L 130.81 169.38 L 131.41 169.06 L 132.40 168.82 L 133.63 168.81 L 134.31 168.03 L 135.13 167.57 L 135.91 166.87 L 134.37 167.35 L 135.06 166.70 L 134.42 166.90 L 134.78 166.43 L 133.63 166.90 L 132.41 167.15 L 132.01 166.84 L 132.68 166.08 L 131.93 166.16 L 131.57 165.85 L 133.08 164.67 L 134.13 164.90 L 134.85 164.77 L 135.04 164.40 L 134.30 163.79 L 134.68 163.20 L 136.19 163.20 L 134.76 162.95 L 135.57 162.02 L 134.96 162.10 L 134.22 162.70 L 133.94 162.44 L 134.60 161.90 L 133.35 162.58 L 132.87 163.00 L 131.83 163.49 L 131.37 164.06 L 129.42 164.86 L 130.17 164.79 L 127.96 166.11 L 127.61 166.62 L 126.77 166.52 L 126.73 166.00 L 126.31 165.91 L 125.85 166.24 L 125.31 167.03 L 124.31 167.59 L 123.60 168.66 L 121.89 169.50 L 120.86 168.60 L 121.67 168.27 L 122.07 167.66 L 120.64 165.84 L 120.08 166.39 L 119.51 166.23 L 118.97 166.94 L 118.73 166.85 L 119.52 165.62 L 120.55 165.53 L 120.76 165.20 L 120.20 164.97 L 120.48 164.73 L 121.46 164.92 L 121.07 165.04 L 120.68 165.82 L 122.13 167.62 L 122.82 167.53 L 122.96 166.35 L 123.26 165.90 L 123.01 165.11 L 123.41 164.95 L 124.36 164.11 L 124.58 163.54 L 124.62 162.57 L 124.96 162.30 L 124.90 161.82 L 125.46 161.27 L 125.91 161.27 L 127.59 159.93 L 128.17 159.65 L 128.36 160.07 L 129.35 160.12 L 130.94 159.49 L 131.68 159.02 L 131.60 158.60 L 132.05 157.76 L 132.64 157.47 L 132.74 157.03 L 133.90 155.48 L 135.05 154.49 L 135.48 154.36 L 136.48 153.25 L 137.50 153.30 L 137.51 153.06 L 138.78 153.12 L 138.98 152.20 L 139.72 151.81 L 140.95 152.17 L 140.80 153.36 L 141.14 153.76 L 142.11 153.46 L 142.76 152.99 L 144.20 152.52 L 145.24 152.60 L 145.77 152.87 L 146.23 152.33 L 145.89 151.59 L 146.33 151.60 L 146.77 152.11 L 147.84 152.18 L 148.55 151.55 L 149.11 151.34 L 149.11 150.29 L 148.79 149.50 L 148.88 147.71 L 149.65 147.33 L 150.62 147.50 L 151.99 146.76 L 152.63 147.99 L 153.00 148.22 L 152.87 148.68 L 152.04 148.97 L 151.60 149.43 L 150.39 149.90 L 150.56 150.44 L 151.26 150.67 L 152.24 150.19 L 152.17 148.99 L 152.91 148.83 L 153.30 148.32 L 153.03 148.11 L 153.78 147.66 L 154.46 147.69 L 154.60 147.16 L 155.38 147.03 L 155.20 146.42 L 156.76 146.05 L 157.34 145.26 L 158.06 145.51 L 158.69 146.47 L 159.17 146.62 L 160.05 144.55 L 159.64 144.57 L 159.77 143.78 L 160.28 143.39 L 160.67 143.55 L 160.95 143.06 L 161.40 143.60 L 161.94 145.05 L 161.63 143.21 L 160.28 142.64 L 159.84 141.91 L 158.97 141.98 L 158.11 141.55 L 157.99 141.24 L 158.65 140.94 L 159.77 141.07 L 159.85 140.04 L 158.88 139.76 L 158.39 139.20 L 158.46 138.73 L 157.77 138.51 L 157.50 139.33 L 156.56 139.78 L 155.14 139.36 L 154.65 139.61 L 153.50 138.74 L 153.50 138.20 L 154.02 137.96 L 153.27 137.23 L 152.88 136.38 L 153.44 136.79 L 154.98 137.38 L 156.05 136.72 L 157.02 134.80 L 156.04 133.85 L 155.69 133.89 L 155.87 132.96 L 156.21 132.65 L 156.20 132.11 L 156.80 132.02 L 157.00 131.45 L 156.47 131.15 L 157.03 130.59 L 156.47 130.30 L 156.84 130.03 L 157.30 128.63 L 156.83 128.31 L 156.47 128.87 L 156.23 129.76 L 155.32 129.37 L 155.14 129.96 L 155.36 130.86 L 154.81 130.97 L 154.10 131.86 L 154.74 133.72 L 153.50 135.22 L 153.67 135.53 L 153.23 136.43 L 152.99 136.17 L 152.44 136.43 L 151.88 136.30 L 151.77 136.86 L 150.57 137.06 L 150.56 136.28 L 149.93 136.32 L 149.54 136.89 L 148.48 137.56 L 147.97 137.59 L 147.33 138.69 L 146.18 139.23 L 144.70 139.40 L 144.62 139.23 L 143.40 139.45 L 142.77 138.87 L 142.30 137.40 L 142.18 136.34 L 142.50 135.46 L 142.43 134.64 L 143.61 133.79 L 144.25 133.51 L 144.86 132.60 L 145.16 133.09 L 146.15 132.85 L 147.06 132.37 L 147.85 131.55 L 147.76 132.02 L 148.76 131.19 L 149.00 130.20 L 149.70 129.67 L 149.78 129.16 L 149.14 129.79 L 149.06 129.52 L 151.08 128.05 L 151.75 127.35 L 151.26 127.47 L 152.00 126.77 L 151.92 126.53 L 152.45 125.67 L 153.50 126.17 L 153.74 126.80 L 155.52 126.14 L 156.04 125.75 L 156.47 125.80 L 156.76 126.51 L 157.31 126.09 L 157.19 125.31 L 157.91 125.11 L 157.90 125.51 L 158.52 126.14 L 158.86 125.84 L 159.33 124.82 L 159.75 124.69 L 161.48 123.27 L 162.56 122.80 L 162.15 122.15 L 161.27 121.64 L 161.07 122.20 L 160.21 121.70 L 159.60 121.83 L 160.28 121.25 L 159.57 120.38 L 159.08 120.70 L 158.26 120.70 L 157.91 121.12 L 156.79 121.46 L 156.37 121.19 L 156.90 120.91 L 156.88 120.49 L 156.40 119.95 L 156.80 119.65 L 156.27 119.26 L 155.30 119.70 L 155.12 119.40 L 154.41 119.98 L 153.85 119.81 L 154.13 119.38 L 152.75 119.72 L 152.48 119.55 L 151.72 120.06 L 151.32 120.62 L 150.25 120.40 L 149.98 119.44 L 149.90 118.15 L 150.07 117.34 L 150.09 116.25 L 151.69 115.81 L 151.81 116.36 L 152.28 115.45 L 153.71 114.54 L 154.31 114.35 L 155.56 113.32 L 156.25 113.49 L 157.46 112.56 L 157.31 112.10 L 156.35 112.38 L 156.20 111.96 L 155.26 112.21 L 154.10 112.00 L 154.01 111.59 L 153.50 112.06 L 154.22 112.42 L 153.54 112.92 L 153.54 113.28 L 154.47 113.02 L 154.86 113.29 L 154.33 113.91 L 152.88 114.60 L 151.22 115.61 L 150.21 115.83 L 149.50 115.78 L 149.51 116.63 L 149.12 117.02 L 149.20 117.77 L 148.86 118.46 L 149.26 119.01 L 149.38 120.93 L 148.71 122.57 L 148.25 122.53 L 147.55 122.98 L 146.76 123.91 L 146.31 123.97 L 144.90 124.69 L 143.69 125.05 L 142.60 125.75 L 142.22 126.18 L 141.58 126.43 L 140.29 127.27 L 139.49 127.98 L 139.68 128.11 L 138.86 128.92 L 138.30 129.00 L 137.98 129.63 L 135.91 131.55 L 135.10 132.83 L 134.58 132.99 L 133.44 133.95 L 131.52 135.13 L 126.10 137.52 L 123.53 138.96 L 121.46 140.98 L 119.95 142.25 L 119.04 142.66 L 119.51 142.84 L 119.09 143.56 L 120.29 142.82 L 120.90 142.25 L 122.78 141.52 L 123.16 140.89 L 122.70 140.78 L 123.60 140.38 L 123.12 139.88 L 123.55 139.35 L 124.31 139.28 L 124.55 139.69 L 124.70 139.14 L 126.46 138.44 L 127.64 138.55 L 129.77 137.92 L 130.31 137.46 L 131.68 136.78 L 131.77 136.19 L 132.78 135.49 L 133.27 134.96 L 134.34 134.40 L 135.49 133.61 L 135.85 132.83 L 136.36 132.63 L 136.68 132.90 L 137.08 132.63 L 137.51 133.92 L 138.30 134.35 L 138.90 134.38 L 139.38 134.77 L 139.87 134.73 L 140.44 135.25 L 141.16 135.38 L 140.79 135.88 L 141.11 136.43 L 141.08 137.43 L 142.18 139.04 L 141.91 139.65 L 141.24 139.97 L 140.67 140.83 L 139.63 141.03 L 138.73 142.24 L 139.38 142.41 L 138.78 144.67 L 137.78 146.16 L 137.69 146.68 L 136.91 148.00 L 136.67 148.67 L 135.28 149.79 L 134.39 149.95 L 132.92 150.83 L 132.40 150.77 L 131.16 151.66 L 130.03 151.92 L 129.26 152.39 L 128.09 152.42 L 126.78 152.98 L 126.17 153.43 L 124.74 153.92 L 124.16 154.27 L 123.02 155.34 L 120.51 156.21 L 119.95 156.93 L 119.88 158.48 L 118.66 159.55 L 117.62 160.65 L 116.28 160.98 L 114.97 162.30 L 113.95 162.96 L 112.70 163.35 L 112.74 163.77 L 112.33 164.06 L 111.12 164.41 L 110.70 165.18 L 110.84 166.28 L 110.31 166.42 L 109.42 166.03 L 108.19 165.84 L 107.71 165.91 L 107.12 166.67 L 106.18 167.08 L 105.39 167.81 L 103.71 167.63 L 102.77 167.87 L 101.71 167.76 L 100.72 168.41 L 100.80 168.88 L 100.25 169.72 L 98.09 171.20 L 97.43 172.34 L 96.44 173.31 L 95.52 173.85 L 94.23 173.91 L 93.12 174.26 L 91.36 173.87 L 90.43 174.71 L 89.95 174.56 L 90.01 173.71 L 88.82 173.59 L 88.21 173.78 L 87.77 173.47 L 87.18 172.60 L 86.22 169.75 L 86.81 168.95 L 86.74 168.38 L 86.01 167.59 L 86.02 167.26 L 85.34 166.97 L 85.90 165.82 L 86.37 165.72 L 87.08 165.12 L 86.76 164.06 L 84.15 164.70 L 83.51 164.65 L 83.41 164.12 L 82.53 163.33 L 82.85 162.89 L 81.94 162.16 L 82.21 161.93 L 82.05 161.26 L 81.71 161.32 L 81.22 160.60 L 82.06 159.90 L 82.27 160.02 L 83.02 159.43 L 83.73 159.13 L 83.53 158.83 L 82.39 158.64 L 82.43 158.08 L 82.03 157.65 L 81.23 157.64 L 81.27 157.16 L 81.82 156.79 L 82.31 156.08 L 81.74 154.78 L 82.50 154.25 L 83.69 154.42 L 83.69 155.21 L 84.01 155.34 L 84.78 154.69 L 84.52 154.37 L 85.12 153.73 L 86.48 153.06 L 86.81 153.57 L 87.30 153.43 L 88.72 153.68 L 88.64 152.97 L 87.75 152.31 L 88.41 151.75 L 89.69 151.24 L 89.63 152.47 L 91.28 151.58 L 92.51 151.32 L 92.90 151.40 L 92.99 150.88 L 93.86 150.29 L 94.22 150.31 L 94.29 149.64 L 95.18 148.80 L 96.25 148.44 L 96.74 147.95 L 95.64 148.28 L 94.49 148.28 L 94.01 149.09 L 93.31 149.32 L 92.62 150.02 L 91.77 150.31 L 91.28 150.16 L 91.59 149.40 L 92.55 148.41 L 92.55 147.86 L 93.07 147.34 L 94.03 147.21 L 94.26 146.50 L 93.75 146.69 L 94.69 145.71 L 95.42 145.51 L 96.35 145.52 L 96.32 144.91 L 95.52 145.04 L 94.48 145.64 L 93.73 145.83 L 92.11 147.08 L 91.18 147.14 L 90.72 147.46 L 89.54 147.85 L 88.32 147.75 L 87.42 147.92 L 87.10 148.30 L 85.46 149.36 L 84.95 149.35 L 84.54 149.85 L 84.90 150.35 L 84.12 151.03 L 83.33 151.37 L 83.02 150.91 L 82.57 150.94 L 81.94 151.65 L 81.06 152.22 L 80.15 152.46 L 79.71 152.84 L 78.73 152.86 L 78.05 153.66 L 77.59 153.45 L 76.05 153.24 L 75.79 153.07 L 74.92 153.25 L 74.41 154.02 L 74.58 154.30 L 74.41 155.66 L 74.57 155.86 L 73.58 155.79 L 73.19 155.55 L 72.04 155.68 L 70.80 156.19 L 70.10 157.21 L 69.89 158.19 L 69.38 157.84 L 69.00 158.25 L 69.12 157.58 L 68.37 157.11 L 68.96 156.97 L 69.43 156.32 L 69.54 155.67 L 70.10 155.33 L 70.25 153.55 L 70.03 152.28 L 69.32 151.93 L 68.41 152.11 L 68.03 151.89 L 69.11 151.66 L 68.84 151.27 L 69.74 150.99 L 70.64 151.01 L 70.92 150.65 L 71.77 150.36 L 72.33 150.50 L 72.48 149.99 L 74.21 149.59 L 74.88 149.24 L 75.16 148.64 L 75.51 148.61 L 76.31 147.75 L 77.40 147.96 L 77.22 147.62 L 77.89 147.30 L 78.25 147.43 L 78.74 147.04 L 79.61 146.78 L 80.88 147.06 L 81.38 146.87 L 80.86 146.38 L 79.91 146.55 L 78.92 146.43 L 78.26 146.76 L 76.64 147.06 L 73.81 147.43 L 72.35 147.49 L 71.88 147.66 L 69.46 146.45 L 69.89 145.42 L 71.28 144.22 L 71.75 144.24 L 71.97 143.63 L 71.80 143.29 L 73.61 142.42 L 73.69 142.87 L 74.31 142.29 L 73.93 141.98 L 74.81 141.50 L 75.21 141.61 L 75.18 140.91 L 74.60 141.17 L 74.29 140.80 L 73.23 141.40 L 72.20 141.82 L 71.96 141.58 L 72.78 141.22 L 72.83 140.72 L 73.45 140.28 L 73.82 140.44 L 74.80 139.89 L 74.64 139.52 L 75.38 138.68 L 76.94 138.08 L 77.30 137.63 L 77.93 137.57 L 77.81 137.29 L 78.96 136.71 L 79.28 137.58 L 77.83 138.56 L 77.98 138.71 L 78.62 138.14 L 79.48 138.04 L 79.73 137.49 L 81.78 136.71 L 81.85 137.37 L 81.40 139.16 L 81.11 138.81 L 80.76 139.45 L 79.89 139.43 L 78.66 139.97 L 77.57 140.15 L 75.49 141.16 L 75.72 141.69 L 76.12 141.56 L 76.37 140.98 L 76.63 141.19 L 78.18 140.86 L 79.47 140.99 L 79.76 140.46 L 80.40 140.11 L 81.23 140.08 L 82.11 139.16 L 81.53 139.06 L 81.81 138.29 L 82.38 138.02 L 82.92 138.09 L 82.70 138.77 L 83.33 138.82 L 84.51 137.72 L 84.98 137.62 L 85.02 136.15 L 84.21 136.94 L 84.82 136.66 L 84.94 137.24 L 84.15 137.83 L 83.48 137.12 L 83.16 136.43 L 82.73 136.37 L 82.54 135.87 L 82.92 135.71 L 83.77 134.84 L 84.64 134.30 L 85.63 133.98 L 85.74 134.36 L 86.82 133.56 L 87.12 134.10 L 88.01 133.95 L 88.11 133.55 L 88.59 133.66 L 86.38 135.56 L 87.18 135.18 L 87.20 135.84 L 87.57 136.21 L 87.89 135.64 L 89.02 134.97 L 89.97 134.17 L 90.02 133.76 L 90.82 133.57 L 91.05 133.15 L 92.13 132.40 L 94.38 131.39 L 95.99 131.14 L 96.44 130.90 L 96.04 130.53 L 96.98 130.16 L 97.90 130.04 L 98.31 130.33 L 98.13 129.62 L 98.97 129.06 L 99.09 129.64 L 99.59 129.17 L 99.56 129.90 L 99.77 130.27 L 100.92 130.88 L 101.38 130.48 L 101.28 129.36 L 100.41 129.65 L 100.28 129.23 L 100.47 128.05 L 100.92 127.85 L 101.39 128.56 L 101.46 128.01 L 101.11 127.68 L 101.38 127.39 L 100.24 127.75 L 99.75 128.20 L 99.72 127.60 L 100.03 127.22 L 98.01 128.10 L 97.55 128.58 L 96.87 128.69 L 96.20 129.09 L 95.67 129.04 L 95.51 128.40 L 95.12 128.82 L 95.22 129.35 L 94.50 129.81 L 95.16 130.04 L 95.04 130.36 L 93.53 131.23 L 92.78 131.01 L 92.92 130.44 L 91.85 130.77 L 91.45 131.19 L 90.45 131.53 L 90.84 131.97 L 89.95 132.21 L 90.25 131.58 L 89.30 132.00 L 90.09 132.66 L 89.11 133.20 L 88.12 132.48 L 89.24 131.52 L 88.60 131.48 L 88.66 131.21 L 89.57 131.35 L 90.39 130.56 L 91.34 130.00 L 91.83 129.51 L 93.18 128.80 L 94.25 128.45 L 94.76 128.74 L 95.76 127.41 L 95.44 127.42 L 97.11 126.46 L 99.41 124.46 L 100.44 124.00 L 101.57 123.18 L 100.45 123.49 L 99.32 124.40 L 98.82 124.58 L 97.27 125.65 L 96.60 126.39 L 95.36 126.90 L 96.01 125.96 L 95.25 126.42 L 94.13 126.82 L 96.88 125.06 L 96.87 124.91 L 93.34 126.80 L 92.54 127.10 L 93.19 126.49 L 92.15 126.86 L 91.01 126.04 L 91.96 126.95 L 90.35 127.80 L 89.66 128.05 L 89.19 127.85 L 88.33 128.46 L 88.31 127.45 L 88.56 127.09 L 89.07 127.14 L 89.15 126.28 L 89.44 126.36 L 89.70 125.61 L 90.93 125.52 L 90.37 124.95 L 90.80 124.60 L 90.88 124.10 L 90.26 123.95 L 90.19 123.47 L 90.54 123.27 L 91.87 123.97 L 93.12 124.84 L 93.32 124.43 L 93.07 123.99 L 91.00 122.72 L 91.13 122.02 L 91.87 122.69 L 92.21 122.62 L 91.73 121.78 L 90.76 121.38 L 91.75 120.46 L 92.16 120.51 L 93.67 121.96 L 93.77 120.91 L 93.19 121.13 L 92.72 120.44 L 93.08 120.38 L 93.14 119.85 L 92.21 119.74 L 93.95 119.01 L 94.56 118.15 L 93.86 117.65 L 93.42 117.65 L 92.55 116.93 L 91.59 114.98 L 92.11 115.53 L 92.58 115.13 L 92.08 114.30 L 91.97 113.43 L 92.59 113.12 L 93.12 113.29 L 93.32 112.80 L 93.99 112.60 L 94.52 112.85 L 95.20 113.54 L 96.88 114.92 L 97.27 115.35 L 96.80 116.30 L 97.20 116.52 L 97.63 116.05 L 97.71 115.39 L 98.22 115.00 L 98.29 115.40 L 98.80 115.60 L 98.78 115.05 L 99.53 114.79 L 101.89 113.04 L 102.54 112.80 L 102.85 113.08 L 103.14 112.50 L 102.81 111.62 L 101.59 112.29 L 101.43 112.65 L 100.07 113.08 L 99.12 112.89 L 98.05 112.31 L 97.10 112.10 L 96.44 110.83 L 96.92 110.45 L 96.84 109.88 L 97.23 109.38 L 97.94 108.97 L 98.22 108.55 L 99.36 109.10 L 99.75 108.98 L 100.51 109.50 L 100.59 109.15 L 100.11 108.71 L 98.98 108.72 L 98.92 108.00 L 99.45 107.57 L 99.72 107.86 L 101.35 108.62 L 101.24 107.38 L 100.71 107.08 L 101.11 106.87 L 101.11 106.22 L 101.50 105.58 L 100.88 105.56 L 101.04 105.10 L 100.50 104.82 L 100.05 105.16 L 99.83 104.73 L 100.35 104.18 L 99.97 104.12 L 100.12 103.28 L 100.95 102.55 L 101.02 102.99 L 101.43 102.85 L 101.90 103.15 L 102.11 103.76 L 102.78 104.68 L 103.63 104.72 L 103.42 104.20 L 103.00 104.24 L 102.64 103.66 L 102.88 103.41 L 102.56 102.80 L 103.18 102.81 L 104.33 102.50 L 104.60 103.06 L 104.24 103.72 L 104.84 104.51 L 105.27 104.44 L 104.68 103.48 L 105.24 103.25 L 105.49 102.85 L 105.00 102.80 L 105.10 102.03 L 105.78 102.48 L 106.02 102.35 L 107.73 102.81 L 108.45 103.55 L 108.29 104.42 L 107.83 105.08 L 108.29 105.61 L 108.82 105.14 L 108.88 104.47 L 109.42 103.79 L 109.65 103.11 L 108.90 102.41 L 107.56 101.67 L 105.11 100.78 L 103.85 99.83 L 104.82 98.54 L 106.45 98.38 L 107.12 97.61 L 107.63 97.75 L 107.99 97.31 L 107.45 97.25 L 107.60 96.48 L 106.94 96.63 L 107.06 96.04 L 107.84 95.79 L 107.65 95.21 L 108.43 94.74 L 109.51 95.98 L 109.55 96.38 L 110.17 96.90 L 110.11 97.30 L 110.52 97.76 L 111.04 97.80 L 110.97 96.86 L 110.30 96.61 L 110.14 96.17 L 110.52 95.77 L 109.79 95.94 L 109.57 95.27 L 109.94 95.45 L 110.29 94.85 L 109.97 94.60 L 110.17 93.63 L 111.48 93.33 L 111.84 94.32 L 111.64 94.60 L 112.37 95.33 L 112.75 94.82 L 112.01 93.49 L 112.95 93.48 L 113.04 93.86 L 113.69 93.95 L 114.26 94.33 L 114.93 93.31 L 114.50 93.27 L 115.06 92.58 L 114.31 92.69 L 113.46 93.12 L 113.20 92.66 L 112.70 92.90 L 112.33 92.46 L 112.82 91.67 L 112.68 91.24 L 112.08 90.71 L 112.27 90.06 L 113.71 90.12 L 113.19 89.63 L 112.63 89.48 L 112.25 89.01 L 112.40 88.59 L 112.03 87.86 L 112.59 88.05 L 112.80 88.45 L 113.58 88.49 L 114.48 89.27 L 115.40 89.48 L 114.93 88.89 L 113.94 88.18 L 113.34 88.05 L 113.42 87.43 L 114.09 87.34 L 115.12 88.09 L 115.42 88.64 L 116.37 88.97 L 116.66 89.59 L 117.31 89.68 L 117.85 90.12 L 117.73 90.55 L 118.57 90.34 L 118.39 89.97 L 116.86 88.77 L 116.09 87.99 L 115.33 87.64 L 115.21 87.18 L 115.61 86.88 L 115.17 85.89 L 115.56 85.74 L 116.52 85.89 L 116.86 86.15 L 118.13 86.18 L 118.66 86.42 L 118.92 87.13 L 119.48 87.82 L 120.29 88.35 L 119.87 88.90 L 121.16 88.75 L 121.70 87.73 L 123.34 87.50 L 123.46 86.98 L 122.37 86.75 L 121.30 87.15 L 120.76 86.66 L 120.44 86.89 L 120.15 86.34 L 120.98 86.06 L 120.32 85.49 L 120.59 84.89 L 120.29 84.54 L 119.72 84.97 L 119.84 84.16 L 118.17 84.58 L 117.94 84.05 L 118.69 83.67 L 117.77 82.99 L 117.04 82.92 L 115.00 83.38 L 114.46 83.66 L 114.62 84.13 L 114.17 84.37 L 113.83 83.76 L 114.09 83.50 L 113.12 83.33 L 113.27 83.14 L 112.51 82.72 L 112.76 82.21 L 114.13 81.54 L 114.42 80.69 L 114.86 80.62 L 115.61 79.99 L 116.08 80.02 L 115.71 79.52 L 116.15 79.16 L 117.98 81.15 L 118.82 81.48 L 118.93 82.06 L 119.60 82.61 L 119.77 83.45 L 120.66 83.87 L 120.43 84.19 L 121.23 84.19 L 121.49 83.96 L 121.18 83.00 L 120.43 82.90 L 120.16 82.51 L 120.48 82.18 L 121.19 82.23 L 121.36 81.77 L 120.92 81.80 L 120.67 81.31 L 119.88 81.54 L 120.11 80.16 L 119.69 80.70 L 118.50 80.65 L 118.39 80.05 L 117.87 80.36 L 117.95 79.53 L 117.44 79.72 L 117.14 79.25 L 118.02 78.95 L 118.33 79.31 L 119.02 79.36 L 119.33 78.80 L 119.08 78.48 L 119.57 77.77 L 120.32 77.37 L 120.51 78.06 L 121.53 78.79 L 121.53 79.18 L 122.39 79.72 L 122.25 80.02 L 123.41 81.95 L 124.17 81.60 L 126.09 81.93 L 126.77 81.69 L 127.13 82.69 L 126.66 83.10 L 127.16 83.83 L 126.77 84.36 L 127.20 85.35 L 127.80 85.46 L 128.29 84.90 L 129.18 84.61 L 129.23 85.21 L 129.95 85.66 L 129.46 86.18 L 129.85 86.41 L 131.13 86.35 L 131.29 85.95 L 130.09 84.92 L 130.23 84.10 L 129.16 83.70 L 128.29 82.64 L 128.76 82.38 L 129.23 82.52 L 129.08 81.99 L 129.35 81.70 L 128.84 81.22 L 129.98 81.76 L 129.35 80.81 L 129.22 80.23 L 129.42 79.49 L 128.00 79.95 L 127.13 79.92 L 126.39 78.84 L 126.47 80.10 L 125.49 80.25 L 125.03 80.70 L 124.48 80.75 L 124.48 80.15 L 124.19 79.59 L 122.65 79.07 L 122.15 78.45 L 122.14 77.92 L 122.57 77.49 L 123.59 77.43 L 123.88 77.21 L 124.17 76.16 L 124.08 75.75 L 124.67 75.39 L 125.34 76.11 L 126.06 76.45 L 125.90 77.36 L 126.56 77.62 L 127.13 77.43 L 127.56 76.42 L 127.28 76.02 L 127.26 75.17 L 127.76 75.62 L 127.92 76.55 L 128.47 76.97 L 128.29 76.23 L 127.81 75.56 L 127.63 74.72 L 127.21 74.54 L 126.80 73.81 L 127.00 73.47 L 127.72 73.83 L 128.13 73.50 L 127.83 72.29 L 128.74 72.90 L 128.40 73.33 L 129.00 73.75 L 129.14 74.58 L 129.40 74.77 L 128.51 75.12 L 128.31 74.80 L 127.80 74.93 L 128.63 75.56 L 130.19 75.96 L 130.60 77.14 L 130.34 77.60 L 130.97 77.79 L 131.30 77.56 L 132.08 77.80 L 131.85 77.22 L 131.05 76.05 L 130.38 76.17 L 130.18 75.65 L 130.82 75.67 L 130.92 75.06 L 129.39 74.16 L 129.07 73.46 L 129.59 73.68 L 129.77 73.28 L 129.08 73.29 L 128.66 72.65 L 128.66 72.02 L 129.74 72.38 L 131.61 72.62 L 131.40 72.90 L 132.17 73.56 L 131.89 72.70 L 132.56 73.27 L 132.86 73.03 L 133.48 73.75 L 133.14 74.00 L 133.70 75.57 L 133.35 76.08 L 133.42 76.81 L 133.97 76.77 L 134.11 76.05 L 134.53 76.32 L 134.46 75.80 L 133.98 75.01 L 133.87 74.38 L 133.54 74.25 L 133.86 73.53 L 133.39 72.50 L 133.65 72.37 L 134.49 73.17 L 134.50 72.63 L 135.37 72.68 L 134.70 72.32 L 134.25 71.59 L 134.77 71.50 L 135.71 72.23 L 136.19 72.31 L 137.54 73.53 L 138.22 72.93 L 137.31 73.07 L 137.32 72.58 L 136.48 71.53 L 136.29 71.04 L 136.71 70.72 L 137.16 69.85 L 137.70 69.48 L 136.95 68.91 L 137.02 68.37 L 135.96 67.25 L 135.75 66.07 L 134.89 66.12 L 134.30 65.39 L 135.60 64.23 L 136.16 64.35 L 136.44 63.79 L 136.44 62.93 L 136.79 62.96 L 137.30 62.42 L 138.07 62.68 L 138.89 63.73 L 138.76 64.68 L 139.67 64.42 L 140.72 65.32 L 141.23 65.37 L 141.62 66.27 L 142.21 66.48 L 142.93 66.18 L 142.97 66.86 L 142.29 67.13 L 142.15 67.90 L 142.23 69.37 L 142.70 69.73 L 142.35 70.59 L 142.31 71.62 L 142.74 71.50 L 143.01 71.91 L 143.53 70.53 L 144.39 71.00 L 144.25 71.43 L 144.68 71.72 L 145.71 73.03 L 145.98 73.57 L 146.77 73.63 L 147.88 75.00 L 147.34 75.80 L 147.75 76.36 L 148.13 76.18 L 147.83 77.50 L 146.81 78.71 L 146.77 79.19 L 147.33 78.98 L 148.03 79.47 L 147.84 80.15 L 148.31 80.45 L 148.01 79.30 L 148.11 78.67 L 149.66 78.09 L 150.05 77.77 L 150.82 78.21 L 151.17 78.00 L 152.59 77.66 L 152.98 78.02 L 153.06 79.24 L 153.47 79.04 L 154.38 79.04 L 155.12 79.31 L 155.00 80.72 L 154.53 81.77 L 154.61 82.10 L 154.07 83.14 L 153.95 84.11 L 152.83 85.25 L 152.21 85.68 L 151.51 87.12 L 150.69 86.99 L 150.89 87.51 L 151.26 87.54 L 150.54 88.79 L 149.65 89.90 L 149.27 90.80 L 149.14 91.79 L 149.63 92.02 L 150.15 91.61 L 150.23 91.12 L 150.72 90.55 L 150.82 89.75 L 151.49 89.25 L 151.16 88.61 L 151.51 88.39 L 151.81 87.58 L 152.41 87.47 L 152.99 86.77 L 154.11 86.27 L 155.06 84.90 L 154.72 83.97 L 155.89 83.83 L 156.09 83.23 L 156.39 83.46 L 156.92 83.24 L 157.15 83.63 L 156.76 84.11 L 157.30 84.25 L 158.02 84.96 L 157.06 85.22 L 156.23 86.53 L 157.07 86.53 L 157.44 86.77 L 158.35 86.36 L 158.43 85.07 L 157.66 84.48 L 157.63 83.89 L 157.12 83.06 L 157.39 82.71 L 156.80 82.58 L 155.77 81.31 L 156.31 81.15 L 157.38 80.22 L 156.99 79.76 L 157.90 78.95 L 158.25 78.44 L 158.62 78.79 L 158.56 79.57 L 158.97 79.86 L 159.59 79.04 L 160.03 79.80 L 161.15 79.58 L 161.06 79.33 L 161.98 79.31 L 162.23 78.64 L 162.66 78.93 L 162.88 78.35 L 163.97 78.32 L 163.95 77.88 L 163.42 77.54 L 163.88 77.23 L 164.20 77.49 L 164.35 76.94 L 165.36 77.05 L 166.53 76.43 L 166.82 76.74 L 167.68 76.22 L 168.00 75.66 L 170.05 75.51 L 169.54 75.06 L 168.59 75.11 L 167.21 75.69 L 167.13 75.95 L 166.29 76.18 L 165.58 76.09 L 164.15 76.43 L 163.85 76.84 L 162.94 77.24 L 162.92 76.82 L 161.99 76.29 L 162.07 76.61 L 161.07 77.69 L 160.09 77.83 L 159.87 76.96 L 160.29 76.22 L 159.38 75.66 L 160.21 74.48 L 160.70 74.75 L 160.84 74.26 L 159.99 74.08 L 160.35 73.66 L 160.12 73.30 L 160.25 72.44 L 161.32 71.27 L 162.06 71.60 L 162.19 71.29 L 163.59 71.76 L 163.99 71.38 L 164.67 71.36 L 164.70 70.29 L 163.79 69.65 L 163.33 70.47 L 162.64 70.35 L 163.32 69.83 L 162.33 68.83 L 162.89 68.81 L 163.55 68.32 L 164.27 68.44 L 164.24 68.19 L 165.14 69.22 L 165.15 70.03 L 166.38 68.67 L 167.20 68.22 L 168.72 66.34 L 169.65 66.27 L 170.58 66.00 L 170.86 65.63 L 171.59 65.61 L 172.78 65.32 L 172.82 65.09 L 173.70 64.98 L 173.77 64.65 L 174.43 64.76 L 175.18 64.56 L 176.43 64.55 L 177.11 64.24 L 176.88 64.08 L 175.81 64.09 L 175.28 63.92 L 173.89 64.37 L 172.70 63.78 L 171.81 63.84 L 170.11 65.11 L 169.98 64.80 L 168.88 65.39 L 168.54 66.16 L 168.25 66.20 L 168.11 65.34 L 168.82 64.44 L 167.88 64.62 L 168.56 63.38 L 168.45 62.83 L 168.99 62.15 L 169.04 61.58 L 168.29 61.67 L 167.85 61.26 L 167.14 61.47 L 166.73 62.19 L 165.66 62.75 L 164.75 63.05 L 166.02 63.07 L 166.66 62.84 L 166.86 62.47 L 167.42 62.52 L 167.44 63.09 L 167.99 63.62 L 167.76 64.49 L 166.25 65.82 L 165.74 65.81 L 165.27 66.61 L 164.52 66.70 L 164.25 65.99 L 163.60 66.45 L 162.61 65.49 L 162.46 64.96 L 160.98 63.84 L 160.12 62.54 L 159.63 62.19 L 158.93 61.07 L 159.17 60.88 L 158.38 60.50 L 157.97 60.01 L 157.93 58.77 L 158.33 58.74 L 158.86 59.94 L 158.57 58.33 L 157.40 57.92 L 157.08 56.16 L 157.54 54.64 L 157.94 54.60 L 157.83 55.29 L 158.93 54.98 L 159.83 54.11 L 159.34 53.09 L 158.76 52.80 L 158.41 52.94 L 158.31 51.92 L 159.60 52.28 L 159.75 52.04 L 161.16 51.39 L 161.61 51.06 L 162.64 50.78 L 163.81 50.20 L 163.83 49.73 L 164.80 48.94 L 164.31 48.09 L 165.38 47.57 L 167.14 48.88 L 167.28 48.74 L 168.24 49.10 L 169.04 49.84 L 170.18 49.41 L 168.66 49.36 L 167.85 48.63 L 169.31 47.65 L 169.35 47.30 L 168.80 47.37 L 169.42 46.96 L 168.59 46.84 L 167.95 47.31 L 167.48 47.15 L 166.89 47.49 L 166.10 47.06 L 166.54 46.25 L 167.37 46.23 L 168.15 45.97 L 169.04 46.41 L 170.01 45.87 L 169.97 45.54 L 170.62 45.71 L 170.47 46.04 L 171.32 46.28 L 173.22 45.67 L 173.24 45.32 L 172.68 45.48 L 172.95 44.66 L 173.36 44.56 L 174.07 44.88 L 174.34 45.97 L 175.37 45.68 L 176.83 45.61 L 176.98 45.20 L 178.05 45.33 L 177.65 45.10 L 177.79 44.67 L 178.23 44.88 L 178.65 44.33 L 179.30 44.42 L 179.08 43.96 L 179.83 43.56 L 180.45 43.63 L 180.25 43.12 L 179.96 43.41 L 178.97 43.05 L 178.54 43.32 L 177.81 43.16 L 177.73 42.51 L 176.37 43.04 L 177.00 43.05 L 176.49 43.55 L 174.89 43.72 L 174.19 43.63 L 174.25 43.11 L 175.02 42.73 L 174.57 42.71 L 174.74 42.24 L 173.54 42.33 L 172.55 42.63 L 172.68 42.30 L 171.91 42.40 L 171.59 42.18 L 172.52 41.98 L 171.76 41.51 L 171.33 41.49 L 171.50 41.07 L 170.42 41.39 L 168.96 41.62 L 169.24 41.22 L 170.97 40.64 L 171.84 40.61 L 172.62 40.11 L 174.50 39.71 L 176.07 39.58 L 177.07 39.32 L 177.46 39.00 L 176.67 38.95 L 175.45 39.56 L 175.30 39.31 L 175.91 39.10 L 176.58 38.27 L 177.38 37.93 L 177.42 37.46 L 178.18 37.03 L 177.19 37.00 L 177.61 36.47 L 176.67 37.02 L 175.85 38.02 L 175.53 38.66 L 174.92 38.93 L 173.44 39.26 L 172.36 39.18 L 171.36 39.56 L 170.18 39.54 L 170.38 38.86 L 171.00 38.07 L 170.73 37.65 L 171.56 36.75 L 173.22 36.62 L 173.03 36.03 L 172.66 36.33 L 172.04 36.30 L 172.20 35.82 L 172.95 35.62 L 174.49 34.98 L 175.50 34.85 L 175.24 34.50 L 175.95 33.90 L 178.14 33.03 L 178.94 32.60 L 180.40 32.09 L 180.08 32.68 L 180.60 32.73 L 180.71 32.10 L 182.42 31.19 L 182.73 31.17 L 184.23 30.05 L 184.90 29.71 L 186.13 29.99 L 186.58 29.77 L 187.60 29.73 L 187.93 30.21 L 188.47 29.81 L 188.82 29.16 L 188.68 28.65 L 189.69 28.47 L 190.29 27.93 L 190.10 27.59 L 190.60 27.34 L 191.57 27.51 L 191.95 26.98 L 191.64 26.86 L 193.78 26.66 L 194.38 26.70 L 194.74 27.30 L 195.63 27.48 L 196.04 28.54 L 195.96 29.28 L 194.94 29.58 L 195.45 29.77 L 196.36 29.51 L 196.83 29.92 L 197.42 29.35 L 198.11 29.01 L 198.60 29.11 L 198.98 29.64 L 200.80 29.62 L 201.15 30.14 L 202.47 30.40 L 203.09 30.29 L 204.16 30.92 L 204.87 30.98 L 205.39 31.76 L 206.33 32.53 L 207.67 34.33 L 208.32 34.54 L 209.04 34.12 L 208.45 33.82 L 205.91 30.96 L 205.90 30.63 L 204.94 30.32 L 204.16 29.84 L 202.25 29.33 L 201.27 28.42 L 200.43 28.41 L 199.13 28.02 L 198.98 28.48 L 198.01 28.35 L 197.42 28.53 L 196.45 28.16 L 195.63 27.17 L 195.08 27.04 L 194.57 26.40 L 193.39 26.13 L 192.48 26.07 L 190.64 26.65 L 189.98 26.60 L 189.69 25.85 L 189.18 26.62 L 188.39 26.70 L 188.47 27.11 L 187.59 28.29 L 185.34 28.35 L 184.84 28.65 L 184.71 28.09 L 183.75 29.32 L 183.01 29.87 L 182.86 29.67 L 182.03 30.52 L 181.43 30.86 L 179.26 31.55 L 178.60 32.05 L 177.70 32.37 L 176.37 33.25 L 175.25 33.74 L 174.65 34.26 L 173.57 34.83 L 171.64 35.56 L 170.56 35.75 L 170.06 36.21 L 169.44 36.42 L 168.51 36.30 L 168.63 36.96 L 169.93 37.13 L 170.52 36.86 L 169.86 38.34 L 169.74 39.10 L 168.27 40.40 L 166.86 40.62 L 166.15 40.89 L 166.17 41.35 L 165.26 41.84 L 163.64 41.52 L 163.61 42.00 L 163.14 42.40 L 161.50 42.21 L 160.94 42.32 L 160.98 42.73 L 161.50 42.90 L 160.58 43.25 L 161.19 43.25 L 161.02 43.82 L 158.98 44.14 L 159.09 44.38 L 161.24 43.92 L 161.20 44.34 L 159.56 45.45 L 159.16 46.21 L 158.58 46.25 L 158.81 46.72 L 157.43 48.05 L 155.69 48.53 L 154.13 48.76 L 152.72 49.55 L 152.68 49.42 L 151.48 50.05 L 150.72 50.28 L 150.06 50.14 L 149.55 50.41 L 149.44 50.06 L 150.54 49.68 L 152.59 48.36 L 153.43 47.20 L 155.57 46.76 L 156.56 45.80 L 156.43 45.38 L 157.31 45.15 L 157.61 44.86 L 157.08 44.68 L 157.90 44.16 L 157.40 44.03 L 158.70 43.19 L 158.57 42.93 L 159.83 42.65 L 160.24 42.23 L 160.11 41.74 L 159.09 42.05 L 158.65 42.58 L 157.48 42.46 L 157.06 42.77 L 154.47 42.40 L 153.31 41.77 L 154.34 41.46 L 154.61 40.92 L 152.74 41.56 L 153.03 41.67 L 152.63 42.48 L 152.17 42.71 L 151.42 42.12 L 150.77 42.12 L 151.13 41.54 L 150.38 41.77 L 151.13 41.16 L 151.49 41.18 L 151.48 40.27 L 150.90 40.69 L 151.36 39.79 L 151.84 39.62 L 153.22 39.55 L 154.22 39.16 L 152.58 39.52 L 152.31 39.33 L 153.16 39.26 L 153.71 38.83 L 152.60 39.17 L 151.76 39.15 L 152.12 38.52 L 152.59 38.25 L 155.40 37.60 L 156.29 37.13 L 156.63 37.33 L 157.83 36.79 L 158.73 36.56 L 159.16 36.76 L 160.33 36.49 L 163.21 36.34 L 164.08 36.76 L 164.43 36.13 L 166.17 35.84 L 165.90 36.66 L 166.80 35.83 L 168.05 34.90 L 168.74 34.60 L 169.94 34.49 L 170.39 33.93 L 170.41 34.32 L 170.97 34.25 L 171.73 33.29 L 173.89 32.34 L 173.24 32.35 L 172.00 32.74 L 171.75 32.39 L 170.11 33.14 L 169.50 33.61 L 168.31 33.88 L 167.25 34.30 L 166.46 34.96 L 166.53 34.03 L 165.74 33.32 L 166.43 31.94 L 166.97 32.66 L 166.65 33.31 L 167.38 33.32 L 167.24 32.40 L 166.82 32.15 L 167.04 31.65 L 167.67 31.67 L 167.50 31.03 L 168.56 30.34 L 168.37 30.04 L 167.18 30.86 L 166.31 31.21 L 165.63 32.29 L 164.76 32.89 L 163.72 31.95 L 163.87 31.42 L 163.49 30.69 L 163.28 30.90 L 162.53 30.49 L 162.43 29.78 L 161.73 29.60 L 161.69 29.27 L 162.97 28.52 L 163.17 28.03 L 165.12 27.41 L 166.17 27.28 L 166.58 27.55 L 166.19 28.54 L 166.50 28.54 L 166.97 27.98 L 166.97 27.37 L 167.32 26.88 L 168.03 26.82 L 168.83 27.71 L 169.23 29.00 L 169.20 29.40 L 169.79 29.52 L 169.78 29.86 L 170.42 29.42 L 169.98 29.35 L 170.09 28.37 L 169.75 28.57 L 169.62 27.89 L 168.90 27.37 L 168.24 26.39 L 170.35 26.13 L 170.81 27.09 L 171.34 26.77 L 171.14 27.54 L 170.66 27.93 L 171.45 27.82 L 171.77 27.44 L 173.77 27.69 L 174.06 26.29 L 174.65 25.83 L 175.10 25.92 L 176.00 25.06 L 176.83 24.57 L 175.69 24.82 L 175.25 24.52 L 174.10 24.35 L 173.44 24.53 L 173.40 25.35 L 173.15 25.72 L 172.71 25.46 L 172.49 24.78 L 171.81 24.61 L 170.69 24.93 L 169.63 24.92 L 168.86 25.29 L 168.24 25.26 L 168.48 24.79 L 167.71 24.98 L 168.27 24.43 L 168.27 23.64 L 170.06 22.26 L 171.25 22.14 L 171.01 23.09 L 171.77 22.73 L 171.71 22.42 L 172.44 21.39 L 173.20 21.32 L 173.51 21.62 L 173.93 22.66 L 173.71 22.98 L 174.56 22.72 L 174.74 23.25 L 175.42 22.73 L 176.12 22.71 L 175.95 23.61 L 176.63 23.88 L 177.23 23.18 L 176.88 22.69 L 176.86 22.06 L 177.38 21.93 L 177.70 21.08 L 178.88 20.78 L 178.33 21.50 L 179.83 20.32 L 180.72 19.28 L 181.61 18.50 L 182.65 17.87 L 183.40 17.04 L 183.60 17.29 L 184.43 17.14 L 184.67 16.74 L 184.52 16.17 L 184.72 15.52 L 185.08 15.34 L 185.08 15.34 L 186.10 15.96 L 186.10 15.96 L 185.50 16.53 L 186.80 16.35 L 187.38 16.46 L 188.92 16.34 L 189.18 16.78 L 189.19 16.80 L 189.19 16.80 L 189.15 17.45 L 188.74 18.65 L 188.95 20.07 L 189.35 21.55 L 189.99 21.72 L 190.47 22.51 L 191.06 23.06 L 192.47 22.64 L 193.31 23.16 L 192.75 21.77 L 193.44 20.88 L 194.19 21.16 L 194.74 22.42 L 196.00 23.05 L 196.00 23.05 L 195.49 23.70 L 195.42 24.70 L 195.75 24.92 L 195.75 24.92 L 196.87 25.83 L 197.11 25.71 L 198.43 26.26 L 198.90 25.93 L 199.50 26.64 L 200.31 27.09 L 205.71 23.94 L 206.64 23.80 L 208.74 24.27 L 209.39 24.80 L 210.29 24.78 L 211.44 25.35 L 212.08 25.25 L 214.01 24.03 L 214.96 24.36 L 215.25 26.82 L 217.26 29.13 L 218.50 28.48 L 221.42 27.81 L 223.00 28.79 L 223.99 29.00 L 225.10 27.72 L 224.29 25.52 L 230.66 25.64 L 231.97 24.60 L 232.64 23.06 L 231.81 22.04 L 230.86 21.34 L 230.72 20.15 L 231.77 19.18 L 233.59 19.77 L 234.96 16.21 L 236.21 15.77 L 237.71 15.67 L 239.26 12.04 L 242.50 11.45 L 246.46 12.13 L 249.79 12.83 L 254.96 13.13 L 260.67 11.37 L 261.71 11.56 L 265.44 12.50 L 269.34 11.78 L 272.75 11.97 L 275.33 11.22 L 280.03 11.17 L 280.86 10.36 L 283.92 10.09 L 286.41 10.84 L 288.56 10.18 L 291.24 9.11 L 292.55 9.93 L 295.49 9.90 L 295.83 10.65 L 296.71 10.65 L 297.62 11.54 L 298.58 10.89 L 299.04 11.15 L 299.04 11.15 L 294.26 18.18 L 289.58 25.21 L 287.05 29.18 L 284.05 34.10 L 277.23 45.53 L 273.43 51.96 L 269.14 59.13 L 266.66 65.10 L 271.32 68.12 L 278.09 72.44 L 287.44 75.33 L 288.82 76.91 L 289.55 85.94 L 290.30 94.76 L 290.89 103.71 L 286.73 112.43 L 283.92 118.21 L 281.77 122.44 L 269.62 118.61 L 261.06 116.67 L 253.38 115.26 L 245.32 113.69 L 231.61 117.44 L 227.16 120.62 L 219.91 125.83 L 212.90 137.04 L 210.10 141.40 L 202.89 151.79 L 201.39 156.11 L 197.91 160.22 L 194.18 163.93 L 197.23 175.48 L 193.73 182.29 L 191.02 187.81 L 185.74 196.46 L 186.89 199.12 L 193.78 214.78 L 197.48 223.39 L 195.18 226.70 L 190.57 233.20 L 193.54 248.69 L 189.67 262.31 L 192.05 269.41 L 194.93 277.76 L 195.72 280.12 L 199.24 290.45 L 199.24 290.45 L 198.13 290.80 L 197.08 290.43 L 196.23 290.83 L 195.79 291.59 L 195.12 291.86 L 195.00 292.27 L 194.57 292.10 L 194.22 292.42 L 193.28 292.56 L 192.27 291.85 L 191.01 290.56 L 190.09 289.17 L 189.78 288.91 L 187.89 288.30 L 186.64 288.13 L 186.37 287.60 L 185.18 287.31 L 176.74 285.61 L 176.12 285.28 L 175.71 285.37 L 175.24 286.22 L 175.24 286.62 L 174.54 287.55 L 174.05 287.45 L 173.91 288.69 L 172.11 288.58 L 171.95 288.38 L 171.99 286.94 L 171.16 285.36 L 168.40 285.90 L 167.30 286.27 L 165.58 286.39 L 165.12 285.83 L 164.43 284.56 L 163.67 282.32 L 162.46 279.80 L 161.03 278.17 L 160.32 276.52 L 159.45 275.54 L 156.67 274.15 L 155.18 272.06 L 154.06 271.48 L 153.14 271.30 L 152.78 270.56 L 152.36 270.62 L 151.04 270.27 L 150.58 269.10 L 150.92 268.30 L 150.54 266.82 L 150.02 266.45 L 148.24 266.43 L 148.25 264.10 L 147.72 262.94 L 146.82 262.15 L 146.54 258.75 L 145.82 258.49 L 145.12 258.51 L 145.28 258.23 L 144.70 257.31 L 140.90 256.81 L 135.48 254.05 L 135.33 253.86 L 131.63 254.20 L 130.37 254.66 L 128.79 255.58 L 126.29 258.94 L 125.20 258.47 L 124.91 256.89 L 123.04 255.98 L 121.90 255.83 L 119.40 257.11 L 119.17 257.11 L 112.00 255.29 L 106.27 253.95 L 102.11 253.98 L 100.55 254.26 L 100.13 254.72 L 99.75 254.13 L 99.12 253.79 L 98.30 254.35 L 98.46 254.88 L 97.83 255.10 L 97.73 255.82 L 97.11 255.99 L 97.16 256.51 L 96.37 257.06 L 95.87 258.13 L 95.52 259.83 L 94.77 260.96 L 94.18 263.31 L 93.34 263.49 L 92.88 263.85 L 92.50 264.54 L 91.89 264.95 L 91.92 265.47 L 92.48 266.73 L 90.89 267.70 L 92.47 273.20 L 95.32 280.76 L 88.29 283.81 L 88.36 285.41 L 87.44 288.03 L 85.81 289.11 L 82.88 287.34 L 82.05 289.12 L 83.00 289.61 L 83.18 290.27 L 83.55 290.54 L 82.65 290.56 L 82.56 290.92 L 82.89 292.06 L 82.60 292.34 L 82.29 293.64 L 80.90 294.78 L 80.62 294.76 L 77.03 295.28 L 75.79 295.84 L 71.44 298.00 L 67.25 295.75 L 65.89 294.40 L 59.80 291.78 L 53.22 289.38 L 52.91 289.32 L 47.13 287.24 L 45.42 286.28 L 45.42 286.28 L 47.48 285.34 L 49.28 283.70 L 51.28 280.86 L 52.01 278.78 L 51.32 277.70 L 52.68 272.85 L 52.37 271.35 L 52.90 271.53 L 53.55 269.51 L 53.90 269.88 L 53.85 269.16 L 54.18 267.90 L 53.61 266.68 L 53.08 266.03 L 52.20 266.28 L 51.88 265.80 L 50.73 266.12 L 49.77 266.22 L 49.65 265.69 L 48.48 264.85 L 47.80 262.95 L 46.31 260.97 L 43.02 257.09 L 41.53 257.28 L 38.58 252.30 L 41.78 249.29 L 45.22 248.84 L 46.15 247.51 L 46.94 247.68 L 47.44 248.06 L 49.02 247.79 L 49.51 247.83 L 60.01 244.05 L 58.37 243.59 L 58.02 242.52 L 58.07 238.25 L 58.39 237.25 L 56.21 235.72 L 56.88 234.50 L 57.47 234.31 L 57.27 232.91 L 55.28 230.86 L 52.23 230.93 L 51.00 231.72 L 50.53 231.59 L 50.01 230.93 L 49.00 230.72 L 48.84 230.21 L 48.36 229.97 L 48.21 229.12 L 48.46 228.77 L 47.95 227.64 L 48.58 227.91 L 48.75 227.66 L 47.88 227.36 L 48.00 226.84 L 47.77 226.28 L 48.12 225.60 L 48.68 225.33 L 49.62 224.12 L 50.49 224.97 L 50.80 225.02 L 51.00 224.12 L 49.55 223.84 L 49.20 223.35 L 49.95 222.14 L 49.16 221.99 L 49.97 221.73 L 48.80 221.77 L 48.33 221.01 L 47.47 220.51 L 47.44 219.92 L 47.93 219.41 L 47.45 219.03 L 46.84 216.59 L 46.48 214.37 L 44.98 214.47 L 44.07 215.05 L 43.95 215.49 L 43.08 216.03 L 41.12 216.16 L 41.07 215.72 L 40.46 214.11 L 41.08 213.82 L 42.19 213.05 L 41.63 211.71 L 41.50 210.92 L 40.99 210.01 L 38.15 211.62 L 37.55 211.19 L 35.69 211.97 L 35.52 211.61 L 34.41 210.79 L 33.14 210.75 L 32.44 211.12 L 31.48 212.28 L 31.71 212.69 L 29.66 213.97 L 29.00 214.87 L 28.27 215.13 L 27.44 216.08 L 25.70 217.00 L 25.46 216.16 L 24.75 216.55 L 24.24 216.33 L 22.81 216.94 L 21.98 216.96 L 20.92 217.26 L 20.62 217.81 L 19.60 217.64 L 18.44 218.52 L 18.22 217.25 L 17.46 215.45 L 16.11 216.04 L 15.32 216.87 L 15.30 218.26 L 14.74 218.74 L 13.66 217.73 L 12.59 218.17 L 11.41 219.12 L 10.86 219.32 L 10.56 219.87 L 10.09 218.91 L 8.55 219.62 L 7.45 220.83 L 6.66 221.39 Z M 5.63 174.36 L 5.90 173.45 L 6.31 173.66 L 7.18 173.30 L 7.10 174.31 L 5.63 174.36 Z M 7.14 155.78 L 7.68 155.28 L 7.79 155.78 L 7.14 155.78 Z M 7.16 212.57 L 7.85 212.28 L 7.84 212.57 L 7.16 212.57 Z M 7.16 173.06 L 7.97 172.65 L 7.30 173.47 L 7.16 173.06 Z M 7.28 176.06 L 7.75 175.29 L 8.27 175.07 L 8.31 175.41 L 7.28 176.06 Z M 7.37 176.64 L 8.40 175.79 L 8.05 176.46 L 7.37 176.64 Z M 7.51 172.59 L 7.80 172.13 L 7.97 172.48 L 7.51 172.59 Z M 7.65 173.47 L 8.07 172.71 L 8.12 173.10 L 7.65 173.47 Z M 7.73 155.33 L 8.54 154.87 L 10.07 154.50 L 11.09 154.65 L 11.05 154.17 L 13.10 153.83 L 13.23 153.89 L 16.48 153.12 L 15.34 153.31 L 15.28 152.73 L 16.66 152.61 L 16.96 152.91 L 16.46 153.40 L 16.62 154.10 L 17.12 153.04 L 19.29 152.58 L 20.13 152.29 L 20.36 152.44 L 21.32 152.26 L 21.91 152.54 L 22.35 151.58 L 21.30 151.74 L 21.99 151.16 L 23.30 150.86 L 23.89 150.94 L 24.20 150.15 L 25.27 149.79 L 25.45 149.50 L 24.44 149.60 L 24.96 149.06 L 26.33 148.19 L 27.60 147.55 L 28.17 147.04 L 29.39 146.62 L 31.32 146.17 L 32.13 145.26 L 30.76 146.05 L 30.19 146.15 L 30.88 145.17 L 31.41 144.80 L 31.36 143.95 L 31.10 143.55 L 31.51 142.86 L 32.05 143.60 L 32.58 143.49 L 32.86 143.87 L 32.28 144.60 L 32.99 144.07 L 33.36 143.40 L 33.70 143.32 L 33.57 144.38 L 33.74 145.79 L 33.73 146.93 L 33.89 147.48 L 34.42 147.80 L 34.45 148.33 L 34.89 148.61 L 34.34 150.19 L 34.82 151.28 L 34.86 151.79 L 34.48 153.07 L 33.89 153.59 L 33.36 153.57 L 32.66 154.34 L 31.65 154.16 L 31.61 154.73 L 31.16 154.51 L 29.81 154.51 L 28.15 154.75 L 27.68 155.00 L 26.45 155.28 L 25.26 155.76 L 24.64 155.62 L 22.30 156.26 L 20.62 156.33 L 20.21 156.60 L 19.44 156.60 L 18.61 157.00 L 16.99 157.05 L 16.67 156.51 L 17.00 156.16 L 18.10 156.04 L 19.89 155.55 L 20.48 155.04 L 21.47 155.02 L 21.11 154.70 L 20.35 155.07 L 18.27 155.63 L 17.16 156.06 L 16.83 155.73 L 15.41 156.26 L 15.25 156.14 L 16.28 155.10 L 18.05 154.16 L 16.43 154.84 L 15.53 155.61 L 14.19 155.36 L 13.02 155.55 L 12.00 156.71 L 11.56 156.94 L 10.19 156.87 L 9.78 157.11 L 9.00 157.03 L 9.50 156.50 L 9.24 156.19 L 7.99 156.06 L 7.73 155.33 Z M 7.75 171.83 L 9.11 170.81 L 9.66 170.92 L 9.79 171.49 L 10.27 170.71 L 10.89 170.52 L 10.76 171.35 L 9.39 171.81 L 9.43 171.48 L 8.46 172.09 L 7.75 171.83 Z M 8.23 167.24 L 9.23 166.63 L 9.61 166.72 L 8.86 167.15 L 8.23 167.24 Z M 8.31 178.78 L 8.44 178.31 L 10.34 177.91 L 11.21 178.19 L 10.41 178.72 L 10.81 178.74 L 9.99 179.37 L 10.35 179.75 L 10.14 180.10 L 9.27 179.44 L 9.04 178.92 L 8.31 178.78 Z M 8.46 156.55 L 9.26 156.22 L 9.38 156.53 L 8.46 156.55 Z M 8.52 175.36 L 8.84 174.92 L 8.75 174.11 L 10.73 172.33 L 11.88 171.87 L 12.46 171.46 L 11.57 171.64 L 11.72 170.89 L 12.50 170.48 L 13.49 169.59 L 13.61 169.08 L 14.78 168.47 L 15.08 168.67 L 15.51 168.18 L 16.86 168.31 L 16.72 167.94 L 17.14 167.43 L 17.65 167.47 L 17.46 167.89 L 18.68 167.27 L 18.93 167.49 L 20.23 167.68 L 20.28 168.05 L 21.35 167.95 L 23.21 167.13 L 23.85 166.69 L 24.59 166.76 L 25.36 166.36 L 26.11 166.36 L 27.20 166.98 L 28.07 167.09 L 28.64 167.37 L 30.14 167.18 L 28.99 167.03 L 28.71 166.55 L 28.17 166.77 L 27.33 166.74 L 27.44 166.21 L 26.65 166.34 L 25.54 166.02 L 24.04 164.95 L 23.59 165.04 L 22.49 164.32 L 21.61 164.06 L 20.47 163.95 L 22.44 162.30 L 23.95 161.73 L 25.27 162.06 L 25.24 161.50 L 26.33 161.00 L 27.13 161.14 L 28.48 160.40 L 29.11 160.44 L 30.25 159.93 L 31.10 159.86 L 31.91 159.54 L 33.39 159.46 L 34.46 159.27 L 35.36 158.90 L 35.59 159.52 L 36.11 159.69 L 35.30 160.38 L 35.88 160.94 L 35.16 161.32 L 35.18 162.15 L 35.55 161.97 L 35.89 162.41 L 35.84 163.27 L 36.48 162.74 L 36.04 162.67 L 36.41 161.91 L 37.40 161.47 L 37.18 161.17 L 37.89 161.13 L 37.62 161.40 L 38.80 160.98 L 37.51 160.91 L 36.90 160.68 L 37.43 160.44 L 37.00 160.19 L 36.40 160.42 L 36.64 159.79 L 36.25 159.80 L 36.48 159.11 L 36.99 158.68 L 37.26 159.16 L 37.61 158.68 L 38.23 158.60 L 37.66 159.22 L 38.18 159.24 L 39.95 157.91 L 41.36 157.86 L 42.19 158.12 L 42.53 158.56 L 42.14 159.04 L 42.34 159.62 L 40.91 160.98 L 40.75 160.70 L 40.24 161.12 L 40.87 161.08 L 41.95 161.78 L 41.79 162.43 L 41.31 162.76 L 41.90 163.01 L 41.74 163.68 L 41.07 163.96 L 41.47 164.21 L 41.43 164.73 L 40.79 165.11 L 41.06 165.37 L 41.66 165.12 L 42.03 164.59 L 42.48 165.24 L 42.97 164.85 L 42.76 164.39 L 43.20 164.01 L 43.28 163.40 L 44.62 163.09 L 46.09 163.81 L 45.77 163.44 L 46.57 163.17 L 47.73 163.61 L 48.05 164.20 L 48.98 164.62 L 49.07 165.06 L 49.65 165.23 L 49.23 166.68 L 48.68 167.14 L 49.20 167.13 L 49.16 167.47 L 48.47 168.35 L 48.62 168.59 L 49.15 167.63 L 49.73 167.59 L 49.78 167.01 L 50.60 166.16 L 51.16 165.90 L 51.77 166.15 L 52.12 166.83 L 52.03 167.33 L 50.69 168.53 L 49.94 168.88 L 49.73 169.40 L 48.95 170.17 L 47.93 170.84 L 44.94 172.28 L 42.70 172.86 L 42.29 172.62 L 41.71 173.17 L 40.84 173.25 L 40.88 173.54 L 38.92 174.19 L 38.30 174.77 L 36.87 175.08 L 35.51 175.66 L 35.26 175.49 L 34.68 175.88 L 34.81 175.24 L 34.07 175.34 L 33.10 174.90 L 32.41 175.07 L 31.14 175.93 L 31.10 175.63 L 30.41 175.56 L 28.94 176.02 L 28.71 175.96 L 27.48 176.47 L 27.25 176.18 L 26.25 176.43 L 25.90 176.72 L 24.48 177.11 L 22.62 178.52 L 21.36 179.90 L 20.92 179.76 L 20.24 180.42 L 19.40 180.66 L 18.25 180.56 L 17.02 180.72 L 15.14 180.79 L 14.68 180.49 L 12.82 180.65 L 13.08 180.35 L 12.28 179.99 L 11.34 179.11 L 11.53 178.84 L 12.55 178.58 L 11.04 178.52 L 11.56 178.03 L 12.15 177.83 L 9.32 177.96 L 9.66 176.41 L 9.14 176.35 L 9.79 175.16 L 9.14 175.36 L 9.69 174.70 L 10.38 174.38 L 10.81 173.79 L 11.69 173.13 L 9.94 174.19 L 8.87 175.40 L 8.52 175.36 Z M 8.90 172.34 L 9.31 171.88 L 10.45 171.68 L 10.65 172.13 L 10.39 172.51 L 9.69 172.75 L 9.75 172.00 L 8.90 172.34 Z M 8.91 180.21 L 9.14 179.83 L 9.61 180.10 L 8.91 180.21 Z M 8.99 180.79 L 9.77 180.15 L 10.03 180.72 L 8.99 180.79 Z M 9.24 154.60 L 10.29 154.28 L 10.48 154.41 L 9.24 154.60 Z M 10.72 179.41 L 10.89 178.74 L 11.30 178.76 L 10.90 179.56 L 10.72 179.41 Z M 10.88 166.87 L 11.85 166.19 L 12.09 166.48 L 11.29 167.04 L 10.88 166.87 Z M 11.52 170.03 L 11.73 169.65 L 12.92 169.13 L 13.20 169.43 L 12.23 170.35 L 11.52 170.03 Z M 11.71 167.08 L 11.97 166.59 L 12.66 166.56 L 12.52 166.89 L 11.71 167.08 Z M 11.76 165.19 L 12.39 164.58 L 13.82 164.22 L 14.66 164.93 L 13.69 165.63 L 13.91 165.76 L 13.18 166.69 L 12.72 166.36 L 12.60 165.47 L 11.76 165.19 Z M 12.17 156.80 L 12.84 155.96 L 13.11 156.22 L 12.82 156.86 L 12.17 156.80 Z M 12.29 161.85 L 12.63 161.64 L 13.26 161.89 L 12.29 161.85 Z M 13.12 155.89 L 13.31 155.69 L 15.33 155.72 L 14.21 156.58 L 13.12 155.89 Z M 13.23 156.47 L 13.62 156.28 L 13.95 156.65 L 13.23 156.47 Z M 13.61 166.43 L 13.99 165.72 L 15.14 165.60 L 15.51 166.17 L 14.73 166.44 L 14.41 166.80 L 13.61 166.43 Z M 13.74 147.89 L 14.38 147.48 L 14.15 148.15 L 13.74 147.89 Z M 14.33 165.38 L 14.84 165.19 L 15.17 165.57 L 14.41 165.62 L 14.33 165.38 Z M 14.33 163.24 L 15.28 163.23 L 14.45 163.44 L 14.33 163.24 Z M 14.33 153.45 L 14.78 153.16 L 14.97 153.51 L 14.33 153.45 Z M 14.52 157.50 L 14.90 157.10 L 15.61 157.18 L 14.52 157.50 Z M 15.34 162.16 L 15.79 161.66 L 16.54 161.62 L 16.71 162.02 L 17.39 162.12 L 15.96 162.29 L 15.34 162.16 Z M 15.41 164.72 L 15.48 164.49 L 16.25 164.61 L 16.35 165.49 L 15.41 164.72 Z M 15.80 138.56 L 16.25 138.38 L 16.43 139.00 L 16.05 139.29 L 15.80 138.56 Z M 15.84 165.53 L 16.47 165.62 L 16.55 166.17 L 15.84 165.53 Z M 16.31 182.07 L 16.59 181.58 L 16.99 182.00 L 16.31 182.07 Z M 16.39 138.42 L 17.26 137.87 L 16.83 139.10 L 16.39 138.42 Z M 16.51 164.78 L 17.34 164.72 L 17.93 165.11 L 17.49 165.30 L 17.46 165.90 L 16.67 165.72 L 16.51 164.78 Z M 17.15 164.16 L 18.30 163.74 L 18.48 163.95 L 17.15 164.16 Z M 17.36 152.74 L 18.27 152.33 L 18.61 152.55 L 17.36 152.74 Z M 17.41 138.10 L 17.74 137.97 L 17.86 138.56 L 17.41 138.10 Z M 17.93 164.80 L 18.64 164.49 L 18.35 165.03 L 17.93 164.80 Z M 18.19 208.95 L 19.34 208.59 L 19.30 208.29 L 20.00 208.17 L 20.31 207.80 L 20.64 208.03 L 20.25 208.77 L 21.02 208.56 L 20.99 208.87 L 19.67 209.22 L 19.49 208.93 L 18.64 209.28 L 18.19 208.95 Z M 18.25 166.74 L 19.10 165.33 L 19.91 164.86 L 20.03 164.54 L 20.56 164.73 L 22.03 164.70 L 21.66 164.98 L 22.17 165.29 L 22.37 164.64 L 22.81 164.82 L 22.84 165.39 L 23.43 165.75 L 24.46 165.63 L 23.93 166.10 L 23.72 166.67 L 23.02 167.10 L 21.55 167.60 L 20.98 167.55 L 20.84 167.22 L 19.59 167.01 L 18.84 167.08 L 18.25 166.74 Z M 18.62 152.31 L 19.53 151.86 L 19.55 152.25 L 18.77 152.51 L 18.62 152.31 Z M 19.09 209.61 L 20.03 209.42 L 19.45 209.98 L 19.09 209.61 Z M 19.68 151.75 L 19.93 151.61 L 20.91 151.75 L 20.08 152.04 L 19.68 151.75 Z M 20.36 143.43 L 21.35 143.12 L 20.59 143.55 L 20.36 143.43 Z M 20.40 161.49 L 21.42 161.18 L 22.06 161.42 L 22.62 161.10 L 22.89 161.42 L 21.49 161.58 L 20.90 161.83 L 20.40 161.49 Z M 20.71 136.85 L 21.24 136.46 L 21.16 137.09 L 20.71 136.85 Z M 20.91 145.35 L 21.26 145.11 L 21.31 145.76 L 20.91 145.35 Z M 21.61 148.51 L 21.85 147.85 L 22.80 147.36 L 23.30 147.86 L 21.94 148.54 L 21.61 148.51 Z M 21.71 137.55 L 22.53 137.23 L 22.42 137.64 L 21.71 137.55 Z M 21.87 156.68 L 22.86 156.21 L 22.17 156.87 L 21.87 156.68 Z M 22.57 148.72 L 22.84 148.44 L 23.08 149.06 L 22.57 148.72 Z M 23.79 147.76 L 24.54 147.45 L 24.55 147.74 L 23.79 147.76 Z M 24.16 138.93 L 24.66 138.08 L 25.06 138.67 L 24.87 139.06 L 24.16 138.93 Z M 24.27 160.85 L 25.07 160.24 L 26.27 159.95 L 26.11 160.65 L 24.74 161.14 L 24.27 160.85 Z M 24.35 144.38 L 24.79 143.68 L 25.14 143.99 L 24.35 144.38 Z M 24.40 135.94 L 24.75 135.33 L 25.26 135.74 L 24.40 135.94 Z M 24.42 144.93 L 25.07 144.71 L 25.42 144.11 L 26.26 143.99 L 26.57 143.29 L 27.02 143.34 L 26.86 143.94 L 25.94 144.64 L 25.91 145.12 L 24.72 145.30 L 24.42 144.93 Z M 24.51 136.38 L 25.10 136.08 L 24.90 136.66 L 24.51 136.38 Z M 24.71 159.46 L 25.51 159.34 L 25.49 159.57 L 24.71 159.46 Z M 24.82 147.86 L 24.91 147.42 L 26.02 147.15 L 25.69 147.63 L 24.82 147.86 Z M 24.82 137.91 L 25.36 137.50 L 25.99 138.09 L 25.57 138.30 L 24.82 137.91 Z M 25.11 138.67 L 25.12 138.21 L 25.90 138.33 L 25.65 138.70 L 25.11 138.67 Z M 25.19 137.11 L 25.30 136.73 L 26.26 136.33 L 26.52 136.70 L 26.13 137.46 L 25.19 137.11 Z M 25.45 148.26 L 26.13 147.68 L 26.11 147.99 L 25.45 148.26 Z M 26.11 145.98 L 26.17 145.68 L 27.25 144.98 L 27.45 145.05 L 26.60 145.96 L 26.11 145.98 Z M 26.23 146.76 L 27.51 144.99 L 28.07 144.78 L 29.12 143.28 L 29.95 143.35 L 30.11 142.74 L 30.94 142.55 L 30.90 142.94 L 30.15 143.73 L 30.03 144.22 L 30.61 144.20 L 30.30 144.73 L 29.62 144.53 L 29.35 145.05 L 29.82 144.81 L 28.46 146.29 L 27.99 146.50 L 28.50 146.70 L 26.60 147.16 L 26.23 146.76 Z M 26.25 159.29 L 26.69 159.32 L 27.48 158.77 L 27.76 159.13 L 28.58 158.67 L 28.79 158.18 L 29.08 158.69 L 30.82 158.25 L 31.69 157.85 L 33.42 158.28 L 32.70 157.88 L 31.91 157.73 L 31.92 157.44 L 33.07 157.09 L 34.06 157.21 L 34.50 157.56 L 34.74 157.25 L 35.84 157.57 L 35.36 157.86 L 35.72 158.48 L 34.44 159.00 L 32.83 159.10 L 31.89 159.32 L 29.87 159.46 L 29.45 159.80 L 28.72 159.87 L 27.97 160.34 L 27.26 160.55 L 26.74 160.46 L 26.72 159.61 L 26.25 159.29 Z M 26.29 136.28 L 26.80 136.04 L 26.54 136.60 L 26.29 136.28 Z M 26.64 144.89 L 27.28 143.87 L 27.08 143.39 L 27.57 143.08 L 28.66 143.07 L 28.80 143.30 L 28.21 143.80 L 27.85 143.78 L 27.84 144.51 L 27.16 145.04 L 26.64 144.89 Z M 26.96 140.93 L 27.52 140.92 L 27.22 141.42 L 26.96 140.93 Z M 27.41 142.36 L 28.04 142.05 L 27.83 142.47 L 27.41 142.36 Z M 27.72 141.89 L 27.99 140.94 L 28.09 141.75 L 27.72 141.89 Z M 28.62 146.53 L 29.42 145.40 L 30.02 145.09 L 30.64 145.58 L 29.94 146.23 L 28.62 146.53 Z M 29.20 155.06 L 30.23 155.01 L 29.67 155.26 L 29.20 155.06 Z M 30.48 144.73 L 30.68 144.02 L 31.00 143.95 L 30.90 144.65 L 30.48 144.73 Z M 31.77 142.89 L 32.05 142.50 L 32.33 143.28 L 31.77 142.89 Z M 32.17 142.57 L 32.36 141.99 L 33.30 141.68 L 33.46 142.54 L 33.11 142.91 L 32.64 142.61 L 32.46 143.02 L 32.17 142.57 Z M 32.67 143.42 L 33.10 143.33 L 32.88 143.81 L 32.67 143.42 Z M 34.11 146.50 L 35.22 145.48 L 36.17 145.51 L 36.78 144.93 L 37.18 145.12 L 37.39 145.84 L 37.15 146.35 L 36.23 147.22 L 35.37 146.25 L 34.48 147.06 L 34.11 146.50 Z M 35.44 131.38 L 35.61 130.93 L 36.03 131.25 L 35.44 131.38 Z M 36.20 150.11 L 37.46 149.14 L 37.97 149.04 L 38.41 149.46 L 39.10 149.64 L 38.02 150.34 L 38.01 150.64 L 37.23 151.46 L 36.64 151.49 L 36.33 150.95 L 36.48 150.45 L 36.20 150.11 Z M 36.50 179.38 L 37.07 178.66 L 37.57 178.46 L 38.30 178.55 L 39.81 177.77 L 39.87 177.97 L 38.38 178.88 L 38.64 179.66 L 39.45 179.24 L 40.05 179.44 L 39.33 179.59 L 39.08 179.97 L 38.29 180.09 L 38.07 179.74 L 37.31 179.38 L 36.62 179.66 L 36.50 179.38 Z M 37.03 130.49 L 37.71 129.68 L 38.03 129.69 L 37.83 130.59 L 37.03 130.49 Z M 37.06 144.35 L 37.62 144.32 L 37.26 144.83 L 37.06 144.35 Z M 40.21 181.02 L 40.96 180.71 L 41.26 180.30 L 41.74 180.61 L 40.54 181.17 L 40.21 181.02 Z M 40.95 178.90 L 41.34 177.82 L 41.91 178.66 L 40.95 178.90 Z M 43.05 156.22 L 43.79 155.65 L 43.92 155.95 L 43.05 156.22 Z M 43.05 161.26 L 43.55 160.51 L 44.19 160.03 L 43.83 160.00 L 43.89 159.33 L 44.86 159.83 L 45.50 159.72 L 45.30 159.30 L 44.29 159.44 L 44.15 159.21 L 44.98 158.35 L 44.46 157.99 L 44.92 157.24 L 47.24 157.03 L 48.36 157.31 L 48.52 157.82 L 47.80 158.51 L 50.06 157.97 L 51.00 158.67 L 50.54 159.27 L 50.76 159.65 L 50.09 159.68 L 49.54 160.49 L 48.94 159.90 L 48.13 160.90 L 48.47 161.06 L 46.25 162.23 L 45.42 161.99 L 44.66 162.03 L 43.13 161.59 L 43.05 161.26 Z M 43.18 127.38 L 43.77 127.71 L 43.34 128.06 L 43.18 127.38 Z M 43.51 176.79 L 44.24 176.36 L 43.96 177.18 L 43.51 176.79 Z M 44.05 155.52 L 44.67 154.98 L 45.38 155.19 L 46.15 155.00 L 47.42 155.68 L 47.91 156.47 L 47.69 156.84 L 45.40 157.05 L 45.06 156.50 L 44.31 156.38 L 44.05 155.52 Z M 44.05 177.41 L 44.29 177.06 L 45.02 176.78 L 45.55 177.69 L 44.98 177.98 L 44.05 177.41 Z M 44.19 126.30 L 44.44 126.05 L 44.94 126.35 L 44.44 126.64 L 44.19 126.30 Z M 44.82 125.67 L 44.84 125.26 L 45.74 124.73 L 45.66 125.15 L 46.23 125.72 L 45.63 126.28 L 44.82 125.67 Z M 45.51 172.92 L 45.66 172.64 L 47.88 171.39 L 47.72 171.99 L 47.25 172.07 L 46.41 172.81 L 45.51 172.92 Z M 45.77 124.44 L 46.76 124.62 L 47.08 125.03 L 46.33 125.72 L 45.87 125.23 L 46.03 124.69 L 45.77 124.44 Z M 46.39 123.19 L 47.83 124.08 L 47.55 124.25 L 46.61 123.62 L 46.39 123.19 Z M 47.09 174.39 L 47.64 173.50 L 48.72 173.28 L 48.64 173.58 L 50.07 172.94 L 50.44 173.26 L 48.84 174.35 L 49.23 174.96 L 48.20 175.33 L 47.25 175.24 L 47.53 175.02 L 47.09 174.39 Z M 47.12 125.84 L 47.42 125.38 L 48.01 126.21 L 47.20 126.36 L 47.12 125.84 Z M 47.34 123.44 L 47.64 123.21 L 47.88 123.72 L 47.34 123.44 Z M 47.45 124.80 L 48.48 124.72 L 48.62 125.24 L 48.29 125.83 L 47.95 125.89 L 47.45 124.80 Z M 47.56 155.69 L 48.03 155.81 L 47.84 156.16 L 47.56 155.69 Z M 48.11 171.26 L 48.16 170.91 L 48.75 170.56 L 48.82 171.13 L 48.11 171.26 Z M 48.13 155.74 L 48.37 155.42 L 48.75 155.66 L 48.13 155.74 Z M 48.20 124.10 L 48.41 123.99 L 48.80 124.66 L 48.20 124.10 Z M 48.39 176.38 L 49.31 176.01 L 49.46 176.81 L 48.80 177.10 L 48.87 176.64 L 48.39 176.38 Z M 48.66 123.90 L 48.99 123.84 L 49.49 124.65 L 48.94 124.60 L 48.66 123.90 Z M 48.75 119.75 L 48.86 119.41 L 49.38 119.44 L 49.06 119.99 L 48.75 119.75 Z M 48.78 178.39 L 49.89 177.79 L 49.73 178.54 L 49.23 178.88 L 48.78 178.39 Z M 49.23 156.47 L 49.93 155.83 L 50.23 156.45 L 50.66 156.68 L 50.06 157.12 L 49.42 156.99 L 49.23 156.47 Z M 49.62 119.70 L 50.15 119.06 L 50.76 119.08 L 50.01 120.08 L 49.62 119.70 Z M 49.73 123.07 L 50.60 122.18 L 50.96 122.86 L 50.82 123.34 L 51.12 123.91 L 50.18 123.93 L 49.73 123.07 Z M 49.98 184.51 L 50.14 184.09 L 50.57 184.29 L 49.98 184.51 Z M 50.25 165.45 L 50.65 164.78 L 51.18 165.00 L 50.98 165.76 L 50.25 165.45 Z M 50.70 120.01 L 51.18 119.59 L 51.32 120.05 L 50.70 120.01 Z M 51.02 123.08 L 51.10 122.79 L 51.69 123.08 L 51.02 123.08 Z M 51.65 168.28 L 51.85 167.98 L 52.94 168.26 L 52.37 168.41 L 52.09 169.26 L 51.65 168.28 Z M 51.80 165.75 L 52.25 165.57 L 52.71 166.34 L 52.21 166.63 L 51.80 165.75 Z M 52.20 178.63 L 52.44 178.05 L 53.00 178.19 L 52.20 178.63 Z M 52.98 167.46 L 53.11 167.21 L 53.78 167.86 L 53.02 168.09 L 52.98 167.46 Z M 56.41 166.62 L 56.58 165.65 L 57.62 165.00 L 60.24 164.38 L 60.35 164.80 L 59.76 165.25 L 58.30 165.82 L 57.95 166.64 L 57.12 166.97 L 56.41 166.62 Z M 57.38 159.49 L 57.61 158.62 L 58.45 158.29 L 59.00 158.43 L 58.72 159.19 L 58.42 159.04 L 58.03 159.66 L 57.67 159.27 L 57.38 159.49 Z M 59.60 144.39 L 60.37 143.75 L 60.46 143.19 L 60.71 143.76 L 60.47 144.64 L 59.76 144.78 L 59.60 144.39 Z M 60.05 157.90 L 60.25 157.53 L 60.76 157.60 L 60.33 156.66 L 61.27 155.80 L 61.49 155.92 L 61.57 155.10 L 62.58 154.16 L 62.46 154.56 L 62.85 155.17 L 63.49 155.62 L 63.06 156.91 L 63.49 157.42 L 63.08 157.96 L 64.12 158.02 L 64.60 158.87 L 63.91 159.50 L 63.48 159.46 L 62.49 158.76 L 62.13 158.31 L 62.84 158.01 L 63.08 157.62 L 62.31 157.59 L 62.02 157.00 L 61.40 157.33 L 61.57 158.15 L 61.97 158.37 L 61.27 158.56 L 60.83 157.79 L 60.05 157.90 Z M 60.62 164.68 L 60.72 164.28 L 61.53 163.62 L 61.85 164.09 L 61.66 164.61 L 60.99 165.05 L 60.62 164.68 Z M 60.87 143.50 L 61.35 142.66 L 61.19 142.09 L 61.57 141.50 L 62.49 141.11 L 62.35 140.65 L 63.16 140.66 L 62.76 141.29 L 63.61 140.96 L 63.91 141.30 L 63.83 142.11 L 63.06 143.65 L 62.38 143.84 L 61.78 144.37 L 61.85 143.92 L 61.10 144.64 L 60.87 143.50 Z M 61.75 168.84 L 62.97 168.11 L 63.36 168.34 L 62.97 169.27 L 62.39 169.45 L 61.75 168.84 Z M 63.87 166.71 L 64.54 166.13 L 64.33 166.82 L 63.87 166.71 Z M 63.96 142.91 L 64.20 142.27 L 64.62 142.40 L 64.39 142.86 L 63.96 142.91 Z M 64.62 140.94 L 66.01 139.47 L 66.13 140.24 L 65.63 141.13 L 64.62 140.94 Z M 64.79 176.14 L 65.70 175.80 L 65.54 176.54 L 64.95 176.61 L 64.79 176.14 Z M 65.53 141.31 L 65.98 140.85 L 67.17 140.35 L 66.92 141.20 L 66.76 140.86 L 66.29 141.71 L 65.89 142.03 L 65.53 141.31 Z M 66.49 159.20 L 66.50 158.83 L 67.93 158.89 L 68.96 158.26 L 69.18 158.58 L 68.36 158.97 L 67.80 159.60 L 66.49 159.20 Z M 73.97 147.99 L 74.69 147.62 L 74.69 147.88 L 73.97 147.99 Z M 76.23 137.78 L 76.75 137.46 L 76.39 137.05 L 77.12 136.53 L 78.49 135.95 L 79.01 136.19 L 78.41 136.85 L 77.24 136.99 L 76.52 137.75 L 76.23 137.78 Z M 78.65 130.93 L 78.97 130.47 L 78.72 129.85 L 78.94 129.62 L 79.49 130.07 L 79.40 131.02 L 79.04 131.87 L 78.65 130.93 Z M 79.25 129.29 L 79.56 128.96 L 79.59 129.54 L 79.25 129.29 Z M 79.69 135.18 L 79.95 134.54 L 81.12 134.07 L 81.65 133.51 L 81.67 134.27 L 80.28 135.09 L 79.69 135.18 Z M 80.83 135.92 L 81.36 135.26 L 81.98 135.43 L 81.66 135.89 L 80.83 135.92 Z M 82.19 135.07 L 82.66 134.84 L 82.27 134.21 L 84.05 133.23 L 84.05 133.92 L 84.56 134.17 L 84.09 134.51 L 83.51 133.89 L 82.94 134.51 L 83.77 134.49 L 83.06 135.23 L 82.26 135.39 L 82.19 135.07 Z M 82.92 119.93 L 83.57 119.38 L 84.17 119.41 L 84.76 119.85 L 85.24 119.34 L 84.88 118.57 L 85.26 118.11 L 86.01 118.21 L 86.27 119.68 L 86.66 119.49 L 87.26 120.03 L 86.86 120.57 L 87.84 120.76 L 88.07 121.76 L 88.48 121.84 L 88.03 122.63 L 87.30 122.77 L 86.52 123.35 L 85.59 123.66 L 85.40 123.38 L 84.48 122.98 L 84.59 122.21 L 85.35 121.29 L 84.87 120.80 L 83.73 120.93 L 83.29 121.15 L 82.92 119.93 Z M 83.12 123.98 L 83.59 123.39 L 84.08 123.87 L 83.12 124.19 L 83.12 123.98 Z M 83.16 122.40 L 83.55 122.02 L 84.52 121.96 L 84.15 122.93 L 83.40 122.77 L 83.16 122.40 Z M 85.06 112.67 L 85.65 112.47 L 85.78 112.86 L 85.16 112.96 L 85.06 112.67 Z M 86.29 130.64 L 87.06 130.13 L 86.41 130.00 L 87.20 129.61 L 88.36 129.77 L 87.52 131.03 L 87.56 131.33 L 86.61 131.28 L 86.29 130.64 Z M 87.33 135.18 L 88.15 134.36 L 88.63 134.36 L 87.83 135.15 L 87.33 135.18 Z M 87.34 117.01 L 87.51 116.47 L 88.41 115.52 L 89.51 115.39 L 89.99 114.98 L 90.81 115.84 L 92.66 117.44 L 93.08 117.97 L 92.76 118.39 L 92.19 118.30 L 91.25 118.61 L 90.96 119.11 L 90.03 119.60 L 89.28 119.12 L 88.04 118.65 L 87.68 118.13 L 88.20 117.75 L 87.44 117.42 L 87.34 117.01 Z M 88.51 112.12 L 89.14 111.44 L 89.08 112.14 L 88.51 112.12 Z M 90.66 106.39 L 90.88 105.50 L 91.87 104.92 L 92.58 104.29 L 92.88 104.76 L 92.24 105.16 L 91.56 105.89 L 90.66 106.39 Z M 90.77 149.68 L 91.48 149.16 L 91.36 149.62 L 90.77 149.68 Z M 91.08 104.73 L 91.83 103.84 L 92.55 104.22 L 92.07 104.63 L 91.08 104.73 Z M 91.88 103.76 L 92.03 103.37 L 92.52 103.88 L 91.88 103.76 Z M 92.00 129.05 L 92.52 128.41 L 92.88 128.64 L 92.00 129.05 Z M 92.27 118.98 L 92.47 118.67 L 92.88 119.03 L 92.27 118.98 Z M 93.22 108.93 L 93.77 108.30 L 93.91 108.72 L 93.32 109.19 L 93.22 108.93 Z M 93.51 103.88 L 93.82 103.66 L 93.89 104.25 L 93.51 103.88 Z M 93.98 103.57 L 94.53 103.52 L 94.05 103.90 L 93.98 103.57 Z M 94.33 102.41 L 94.66 102.52 L 94.49 103.02 L 94.33 102.41 Z M 94.43 103.90 L 94.92 102.71 L 95.67 102.94 L 95.44 103.42 L 95.92 103.71 L 95.29 104.04 L 95.36 103.53 L 94.62 104.09 L 94.43 103.90 Z M 94.45 127.21 L 95.08 126.76 L 94.85 127.27 L 94.45 127.21 Z M 96.16 104.24 L 96.68 103.70 L 96.72 104.19 L 96.16 104.24 Z M 97.69 108.23 L 97.95 107.53 L 98.33 108.25 L 97.69 108.23 Z M 98.38 106.62 L 99.01 105.58 L 99.87 106.81 L 100.20 106.95 L 99.79 107.39 L 99.05 107.48 L 98.38 106.62 Z M 100.82 95.93 L 101.35 95.61 L 102.13 95.54 L 101.11 95.99 L 100.82 95.93 Z M 101.86 97.76 L 102.38 97.18 L 103.09 97.20 L 103.26 97.80 L 103.68 98.03 L 102.93 98.92 L 102.38 98.19 L 102.48 97.83 L 103.05 97.60 L 101.86 97.76 Z M 101.97 100.94 L 102.58 100.71 L 102.92 101.07 L 104.13 101.48 L 104.28 102.03 L 103.26 101.96 L 103.13 101.49 L 101.97 100.94 Z M 103.40 91.15 L 103.79 90.71 L 104.09 90.91 L 103.40 91.15 Z M 103.52 94.61 L 105.16 93.68 L 105.65 94.10 L 104.86 94.56 L 103.60 94.78 L 103.52 94.61 Z M 103.57 93.60 L 103.91 92.96 L 104.74 92.92 L 105.36 93.50 L 104.31 93.93 L 103.63 93.89 L 103.57 93.60 Z M 103.85 97.10 L 103.97 96.59 L 105.20 96.20 L 105.70 96.79 L 105.34 97.30 L 105.46 97.91 L 104.83 98.28 L 103.85 97.10 Z M 107.38 90.55 L 107.77 90.34 L 107.71 89.69 L 108.09 89.69 L 109.43 90.99 L 108.47 91.46 L 108.50 91.04 L 107.53 90.81 L 107.38 90.55 Z M 109.42 89.36 L 109.85 88.98 L 110.65 89.04 L 111.37 89.89 L 111.57 89.63 L 111.95 90.07 L 111.24 90.65 L 110.60 90.17 L 109.77 90.17 L 109.42 89.36 Z M 109.51 87.04 L 110.35 86.16 L 111.22 86.79 L 110.86 87.05 L 109.51 87.04 Z M 109.97 88.46 L 110.73 88.41 L 111.22 88.92 L 110.93 89.02 L 109.97 88.46 Z M 110.72 86.02 L 111.05 86.18 L 111.60 85.57 L 112.48 85.76 L 112.20 86.25 L 111.38 86.43 L 110.72 86.02 Z M 110.78 88.03 L 111.30 87.87 L 111.49 88.38 L 110.78 88.03 Z M 114.22 86.67 L 114.62 86.39 L 114.96 87.11 L 114.48 87.10 L 114.22 86.67 Z M 116.47 84.77 L 116.68 84.37 L 116.96 84.74 L 116.47 84.77 Z M 116.64 42.91 L 116.79 42.00 L 116.95 42.51 L 116.64 42.91 Z M 117.74 38.76 L 118.33 38.31 L 118.21 38.79 L 117.74 38.76 Z M 118.29 78.22 L 118.76 77.62 L 118.89 78.05 L 118.29 78.22 Z M 119.02 46.48 L 119.61 46.37 L 119.45 46.80 L 119.02 46.48 Z M 119.96 37.94 L 120.35 37.72 L 120.05 38.36 L 119.96 37.94 Z M 121.23 41.53 L 121.53 40.83 L 122.42 41.16 L 122.37 41.51 L 121.67 41.88 L 121.23 41.53 Z M 121.59 36.81 L 121.75 36.27 L 122.57 35.97 L 121.79 37.16 L 121.59 36.81 Z M 122.06 75.00 L 122.65 74.75 L 123.18 75.21 L 123.56 76.00 L 123.45 76.71 L 122.39 76.43 L 122.77 75.80 L 122.06 75.00 Z M 122.43 37.25 L 122.69 36.24 L 123.32 35.76 L 123.65 35.95 L 123.99 35.21 L 124.12 35.64 L 123.08 37.00 L 122.93 36.69 L 122.43 37.25 Z M 123.08 71.17 L 123.33 70.90 L 123.80 71.31 L 123.08 71.17 Z M 123.12 70.12 L 123.83 69.87 L 124.28 70.71 L 124.88 71.32 L 124.59 70.60 L 125.61 69.96 L 125.71 70.55 L 126.05 70.37 L 126.49 71.04 L 126.82 71.00 L 127.09 71.54 L 126.45 71.97 L 125.10 71.82 L 124.08 71.40 L 123.12 70.12 Z M 123.13 69.03 L 123.51 68.01 L 123.99 68.18 L 124.78 68.03 L 124.52 68.68 L 123.13 69.03 Z M 123.34 69.20 L 124.54 68.70 L 124.47 69.61 L 123.55 69.43 L 123.34 69.20 Z M 123.77 36.96 L 124.13 36.26 L 124.56 35.91 L 124.40 36.62 L 123.77 36.96 Z M 123.88 74.87 L 124.62 74.87 L 124.83 75.29 L 123.88 74.87 Z M 124.16 35.83 L 124.55 34.82 L 124.95 34.98 L 124.86 35.46 L 124.16 35.83 Z M 124.21 72.56 L 125.94 72.31 L 126.38 72.45 L 126.45 73.03 L 125.79 72.98 L 125.77 73.44 L 125.24 73.18 L 124.29 73.14 L 124.21 72.56 Z M 124.21 34.83 L 124.29 34.60 L 125.39 34.17 L 125.28 34.56 L 124.21 34.83 Z M 124.48 41.42 L 124.76 41.08 L 124.88 41.65 L 124.48 41.42 Z M 124.58 74.57 L 124.92 74.55 L 125.77 75.14 L 126.22 75.18 L 126.27 74.74 L 126.90 75.58 L 126.49 75.85 L 125.77 75.26 L 125.77 75.96 L 124.84 75.06 L 124.58 74.57 Z M 124.64 33.95 L 125.11 33.29 L 125.58 33.26 L 125.35 33.87 L 125.77 33.92 L 124.78 34.34 L 124.64 33.95 Z M 124.80 41.07 L 125.55 40.79 L 125.97 41.03 L 125.79 41.61 L 125.06 41.62 L 124.80 41.07 Z M 124.82 36.03 L 125.34 35.21 L 125.02 35.23 L 125.75 34.49 L 126.17 35.00 L 125.93 35.46 L 124.82 36.03 Z M 125.23 37.51 L 125.94 36.69 L 125.43 37.58 L 125.23 37.51 Z M 125.39 73.74 L 125.77 73.60 L 126.37 73.86 L 125.39 73.74 Z M 125.53 38.70 L 125.94 38.36 L 126.76 38.59 L 125.70 38.89 L 125.53 38.70 Z M 125.54 36.72 L 125.67 36.34 L 127.00 35.31 L 127.26 34.14 L 126.73 34.69 L 126.68 34.04 L 126.94 33.53 L 127.52 33.48 L 127.91 33.13 L 127.75 33.84 L 128.75 32.89 L 128.62 32.67 L 127.41 32.70 L 126.96 32.20 L 128.23 31.54 L 128.29 31.96 L 128.86 31.16 L 129.54 30.56 L 130.25 30.21 L 131.09 30.23 L 130.97 29.91 L 132.31 29.25 L 132.27 29.68 L 131.52 29.99 L 131.41 30.57 L 130.26 31.58 L 129.61 32.47 L 129.75 32.68 L 130.69 31.38 L 131.24 31.06 L 131.76 30.31 L 132.05 30.37 L 132.87 29.78 L 131.92 30.90 L 131.61 31.89 L 131.18 32.17 L 130.61 33.25 L 131.14 33.00 L 131.77 31.88 L 131.81 31.36 L 132.35 31.06 L 132.70 30.30 L 133.69 29.77 L 134.05 29.16 L 135.05 28.98 L 135.79 28.55 L 135.72 28.29 L 136.50 27.83 L 136.58 28.42 L 137.44 28.31 L 138.39 27.74 L 137.71 27.94 L 137.78 27.54 L 139.53 26.83 L 140.12 26.27 L 140.66 26.20 L 141.47 25.72 L 142.78 25.31 L 144.59 24.95 L 143.72 25.53 L 144.66 25.20 L 145.93 25.13 L 146.65 25.39 L 145.63 26.19 L 144.83 26.52 L 142.76 26.98 L 142.47 27.31 L 141.71 27.43 L 142.10 26.88 L 140.96 27.13 L 140.52 27.48 L 140.92 27.71 L 141.54 27.43 L 142.49 27.45 L 141.87 28.18 L 142.34 28.03 L 141.23 29.16 L 141.24 29.67 L 140.31 30.23 L 137.89 31.32 L 136.56 32.30 L 136.05 32.17 L 136.15 31.42 L 137.31 30.77 L 136.43 30.95 L 135.76 31.63 L 135.76 32.34 L 135.20 32.64 L 134.52 34.26 L 133.20 35.52 L 131.53 36.55 L 130.52 37.40 L 129.94 37.23 L 128.88 37.88 L 126.73 38.00 L 126.69 37.34 L 127.44 36.53 L 127.68 36.54 L 128.55 35.71 L 128.54 35.52 L 127.59 36.07 L 126.74 36.90 L 125.97 37.19 L 126.09 36.68 L 127.09 35.71 L 128.55 34.53 L 129.35 34.33 L 129.44 34.64 L 130.57 33.87 L 130.58 33.35 L 129.31 34.12 L 128.71 34.30 L 128.80 33.88 L 128.13 34.43 L 128.13 34.82 L 127.14 35.42 L 126.39 36.26 L 125.87 36.33 L 125.54 36.72 Z M 125.54 39.25 L 125.78 38.99 L 127.05 38.59 L 127.22 38.96 L 126.46 39.35 L 125.54 39.25 Z M 125.57 29.40 L 125.99 28.67 L 126.82 28.63 L 126.22 28.39 L 127.20 28.00 L 127.33 28.34 L 126.89 29.00 L 126.18 29.36 L 125.57 29.40 Z M 126.45 28.07 L 126.80 27.71 L 127.17 27.97 L 126.45 28.07 Z M 126.66 72.85 L 127.42 72.45 L 127.52 73.22 L 126.89 73.31 L 126.66 72.85 Z M 127.12 38.51 L 127.56 38.28 L 128.01 38.64 L 127.28 38.90 L 127.12 38.51 Z M 127.34 31.35 L 127.53 30.99 L 128.08 31.25 L 127.34 31.35 Z M 127.42 26.31 L 127.57 26.10 L 128.84 25.86 L 128.96 25.98 L 127.42 26.31 Z M 127.42 67.30 L 128.04 67.57 L 128.09 68.01 L 127.42 67.30 Z M 127.42 25.85 L 128.07 25.38 L 128.99 25.25 L 128.70 25.79 L 127.42 25.85 Z M 127.55 25.18 L 128.32 25.01 L 128.01 24.85 L 129.31 24.35 L 129.35 24.76 L 127.91 25.26 L 127.55 25.18 Z M 127.71 24.47 L 128.27 24.15 L 129.50 24.19 L 128.29 24.50 L 127.71 24.47 Z M 127.81 70.00 L 129.00 69.24 L 129.62 69.57 L 130.09 70.55 L 130.76 70.88 L 131.05 71.44 L 131.52 71.64 L 130.14 71.83 L 128.17 71.32 L 128.76 70.64 L 127.81 70.00 Z M 127.88 38.19 L 128.76 38.11 L 128.95 38.44 L 128.50 38.73 L 127.88 38.19 Z M 128.27 65.34 L 128.74 64.74 L 129.48 64.19 L 129.63 64.71 L 129.04 65.29 L 128.27 65.34 Z M 128.43 66.24 L 128.60 66.03 L 128.98 66.81 L 128.43 66.24 Z M 128.88 65.98 L 129.38 65.44 L 129.77 65.54 L 130.89 64.89 L 131.22 65.09 L 131.53 65.82 L 131.14 66.72 L 130.78 66.59 L 129.73 67.04 L 129.02 66.55 L 128.88 65.98 Z M 128.94 26.70 L 129.77 25.26 L 130.60 25.09 L 130.77 24.62 L 131.65 24.33 L 132.05 24.54 L 132.55 24.07 L 131.36 24.16 L 131.73 23.74 L 132.87 23.49 L 132.86 24.26 L 132.48 24.56 L 133.59 24.11 L 134.15 24.33 L 133.39 24.78 L 131.79 25.27 L 133.71 24.82 L 134.45 24.52 L 134.25 24.99 L 132.62 25.60 L 132.09 26.07 L 131.20 26.43 L 131.60 26.59 L 131.64 27.08 L 131.13 27.82 L 130.19 28.31 L 130.37 27.39 L 129.98 27.09 L 130.14 26.39 L 130.84 25.84 L 129.62 26.43 L 129.57 25.85 L 129.07 26.59 L 129.42 26.50 L 129.53 27.22 L 128.94 26.70 Z M 129.87 63.06 L 129.93 62.59 L 130.57 62.27 L 130.64 62.74 L 129.87 63.06 Z M 129.89 24.76 L 130.41 24.23 L 131.18 24.37 L 130.33 24.81 L 129.89 24.76 Z M 130.01 23.60 L 130.89 23.18 L 130.78 23.48 L 130.01 23.60 Z M 130.03 64.80 L 130.31 64.19 L 130.61 64.49 L 130.03 64.80 Z M 130.49 22.69 L 130.85 22.21 L 131.26 22.19 L 131.20 22.77 L 130.49 22.69 Z M 130.70 63.27 L 131.08 63.34 L 130.82 63.91 L 130.70 63.27 Z M 130.70 38.72 L 131.18 38.04 L 131.01 37.84 L 132.00 36.64 L 132.83 36.04 L 134.01 35.71 L 134.09 35.02 L 134.86 34.58 L 135.01 34.08 L 135.57 33.61 L 134.92 33.75 L 135.08 33.40 L 137.03 32.76 L 136.83 32.57 L 138.60 31.61 L 138.76 31.82 L 139.68 30.73 L 140.28 30.63 L 140.67 30.21 L 142.19 29.88 L 143.41 28.61 L 143.77 28.44 L 144.11 27.71 L 143.81 27.63 L 144.71 26.82 L 146.33 26.60 L 145.87 26.97 L 146.06 27.43 L 146.82 27.62 L 146.69 28.46 L 145.31 28.50 L 145.23 28.70 L 146.39 28.44 L 147.55 28.60 L 147.64 28.95 L 149.50 28.67 L 149.03 29.06 L 148.23 29.07 L 148.39 29.31 L 149.27 29.06 L 148.84 29.86 L 147.45 30.00 L 146.37 30.40 L 146.37 30.13 L 144.63 31.67 L 145.54 31.05 L 145.87 30.51 L 147.30 30.29 L 147.56 30.11 L 149.39 30.06 L 149.53 30.58 L 150.07 30.71 L 150.76 31.36 L 150.68 31.72 L 151.25 32.01 L 151.28 32.48 L 150.93 32.99 L 152.23 32.59 L 152.33 32.79 L 153.04 32.30 L 153.36 33.03 L 153.16 33.48 L 152.08 34.89 L 151.68 35.08 L 151.48 35.98 L 150.17 37.18 L 149.85 36.87 L 149.32 37.78 L 147.63 39.22 L 147.48 38.90 L 147.09 39.54 L 146.22 40.23 L 145.23 40.46 L 145.51 39.55 L 144.79 40.13 L 144.52 39.88 L 144.84 39.46 L 144.82 38.93 L 144.00 39.51 L 143.71 40.04 L 142.90 40.48 L 142.80 40.24 L 143.33 39.10 L 143.67 38.93 L 143.09 38.45 L 142.64 38.61 L 142.94 38.06 L 144.16 37.16 L 143.24 37.52 L 142.68 37.51 L 142.02 38.20 L 142.11 37.59 L 141.63 37.66 L 142.23 36.87 L 142.29 36.08 L 142.76 35.44 L 143.05 35.54 L 143.68 34.70 L 144.67 34.40 L 144.72 33.86 L 143.96 34.43 L 143.17 33.80 L 143.61 33.25 L 143.96 33.51 L 144.20 33.12 L 143.69 33.18 L 144.32 32.53 L 144.59 31.90 L 144.49 31.23 L 143.84 32.69 L 142.52 33.88 L 140.99 34.30 L 141.34 33.75 L 140.52 34.11 L 140.50 33.85 L 141.23 32.88 L 142.58 32.76 L 143.04 32.33 L 142.23 32.70 L 141.97 32.37 L 142.66 30.82 L 143.05 30.49 L 141.99 30.72 L 142.57 30.86 L 141.71 32.59 L 140.95 32.98 L 139.76 33.10 L 140.09 33.45 L 138.98 34.10 L 138.74 34.90 L 138.02 35.23 L 138.10 34.65 L 137.58 35.52 L 137.35 35.19 L 137.18 35.71 L 136.13 36.35 L 136.01 35.82 L 135.30 36.41 L 135.42 36.79 L 134.43 37.01 L 134.50 37.53 L 133.78 37.52 L 132.56 37.82 L 133.00 38.40 L 132.62 39.05 L 131.65 39.29 L 130.70 38.72 Z M 131.44 66.81 L 131.75 66.34 L 132.39 67.31 L 131.56 67.23 L 131.44 66.81 Z M 131.65 26.58 L 132.08 26.42 L 132.55 26.99 L 131.77 26.84 L 131.65 26.58 Z M 131.68 71.34 L 132.04 70.66 L 131.95 70.27 L 132.76 70.40 L 133.00 71.38 L 133.79 71.26 L 134.21 71.77 L 133.47 71.34 L 133.59 71.95 L 133.15 72.03 L 132.92 72.48 L 132.51 71.93 L 131.68 71.34 Z M 132.00 23.16 L 133.31 22.77 L 132.99 23.05 L 132.00 23.16 Z M 132.03 66.16 L 132.71 65.61 L 132.68 66.31 L 132.03 66.16 Z M 132.11 68.16 L 132.55 67.95 L 133.46 68.25 L 133.89 68.95 L 132.86 68.85 L 132.62 68.12 L 132.11 68.16 Z M 132.37 26.56 L 132.59 25.85 L 135.64 24.34 L 136.63 24.10 L 135.96 25.07 L 136.75 25.77 L 136.78 26.05 L 135.28 26.69 L 135.42 25.81 L 132.82 27.09 L 132.37 26.56 Z M 132.48 62.54 L 132.83 62.19 L 133.27 62.35 L 133.34 61.74 L 133.90 62.47 L 133.95 63.20 L 132.72 63.64 L 132.48 62.54 Z M 132.50 66.83 L 133.03 66.79 L 132.98 67.21 L 132.50 66.83 Z M 132.79 168.14 L 133.28 167.74 L 133.59 168.13 L 132.79 168.14 Z M 132.87 24.29 L 133.11 23.41 L 133.51 23.68 L 134.09 23.51 L 134.25 23.97 L 132.87 24.29 Z M 133.35 67.39 L 134.17 67.07 L 134.35 67.77 L 135.37 68.38 L 135.02 68.81 L 133.65 68.18 L 133.35 67.39 Z M 133.46 23.25 L 134.65 22.92 L 133.85 23.37 L 133.46 23.25 Z M 133.47 38.46 L 133.98 37.97 L 133.93 38.50 L 133.47 38.46 Z M 133.67 46.45 L 134.03 46.02 L 134.06 46.54 L 133.67 46.45 Z M 134.17 39.74 L 134.93 39.69 L 134.89 40.03 L 134.17 39.74 Z M 134.52 24.41 L 135.12 24.11 L 135.68 24.20 L 134.54 24.63 L 134.52 24.41 Z M 134.81 62.26 L 135.21 62.00 L 135.55 62.52 L 134.81 62.26 Z M 134.94 62.67 L 135.53 62.66 L 135.79 63.06 L 135.36 63.18 L 134.94 62.67 Z M 135.04 39.91 L 135.51 39.26 L 135.51 39.83 L 135.04 39.91 Z M 135.37 37.75 L 135.60 37.28 L 136.19 37.39 L 135.42 37.98 L 135.37 37.75 Z M 135.37 23.67 L 135.57 23.19 L 136.48 23.44 L 136.39 23.65 L 135.37 23.67 Z M 136.62 27.64 L 136.87 27.28 L 137.27 27.48 L 136.62 27.64 Z M 136.79 27.96 L 137.15 27.59 L 137.48 28.08 L 136.79 27.96 Z M 136.83 41.03 L 137.42 40.64 L 137.55 41.21 L 136.83 41.03 Z M 137.75 3.22 L 138.94 2.62 L 138.72 3.08 L 137.75 3.22 Z M 137.90 37.25 L 138.10 36.08 L 139.61 35.29 L 139.29 36.30 L 138.52 36.44 L 138.45 37.20 L 137.90 37.25 Z M 138.03 39.32 L 138.26 38.93 L 138.56 39.36 L 138.41 39.79 L 138.03 39.32 Z M 138.15 24.28 L 138.58 24.08 L 138.52 24.54 L 138.15 24.28 Z M 138.70 148.57 L 139.44 147.13 L 140.29 146.14 L 140.56 145.20 L 140.44 144.74 L 140.68 144.05 L 141.38 143.23 L 142.07 143.40 L 142.53 143.80 L 143.21 143.46 L 144.12 143.41 L 146.21 142.76 L 146.50 142.44 L 148.29 141.56 L 148.96 141.78 L 149.65 141.48 L 149.36 142.16 L 149.79 142.20 L 149.78 142.71 L 149.00 143.60 L 148.36 144.00 L 147.55 143.54 L 146.49 143.54 L 146.11 143.13 L 145.59 143.75 L 145.50 144.44 L 144.91 145.00 L 143.77 145.62 L 142.74 146.94 L 141.32 147.28 L 141.24 147.98 L 140.55 148.86 L 139.21 149.00 L 138.70 148.57 Z M 138.73 41.79 L 139.26 41.06 L 139.09 41.68 L 138.73 41.79 Z M 139.12 26.07 L 139.41 25.81 L 140.41 25.67 L 139.48 26.11 L 139.12 26.07 Z M 139.53 40.64 L 139.88 39.39 L 140.59 39.25 L 140.20 40.54 L 139.85 40.93 L 139.53 40.64 Z M 139.61 22.39 L 139.95 22.03 L 140.33 22.36 L 140.20 22.77 L 139.61 22.39 Z M 139.84 24.74 L 140.45 24.57 L 140.84 24.06 L 141.59 24.02 L 141.75 24.33 L 142.46 24.15 L 141.82 24.61 L 141.83 24.93 L 140.50 25.28 L 140.79 25.02 L 139.84 24.74 Z M 139.95 36.10 L 139.96 35.54 L 141.46 34.83 L 141.74 34.84 L 141.00 36.80 L 140.68 36.74 L 140.01 37.20 L 140.64 36.00 L 139.95 36.10 Z M 139.96 21.84 L 141.69 21.25 L 140.78 20.89 L 141.08 20.52 L 142.54 20.56 L 142.46 21.19 L 141.70 21.98 L 140.62 22.12 L 139.96 21.84 Z M 140.16 61.23 L 140.27 60.61 L 141.04 60.74 L 140.60 59.91 L 141.30 59.65 L 140.76 59.43 L 142.10 59.59 L 141.83 58.86 L 142.35 57.94 L 143.59 57.85 L 144.04 58.63 L 144.49 58.58 L 145.00 58.96 L 146.25 60.70 L 146.35 61.43 L 147.06 61.47 L 148.36 61.87 L 148.60 61.74 L 150.11 62.06 L 150.76 62.41 L 151.20 62.94 L 150.98 63.34 L 151.57 63.60 L 151.77 64.08 L 152.25 64.28 L 152.54 64.97 L 152.12 66.45 L 152.31 66.59 L 151.72 68.70 L 152.05 69.19 L 153.02 69.08 L 153.14 69.44 L 153.82 69.41 L 154.11 69.04 L 154.52 69.28 L 155.25 69.14 L 155.05 68.15 L 155.55 68.02 L 156.45 68.61 L 156.58 68.06 L 157.20 68.23 L 159.22 69.61 L 159.61 69.59 L 160.62 70.74 L 160.48 71.57 L 159.76 72.70 L 159.17 73.87 L 158.84 75.70 L 158.14 75.95 L 157.81 75.73 L 157.93 74.64 L 157.63 74.38 L 156.52 74.81 L 155.69 74.73 L 154.92 75.04 L 153.75 75.08 L 153.28 74.33 L 153.43 73.77 L 153.07 73.93 L 152.56 73.40 L 152.67 72.16 L 153.04 72.04 L 151.80 71.85 L 151.02 71.47 L 149.97 71.80 L 149.75 71.58 L 149.28 72.08 L 148.86 72.02 L 148.28 72.59 L 147.85 72.06 L 147.44 72.01 L 146.58 70.72 L 145.94 69.24 L 145.31 68.73 L 145.59 68.34 L 145.18 66.75 L 146.10 66.14 L 146.26 65.52 L 146.78 65.65 L 146.88 66.06 L 147.18 65.46 L 147.80 64.98 L 147.89 64.43 L 148.32 64.58 L 149.16 65.63 L 149.18 66.35 L 149.47 66.41 L 149.89 65.54 L 149.55 64.39 L 147.87 64.09 L 145.31 64.29 L 143.92 64.68 L 143.32 64.52 L 142.46 63.85 L 141.54 63.72 L 140.37 63.27 L 140.25 62.32 L 140.56 61.69 L 140.16 61.23 Z M 140.17 21.27 L 140.55 20.88 L 141.19 21.18 L 140.17 21.27 Z M 140.39 25.58 L 141.47 25.34 L 141.73 25.59 L 140.47 25.98 L 140.39 25.58 Z M 141.61 25.32 L 142.68 24.65 L 144.15 24.44 L 143.63 25.07 L 141.81 25.51 L 141.61 25.32 Z M 141.86 35.05 L 142.43 34.44 L 142.66 34.73 L 142.39 35.17 L 141.86 35.05 Z M 142.45 27.84 L 143.13 27.48 L 143.22 28.01 L 142.45 27.84 Z M 143.08 22.84 L 143.09 22.34 L 143.77 21.84 L 143.42 21.53 L 144.08 20.79 L 144.75 20.88 L 145.42 21.48 L 145.39 22.24 L 145.75 22.50 L 145.65 23.09 L 145.34 22.93 L 144.27 23.18 L 143.08 22.84 Z M 144.09 48.67 L 144.39 48.21 L 145.15 48.21 L 144.21 48.97 L 144.09 48.67 Z M 144.45 149.97 L 145.18 149.35 L 145.15 150.03 L 144.54 150.32 L 144.45 149.97 Z M 144.51 49.36 L 144.60 48.90 L 145.23 48.17 L 146.61 48.30 L 145.91 48.83 L 144.62 49.48 L 144.51 49.36 Z M 144.52 65.53 L 144.84 65.14 L 145.19 65.36 L 144.84 65.78 L 144.52 65.53 Z M 145.36 50.02 L 146.25 49.54 L 146.10 49.92 L 145.36 50.02 Z M 146.19 57.27 L 147.36 56.75 L 147.96 56.90 L 148.29 56.38 L 148.86 56.37 L 148.60 56.03 L 146.93 56.62 L 146.66 56.34 L 147.89 55.96 L 148.92 55.17 L 150.76 54.67 L 151.97 54.50 L 152.32 54.65 L 152.78 54.34 L 153.26 54.46 L 153.70 53.91 L 154.42 53.92 L 154.65 54.30 L 154.17 54.72 L 152.87 55.09 L 154.54 55.10 L 154.77 55.48 L 155.29 55.07 L 155.95 55.19 L 156.05 55.63 L 155.84 58.27 L 155.13 59.66 L 155.48 60.97 L 155.21 61.79 L 154.65 61.70 L 154.70 62.71 L 153.91 63.66 L 153.51 62.77 L 153.12 62.98 L 152.74 62.05 L 151.96 61.69 L 151.63 61.14 L 151.69 60.68 L 151.04 59.81 L 151.69 59.83 L 151.33 59.33 L 150.94 59.51 L 150.47 59.20 L 149.94 59.40 L 149.90 60.15 L 149.32 60.16 L 149.24 59.83 L 148.48 59.44 L 147.71 59.40 L 147.26 59.69 L 146.78 59.16 L 147.64 58.98 L 146.81 58.55 L 146.78 58.25 L 148.25 58.02 L 148.51 57.49 L 147.61 57.39 L 147.12 57.54 L 146.19 57.27 Z M 146.27 41.75 L 146.89 40.97 L 148.09 40.09 L 149.12 39.61 L 150.76 39.45 L 149.98 40.01 L 149.55 40.57 L 147.13 41.97 L 146.27 41.75 Z M 146.27 49.88 L 146.31 49.53 L 147.14 49.06 L 147.06 49.53 L 146.27 49.88 Z M 146.68 50.87 L 147.21 50.09 L 148.13 49.53 L 147.79 50.30 L 147.30 50.74 L 146.68 50.87 Z M 147.55 49.03 L 148.05 48.69 L 148.92 48.69 L 149.06 48.44 L 151.30 47.65 L 151.87 47.74 L 152.05 48.22 L 150.85 49.29 L 149.71 49.76 L 148.80 49.97 L 148.56 49.13 L 147.55 49.03 Z M 147.88 40.05 L 148.39 39.66 L 149.23 39.49 L 147.88 40.05 Z M 147.96 77.66 L 148.44 77.40 L 148.27 76.75 L 148.82 76.29 L 149.20 76.76 L 149.26 75.92 L 148.90 76.18 L 148.64 74.86 L 149.20 74.15 L 149.63 73.98 L 150.52 74.06 L 151.01 74.32 L 151.68 74.27 L 152.09 74.74 L 151.52 75.75 L 152.52 75.89 L 151.76 76.05 L 151.14 76.93 L 149.75 77.34 L 149.66 77.02 L 149.06 77.60 L 148.63 76.96 L 148.44 77.68 L 147.96 77.66 Z M 148.04 61.29 L 148.48 61.08 L 148.72 61.46 L 148.04 61.29 Z M 148.21 55.14 L 148.78 54.64 L 150.57 54.20 L 151.83 54.19 L 149.62 54.63 L 148.21 55.14 Z M 148.25 39.39 L 149.67 37.93 L 150.74 37.66 L 150.78 38.12 L 151.69 38.17 L 151.30 38.74 L 150.43 39.04 L 148.25 39.39 Z M 149.19 61.15 L 149.48 60.97 L 150.61 61.39 L 150.37 61.66 L 150.76 62.07 L 149.71 61.70 L 149.19 61.15 Z M 149.35 45.97 L 150.64 45.64 L 150.96 45.73 L 150.31 46.31 L 149.35 45.97 Z M 150.02 45.29 L 151.20 45.06 L 150.41 45.36 L 150.02 45.29 Z M 150.29 43.97 L 150.92 43.25 L 151.42 43.57 L 150.64 44.09 L 150.29 43.97 Z M 150.38 29.34 L 150.88 28.99 L 150.77 29.46 L 150.38 29.34 Z M 150.49 44.49 L 151.26 43.85 L 152.40 43.79 L 151.57 43.62 L 152.36 42.93 L 153.35 43.26 L 154.37 43.13 L 155.13 42.85 L 155.44 43.24 L 154.62 43.06 L 154.22 43.36 L 153.83 43.20 L 153.83 43.74 L 153.34 44.25 L 152.03 44.62 L 150.77 44.63 L 150.49 44.49 Z M 150.84 54.06 L 151.38 53.75 L 151.71 53.91 L 150.84 54.06 Z M 150.92 36.81 L 151.17 36.41 L 151.93 36.33 L 151.64 36.87 L 150.92 36.81 Z M 151.34 77.47 L 152.08 77.40 L 151.88 77.10 L 153.02 76.84 L 153.51 77.08 L 153.18 77.61 L 152.37 77.56 L 151.56 77.80 L 151.34 77.47 Z M 151.80 31.52 L 151.89 30.95 L 152.29 30.95 L 151.80 31.52 Z M 152.19 37.36 L 152.28 36.47 L 152.83 35.57 L 154.14 34.32 L 155.69 33.71 L 155.91 32.86 L 157.12 32.24 L 157.81 31.38 L 158.81 30.72 L 159.77 30.41 L 159.93 30.01 L 161.14 29.33 L 160.96 30.10 L 161.81 30.30 L 162.78 31.19 L 162.73 31.91 L 163.89 32.39 L 164.28 33.55 L 164.79 33.81 L 164.88 34.38 L 165.36 33.95 L 166.15 34.17 L 166.22 34.99 L 164.66 35.61 L 163.32 35.37 L 161.48 35.83 L 158.86 36.05 L 155.88 36.76 L 155.01 37.15 L 153.87 37.28 L 152.63 37.82 L 152.19 37.36 Z M 152.25 31.32 L 152.66 30.25 L 153.50 29.55 L 154.30 29.23 L 154.37 28.92 L 155.22 28.87 L 155.57 28.52 L 156.44 28.28 L 156.51 28.89 L 154.74 30.85 L 154.07 30.65 L 153.91 31.08 L 154.31 31.67 L 153.81 31.98 L 153.42 31.51 L 153.18 31.77 L 153.63 32.01 L 152.44 32.34 L 152.88 31.62 L 152.25 31.32 Z M 152.78 34.85 L 153.28 33.54 L 153.67 33.22 L 153.89 34.14 L 152.78 34.85 Z M 153.24 77.98 L 153.69 77.59 L 154.18 77.76 L 154.54 77.13 L 155.01 76.93 L 155.05 78.03 L 155.48 78.16 L 155.24 79.12 L 154.49 78.94 L 154.34 78.62 L 153.82 78.74 L 153.24 77.98 Z M 153.86 44.02 L 153.97 43.82 L 154.98 43.69 L 154.47 44.03 L 153.86 44.02 Z M 154.65 44.83 L 156.19 44.46 L 156.00 44.79 L 154.65 44.83 Z M 155.00 83.24 L 155.49 82.95 L 155.81 82.38 L 156.51 82.93 L 155.71 82.97 L 155.73 83.37 L 155.00 83.24 Z M 155.16 121.61 L 155.80 121.23 L 156.28 121.24 L 155.16 121.61 Z M 155.29 66.05 L 156.00 64.37 L 156.47 64.12 L 156.67 64.67 L 156.86 63.89 L 157.30 63.64 L 156.52 62.99 L 156.82 62.18 L 156.41 61.62 L 156.23 60.57 L 156.27 59.81 L 156.05 59.26 L 156.80 59.13 L 156.98 59.65 L 156.83 61.30 L 157.73 62.47 L 158.07 62.70 L 158.18 62.09 L 157.82 62.42 L 157.46 61.59 L 157.86 61.20 L 157.53 60.75 L 157.66 60.22 L 158.60 61.49 L 159.00 61.75 L 159.81 62.98 L 160.23 63.86 L 160.71 63.77 L 161.57 64.73 L 161.82 64.80 L 161.55 65.48 L 161.70 66.46 L 162.11 67.26 L 162.39 66.91 L 162.85 67.10 L 162.06 67.97 L 161.23 68.29 L 160.87 67.98 L 160.37 68.47 L 159.16 67.97 L 159.95 68.68 L 159.84 69.14 L 158.45 68.65 L 157.32 67.84 L 156.23 67.63 L 156.19 67.20 L 156.71 67.03 L 155.30 66.94 L 155.29 66.05 Z M 155.40 76.48 L 155.81 76.04 L 156.20 76.30 L 155.40 76.48 Z M 155.71 63.13 L 156.15 63.33 L 155.77 63.68 L 155.71 63.13 Z M 156.28 76.88 L 156.52 76.52 L 156.86 76.80 L 156.28 76.88 Z M 157.77 28.21 L 158.19 27.62 L 159.05 27.69 L 159.14 28.01 L 159.89 27.02 L 160.70 26.90 L 161.08 27.93 L 160.03 29.01 L 158.98 29.25 L 158.11 29.22 L 158.19 28.73 L 157.77 28.21 Z M 160.16 69.40 L 160.59 69.48 L 160.58 69.89 L 160.16 69.40 Z M 160.86 2.86 L 161.22 2.00 L 161.12 2.72 L 160.86 2.86 Z M 161.71 25.09 L 161.91 24.60 L 162.52 24.80 L 161.71 25.09 Z M 161.77 69.11 L 162.38 69.35 L 162.18 69.65 L 161.77 69.11 Z M 161.79 25.36 L 162.31 25.29 L 162.43 25.62 L 161.79 25.36 Z M 162.15 65.89 L 162.62 65.69 L 163.21 66.44 L 162.97 66.96 L 162.15 65.89 Z M 162.30 26.75 L 163.30 26.33 L 163.40 26.51 L 162.30 26.75 Z M 162.42 43.09 L 163.50 42.53 L 164.72 42.54 L 164.82 42.96 L 163.30 43.25 L 162.42 43.09 Z M 162.54 68.11 L 162.76 67.38 L 163.20 68.11 L 162.54 68.11 Z M 163.10 67.13 L 163.37 66.71 L 163.60 67.16 L 163.10 67.13 Z M 163.36 16.14 L 163.93 15.42 L 164.01 15.73 L 163.36 16.14 Z M 163.63 17.68 L 164.11 17.11 L 165.08 16.74 L 164.45 16.75 L 164.25 16.26 L 165.03 15.82 L 164.54 15.58 L 164.86 14.57 L 164.13 14.72 L 165.16 13.67 L 165.39 14.09 L 165.94 13.85 L 166.27 13.38 L 166.03 12.69 L 166.45 12.21 L 167.04 12.32 L 169.10 12.04 L 169.93 11.21 L 170.94 11.09 L 171.67 11.18 L 171.69 11.74 L 172.94 11.31 L 173.24 12.32 L 173.90 12.62 L 174.65 12.33 L 174.17 11.90 L 174.96 12.03 L 175.49 11.68 L 175.92 11.01 L 176.12 11.22 L 176.86 10.88 L 176.63 12.06 L 175.92 12.86 L 174.39 13.91 L 173.50 14.33 L 173.47 14.89 L 172.76 15.24 L 172.11 15.31 L 171.69 15.78 L 170.69 16.41 L 169.86 16.61 L 168.56 17.77 L 168.72 17.94 L 167.68 18.97 L 167.02 19.04 L 166.70 18.80 L 165.39 19.17 L 164.86 18.98 L 165.31 17.93 L 164.45 18.17 L 164.59 17.79 L 164.07 17.92 L 163.63 17.68 Z M 163.87 15.23 L 164.40 15.18 L 164.16 15.74 L 163.87 15.23 Z M 163.91 67.37 L 165.08 67.77 L 165.24 67.31 L 166.54 67.58 L 166.66 68.03 L 165.78 68.94 L 165.12 69.01 L 165.04 68.68 L 164.21 68.14 L 163.91 67.37 Z M 165.73 22.80 L 166.17 22.53 L 166.62 22.69 L 165.73 22.80 Z M 167.01 48.14 L 167.44 47.96 L 167.92 48.47 L 167.01 48.14 Z M 167.87 41.68 L 168.55 41.51 L 168.79 42.08 L 167.87 41.68 Z M 168.59 21.92 L 169.73 21.01 L 170.29 21.12 L 170.60 20.80 L 171.55 20.67 L 171.32 21.53 L 170.56 21.94 L 169.35 22.26 L 168.59 21.92 Z M 169.12 11.42 L 169.73 11.12 L 169.53 11.56 L 169.12 11.42 Z M 169.93 19.19 L 171.02 17.39 L 170.74 17.19 L 171.28 16.48 L 171.89 16.09 L 171.88 16.41 L 172.98 16.32 L 173.14 16.52 L 172.84 17.35 L 172.43 17.86 L 171.85 18.13 L 171.59 18.71 L 169.93 19.19 Z M 169.95 42.72 L 171.97 42.61 L 171.99 42.86 L 170.42 43.36 L 169.95 42.72 Z M 169.98 17.63 L 170.82 16.48 L 171.22 16.45 L 170.15 17.63 L 169.98 17.63 Z M 171.85 10.29 L 173.16 9.18 L 174.30 9.18 L 173.81 9.83 L 173.43 9.71 L 171.85 10.29 Z M 171.95 10.90 L 172.96 10.38 L 172.63 10.77 L 171.95 10.90 Z M 183.30 16.27 L 181.79 17.35 L 180.99 18.29 L 179.80 18.93 L 179.72 19.29 L 178.14 20.01 L 176.58 20.99 L 176.44 21.33 L 175.06 21.99 L 174.72 21.70 L 174.82 21.19 L 174.39 21.13 L 174.39 20.49 L 175.08 19.71 L 174.77 19.27 L 175.30 18.39 L 175.89 17.96 L 176.04 17.33 L 177.19 15.88 L 178.70 14.62 L 178.92 14.30 L 178.03 14.59 L 178.41 13.96 L 179.29 13.32 L 178.90 13.31 L 179.60 12.65 L 179.36 12.58 L 180.39 11.88 L 180.09 11.62 L 182.02 10.22 L 182.02 9.70 L 183.17 8.71 L 184.01 8.14 L 184.01 8.14 L 184.37 8.15 L 183.88 10.38 L 184.54 11.19 L 185.06 11.36 L 184.37 12.07 L 183.16 13.07 L 183.37 13.34 L 183.37 13.34 L 183.30 13.55 L 183.30 13.55 L 182.97 15.05 L 182.11 15.42 L 181.87 15.91 L 181.12 16.41 L 182.50 16.42 L 183.30 16.27 Z M 174.51 44.23 L 175.41 44.16 L 175.55 44.82 L 176.75 45.27 L 175.34 45.35 L 175.26 44.94 L 174.70 44.84 L 174.51 44.23 Z M 176.17 44.63 L 176.62 44.48 L 177.58 44.63 L 177.44 44.95 L 176.17 44.63 Z" fill="#6a994e" stroke="white" stroke-width="1.5" stroke-linejoin="round" fill-rule="evenodd"/>
</svg>