<svg xmlns="http://www.w3.org/2000/svg" viewBox="0 0 174 300" width="174" height="300">
  <path d="M 20.96 258.02 L 20.90 253.39 L 21.52 250.54 L 20.79 246.70 L 23.15 246.14 L 24.38 236.09 L 22.81 231.13 L 17.21 224.07 L 19.00 219.39 L 18.27 211.96 L 19.39 210.41 L 24.10 210.23 L 30.32 208.26 L 32.50 205.22 L 30.21 198.82 L 24.60 189.89 L 28.80 187.83 L 27.46 180.44 L 27.07 175.48 L 25.27 173.89 L 20.34 167.49 L 15.19 163.42 L 15.19 160.75 L 8.35 149.95 L 4.04 146.49 L 7.29 139.43 L 9.58 136.39 L 7.62 131.34 L 6.89 126.39 L 8.35 124.33 L 8.91 120.45 L 8.63 111.89 L 8.63 111.89 L 7.29 101.84 L 4.71 93.51 L 8.01 94.03 L 16.92 89.21 L 22.19 91.41 L 23.76 93.51 L 28.13 92.86 L 35.25 94.54 L 37.38 94.59 L 40.68 93.09 L 40.91 90.57 L 42.25 89.54 L 49.15 90.43 L 53.07 90.05 L 53.69 92.62 L 56.10 93.42 L 57.94 91.08 L 65.51 87.67 L 62.20 78.60 L 58.45 72.05 L 53.41 66.53 L 51.16 64.80 L 48.53 61.06 L 42.09 50.40 L 37.55 44.18 L 39.51 42.59 L 41.69 42.45 L 39.90 35.72 L 41.75 33.85 L 49.59 30.11 L 48.31 24.40 L 50.60 21.88 L 49.99 19.96 L 53.35 14.81 L 53.07 11.92 L 54.36 11.64 L 57.44 14.39 L 60.97 21.17 L 63.94 19.82 L 71.34 20.33 L 73.30 15.00 L 75.93 13.13 L 76.72 9.20 L 80.92 8.78 L 84.62 10.61 L 88.60 9.67 L 90.95 10.00 L 92.13 8.83 L 98.46 11.31 L 98.85 8.88 L 101.60 10.89 L 102.55 8.46 L 106.19 7.94 L 108.32 9.11 L 110.68 8.78 L 114.54 10.14 L 114.37 11.68 L 117.01 12.71 L 118.18 14.39 L 118.63 17.67 L 121.15 24.40 L 121.32 26.60 L 120.26 34.55 L 120.82 39.79 L 122.89 51.76 L 124.91 53.95 L 124.29 55.17 L 127.21 58.02 L 127.43 60.27 L 130.96 63.35 L 130.96 63.35 L 130.35 64.66 L 127.49 64.61 L 126.53 65.64 L 122.61 63.73 L 120.87 64.19 L 118.02 61.81 L 114.15 59.80 L 111.24 56.48 L 110.00 56.29 L 107.20 52.13 L 104.18 52.04 L 102.89 48.76 L 100.98 48.67 L 100.25 50.54 L 102.44 57.23 L 103.73 58.02 L 106.02 64.01 L 110.12 64.76 L 110.17 66.63 L 111.80 68.92 L 112.36 72.70 L 114.54 77.05 L 116.95 79.67 L 120.48 85.38 L 121.04 88.84 L 122.89 88.84 L 123.90 84.44 L 125.53 88.84 L 125.41 92.58 L 128.27 96.23 L 130.85 101.42 L 132.08 101.18 L 132.70 98.10 L 135.50 96.74 L 135.89 98.33 L 139.37 100.48 L 140.32 99.50 L 140.43 95.99 L 142.28 96.93 L 143.07 95.43 L 145.25 98.80 L 141.44 98.00 L 142.90 100.62 L 145.42 101.60 L 146.09 104.83 L 148.22 106.79 L 151.70 107.12 L 150.13 105.11 L 152.20 103.19 L 153.77 103.43 L 153.88 109.93 L 151.75 112.68 L 150.80 117.78 L 150.01 118.20 L 149.51 122.83 L 146.60 128.07 L 148.05 135.93 L 150.18 138.59 L 151.70 142.75 L 153.54 145.18 L 153.94 147.38 L 155.67 146.26 L 159.15 148.04 L 160.21 150.05 L 159.88 152.85 L 158.48 154.54 L 158.59 158.56 L 154.83 159.21 L 153.88 161.46 L 154.44 165.62 L 152.70 165.99 L 153.04 170.29 L 154.67 173.80 L 152.37 172.16 L 151.98 170.06 L 147.94 178.10 L 147.04 178.48 L 143.68 176.56 L 141.72 167.77 L 140.04 168.05 L 139.59 172.40 L 135.50 170.57 L 133.60 165.76 L 131.47 166.65 L 129.90 165.01 L 128.50 167.25 L 129.56 168.24 L 128.44 178.43 L 129.56 179.97 L 129.22 185.40 L 127.21 185.87 L 125.64 191.24 L 123.00 189.09 L 121.77 193.96 L 119.47 199.75 L 120.48 198.91 L 120.65 204.71 L 119.70 206.95 L 117.79 215.18 L 116.62 214.95 L 117.96 220.33 L 118.24 217.20 L 120.09 223.09 L 117.90 224.12 L 117.90 220.52 L 117.12 225.10 L 116.11 223.55 L 117.12 220.52 L 114.60 222.20 L 113.87 220.05 L 109.89 219.67 L 112.24 228.09 L 115.83 236.88 L 116.39 241.04 L 114.60 242.35 L 115.27 246.70 L 116.45 248.01 L 115.61 253.39 L 113.81 253.25 L 114.54 249.18 L 112.36 245.39 L 112.69 241.84 L 112.13 237.02 L 110.73 238.19 L 110.56 233.14 L 107.15 226.17 L 107.26 228.46 L 106.02 231.83 L 108.49 236.65 L 108.55 240.11 L 109.89 242.45 L 110.23 249.41 L 107.99 249.79 L 109.72 256.80 L 107.65 258.91 L 107.54 256.52 L 105.80 251.80 L 106.36 249.74 L 104.46 248.01 L 106.36 244.78 L 105.07 240.44 L 104.62 236.37 L 103.05 237.68 L 103.45 235.06 L 101.88 237.30 L 101.99 234.78 L 100.08 231.64 L 99.36 228.60 L 102.10 225.24 L 98.35 225.24 L 97.90 226.45 L 99.52 236.09 L 97.39 240.20 L 97.28 245.39 L 95.32 245.95 L 97.45 248.85 L 99.41 248.99 L 99.13 251.00 L 100.20 255.07 L 99.58 260.17 L 98.24 261.99 L 95.43 263.07 L 96.39 264.33 L 95.15 266.39 L 93.02 266.06 L 91.29 268.16 L 89.55 266.57 L 89.10 268.96 L 85.80 272.42 L 81.82 271.02 L 80.14 272.00 L 79.69 265.03 L 86.97 261.43 L 89.10 259.51 L 85.52 254.51 L 82.10 259.00 L 80.36 258.81 L 78.40 261.29 L 76.61 261.76 L 75.54 265.17 L 72.85 263.39 L 72.46 266.48 L 68.20 269.47 L 66.63 265.59 L 66.80 261.48 L 65.06 262.97 L 64.44 260.87 L 66.24 260.36 L 67.13 257.69 L 64.95 260.17 L 61.53 260.73 L 62.82 258.16 L 58.28 255.68 L 56.54 256.85 L 58.39 260.03 L 58.67 262.32 L 57.27 264.00 L 59.85 268.73 L 60.80 268.59 L 60.35 272.84 L 61.42 274.90 L 62.60 272.98 L 63.55 275.13 L 61.76 275.37 L 61.53 278.31 L 60.19 279.85 L 61.31 283.92 L 59.23 284.67 L 56.88 283.41 L 55.03 284.11 L 54.47 287.20 L 51.89 285.37 L 50.49 287.10 L 50.66 283.92 L 49.54 281.77 L 46.51 283.13 L 48.08 288.74 L 45.95 290.47 L 43.04 288.36 L 41.13 289.86 L 39.79 286.92 L 39.51 289.25 L 38.44 284.25 L 37.77 288.04 L 34.86 286.73 L 33.51 288.88 L 31.21 288.08 L 30.32 285.79 L 27.29 285.00 L 25.83 286.07 L 27.01 288.32 L 24.94 289.91 L 24.71 292.06 L 22.86 288.22 L 20.57 288.51 L 17.93 287.01 L 16.36 284.72 L 18.61 285.61 L 21.35 283.31 L 22.14 279.62 L 23.71 279.85 L 24.88 277.70 L 22.92 276.11 L 23.59 269.43 L 21.24 267.46 L 20.96 258.02 Z M 7.06 273.40 L 8.74 274.76 L 8.18 278.26 L 7.06 273.40 Z M 9.86 269.19 L 11.21 269.47 L 10.37 272.65 L 9.86 269.19 Z M 11.38 275.93 L 12.83 275.51 L 11.77 271.91 L 13.39 272.93 L 14.68 278.12 L 12.55 278.36 L 11.38 275.93 Z M 13.73 273.31 L 16.64 274.94 L 15.97 277.38 L 14.63 276.58 L 13.73 273.31 Z M 15.97 260.73 L 18.10 258.63 L 19.84 260.45 L 19.84 260.45 L 18.44 262.79 L 15.97 260.73 Z M 62.88 278.45 L 64.73 279.53 L 64.05 280.88 L 62.88 278.45 Z M 70.38 271.58 L 73.02 267.88 L 74.31 267.84 L 75.15 270.78 L 73.75 271.58 L 73.75 273.78 L 70.38 271.58 Z M 81.26 285.98 L 83.11 285.70 L 84.06 287.24 L 81.26 285.98 Z M 81.82 259.75 L 84.11 257.46 L 86.36 256.89 L 86.30 259.89 L 84.84 262.04 L 83.72 259.79 L 81.82 259.75 Z M 97.34 245.77 L 98.80 244.22 L 98.01 247.17 L 97.34 245.77 Z M 115.27 62.98 L 116.95 64.61 L 118.91 68.45 L 118.86 71.07 L 115.27 62.98 Z M 118.80 213.13 L 119.64 208.78 L 120.76 209.11 L 119.81 214.16 L 118.80 213.13 Z M 120.93 219.25 L 121.72 213.08 L 123.56 208.36 L 126.37 209.95 L 127.60 216.68 L 127.21 220.42 L 125.36 221.17 L 125.02 217.15 L 123.51 217.05 L 122.61 220.75 L 122.33 217.10 L 120.93 219.25 Z M 121.15 197.65 L 122.05 196.76 L 122.95 199.80 L 121.94 201.30 L 121.15 197.65 Z M 121.32 67.33 L 121.66 66.11 L 124.85 67.89 L 125.25 71.63 L 123.34 70.46 L 121.32 67.33 Z M 123.00 231.88 L 124.46 231.83 L 123.23 233.94 L 123.00 231.88 Z M 124.07 227.11 L 126.65 224.72 L 127.32 228.98 L 126.48 232.35 L 125.58 228.79 L 124.29 229.35 L 124.07 227.11 Z M 124.12 203.87 L 125.30 201.67 L 125.47 206.30 L 124.12 203.87 Z M 125.92 201.25 L 127.43 195.54 L 126.87 192.55 L 131.30 183.48 L 130.79 182.31 L 131.58 174.97 L 130.79 172.40 L 132.47 169.17 L 135.84 171.65 L 139.31 173.33 L 139.54 177.07 L 140.94 178.52 L 140.10 181.66 L 141.22 181.28 L 143.12 186.61 L 145.81 187.36 L 146.04 190.12 L 145.20 195.97 L 147.83 199.80 L 141.78 210.41 L 139.93 210.51 L 138.86 208.36 L 132.92 206.63 L 132.59 204.66 L 130.96 206.11 L 130.35 210.98 L 128.38 210.18 L 128.94 207.05 L 127.43 207.98 L 125.92 201.25 Z M 126.14 75.88 L 128.22 76.26 L 133.54 81.96 L 132.70 82.38 L 126.14 75.88 Z M 128.94 212.94 L 131.35 212.19 L 131.47 209.43 L 134.83 208.59 L 135.95 210.70 L 139.98 213.13 L 142.67 212.52 L 143.12 217.57 L 140.21 217.90 L 138.13 216.35 L 136.79 223.46 L 139.54 223.84 L 140.77 221.78 L 141.16 225.75 L 138.19 227.72 L 137.80 229.21 L 137.74 237.49 L 135.67 236.37 L 136.34 238.94 L 138.64 242.31 L 139.20 248.10 L 136.51 250.82 L 135.39 253.43 L 134.38 251.61 L 133.43 252.87 L 132.59 249.09 L 132.42 243.43 L 133.82 243.90 L 133.32 239.45 L 134.94 241.46 L 135.22 239.22 L 133.65 238.38 L 131.69 234.08 L 130.46 237.49 L 129.90 234.03 L 130.74 227.34 L 129.73 220.52 L 131.47 218.78 L 129.67 218.78 L 128.94 212.94 Z M 138.36 232.77 L 139.70 232.21 L 139.76 227.58 L 141.38 233.19 L 139.98 235.48 L 140.88 240.72 L 138.75 240.25 L 138.36 232.77 Z M 139.31 241.42 L 141.16 241.32 L 141.83 244.55 L 142.90 238.94 L 142.62 236.32 L 144.41 237.54 L 144.75 248.52 L 140.49 249.88 L 139.31 241.42 Z M 141.78 179.97 L 143.46 179.60 L 146.93 183.01 L 146.20 187.22 L 142.11 182.78 L 141.78 179.97 Z M 141.89 223.09 L 143.96 219.02 L 144.52 221.68 L 143.35 224.82 L 141.89 223.09 Z M 142.67 253.25 L 144.24 253.81 L 142.84 255.21 L 142.67 253.25 Z M 142.79 234.45 L 143.23 232.35 L 144.91 233.33 L 144.91 235.71 L 142.79 234.45 Z M 143.18 229.45 L 143.85 226.50 L 144.52 230.80 L 143.18 229.45 Z M 143.91 209.20 L 144.47 206.81 L 147.04 206.58 L 145.76 212.29 L 143.91 209.20 Z M 144.86 180.49 L 145.20 178.85 L 149.12 181.00 L 148.78 183.11 L 144.86 180.49 Z M 145.36 100.15 L 147.38 97.82 L 147.32 100.85 L 145.36 100.15 Z M 145.87 240.95 L 147.83 241.23 L 148.89 246.93 L 147.16 248.52 L 145.87 240.95 Z M 145.92 195.59 L 147.55 191.06 L 149.45 193.67 L 148.45 197.79 L 145.98 196.95 L 145.92 195.59 Z M 145.98 227.86 L 147.04 226.22 L 148.45 229.73 L 147.77 230.71 L 145.98 227.86 Z M 146.04 204.24 L 148.33 200.97 L 147.66 204.90 L 146.04 204.24 Z M 147.60 99.50 L 148.50 97.35 L 150.80 96.69 L 150.52 99.97 L 149.51 101.60 L 147.60 99.50 Z M 149.01 233.75 L 150.80 232.16 L 150.97 237.02 L 149.01 233.75 Z M 150.35 212.14 L 151.86 212.47 L 151.25 215.28 L 150.35 212.14 Z M 151.14 204.90 L 152.14 202.42 L 153.04 203.40 L 151.70 206.53 L 151.14 204.90 Z M 151.53 235.01 L 152.59 233.61 L 152.20 238.28 L 151.53 235.01 Z M 151.92 196.20 L 153.26 191.38 L 154.67 193.39 L 153.54 197.04 L 151.92 196.20 Z M 152.14 207.70 L 153.88 209.01 L 152.93 210.65 L 152.14 207.70 Z M 153.71 176.42 L 155.73 177.36 L 155.06 178.71 L 153.71 176.42 Z M 154.16 197.98 L 156.07 194.66 L 157.08 197.84 L 156.57 200.22 L 155.34 197.51 L 154.16 197.98 Z M 155.51 185.87 L 156.91 186.99 L 157.02 189.84 L 155.51 185.87 Z M 157.08 125.12 L 158.25 122.27 L 161.73 121.85 L 162.17 127.13 L 161.22 129.85 L 157.08 125.12 Z M 158.03 248.95 L 158.87 245.35 L 160.21 249.41 L 159.37 251.70 L 158.03 248.95 Z M 159.15 200.69 L 160.33 201.30 L 160.49 203.82 L 159.15 200.69 Z M 159.76 189.47 L 161.45 187.69 L 161.67 191.24 L 159.76 189.47 Z M 161.95 190.78 L 163.02 188.62 L 163.97 190.49 L 165.20 189.23 L 167.33 191.57 L 166.43 193.02 L 161.95 190.78 Z M 163.13 197.18 L 164.08 197.13 L 163.97 201.39 L 163.13 197.18 Z M 166.66 193.39 L 168.11 192.60 L 169.96 196.62 L 168.73 197.37 L 166.66 193.39 Z" fill="#b7e4c7" stroke="white" stroke-width="1.5" stroke-linejoin="round" fill-rule="evenodd"/>
</svg>